%TF.GenerationSoftware,KiCad,Pcbnew,(5.1.8)-1*%
%TF.CreationDate,2021-07-20T10:02:20+02:00*%
%TF.ProjectId,FJElectricsPCBFront,464a456c-6563-4747-9269-637350434246,rev?*%
%TF.SameCoordinates,Original*%
%TF.FileFunction,Legend,Top*%
%TF.FilePolarity,Positive*%
%FSLAX46Y46*%
G04 Gerber Fmt 4.6, Leading zero omitted, Abs format (unit mm)*
G04 Created by KiCad (PCBNEW (5.1.8)-1) date 2021-07-20 10:02:20*
%MOMM*%
%LPD*%
G01*
G04 APERTURE LIST*
%ADD10C,1.000000*%
%ADD11C,0.150000*%
%ADD12C,0.120000*%
G04 APERTURE END LIST*
D10*
X140870238Y-140261904D02*
X141495238Y-135261904D01*
X143400000Y-135261904D01*
X143846428Y-135500000D01*
X144054761Y-135738095D01*
X144233333Y-136214285D01*
X144144047Y-136928571D01*
X143846428Y-137404761D01*
X143578571Y-137642857D01*
X143072619Y-137880952D01*
X141167857Y-137880952D01*
X147447619Y-135261904D02*
X148400000Y-135261904D01*
X148846428Y-135500000D01*
X149263095Y-135976190D01*
X149382142Y-136928571D01*
X149173809Y-138595238D01*
X148816666Y-139547619D01*
X148280952Y-140023809D01*
X147775000Y-140261904D01*
X146822619Y-140261904D01*
X146376190Y-140023809D01*
X145959523Y-139547619D01*
X145840476Y-138595238D01*
X146048809Y-136928571D01*
X146405952Y-135976190D01*
X146941666Y-135500000D01*
X147447619Y-135261904D01*
X151257142Y-135261904D02*
X151822619Y-140261904D01*
X153221428Y-136690476D01*
X153727380Y-140261904D01*
X155542857Y-135261904D01*
X157150000Y-137642857D02*
X158816666Y-137642857D01*
X159203571Y-140261904D02*
X156822619Y-140261904D01*
X157447619Y-135261904D01*
X159828571Y-135261904D01*
X164203571Y-140261904D02*
X162834523Y-137880952D01*
X161346428Y-140261904D02*
X161971428Y-135261904D01*
X163876190Y-135261904D01*
X164322619Y-135500000D01*
X164530952Y-135738095D01*
X164709523Y-136214285D01*
X164620238Y-136928571D01*
X164322619Y-137404761D01*
X164054761Y-137642857D01*
X163548809Y-137880952D01*
X161644047Y-137880952D01*
X170155952Y-140261904D02*
X170780952Y-135261904D01*
X171971428Y-135261904D01*
X172655952Y-135500000D01*
X173072619Y-135976190D01*
X173251190Y-136452380D01*
X173370238Y-137404761D01*
X173280952Y-138119047D01*
X172923809Y-139071428D01*
X172626190Y-139547619D01*
X172090476Y-140023809D01*
X171346428Y-140261904D01*
X170155952Y-140261904D01*
X175483333Y-137642857D02*
X177150000Y-137642857D01*
X177536904Y-140261904D02*
X175155952Y-140261904D01*
X175780952Y-135261904D01*
X178161904Y-135261904D01*
X179679761Y-140261904D02*
X180304761Y-135261904D01*
X182209523Y-135261904D01*
X182655952Y-135500000D01*
X182864285Y-135738095D01*
X183042857Y-136214285D01*
X182953571Y-136928571D01*
X182655952Y-137404761D01*
X182388095Y-137642857D01*
X181882142Y-137880952D01*
X179977380Y-137880952D01*
X186257142Y-135261904D02*
X187209523Y-135261904D01*
X187655952Y-135500000D01*
X188072619Y-135976190D01*
X188191666Y-136928571D01*
X187983333Y-138595238D01*
X187626190Y-139547619D01*
X187090476Y-140023809D01*
X186584523Y-140261904D01*
X185632142Y-140261904D01*
X185185714Y-140023809D01*
X184769047Y-139547619D01*
X184650000Y-138595238D01*
X184858333Y-136928571D01*
X185215476Y-135976190D01*
X185751190Y-135500000D01*
X186257142Y-135261904D01*
X189828571Y-135261904D02*
X192685714Y-135261904D01*
X190632142Y-140261904D02*
X191257142Y-135261904D01*
D11*
X83547619Y-116526071D02*
X83547619Y-116716547D01*
X83500000Y-116811785D01*
X83404761Y-116907023D01*
X83214285Y-116954642D01*
X82880952Y-116954642D01*
X82690476Y-116907023D01*
X82595238Y-116811785D01*
X82547619Y-116716547D01*
X82547619Y-116526071D01*
X82595238Y-116430833D01*
X82690476Y-116335595D01*
X82880952Y-116287976D01*
X83214285Y-116287976D01*
X83404761Y-116335595D01*
X83500000Y-116430833D01*
X83547619Y-116526071D01*
X83547619Y-117383214D02*
X82738095Y-117383214D01*
X82642857Y-117430833D01*
X82595238Y-117478452D01*
X82547619Y-117573690D01*
X82547619Y-117764166D01*
X82595238Y-117859404D01*
X82642857Y-117907023D01*
X82738095Y-117954642D01*
X83547619Y-117954642D01*
X83547619Y-118287976D02*
X83547619Y-118859404D01*
X82547619Y-118573690D02*
X83547619Y-118573690D01*
X83452380Y-119907023D02*
X83500000Y-119954642D01*
X83547619Y-120049880D01*
X83547619Y-120287976D01*
X83500000Y-120383214D01*
X83452380Y-120430833D01*
X83357142Y-120478452D01*
X83261904Y-120478452D01*
X83119047Y-120430833D01*
X82547619Y-119859404D01*
X82547619Y-120478452D01*
X82928571Y-121668928D02*
X82928571Y-122430833D01*
X82547619Y-122049880D02*
X83309523Y-122049880D01*
X197016667Y-116287976D02*
X196969048Y-116430833D01*
X196969048Y-116668928D01*
X197016667Y-116764166D01*
X197064286Y-116811785D01*
X197159524Y-116859404D01*
X197254762Y-116859404D01*
X197350000Y-116811785D01*
X197397619Y-116764166D01*
X197445238Y-116668928D01*
X197492857Y-116478452D01*
X197540476Y-116383214D01*
X197588095Y-116335595D01*
X197683333Y-116287976D01*
X197778571Y-116287976D01*
X197873809Y-116335595D01*
X197921429Y-116383214D01*
X197969048Y-116478452D01*
X197969048Y-116716547D01*
X197921429Y-116859404D01*
X197969048Y-117192738D02*
X196969048Y-117430833D01*
X197683333Y-117621309D01*
X196969048Y-117811785D01*
X197969048Y-118049880D01*
X197969048Y-119383214D02*
X197969048Y-119573690D01*
X197921429Y-119668928D01*
X197826190Y-119764166D01*
X197635714Y-119811785D01*
X197302381Y-119811785D01*
X197111905Y-119764166D01*
X197016667Y-119668928D01*
X196969048Y-119573690D01*
X196969048Y-119383214D01*
X197016667Y-119287976D01*
X197111905Y-119192738D01*
X197302381Y-119145119D01*
X197635714Y-119145119D01*
X197826190Y-119192738D01*
X197921429Y-119287976D01*
X197969048Y-119383214D01*
X197969048Y-120240357D02*
X197159524Y-120240357D01*
X197064286Y-120287976D01*
X197016667Y-120335595D01*
X196969048Y-120430833D01*
X196969048Y-120621309D01*
X197016667Y-120716547D01*
X197064286Y-120764166D01*
X197159524Y-120811785D01*
X197969048Y-120811785D01*
X197969048Y-121145119D02*
X197969048Y-121716547D01*
X196969048Y-121430833D02*
X197969048Y-121430833D01*
X197969048Y-123287976D02*
X197969048Y-122811785D01*
X197492857Y-122764166D01*
X197540476Y-122811785D01*
X197588095Y-122907023D01*
X197588095Y-123145119D01*
X197540476Y-123240357D01*
X197492857Y-123287976D01*
X197397619Y-123335595D01*
X197159524Y-123335595D01*
X197064286Y-123287976D01*
X197016667Y-123240357D01*
X196969048Y-123145119D01*
X196969048Y-122907023D01*
X197016667Y-122811785D01*
X197064286Y-122764166D01*
X197350000Y-124526071D02*
X197350000Y-125287976D01*
X212547619Y-116526071D02*
X212547619Y-116716547D01*
X212500000Y-116811785D01*
X212404761Y-116907023D01*
X212214285Y-116954642D01*
X211880952Y-116954642D01*
X211690476Y-116907023D01*
X211595238Y-116811785D01*
X211547619Y-116716547D01*
X211547619Y-116526071D01*
X211595238Y-116430833D01*
X211690476Y-116335595D01*
X211880952Y-116287976D01*
X212214285Y-116287976D01*
X212404761Y-116335595D01*
X212500000Y-116430833D01*
X212547619Y-116526071D01*
X212547619Y-117383214D02*
X211738095Y-117383214D01*
X211642857Y-117430833D01*
X211595238Y-117478452D01*
X211547619Y-117573690D01*
X211547619Y-117764166D01*
X211595238Y-117859404D01*
X211642857Y-117907023D01*
X211738095Y-117954642D01*
X212547619Y-117954642D01*
X212547619Y-118287976D02*
X212547619Y-118859404D01*
X211547619Y-118573690D02*
X212547619Y-118573690D01*
X212547619Y-120430833D02*
X212547619Y-119954642D01*
X212071428Y-119907023D01*
X212119047Y-119954642D01*
X212166666Y-120049880D01*
X212166666Y-120287976D01*
X212119047Y-120383214D01*
X212071428Y-120430833D01*
X211976190Y-120478452D01*
X211738095Y-120478452D01*
X211642857Y-120430833D01*
X211595238Y-120383214D01*
X211547619Y-120287976D01*
X211547619Y-120049880D01*
X211595238Y-119954642D01*
X211642857Y-119907023D01*
X211928571Y-121668928D02*
X211928571Y-122430833D01*
X27595238Y-116287976D02*
X27547619Y-116430833D01*
X27547619Y-116668928D01*
X27595238Y-116764166D01*
X27642857Y-116811785D01*
X27738095Y-116859404D01*
X27833333Y-116859404D01*
X27928571Y-116811785D01*
X27976190Y-116764166D01*
X28023809Y-116668928D01*
X28071428Y-116478452D01*
X28119047Y-116383214D01*
X28166666Y-116335595D01*
X28261904Y-116287976D01*
X28357142Y-116287976D01*
X28452380Y-116335595D01*
X28500000Y-116383214D01*
X28547619Y-116478452D01*
X28547619Y-116716547D01*
X28500000Y-116859404D01*
X28547619Y-117192738D02*
X27547619Y-117430833D01*
X28261904Y-117621309D01*
X27547619Y-117811785D01*
X28547619Y-118049880D01*
X28547619Y-119383214D02*
X28547619Y-119573690D01*
X28500000Y-119668928D01*
X28404761Y-119764166D01*
X28214285Y-119811785D01*
X27880952Y-119811785D01*
X27690476Y-119764166D01*
X27595238Y-119668928D01*
X27547619Y-119573690D01*
X27547619Y-119383214D01*
X27595238Y-119287976D01*
X27690476Y-119192738D01*
X27880952Y-119145119D01*
X28214285Y-119145119D01*
X28404761Y-119192738D01*
X28500000Y-119287976D01*
X28547619Y-119383214D01*
X28547619Y-120240357D02*
X27738095Y-120240357D01*
X27642857Y-120287976D01*
X27595238Y-120335595D01*
X27547619Y-120430833D01*
X27547619Y-120621309D01*
X27595238Y-120716547D01*
X27642857Y-120764166D01*
X27738095Y-120811785D01*
X28547619Y-120811785D01*
X28547619Y-121145119D02*
X28547619Y-121716547D01*
X27547619Y-121430833D02*
X28547619Y-121430833D01*
X27547619Y-123335595D02*
X27547619Y-122764166D01*
X27547619Y-123049880D02*
X28547619Y-123049880D01*
X28404761Y-122954642D01*
X28309523Y-122859404D01*
X28261904Y-122764166D01*
X27928571Y-124526071D02*
X27928571Y-125287976D01*
X27547619Y-124907023D02*
X28309523Y-124907023D01*
X68016667Y-116287976D02*
X67969048Y-116430833D01*
X67969048Y-116668928D01*
X68016667Y-116764166D01*
X68064286Y-116811785D01*
X68159524Y-116859404D01*
X68254762Y-116859404D01*
X68350000Y-116811785D01*
X68397619Y-116764166D01*
X68445238Y-116668928D01*
X68492857Y-116478452D01*
X68540476Y-116383214D01*
X68588095Y-116335595D01*
X68683333Y-116287976D01*
X68778571Y-116287976D01*
X68873809Y-116335595D01*
X68921429Y-116383214D01*
X68969048Y-116478452D01*
X68969048Y-116716547D01*
X68921429Y-116859404D01*
X68969048Y-117192738D02*
X67969048Y-117430833D01*
X68683333Y-117621309D01*
X67969048Y-117811785D01*
X68969048Y-118049880D01*
X68969048Y-119383214D02*
X68969048Y-119573690D01*
X68921429Y-119668928D01*
X68826190Y-119764166D01*
X68635714Y-119811785D01*
X68302381Y-119811785D01*
X68111905Y-119764166D01*
X68016667Y-119668928D01*
X67969048Y-119573690D01*
X67969048Y-119383214D01*
X68016667Y-119287976D01*
X68111905Y-119192738D01*
X68302381Y-119145119D01*
X68635714Y-119145119D01*
X68826190Y-119192738D01*
X68921429Y-119287976D01*
X68969048Y-119383214D01*
X68969048Y-120240357D02*
X68159524Y-120240357D01*
X68064286Y-120287976D01*
X68016667Y-120335595D01*
X67969048Y-120430833D01*
X67969048Y-120621309D01*
X68016667Y-120716547D01*
X68064286Y-120764166D01*
X68159524Y-120811785D01*
X68969048Y-120811785D01*
X68969048Y-121145119D02*
X68969048Y-121716547D01*
X67969048Y-121430833D02*
X68969048Y-121430833D01*
X68873809Y-122764166D02*
X68921429Y-122811785D01*
X68969048Y-122907023D01*
X68969048Y-123145119D01*
X68921429Y-123240357D01*
X68873809Y-123287976D01*
X68778571Y-123335595D01*
X68683333Y-123335595D01*
X68540476Y-123287976D01*
X67969048Y-122716547D01*
X67969048Y-123335595D01*
X68350000Y-124526071D02*
X68350000Y-125287976D01*
X67969048Y-124907023D02*
X68730952Y-124907023D01*
X131547619Y-116526071D02*
X131547619Y-116716547D01*
X131500000Y-116811785D01*
X131404761Y-116907023D01*
X131214285Y-116954642D01*
X130880952Y-116954642D01*
X130690476Y-116907023D01*
X130595238Y-116811785D01*
X130547619Y-116716547D01*
X130547619Y-116526071D01*
X130595238Y-116430833D01*
X130690476Y-116335595D01*
X130880952Y-116287976D01*
X131214285Y-116287976D01*
X131404761Y-116335595D01*
X131500000Y-116430833D01*
X131547619Y-116526071D01*
X131547619Y-117383214D02*
X130738095Y-117383214D01*
X130642857Y-117430833D01*
X130595238Y-117478452D01*
X130547619Y-117573690D01*
X130547619Y-117764166D01*
X130595238Y-117859404D01*
X130642857Y-117907023D01*
X130738095Y-117954642D01*
X131547619Y-117954642D01*
X131547619Y-118287976D02*
X131547619Y-118859404D01*
X130547619Y-118573690D02*
X131547619Y-118573690D01*
X131547619Y-119859404D02*
X131547619Y-120478452D01*
X131166666Y-120145119D01*
X131166666Y-120287976D01*
X131119047Y-120383214D01*
X131071428Y-120430833D01*
X130976190Y-120478452D01*
X130738095Y-120478452D01*
X130642857Y-120430833D01*
X130595238Y-120383214D01*
X130547619Y-120287976D01*
X130547619Y-120002261D01*
X130595238Y-119907023D01*
X130642857Y-119859404D01*
X130928571Y-121668928D02*
X130928571Y-122430833D01*
X108016667Y-116287976D02*
X107969048Y-116430833D01*
X107969048Y-116668928D01*
X108016667Y-116764166D01*
X108064286Y-116811785D01*
X108159524Y-116859404D01*
X108254762Y-116859404D01*
X108350000Y-116811785D01*
X108397619Y-116764166D01*
X108445238Y-116668928D01*
X108492857Y-116478452D01*
X108540476Y-116383214D01*
X108588095Y-116335595D01*
X108683333Y-116287976D01*
X108778571Y-116287976D01*
X108873809Y-116335595D01*
X108921429Y-116383214D01*
X108969048Y-116478452D01*
X108969048Y-116716547D01*
X108921429Y-116859404D01*
X108969048Y-117192738D02*
X107969048Y-117430833D01*
X108683333Y-117621309D01*
X107969048Y-117811785D01*
X108969048Y-118049880D01*
X108969048Y-119383214D02*
X108969048Y-119573690D01*
X108921429Y-119668928D01*
X108826190Y-119764166D01*
X108635714Y-119811785D01*
X108302381Y-119811785D01*
X108111905Y-119764166D01*
X108016667Y-119668928D01*
X107969048Y-119573690D01*
X107969048Y-119383214D01*
X108016667Y-119287976D01*
X108111905Y-119192738D01*
X108302381Y-119145119D01*
X108635714Y-119145119D01*
X108826190Y-119192738D01*
X108921429Y-119287976D01*
X108969048Y-119383214D01*
X108969048Y-120240357D02*
X108159524Y-120240357D01*
X108064286Y-120287976D01*
X108016667Y-120335595D01*
X107969048Y-120430833D01*
X107969048Y-120621309D01*
X108016667Y-120716547D01*
X108064286Y-120764166D01*
X108159524Y-120811785D01*
X108969048Y-120811785D01*
X108969048Y-121145119D02*
X108969048Y-121716547D01*
X107969048Y-121430833D02*
X108969048Y-121430833D01*
X108969048Y-122716547D02*
X108969048Y-123335595D01*
X108588095Y-123002261D01*
X108588095Y-123145119D01*
X108540476Y-123240357D01*
X108492857Y-123287976D01*
X108397619Y-123335595D01*
X108159524Y-123335595D01*
X108064286Y-123287976D01*
X108016667Y-123240357D01*
X107969048Y-123145119D01*
X107969048Y-122859404D01*
X108016667Y-122764166D01*
X108064286Y-122716547D01*
X108350000Y-124526071D02*
X108350000Y-125287976D01*
X107969048Y-124907023D02*
X108730952Y-124907023D01*
X124547619Y-116526071D02*
X124547619Y-116716547D01*
X124500000Y-116811785D01*
X124404761Y-116907023D01*
X124214285Y-116954642D01*
X123880952Y-116954642D01*
X123690476Y-116907023D01*
X123595238Y-116811785D01*
X123547619Y-116716547D01*
X123547619Y-116526071D01*
X123595238Y-116430833D01*
X123690476Y-116335595D01*
X123880952Y-116287976D01*
X124214285Y-116287976D01*
X124404761Y-116335595D01*
X124500000Y-116430833D01*
X124547619Y-116526071D01*
X124547619Y-117383214D02*
X123738095Y-117383214D01*
X123642857Y-117430833D01*
X123595238Y-117478452D01*
X123547619Y-117573690D01*
X123547619Y-117764166D01*
X123595238Y-117859404D01*
X123642857Y-117907023D01*
X123738095Y-117954642D01*
X124547619Y-117954642D01*
X124547619Y-118287976D02*
X124547619Y-118859404D01*
X123547619Y-118573690D02*
X124547619Y-118573690D01*
X124547619Y-119859404D02*
X124547619Y-120478452D01*
X124166666Y-120145119D01*
X124166666Y-120287976D01*
X124119047Y-120383214D01*
X124071428Y-120430833D01*
X123976190Y-120478452D01*
X123738095Y-120478452D01*
X123642857Y-120430833D01*
X123595238Y-120383214D01*
X123547619Y-120287976D01*
X123547619Y-120002261D01*
X123595238Y-119907023D01*
X123642857Y-119859404D01*
X123928571Y-121668928D02*
X123928571Y-122430833D01*
X123547619Y-122049880D02*
X124309523Y-122049880D01*
X156016667Y-116287976D02*
X155969048Y-116430833D01*
X155969048Y-116668928D01*
X156016667Y-116764166D01*
X156064286Y-116811785D01*
X156159524Y-116859404D01*
X156254762Y-116859404D01*
X156350000Y-116811785D01*
X156397619Y-116764166D01*
X156445238Y-116668928D01*
X156492857Y-116478452D01*
X156540476Y-116383214D01*
X156588095Y-116335595D01*
X156683333Y-116287976D01*
X156778571Y-116287976D01*
X156873809Y-116335595D01*
X156921429Y-116383214D01*
X156969048Y-116478452D01*
X156969048Y-116716547D01*
X156921429Y-116859404D01*
X156969048Y-117192738D02*
X155969048Y-117430833D01*
X156683333Y-117621309D01*
X155969048Y-117811785D01*
X156969048Y-118049880D01*
X156969048Y-119383214D02*
X156969048Y-119573690D01*
X156921429Y-119668928D01*
X156826190Y-119764166D01*
X156635714Y-119811785D01*
X156302381Y-119811785D01*
X156111905Y-119764166D01*
X156016667Y-119668928D01*
X155969048Y-119573690D01*
X155969048Y-119383214D01*
X156016667Y-119287976D01*
X156111905Y-119192738D01*
X156302381Y-119145119D01*
X156635714Y-119145119D01*
X156826190Y-119192738D01*
X156921429Y-119287976D01*
X156969048Y-119383214D01*
X156969048Y-120240357D02*
X156159524Y-120240357D01*
X156064286Y-120287976D01*
X156016667Y-120335595D01*
X155969048Y-120430833D01*
X155969048Y-120621309D01*
X156016667Y-120716547D01*
X156064286Y-120764166D01*
X156159524Y-120811785D01*
X156969048Y-120811785D01*
X156969048Y-121145119D02*
X156969048Y-121716547D01*
X155969048Y-121430833D02*
X156969048Y-121430833D01*
X156635714Y-123240357D02*
X155969048Y-123240357D01*
X157016667Y-123002261D02*
X156302381Y-122764166D01*
X156302381Y-123383214D01*
X156350000Y-124526071D02*
X156350000Y-125287976D01*
X42547619Y-116526071D02*
X42547619Y-116716547D01*
X42500000Y-116811785D01*
X42404761Y-116907023D01*
X42214285Y-116954642D01*
X41880952Y-116954642D01*
X41690476Y-116907023D01*
X41595238Y-116811785D01*
X41547619Y-116716547D01*
X41547619Y-116526071D01*
X41595238Y-116430833D01*
X41690476Y-116335595D01*
X41880952Y-116287976D01*
X42214285Y-116287976D01*
X42404761Y-116335595D01*
X42500000Y-116430833D01*
X42547619Y-116526071D01*
X42547619Y-117383214D02*
X41738095Y-117383214D01*
X41642857Y-117430833D01*
X41595238Y-117478452D01*
X41547619Y-117573690D01*
X41547619Y-117764166D01*
X41595238Y-117859404D01*
X41642857Y-117907023D01*
X41738095Y-117954642D01*
X42547619Y-117954642D01*
X42547619Y-118287976D02*
X42547619Y-118859404D01*
X41547619Y-118573690D02*
X42547619Y-118573690D01*
X41547619Y-120478452D02*
X41547619Y-119907023D01*
X41547619Y-120192738D02*
X42547619Y-120192738D01*
X42404761Y-120097500D01*
X42309523Y-120002261D01*
X42261904Y-119907023D01*
X41928571Y-121668928D02*
X41928571Y-122430833D01*
X41547619Y-122049880D02*
X42309523Y-122049880D01*
X50547619Y-116526071D02*
X50547619Y-116716547D01*
X50500000Y-116811785D01*
X50404761Y-116907023D01*
X50214285Y-116954642D01*
X49880952Y-116954642D01*
X49690476Y-116907023D01*
X49595238Y-116811785D01*
X49547619Y-116716547D01*
X49547619Y-116526071D01*
X49595238Y-116430833D01*
X49690476Y-116335595D01*
X49880952Y-116287976D01*
X50214285Y-116287976D01*
X50404761Y-116335595D01*
X50500000Y-116430833D01*
X50547619Y-116526071D01*
X50547619Y-117383214D02*
X49738095Y-117383214D01*
X49642857Y-117430833D01*
X49595238Y-117478452D01*
X49547619Y-117573690D01*
X49547619Y-117764166D01*
X49595238Y-117859404D01*
X49642857Y-117907023D01*
X49738095Y-117954642D01*
X50547619Y-117954642D01*
X50547619Y-118287976D02*
X50547619Y-118859404D01*
X49547619Y-118573690D02*
X50547619Y-118573690D01*
X49547619Y-120478452D02*
X49547619Y-119907023D01*
X49547619Y-120192738D02*
X50547619Y-120192738D01*
X50404761Y-120097500D01*
X50309523Y-120002261D01*
X50261904Y-119907023D01*
X49928571Y-121668928D02*
X49928571Y-122430833D01*
X34016667Y-116287976D02*
X33969048Y-116430833D01*
X33969048Y-116668928D01*
X34016667Y-116764166D01*
X34064286Y-116811785D01*
X34159524Y-116859404D01*
X34254762Y-116859404D01*
X34350000Y-116811785D01*
X34397619Y-116764166D01*
X34445238Y-116668928D01*
X34492857Y-116478452D01*
X34540476Y-116383214D01*
X34588095Y-116335595D01*
X34683333Y-116287976D01*
X34778571Y-116287976D01*
X34873809Y-116335595D01*
X34921429Y-116383214D01*
X34969048Y-116478452D01*
X34969048Y-116716547D01*
X34921429Y-116859404D01*
X34969048Y-117192738D02*
X33969048Y-117430833D01*
X34683333Y-117621309D01*
X33969048Y-117811785D01*
X34969048Y-118049880D01*
X34969048Y-119383214D02*
X34969048Y-119573690D01*
X34921429Y-119668928D01*
X34826190Y-119764166D01*
X34635714Y-119811785D01*
X34302381Y-119811785D01*
X34111905Y-119764166D01*
X34016667Y-119668928D01*
X33969048Y-119573690D01*
X33969048Y-119383214D01*
X34016667Y-119287976D01*
X34111905Y-119192738D01*
X34302381Y-119145119D01*
X34635714Y-119145119D01*
X34826190Y-119192738D01*
X34921429Y-119287976D01*
X34969048Y-119383214D01*
X34969048Y-120240357D02*
X34159524Y-120240357D01*
X34064286Y-120287976D01*
X34016667Y-120335595D01*
X33969048Y-120430833D01*
X33969048Y-120621309D01*
X34016667Y-120716547D01*
X34064286Y-120764166D01*
X34159524Y-120811785D01*
X34969048Y-120811785D01*
X34969048Y-121145119D02*
X34969048Y-121716547D01*
X33969048Y-121430833D02*
X34969048Y-121430833D01*
X33969048Y-123335595D02*
X33969048Y-122764166D01*
X33969048Y-123049880D02*
X34969048Y-123049880D01*
X34826190Y-122954642D01*
X34730952Y-122859404D01*
X34683333Y-122764166D01*
X34350000Y-124526071D02*
X34350000Y-125287976D01*
X75016667Y-116287976D02*
X74969048Y-116430833D01*
X74969048Y-116668928D01*
X75016667Y-116764166D01*
X75064286Y-116811785D01*
X75159524Y-116859404D01*
X75254762Y-116859404D01*
X75350000Y-116811785D01*
X75397619Y-116764166D01*
X75445238Y-116668928D01*
X75492857Y-116478452D01*
X75540476Y-116383214D01*
X75588095Y-116335595D01*
X75683333Y-116287976D01*
X75778571Y-116287976D01*
X75873809Y-116335595D01*
X75921429Y-116383214D01*
X75969048Y-116478452D01*
X75969048Y-116716547D01*
X75921429Y-116859404D01*
X75969048Y-117192738D02*
X74969048Y-117430833D01*
X75683333Y-117621309D01*
X74969048Y-117811785D01*
X75969048Y-118049880D01*
X75969048Y-119383214D02*
X75969048Y-119573690D01*
X75921429Y-119668928D01*
X75826190Y-119764166D01*
X75635714Y-119811785D01*
X75302381Y-119811785D01*
X75111905Y-119764166D01*
X75016667Y-119668928D01*
X74969048Y-119573690D01*
X74969048Y-119383214D01*
X75016667Y-119287976D01*
X75111905Y-119192738D01*
X75302381Y-119145119D01*
X75635714Y-119145119D01*
X75826190Y-119192738D01*
X75921429Y-119287976D01*
X75969048Y-119383214D01*
X75969048Y-120240357D02*
X75159524Y-120240357D01*
X75064286Y-120287976D01*
X75016667Y-120335595D01*
X74969048Y-120430833D01*
X74969048Y-120621309D01*
X75016667Y-120716547D01*
X75064286Y-120764166D01*
X75159524Y-120811785D01*
X75969048Y-120811785D01*
X75969048Y-121145119D02*
X75969048Y-121716547D01*
X74969048Y-121430833D02*
X75969048Y-121430833D01*
X75873809Y-122764166D02*
X75921429Y-122811785D01*
X75969048Y-122907023D01*
X75969048Y-123145119D01*
X75921429Y-123240357D01*
X75873809Y-123287976D01*
X75778571Y-123335595D01*
X75683333Y-123335595D01*
X75540476Y-123287976D01*
X74969048Y-122716547D01*
X74969048Y-123335595D01*
X75350000Y-124526071D02*
X75350000Y-125287976D01*
X149016667Y-116287976D02*
X148969048Y-116430833D01*
X148969048Y-116668928D01*
X149016667Y-116764166D01*
X149064286Y-116811785D01*
X149159524Y-116859404D01*
X149254762Y-116859404D01*
X149350000Y-116811785D01*
X149397619Y-116764166D01*
X149445238Y-116668928D01*
X149492857Y-116478452D01*
X149540476Y-116383214D01*
X149588095Y-116335595D01*
X149683333Y-116287976D01*
X149778571Y-116287976D01*
X149873809Y-116335595D01*
X149921429Y-116383214D01*
X149969048Y-116478452D01*
X149969048Y-116716547D01*
X149921429Y-116859404D01*
X149969048Y-117192738D02*
X148969048Y-117430833D01*
X149683333Y-117621309D01*
X148969048Y-117811785D01*
X149969048Y-118049880D01*
X149969048Y-119383214D02*
X149969048Y-119573690D01*
X149921429Y-119668928D01*
X149826190Y-119764166D01*
X149635714Y-119811785D01*
X149302381Y-119811785D01*
X149111905Y-119764166D01*
X149016667Y-119668928D01*
X148969048Y-119573690D01*
X148969048Y-119383214D01*
X149016667Y-119287976D01*
X149111905Y-119192738D01*
X149302381Y-119145119D01*
X149635714Y-119145119D01*
X149826190Y-119192738D01*
X149921429Y-119287976D01*
X149969048Y-119383214D01*
X149969048Y-120240357D02*
X149159524Y-120240357D01*
X149064286Y-120287976D01*
X149016667Y-120335595D01*
X148969048Y-120430833D01*
X148969048Y-120621309D01*
X149016667Y-120716547D01*
X149064286Y-120764166D01*
X149159524Y-120811785D01*
X149969048Y-120811785D01*
X149969048Y-121145119D02*
X149969048Y-121716547D01*
X148969048Y-121430833D02*
X149969048Y-121430833D01*
X149635714Y-123240357D02*
X148969048Y-123240357D01*
X150016667Y-123002261D02*
X149302381Y-122764166D01*
X149302381Y-123383214D01*
X149350000Y-124526071D02*
X149350000Y-125287976D01*
X148969048Y-124907023D02*
X149730952Y-124907023D01*
X189595238Y-116287976D02*
X189547619Y-116430833D01*
X189547619Y-116668928D01*
X189595238Y-116764166D01*
X189642857Y-116811785D01*
X189738095Y-116859404D01*
X189833333Y-116859404D01*
X189928571Y-116811785D01*
X189976190Y-116764166D01*
X190023809Y-116668928D01*
X190071428Y-116478452D01*
X190119047Y-116383214D01*
X190166666Y-116335595D01*
X190261904Y-116287976D01*
X190357142Y-116287976D01*
X190452380Y-116335595D01*
X190500000Y-116383214D01*
X190547619Y-116478452D01*
X190547619Y-116716547D01*
X190500000Y-116859404D01*
X190547619Y-117192738D02*
X189547619Y-117430833D01*
X190261904Y-117621309D01*
X189547619Y-117811785D01*
X190547619Y-118049880D01*
X190547619Y-119383214D02*
X190547619Y-119573690D01*
X190500000Y-119668928D01*
X190404761Y-119764166D01*
X190214285Y-119811785D01*
X189880952Y-119811785D01*
X189690476Y-119764166D01*
X189595238Y-119668928D01*
X189547619Y-119573690D01*
X189547619Y-119383214D01*
X189595238Y-119287976D01*
X189690476Y-119192738D01*
X189880952Y-119145119D01*
X190214285Y-119145119D01*
X190404761Y-119192738D01*
X190500000Y-119287976D01*
X190547619Y-119383214D01*
X190547619Y-120240357D02*
X189738095Y-120240357D01*
X189642857Y-120287976D01*
X189595238Y-120335595D01*
X189547619Y-120430833D01*
X189547619Y-120621309D01*
X189595238Y-120716547D01*
X189642857Y-120764166D01*
X189738095Y-120811785D01*
X190547619Y-120811785D01*
X190547619Y-121145119D02*
X190547619Y-121716547D01*
X189547619Y-121430833D02*
X190547619Y-121430833D01*
X190547619Y-123287976D02*
X190547619Y-122811785D01*
X190071428Y-122764166D01*
X190119047Y-122811785D01*
X190166666Y-122907023D01*
X190166666Y-123145119D01*
X190119047Y-123240357D01*
X190071428Y-123287976D01*
X189976190Y-123335595D01*
X189738095Y-123335595D01*
X189642857Y-123287976D01*
X189595238Y-123240357D01*
X189547619Y-123145119D01*
X189547619Y-122907023D01*
X189595238Y-122811785D01*
X189642857Y-122764166D01*
X189928571Y-124526071D02*
X189928571Y-125287976D01*
X189547619Y-124907023D02*
X190309523Y-124907023D01*
X172547619Y-116526071D02*
X172547619Y-116716547D01*
X172500000Y-116811785D01*
X172404761Y-116907023D01*
X172214285Y-116954642D01*
X171880952Y-116954642D01*
X171690476Y-116907023D01*
X171595238Y-116811785D01*
X171547619Y-116716547D01*
X171547619Y-116526071D01*
X171595238Y-116430833D01*
X171690476Y-116335595D01*
X171880952Y-116287976D01*
X172214285Y-116287976D01*
X172404761Y-116335595D01*
X172500000Y-116430833D01*
X172547619Y-116526071D01*
X172547619Y-117383214D02*
X171738095Y-117383214D01*
X171642857Y-117430833D01*
X171595238Y-117478452D01*
X171547619Y-117573690D01*
X171547619Y-117764166D01*
X171595238Y-117859404D01*
X171642857Y-117907023D01*
X171738095Y-117954642D01*
X172547619Y-117954642D01*
X172547619Y-118287976D02*
X172547619Y-118859404D01*
X171547619Y-118573690D02*
X172547619Y-118573690D01*
X172214285Y-120383214D02*
X171547619Y-120383214D01*
X172595238Y-120145119D02*
X171880952Y-119907023D01*
X171880952Y-120526071D01*
X171928571Y-121668928D02*
X171928571Y-122430833D01*
X90547619Y-116526071D02*
X90547619Y-116716547D01*
X90500000Y-116811785D01*
X90404761Y-116907023D01*
X90214285Y-116954642D01*
X89880952Y-116954642D01*
X89690476Y-116907023D01*
X89595238Y-116811785D01*
X89547619Y-116716547D01*
X89547619Y-116526071D01*
X89595238Y-116430833D01*
X89690476Y-116335595D01*
X89880952Y-116287976D01*
X90214285Y-116287976D01*
X90404761Y-116335595D01*
X90500000Y-116430833D01*
X90547619Y-116526071D01*
X90547619Y-117383214D02*
X89738095Y-117383214D01*
X89642857Y-117430833D01*
X89595238Y-117478452D01*
X89547619Y-117573690D01*
X89547619Y-117764166D01*
X89595238Y-117859404D01*
X89642857Y-117907023D01*
X89738095Y-117954642D01*
X90547619Y-117954642D01*
X90547619Y-118287976D02*
X90547619Y-118859404D01*
X89547619Y-118573690D02*
X90547619Y-118573690D01*
X90452380Y-119907023D02*
X90500000Y-119954642D01*
X90547619Y-120049880D01*
X90547619Y-120287976D01*
X90500000Y-120383214D01*
X90452380Y-120430833D01*
X90357142Y-120478452D01*
X90261904Y-120478452D01*
X90119047Y-120430833D01*
X89547619Y-119859404D01*
X89547619Y-120478452D01*
X89928571Y-121668928D02*
X89928571Y-122430833D01*
X164547619Y-116526071D02*
X164547619Y-116716547D01*
X164500000Y-116811785D01*
X164404761Y-116907023D01*
X164214285Y-116954642D01*
X163880952Y-116954642D01*
X163690476Y-116907023D01*
X163595238Y-116811785D01*
X163547619Y-116716547D01*
X163547619Y-116526071D01*
X163595238Y-116430833D01*
X163690476Y-116335595D01*
X163880952Y-116287976D01*
X164214285Y-116287976D01*
X164404761Y-116335595D01*
X164500000Y-116430833D01*
X164547619Y-116526071D01*
X164547619Y-117383214D02*
X163738095Y-117383214D01*
X163642857Y-117430833D01*
X163595238Y-117478452D01*
X163547619Y-117573690D01*
X163547619Y-117764166D01*
X163595238Y-117859404D01*
X163642857Y-117907023D01*
X163738095Y-117954642D01*
X164547619Y-117954642D01*
X164547619Y-118287976D02*
X164547619Y-118859404D01*
X163547619Y-118573690D02*
X164547619Y-118573690D01*
X164214285Y-120383214D02*
X163547619Y-120383214D01*
X164595238Y-120145119D02*
X163880952Y-119907023D01*
X163880952Y-120526071D01*
X163928571Y-121668928D02*
X163928571Y-122430833D01*
X163547619Y-122049880D02*
X164309523Y-122049880D01*
X115595238Y-116287976D02*
X115547619Y-116430833D01*
X115547619Y-116668928D01*
X115595238Y-116764166D01*
X115642857Y-116811785D01*
X115738095Y-116859404D01*
X115833333Y-116859404D01*
X115928571Y-116811785D01*
X115976190Y-116764166D01*
X116023809Y-116668928D01*
X116071428Y-116478452D01*
X116119047Y-116383214D01*
X116166666Y-116335595D01*
X116261904Y-116287976D01*
X116357142Y-116287976D01*
X116452380Y-116335595D01*
X116500000Y-116383214D01*
X116547619Y-116478452D01*
X116547619Y-116716547D01*
X116500000Y-116859404D01*
X116547619Y-117192738D02*
X115547619Y-117430833D01*
X116261904Y-117621309D01*
X115547619Y-117811785D01*
X116547619Y-118049880D01*
X116547619Y-119383214D02*
X116547619Y-119573690D01*
X116500000Y-119668928D01*
X116404761Y-119764166D01*
X116214285Y-119811785D01*
X115880952Y-119811785D01*
X115690476Y-119764166D01*
X115595238Y-119668928D01*
X115547619Y-119573690D01*
X115547619Y-119383214D01*
X115595238Y-119287976D01*
X115690476Y-119192738D01*
X115880952Y-119145119D01*
X116214285Y-119145119D01*
X116404761Y-119192738D01*
X116500000Y-119287976D01*
X116547619Y-119383214D01*
X116547619Y-120240357D02*
X115738095Y-120240357D01*
X115642857Y-120287976D01*
X115595238Y-120335595D01*
X115547619Y-120430833D01*
X115547619Y-120621309D01*
X115595238Y-120716547D01*
X115642857Y-120764166D01*
X115738095Y-120811785D01*
X116547619Y-120811785D01*
X116547619Y-121145119D02*
X116547619Y-121716547D01*
X115547619Y-121430833D02*
X116547619Y-121430833D01*
X116547619Y-122716547D02*
X116547619Y-123335595D01*
X116166666Y-123002261D01*
X116166666Y-123145119D01*
X116119047Y-123240357D01*
X116071428Y-123287976D01*
X115976190Y-123335595D01*
X115738095Y-123335595D01*
X115642857Y-123287976D01*
X115595238Y-123240357D01*
X115547619Y-123145119D01*
X115547619Y-122859404D01*
X115595238Y-122764166D01*
X115642857Y-122716547D01*
X115928571Y-124526071D02*
X115928571Y-125287976D01*
X205547619Y-116526071D02*
X205547619Y-116716547D01*
X205500000Y-116811785D01*
X205404761Y-116907023D01*
X205214285Y-116954642D01*
X204880952Y-116954642D01*
X204690476Y-116907023D01*
X204595238Y-116811785D01*
X204547619Y-116716547D01*
X204547619Y-116526071D01*
X204595238Y-116430833D01*
X204690476Y-116335595D01*
X204880952Y-116287976D01*
X205214285Y-116287976D01*
X205404761Y-116335595D01*
X205500000Y-116430833D01*
X205547619Y-116526071D01*
X205547619Y-117383214D02*
X204738095Y-117383214D01*
X204642857Y-117430833D01*
X204595238Y-117478452D01*
X204547619Y-117573690D01*
X204547619Y-117764166D01*
X204595238Y-117859404D01*
X204642857Y-117907023D01*
X204738095Y-117954642D01*
X205547619Y-117954642D01*
X205547619Y-118287976D02*
X205547619Y-118859404D01*
X204547619Y-118573690D02*
X205547619Y-118573690D01*
X205547619Y-120430833D02*
X205547619Y-119954642D01*
X205071428Y-119907023D01*
X205119047Y-119954642D01*
X205166666Y-120049880D01*
X205166666Y-120287976D01*
X205119047Y-120383214D01*
X205071428Y-120430833D01*
X204976190Y-120478452D01*
X204738095Y-120478452D01*
X204642857Y-120430833D01*
X204595238Y-120383214D01*
X204547619Y-120287976D01*
X204547619Y-120049880D01*
X204595238Y-119954642D01*
X204642857Y-119907023D01*
X204928571Y-121668928D02*
X204928571Y-122430833D01*
X204547619Y-122049880D02*
X205309523Y-122049880D01*
X196335595Y-134152380D02*
X196335595Y-133152380D01*
X196716547Y-133152380D01*
X196811785Y-133200000D01*
X196859404Y-133247619D01*
X196907023Y-133342857D01*
X196907023Y-133485714D01*
X196859404Y-133580952D01*
X196811785Y-133628571D01*
X196716547Y-133676190D01*
X196335595Y-133676190D01*
X197478452Y-134152380D02*
X197383214Y-134104761D01*
X197335595Y-134057142D01*
X197287976Y-133961904D01*
X197287976Y-133676190D01*
X197335595Y-133580952D01*
X197383214Y-133533333D01*
X197478452Y-133485714D01*
X197621309Y-133485714D01*
X197716547Y-133533333D01*
X197764166Y-133580952D01*
X197811785Y-133676190D01*
X197811785Y-133961904D01*
X197764166Y-134057142D01*
X197716547Y-134104761D01*
X197621309Y-134152380D01*
X197478452Y-134152380D01*
X198145119Y-133485714D02*
X198335595Y-134152380D01*
X198526071Y-133676190D01*
X198716547Y-134152380D01*
X198907023Y-133485714D01*
X199668928Y-134104761D02*
X199573690Y-134152380D01*
X199383214Y-134152380D01*
X199287976Y-134104761D01*
X199240357Y-134009523D01*
X199240357Y-133628571D01*
X199287976Y-133533333D01*
X199383214Y-133485714D01*
X199573690Y-133485714D01*
X199668928Y-133533333D01*
X199716547Y-133628571D01*
X199716547Y-133723809D01*
X199240357Y-133819047D01*
X200145119Y-134152380D02*
X200145119Y-133485714D01*
X200145119Y-133676190D02*
X200192738Y-133580952D01*
X200240357Y-133533333D01*
X200335595Y-133485714D01*
X200430833Y-133485714D01*
X201526071Y-134152380D02*
X201526071Y-133152380D01*
X201764166Y-133152380D01*
X201907023Y-133200000D01*
X202002261Y-133295238D01*
X202049880Y-133390476D01*
X202097500Y-133580952D01*
X202097500Y-133723809D01*
X202049880Y-133914285D01*
X202002261Y-134009523D01*
X201907023Y-134104761D01*
X201764166Y-134152380D01*
X201526071Y-134152380D01*
X202526071Y-134152380D02*
X202526071Y-133485714D01*
X202526071Y-133152380D02*
X202478452Y-133200000D01*
X202526071Y-133247619D01*
X202573690Y-133200000D01*
X202526071Y-133152380D01*
X202526071Y-133247619D01*
X202954642Y-134104761D02*
X203049880Y-134152380D01*
X203240357Y-134152380D01*
X203335595Y-134104761D01*
X203383214Y-134009523D01*
X203383214Y-133961904D01*
X203335595Y-133866666D01*
X203240357Y-133819047D01*
X203097500Y-133819047D01*
X203002261Y-133771428D01*
X202954642Y-133676190D01*
X202954642Y-133628571D01*
X203002261Y-133533333D01*
X203097500Y-133485714D01*
X203240357Y-133485714D01*
X203335595Y-133533333D01*
X203668928Y-133485714D02*
X204049880Y-133485714D01*
X203811785Y-133152380D02*
X203811785Y-134009523D01*
X203859404Y-134104761D01*
X203954642Y-134152380D01*
X204049880Y-134152380D01*
X204383214Y-134152380D02*
X204383214Y-133485714D01*
X204383214Y-133676190D02*
X204430833Y-133580952D01*
X204478452Y-133533333D01*
X204573690Y-133485714D01*
X204668928Y-133485714D01*
X205002261Y-134152380D02*
X205002261Y-133485714D01*
X205002261Y-133152380D02*
X204954642Y-133200000D01*
X205002261Y-133247619D01*
X205049880Y-133200000D01*
X205002261Y-133152380D01*
X205002261Y-133247619D01*
X205478452Y-134152380D02*
X205478452Y-133152380D01*
X205478452Y-133533333D02*
X205573690Y-133485714D01*
X205764166Y-133485714D01*
X205859404Y-133533333D01*
X205907023Y-133580952D01*
X205954642Y-133676190D01*
X205954642Y-133961904D01*
X205907023Y-134057142D01*
X205859404Y-134104761D01*
X205764166Y-134152380D01*
X205573690Y-134152380D01*
X205478452Y-134104761D01*
X206811785Y-133485714D02*
X206811785Y-134152380D01*
X206383214Y-133485714D02*
X206383214Y-134009523D01*
X206430833Y-134104761D01*
X206526071Y-134152380D01*
X206668928Y-134152380D01*
X206764166Y-134104761D01*
X206811785Y-134057142D01*
X207145119Y-133485714D02*
X207526071Y-133485714D01*
X207287976Y-133152380D02*
X207287976Y-134009523D01*
X207335595Y-134104761D01*
X207430833Y-134152380D01*
X207526071Y-134152380D01*
X208002261Y-134152380D02*
X207907023Y-134104761D01*
X207859404Y-134057142D01*
X207811785Y-133961904D01*
X207811785Y-133676190D01*
X207859404Y-133580952D01*
X207907023Y-133533333D01*
X208002261Y-133485714D01*
X208145119Y-133485714D01*
X208240357Y-133533333D01*
X208287976Y-133580952D01*
X208335595Y-133676190D01*
X208335595Y-133961904D01*
X208287976Y-134057142D01*
X208240357Y-134104761D01*
X208145119Y-134152380D01*
X208002261Y-134152380D01*
X208764166Y-134152380D02*
X208764166Y-133485714D01*
X208764166Y-133676190D02*
X208811785Y-133580952D01*
X208859404Y-133533333D01*
X208954642Y-133485714D01*
X209049880Y-133485714D01*
X196859404Y-135802380D02*
X196287976Y-135802380D01*
X196573690Y-135802380D02*
X196573690Y-134802380D01*
X196478452Y-134945238D01*
X196383214Y-135040476D01*
X196287976Y-135088095D01*
X197240357Y-134897619D02*
X197287976Y-134850000D01*
X197383214Y-134802380D01*
X197621309Y-134802380D01*
X197716547Y-134850000D01*
X197764166Y-134897619D01*
X197811785Y-134992857D01*
X197811785Y-135088095D01*
X197764166Y-135230952D01*
X197192738Y-135802380D01*
X197811785Y-135802380D01*
X198430833Y-134802380D02*
X198526071Y-134802380D01*
X198621309Y-134850000D01*
X198668928Y-134897619D01*
X198716547Y-134992857D01*
X198764166Y-135183333D01*
X198764166Y-135421428D01*
X198716547Y-135611904D01*
X198668928Y-135707142D01*
X198621309Y-135754761D01*
X198526071Y-135802380D01*
X198430833Y-135802380D01*
X198335595Y-135754761D01*
X198287976Y-135707142D01*
X198240357Y-135611904D01*
X198192738Y-135421428D01*
X198192738Y-135183333D01*
X198240357Y-134992857D01*
X198287976Y-134897619D01*
X198335595Y-134850000D01*
X198430833Y-134802380D01*
X199145119Y-135516666D02*
X199621309Y-135516666D01*
X199049880Y-135802380D02*
X199383214Y-134802380D01*
X199716547Y-135802380D01*
X200811785Y-135802380D02*
X200811785Y-134802380D01*
X201145119Y-135516666D01*
X201478452Y-134802380D01*
X201478452Y-135802380D01*
X202383214Y-135802380D02*
X202383214Y-135278571D01*
X202335595Y-135183333D01*
X202240357Y-135135714D01*
X202049880Y-135135714D01*
X201954642Y-135183333D01*
X202383214Y-135754761D02*
X202287976Y-135802380D01*
X202049880Y-135802380D01*
X201954642Y-135754761D01*
X201907023Y-135659523D01*
X201907023Y-135564285D01*
X201954642Y-135469047D01*
X202049880Y-135421428D01*
X202287976Y-135421428D01*
X202383214Y-135373809D01*
X202764166Y-135802380D02*
X203287976Y-135135714D01*
X202764166Y-135135714D02*
X203287976Y-135802380D01*
X196240357Y-136452380D02*
X196859404Y-136452380D01*
X196526071Y-136833333D01*
X196668928Y-136833333D01*
X196764166Y-136880952D01*
X196811785Y-136928571D01*
X196859404Y-137023809D01*
X196859404Y-137261904D01*
X196811785Y-137357142D01*
X196764166Y-137404761D01*
X196668928Y-137452380D01*
X196383214Y-137452380D01*
X196287976Y-137404761D01*
X196240357Y-137357142D01*
X197478452Y-136452380D02*
X197573690Y-136452380D01*
X197668928Y-136500000D01*
X197716547Y-136547619D01*
X197764166Y-136642857D01*
X197811785Y-136833333D01*
X197811785Y-137071428D01*
X197764166Y-137261904D01*
X197716547Y-137357142D01*
X197668928Y-137404761D01*
X197573690Y-137452380D01*
X197478452Y-137452380D01*
X197383214Y-137404761D01*
X197335595Y-137357142D01*
X197287976Y-137261904D01*
X197240357Y-137071428D01*
X197240357Y-136833333D01*
X197287976Y-136642857D01*
X197335595Y-136547619D01*
X197383214Y-136500000D01*
X197478452Y-136452380D01*
X198192738Y-137166666D02*
X198668928Y-137166666D01*
X198097500Y-137452380D02*
X198430833Y-136452380D01*
X198764166Y-137452380D01*
X200573690Y-136404761D02*
X199716547Y-137690476D01*
X202240357Y-137357142D02*
X202192738Y-137404761D01*
X202049880Y-137452380D01*
X201954642Y-137452380D01*
X201811785Y-137404761D01*
X201716547Y-137309523D01*
X201668928Y-137214285D01*
X201621309Y-137023809D01*
X201621309Y-136880952D01*
X201668928Y-136690476D01*
X201716547Y-136595238D01*
X201811785Y-136500000D01*
X201954642Y-136452380D01*
X202049880Y-136452380D01*
X202192738Y-136500000D01*
X202240357Y-136547619D01*
X202668928Y-137452380D02*
X202668928Y-136785714D01*
X202668928Y-136452380D02*
X202621309Y-136500000D01*
X202668928Y-136547619D01*
X202716547Y-136500000D01*
X202668928Y-136452380D01*
X202668928Y-136547619D01*
X203145119Y-137452380D02*
X203145119Y-136785714D01*
X203145119Y-136976190D02*
X203192738Y-136880952D01*
X203240357Y-136833333D01*
X203335595Y-136785714D01*
X203430833Y-136785714D01*
X204192738Y-137404761D02*
X204097500Y-137452380D01*
X203907023Y-137452380D01*
X203811785Y-137404761D01*
X203764166Y-137357142D01*
X203716547Y-137261904D01*
X203716547Y-136976190D01*
X203764166Y-136880952D01*
X203811785Y-136833333D01*
X203907023Y-136785714D01*
X204097500Y-136785714D01*
X204192738Y-136833333D01*
X205049880Y-136785714D02*
X205049880Y-137452380D01*
X204621309Y-136785714D02*
X204621309Y-137309523D01*
X204668928Y-137404761D01*
X204764166Y-137452380D01*
X204907023Y-137452380D01*
X205002261Y-137404761D01*
X205049880Y-137357142D01*
X205526071Y-137452380D02*
X205526071Y-136785714D01*
X205526071Y-136452380D02*
X205478452Y-136500000D01*
X205526071Y-136547619D01*
X205573690Y-136500000D01*
X205526071Y-136452380D01*
X205526071Y-136547619D01*
X205859404Y-136785714D02*
X206240357Y-136785714D01*
X206002261Y-136452380D02*
X206002261Y-137309523D01*
X206049880Y-137404761D01*
X206145119Y-137452380D01*
X206240357Y-137452380D01*
X196192738Y-138102380D02*
X196526071Y-139102380D01*
X196859404Y-138102380D01*
X197573690Y-139054761D02*
X197478452Y-139102380D01*
X197287976Y-139102380D01*
X197192738Y-139054761D01*
X197145119Y-138959523D01*
X197145119Y-138578571D01*
X197192738Y-138483333D01*
X197287976Y-138435714D01*
X197478452Y-138435714D01*
X197573690Y-138483333D01*
X197621309Y-138578571D01*
X197621309Y-138673809D01*
X197145119Y-138769047D01*
X198049880Y-139102380D02*
X198049880Y-138435714D01*
X198049880Y-138626190D02*
X198097500Y-138530952D01*
X198145119Y-138483333D01*
X198240357Y-138435714D01*
X198335595Y-138435714D01*
X198621309Y-139054761D02*
X198716547Y-139102380D01*
X198907023Y-139102380D01*
X199002261Y-139054761D01*
X199049880Y-138959523D01*
X199049880Y-138911904D01*
X199002261Y-138816666D01*
X198907023Y-138769047D01*
X198764166Y-138769047D01*
X198668928Y-138721428D01*
X198621309Y-138626190D01*
X198621309Y-138578571D01*
X198668928Y-138483333D01*
X198764166Y-138435714D01*
X198907023Y-138435714D01*
X199002261Y-138483333D01*
X199478452Y-139102380D02*
X199478452Y-138435714D01*
X199478452Y-138102380D02*
X199430833Y-138150000D01*
X199478452Y-138197619D01*
X199526071Y-138150000D01*
X199478452Y-138102380D01*
X199478452Y-138197619D01*
X200097500Y-139102380D02*
X200002261Y-139054761D01*
X199954642Y-139007142D01*
X199907023Y-138911904D01*
X199907023Y-138626190D01*
X199954642Y-138530952D01*
X200002261Y-138483333D01*
X200097500Y-138435714D01*
X200240357Y-138435714D01*
X200335595Y-138483333D01*
X200383214Y-138530952D01*
X200430833Y-138626190D01*
X200430833Y-138911904D01*
X200383214Y-139007142D01*
X200335595Y-139054761D01*
X200240357Y-139102380D01*
X200097500Y-139102380D01*
X200859404Y-138435714D02*
X200859404Y-139102380D01*
X200859404Y-138530952D02*
X200907023Y-138483333D01*
X201002261Y-138435714D01*
X201145119Y-138435714D01*
X201240357Y-138483333D01*
X201287976Y-138578571D01*
X201287976Y-139102380D01*
X201764166Y-139007142D02*
X201811785Y-139054761D01*
X201764166Y-139102380D01*
X201716547Y-139054761D01*
X201764166Y-139007142D01*
X201764166Y-139102380D01*
X201764166Y-138483333D02*
X201811785Y-138530952D01*
X201764166Y-138578571D01*
X201716547Y-138530952D01*
X201764166Y-138483333D01*
X201764166Y-138578571D01*
X203192738Y-138102380D02*
X203287976Y-138102380D01*
X203383214Y-138150000D01*
X203430833Y-138197619D01*
X203478452Y-138292857D01*
X203526071Y-138483333D01*
X203526071Y-138721428D01*
X203478452Y-138911904D01*
X203430833Y-139007142D01*
X203383214Y-139054761D01*
X203287976Y-139102380D01*
X203192738Y-139102380D01*
X203097500Y-139054761D01*
X203049880Y-139007142D01*
X203002261Y-138911904D01*
X202954642Y-138721428D01*
X202954642Y-138483333D01*
X203002261Y-138292857D01*
X203049880Y-138197619D01*
X203097500Y-138150000D01*
X203192738Y-138102380D01*
X203954642Y-139007142D02*
X204002261Y-139054761D01*
X203954642Y-139102380D01*
X203907023Y-139054761D01*
X203954642Y-139007142D01*
X203954642Y-139102380D01*
X204621309Y-138102380D02*
X204716547Y-138102380D01*
X204811785Y-138150000D01*
X204859404Y-138197619D01*
X204907023Y-138292857D01*
X204954642Y-138483333D01*
X204954642Y-138721428D01*
X204907023Y-138911904D01*
X204859404Y-139007142D01*
X204811785Y-139054761D01*
X204716547Y-139102380D01*
X204621309Y-139102380D01*
X204526071Y-139054761D01*
X204478452Y-139007142D01*
X204430833Y-138911904D01*
X204383214Y-138721428D01*
X204383214Y-138483333D01*
X204430833Y-138292857D01*
X204478452Y-138197619D01*
X204526071Y-138150000D01*
X204621309Y-138102380D01*
X205573690Y-138102380D02*
X205668928Y-138102380D01*
X205764166Y-138150000D01*
X205811785Y-138197619D01*
X205859404Y-138292857D01*
X205907023Y-138483333D01*
X205907023Y-138721428D01*
X205859404Y-138911904D01*
X205811785Y-139007142D01*
X205764166Y-139054761D01*
X205668928Y-139102380D01*
X205573690Y-139102380D01*
X205478452Y-139054761D01*
X205430833Y-139007142D01*
X205383214Y-138911904D01*
X205335595Y-138721428D01*
X205335595Y-138483333D01*
X205383214Y-138292857D01*
X205430833Y-138197619D01*
X205478452Y-138150000D01*
X205573690Y-138102380D01*
X196192738Y-139752380D02*
X196526071Y-140752380D01*
X196859404Y-139752380D01*
X197192738Y-140752380D02*
X197192738Y-140085714D01*
X197192738Y-139752380D02*
X197145119Y-139800000D01*
X197192738Y-139847619D01*
X197240357Y-139800000D01*
X197192738Y-139752380D01*
X197192738Y-139847619D01*
X198097500Y-140704761D02*
X198002261Y-140752380D01*
X197811785Y-140752380D01*
X197716547Y-140704761D01*
X197668928Y-140657142D01*
X197621309Y-140561904D01*
X197621309Y-140276190D01*
X197668928Y-140180952D01*
X197716547Y-140133333D01*
X197811785Y-140085714D01*
X198002261Y-140085714D01*
X198097500Y-140133333D01*
X198907023Y-140704761D02*
X198811785Y-140752380D01*
X198621309Y-140752380D01*
X198526071Y-140704761D01*
X198478452Y-140609523D01*
X198478452Y-140228571D01*
X198526071Y-140133333D01*
X198621309Y-140085714D01*
X198811785Y-140085714D01*
X198907023Y-140133333D01*
X198954642Y-140228571D01*
X198954642Y-140323809D01*
X198478452Y-140419047D01*
X199383214Y-140085714D02*
X199383214Y-140752380D01*
X199383214Y-140180952D02*
X199430833Y-140133333D01*
X199526071Y-140085714D01*
X199668928Y-140085714D01*
X199764166Y-140133333D01*
X199811785Y-140228571D01*
X199811785Y-140752380D01*
X200145119Y-140085714D02*
X200526071Y-140085714D01*
X200287976Y-139752380D02*
X200287976Y-140609523D01*
X200335595Y-140704761D01*
X200430833Y-140752380D01*
X200526071Y-140752380D01*
X201240357Y-140704761D02*
X201145119Y-140752380D01*
X200954642Y-140752380D01*
X200859404Y-140704761D01*
X200811785Y-140609523D01*
X200811785Y-140228571D01*
X200859404Y-140133333D01*
X200954642Y-140085714D01*
X201145119Y-140085714D01*
X201240357Y-140133333D01*
X201287976Y-140228571D01*
X201287976Y-140323809D01*
X200811785Y-140419047D01*
X202478452Y-140752380D02*
X202478452Y-139752380D01*
X202716547Y-139752380D01*
X202859404Y-139800000D01*
X202954642Y-139895238D01*
X203002261Y-139990476D01*
X203049880Y-140180952D01*
X203049880Y-140323809D01*
X203002261Y-140514285D01*
X202954642Y-140609523D01*
X202859404Y-140704761D01*
X202716547Y-140752380D01*
X202478452Y-140752380D01*
X203907023Y-140752380D02*
X203907023Y-140228571D01*
X203859404Y-140133333D01*
X203764166Y-140085714D01*
X203573690Y-140085714D01*
X203478452Y-140133333D01*
X203907023Y-140704761D02*
X203811785Y-140752380D01*
X203573690Y-140752380D01*
X203478452Y-140704761D01*
X203430833Y-140609523D01*
X203430833Y-140514285D01*
X203478452Y-140419047D01*
X203573690Y-140371428D01*
X203811785Y-140371428D01*
X203907023Y-140323809D01*
X205097500Y-140704761D02*
X205240357Y-140752380D01*
X205478452Y-140752380D01*
X205573690Y-140704761D01*
X205621309Y-140657142D01*
X205668928Y-140561904D01*
X205668928Y-140466666D01*
X205621309Y-140371428D01*
X205573690Y-140323809D01*
X205478452Y-140276190D01*
X205287976Y-140228571D01*
X205192738Y-140180952D01*
X205145119Y-140133333D01*
X205097500Y-140038095D01*
X205097500Y-139942857D01*
X205145119Y-139847619D01*
X205192738Y-139800000D01*
X205287976Y-139752380D01*
X205526071Y-139752380D01*
X205668928Y-139800000D01*
X206097500Y-140752380D02*
X206097500Y-140085714D01*
X206097500Y-139752380D02*
X206049880Y-139800000D01*
X206097500Y-139847619D01*
X206145119Y-139800000D01*
X206097500Y-139752380D01*
X206097500Y-139847619D01*
X206716547Y-140752380D02*
X206621309Y-140704761D01*
X206573690Y-140609523D01*
X206573690Y-139752380D01*
X207002261Y-140085714D02*
X207240357Y-140752380D01*
X207478452Y-140085714D01*
X208287976Y-140752380D02*
X208287976Y-140228571D01*
X208240357Y-140133333D01*
X208145119Y-140085714D01*
X207954642Y-140085714D01*
X207859404Y-140133333D01*
X208287976Y-140704761D02*
X208192738Y-140752380D01*
X207954642Y-140752380D01*
X207859404Y-140704761D01*
X207811785Y-140609523D01*
X207811785Y-140514285D01*
X207859404Y-140419047D01*
X207954642Y-140371428D01*
X208192738Y-140371428D01*
X208287976Y-140323809D01*
D12*
%TO.C,H14*%
X9100000Y-75800000D02*
G75*
G03*
X9100000Y-75800000I-3100000J0D01*
G01*
%TO.C,H3*%
X-4900000Y-75800000D02*
G75*
G03*
X-4900000Y-75800000I-3100000J0D01*
G01*
%TO.C,H19*%
X2100000Y-101500000D02*
G75*
G03*
X2100000Y-101500000I-3100000J0D01*
G01*
%TO.C,H18*%
X2100000Y-50000000D02*
G75*
G03*
X2100000Y-50000000I-3100000J0D01*
G01*
%TO.C,H28*%
X103100000Y-120000000D02*
G75*
G03*
X103100000Y-120000000I-3100000J0D01*
G01*
%TO.C,H26*%
X144100000Y-120000000D02*
G75*
G03*
X144100000Y-120000000I-3100000J0D01*
G01*
%TO.C,H13*%
X185100000Y-120000000D02*
G75*
G03*
X185100000Y-120000000I-3100000J0D01*
G01*
%TO.C,H8*%
X63100000Y-120000000D02*
G75*
G03*
X63100000Y-120000000I-3100000J0D01*
G01*
%TO.C,H1*%
X17100000Y-47400000D02*
G75*
G03*
X17100000Y-47400000I-3100000J0D01*
G01*
%TO.C,R4*%
X147925000Y-37220000D02*
X147925000Y-36450000D01*
X147925000Y-29140000D02*
X147925000Y-29910000D01*
X149295000Y-36450000D02*
X149295000Y-29910000D01*
X146555000Y-36450000D02*
X149295000Y-36450000D01*
X146555000Y-29910000D02*
X146555000Y-36450000D01*
X149295000Y-29910000D02*
X146555000Y-29910000D01*
%TO.C,R5*%
X188725000Y-37220000D02*
X188725000Y-36450000D01*
X188725000Y-29140000D02*
X188725000Y-29910000D01*
X190095000Y-36450000D02*
X190095000Y-29910000D01*
X187355000Y-36450000D02*
X190095000Y-36450000D01*
X187355000Y-29910000D02*
X187355000Y-36450000D01*
X190095000Y-29910000D02*
X187355000Y-29910000D01*
%TO.C,R6*%
X53485000Y-37220000D02*
X53485000Y-36450000D01*
X53485000Y-29140000D02*
X53485000Y-29910000D01*
X54855000Y-36450000D02*
X54855000Y-29910000D01*
X52115000Y-36450000D02*
X54855000Y-36450000D01*
X52115000Y-29910000D02*
X52115000Y-36450000D01*
X54855000Y-29910000D02*
X52115000Y-29910000D01*
%TO.C,R7*%
X94285000Y-37220000D02*
X94285000Y-36450000D01*
X94285000Y-29140000D02*
X94285000Y-29910000D01*
X95655000Y-36450000D02*
X95655000Y-29910000D01*
X92915000Y-36450000D02*
X95655000Y-36450000D01*
X92915000Y-29910000D02*
X92915000Y-36450000D01*
X95655000Y-29910000D02*
X92915000Y-29910000D01*
%TO.C,R8*%
X135085000Y-37220000D02*
X135085000Y-36450000D01*
X135085000Y-29140000D02*
X135085000Y-29910000D01*
X136455000Y-36450000D02*
X136455000Y-29910000D01*
X133715000Y-36450000D02*
X136455000Y-36450000D01*
X133715000Y-29910000D02*
X133715000Y-36450000D01*
X136455000Y-29910000D02*
X133715000Y-29910000D01*
%TO.C,R9*%
X175885000Y-37220000D02*
X175885000Y-36450000D01*
X175885000Y-29140000D02*
X175885000Y-29910000D01*
X177255000Y-36450000D02*
X177255000Y-29910000D01*
X174515000Y-36450000D02*
X177255000Y-36450000D01*
X174515000Y-29910000D02*
X174515000Y-36450000D01*
X177255000Y-29910000D02*
X174515000Y-29910000D01*
%TO.C,R10*%
X216685000Y-37220000D02*
X216685000Y-36450000D01*
X216685000Y-29140000D02*
X216685000Y-29910000D01*
X218055000Y-36450000D02*
X218055000Y-29910000D01*
X215315000Y-36450000D02*
X218055000Y-36450000D01*
X215315000Y-29910000D02*
X215315000Y-36450000D01*
X218055000Y-29910000D02*
X215315000Y-29910000D01*
%TO.C,Fuse3*%
X108694000Y-44645000D02*
X108694000Y-41555000D01*
X108634000Y-43100000D02*
G75*
G03*
X108634000Y-43100000I-2500000J0D01*
G01*
X103144000Y-43100462D02*
G75*
G02*
X108694000Y-41555170I2990000J462D01*
G01*
X103144000Y-43099538D02*
G75*
G03*
X108694000Y-44644830I2990000J-462D01*
G01*
%TO.C,Fuse4*%
X149494000Y-44645000D02*
X149494000Y-41555000D01*
X149434000Y-43100000D02*
G75*
G03*
X149434000Y-43100000I-2500000J0D01*
G01*
X143944000Y-43100462D02*
G75*
G02*
X149494000Y-41555170I2990000J462D01*
G01*
X143944000Y-43099538D02*
G75*
G03*
X149494000Y-44644830I2990000J-462D01*
G01*
%TO.C,Fuse5*%
X190294000Y-44645000D02*
X190294000Y-41555000D01*
X190234000Y-43100000D02*
G75*
G03*
X190234000Y-43100000I-2500000J0D01*
G01*
X184744000Y-43100462D02*
G75*
G02*
X190294000Y-41555170I2990000J462D01*
G01*
X184744000Y-43099538D02*
G75*
G03*
X190294000Y-44644830I2990000J-462D01*
G01*
%TO.C,Fuse7*%
X91720000Y-41555000D02*
X91720000Y-44645000D01*
X96780000Y-43100000D02*
G75*
G03*
X96780000Y-43100000I-2500000J0D01*
G01*
X97270000Y-43099538D02*
G75*
G02*
X91720000Y-44644830I-2990000J-462D01*
G01*
X97270000Y-43100462D02*
G75*
G03*
X91720000Y-41555170I-2990000J462D01*
G01*
%TO.C,Fuse9*%
X173320000Y-41555000D02*
X173320000Y-44645000D01*
X178380000Y-43100000D02*
G75*
G03*
X178380000Y-43100000I-2500000J0D01*
G01*
X178870000Y-43099538D02*
G75*
G02*
X173320000Y-44644830I-2990000J-462D01*
G01*
X178870000Y-43100462D02*
G75*
G03*
X173320000Y-41555170I-2990000J462D01*
G01*
%TO.C,R3*%
X107125000Y-37120000D02*
X107125000Y-36350000D01*
X107125000Y-29040000D02*
X107125000Y-29810000D01*
X108495000Y-36350000D02*
X108495000Y-29810000D01*
X105755000Y-36350000D02*
X108495000Y-36350000D01*
X105755000Y-29810000D02*
X105755000Y-36350000D01*
X108495000Y-29810000D02*
X105755000Y-29810000D01*
%TO.C,Fuse2*%
X67894000Y-44645000D02*
X67894000Y-41555000D01*
X67834000Y-43100000D02*
G75*
G03*
X67834000Y-43100000I-2500000J0D01*
G01*
X62344000Y-43100462D02*
G75*
G02*
X67894000Y-41555170I2990000J462D01*
G01*
X62344000Y-43099538D02*
G75*
G03*
X67894000Y-44644830I2990000J-462D01*
G01*
%TO.C,Fuse6*%
X50920000Y-41555000D02*
X50920000Y-44645000D01*
X55980000Y-43100000D02*
G75*
G03*
X55980000Y-43100000I-2500000J0D01*
G01*
X56470000Y-43099538D02*
G75*
G02*
X50920000Y-44644830I-2990000J-462D01*
G01*
X56470000Y-43100462D02*
G75*
G03*
X50920000Y-41555170I-2990000J462D01*
G01*
%TO.C,R2*%
X66325000Y-37220000D02*
X66325000Y-36450000D01*
X66325000Y-29140000D02*
X66325000Y-29910000D01*
X67695000Y-36450000D02*
X67695000Y-29910000D01*
X64955000Y-36450000D02*
X67695000Y-36450000D01*
X64955000Y-29910000D02*
X64955000Y-36450000D01*
X67695000Y-29910000D02*
X64955000Y-29910000D01*
%TO.C,Fuse_2*%
X75407000Y-46700000D02*
X69407000Y-46700000D01*
X69407000Y-46700000D02*
X69407000Y-46000000D01*
X69407000Y-28000000D02*
X75407000Y-28000000D01*
X75407000Y-46000000D02*
X75407000Y-46700000D01*
X69407000Y-28700000D02*
X69407000Y-28000000D01*
X75407000Y-28700000D02*
X75407000Y-28000000D01*
%TO.C,Fuse_3*%
X116207000Y-46700000D02*
X110207000Y-46700000D01*
X110207000Y-46700000D02*
X110207000Y-46000000D01*
X110207000Y-28000000D02*
X116207000Y-28000000D01*
X116207000Y-46000000D02*
X116207000Y-46700000D01*
X110207000Y-28700000D02*
X110207000Y-28000000D01*
X116207000Y-28700000D02*
X116207000Y-28000000D01*
%TO.C,Fuse_4*%
X157007000Y-46700000D02*
X151007000Y-46700000D01*
X151007000Y-46700000D02*
X151007000Y-46000000D01*
X151007000Y-28000000D02*
X157007000Y-28000000D01*
X157007000Y-46000000D02*
X157007000Y-46700000D01*
X151007000Y-28700000D02*
X151007000Y-28000000D01*
X157007000Y-28700000D02*
X157007000Y-28000000D01*
%TO.C,Fuse_5*%
X197807000Y-46700000D02*
X191807000Y-46700000D01*
X191807000Y-46700000D02*
X191807000Y-46000000D01*
X191807000Y-28000000D02*
X197807000Y-28000000D01*
X197807000Y-46000000D02*
X197807000Y-46700000D01*
X191807000Y-28700000D02*
X191807000Y-28000000D01*
X197807000Y-28700000D02*
X197807000Y-28000000D01*
%TO.C,Fuse_6*%
X50407000Y-46700000D02*
X44407000Y-46700000D01*
X44407000Y-46700000D02*
X44407000Y-46000000D01*
X44407000Y-28000000D02*
X50407000Y-28000000D01*
X50407000Y-46000000D02*
X50407000Y-46700000D01*
X44407000Y-28700000D02*
X44407000Y-28000000D01*
X50407000Y-28700000D02*
X50407000Y-28000000D01*
%TO.C,Fuse_8*%
X132007000Y-46700000D02*
X126007000Y-46700000D01*
X126007000Y-46700000D02*
X126007000Y-46000000D01*
X126007000Y-28000000D02*
X132007000Y-28000000D01*
X132007000Y-46000000D02*
X132007000Y-46700000D01*
X126007000Y-28700000D02*
X126007000Y-28000000D01*
X132007000Y-28700000D02*
X132007000Y-28000000D01*
%TO.C,Fuse_9*%
X172807000Y-46700000D02*
X166807000Y-46700000D01*
X166807000Y-46700000D02*
X166807000Y-46000000D01*
X166807000Y-28000000D02*
X172807000Y-28000000D01*
X172807000Y-46000000D02*
X172807000Y-46700000D01*
X166807000Y-28700000D02*
X166807000Y-28000000D01*
X172807000Y-28700000D02*
X172807000Y-28000000D01*
%TO.C,Fuse_10*%
X213607000Y-46700000D02*
X207607000Y-46700000D01*
X207607000Y-46700000D02*
X207607000Y-46000000D01*
X207607000Y-28000000D02*
X213607000Y-28000000D01*
X213607000Y-46000000D02*
X213607000Y-46700000D01*
X207607000Y-28700000D02*
X207607000Y-28000000D01*
X213607000Y-28700000D02*
X213607000Y-28000000D01*
%TO.C,H7*%
X218100000Y-137000000D02*
G75*
G03*
X218100000Y-137000000I-3100000J0D01*
G01*
%TO.C,H10*%
X63200000Y-47400000D02*
G75*
G03*
X63200000Y-47400000I-3100000J0D01*
G01*
%TO.C,H15*%
X185100000Y-32000000D02*
G75*
G03*
X185100000Y-32000000I-3100000J0D01*
G01*
%TO.C,H21*%
X22100000Y-120000000D02*
G75*
G03*
X22100000Y-120000000I-3100000J0D01*
G01*
%TO.C,H23*%
X218100000Y-16000000D02*
G75*
G03*
X218100000Y-16000000I-3100000J0D01*
G01*
%TO.C,H24*%
X104000000Y-47400000D02*
G75*
G03*
X104000000Y-47400000I-3100000J0D01*
G01*
%TO.C,H27*%
X144800000Y-47400000D02*
G75*
G03*
X144800000Y-47400000I-3100000J0D01*
G01*
%TO.C,H33*%
X185600000Y-47400000D02*
G75*
G03*
X185600000Y-47400000I-3100000J0D01*
G01*
%TO.C,H36*%
X103100000Y-32000000D02*
G75*
G03*
X103100000Y-32000000I-3100000J0D01*
G01*
%TO.C,J15*%
X54950000Y-95400000D02*
X54950000Y-104700000D01*
X54950000Y-104700000D02*
X39150000Y-104700000D01*
X39150000Y-95400000D02*
X54950000Y-95400000D01*
X39150000Y-104700000D02*
X39150000Y-95400000D01*
%TO.C,J16*%
X95750000Y-95395000D02*
X95750000Y-104695000D01*
X95750000Y-104695000D02*
X79950000Y-104695000D01*
X79950000Y-95395000D02*
X95750000Y-95395000D01*
X79950000Y-104695000D02*
X79950000Y-95395000D01*
%TO.C,J19*%
X136550000Y-95400000D02*
X136550000Y-104700000D01*
X136550000Y-104700000D02*
X120750000Y-104700000D01*
X120750000Y-95400000D02*
X136550000Y-95400000D01*
X120750000Y-104700000D02*
X120750000Y-95400000D01*
%TO.C,J22*%
X177350000Y-95400000D02*
X177350000Y-104700000D01*
X177350000Y-104700000D02*
X161550000Y-104700000D01*
X161550000Y-95400000D02*
X177350000Y-95400000D01*
X161550000Y-104700000D02*
X161550000Y-95400000D01*
%TO.C,J25*%
X218150000Y-95400000D02*
X218150000Y-104700000D01*
X218150000Y-104700000D02*
X202350000Y-104700000D01*
X202350000Y-95400000D02*
X218150000Y-95400000D01*
X202350000Y-104700000D02*
X202350000Y-95400000D01*
%TO.C,J29*%
X39150000Y-95400000D02*
X39150000Y-104700000D01*
X39150000Y-104700000D02*
X23350000Y-104700000D01*
X23350000Y-95400000D02*
X39150000Y-95400000D01*
X23350000Y-104700000D02*
X23350000Y-95400000D01*
%TO.C,J30*%
X120750000Y-95400000D02*
X120750000Y-104700000D01*
X120750000Y-104700000D02*
X104950000Y-104700000D01*
X104950000Y-95400000D02*
X120750000Y-95400000D01*
X104950000Y-104700000D02*
X104950000Y-95400000D01*
%TO.C,J31*%
X202350000Y-95400000D02*
X202350000Y-104700000D01*
X202350000Y-104700000D02*
X186550000Y-104700000D01*
X186550000Y-95400000D02*
X202350000Y-95400000D01*
X186550000Y-104700000D02*
X186550000Y-95400000D01*
%TO.C,J32*%
X14300000Y-115600000D02*
X14300000Y-96100000D01*
X23300000Y-115600000D02*
X14300000Y-115600000D01*
X14300000Y-96100000D02*
X23300000Y-96100000D01*
X23300000Y-96100000D02*
X23300000Y-115600000D01*
%TO.C,J33*%
X95800000Y-115600000D02*
X95800000Y-96100000D01*
X104800000Y-115600000D02*
X95800000Y-115600000D01*
X95800000Y-96100000D02*
X104800000Y-96100000D01*
X104800000Y-96100000D02*
X104800000Y-115600000D01*
%TO.C,J34*%
X177400000Y-115600000D02*
X177400000Y-96100000D01*
X186400000Y-115600000D02*
X177400000Y-115600000D01*
X177400000Y-96100000D02*
X186400000Y-96100000D01*
X186400000Y-96100000D02*
X186400000Y-115600000D01*
%TO.C,J35*%
X79950000Y-95400000D02*
X79950000Y-104700000D01*
X79950000Y-104700000D02*
X64150000Y-104700000D01*
X64150000Y-95400000D02*
X79950000Y-95400000D01*
X64150000Y-104700000D02*
X64150000Y-95400000D01*
%TO.C,J36*%
X161550000Y-95400000D02*
X161550000Y-104700000D01*
X161550000Y-104700000D02*
X145750000Y-104700000D01*
X145750000Y-95400000D02*
X161550000Y-95400000D01*
X145750000Y-104700000D02*
X145750000Y-95400000D01*
%TO.C,J37*%
X55100000Y-115600000D02*
X55100000Y-96100000D01*
X64100000Y-115600000D02*
X55100000Y-115600000D01*
X55100000Y-96100000D02*
X64100000Y-96100000D01*
X64100000Y-96100000D02*
X64100000Y-115600000D01*
%TO.C,J38*%
X136600000Y-115600000D02*
X136600000Y-96100000D01*
X145600000Y-115600000D02*
X136600000Y-115600000D01*
X136600000Y-96100000D02*
X145600000Y-96100000D01*
X145600000Y-96100000D02*
X145600000Y-115600000D01*
%TO.C,SW1*%
X17250000Y-50950000D02*
X38250000Y-50950000D01*
X38250000Y-65950000D02*
X17250000Y-65950000D01*
X42750000Y-63750000D02*
X11750000Y-63750000D01*
X42750000Y-53150000D02*
X42750000Y-63744000D01*
X11750000Y-63750000D02*
X11750000Y-53150000D01*
X11750000Y-53150000D02*
X42750000Y-53150000D01*
X17250000Y-50950000D02*
X17250000Y-52950000D01*
X38250000Y-50950000D02*
X38250000Y-52950000D01*
X38250000Y-65950000D02*
X38250000Y-63950000D01*
X17250000Y-65950000D02*
X17250000Y-63950000D01*
%TO.C,SW2*%
X98850000Y-51050000D02*
X119850000Y-51050000D01*
X119850000Y-66050000D02*
X98850000Y-66050000D01*
X124350000Y-63850000D02*
X93350000Y-63850000D01*
X124350000Y-53250000D02*
X124350000Y-63844000D01*
X93350000Y-63850000D02*
X93350000Y-53250000D01*
X93350000Y-53250000D02*
X124350000Y-53250000D01*
X98850000Y-51050000D02*
X98850000Y-53050000D01*
X119850000Y-51050000D02*
X119850000Y-53050000D01*
X119850000Y-66050000D02*
X119850000Y-64050000D01*
X98850000Y-66050000D02*
X98850000Y-64050000D01*
%TO.C,SW3*%
X180450000Y-51050000D02*
X201450000Y-51050000D01*
X201450000Y-66050000D02*
X180450000Y-66050000D01*
X205950000Y-63850000D02*
X174950000Y-63850000D01*
X205950000Y-53250000D02*
X205950000Y-63844000D01*
X174950000Y-63850000D02*
X174950000Y-53250000D01*
X174950000Y-53250000D02*
X205950000Y-53250000D01*
X180450000Y-51050000D02*
X180450000Y-53050000D01*
X201450000Y-51050000D02*
X201450000Y-53050000D01*
X201450000Y-66050000D02*
X201450000Y-64050000D01*
X180450000Y-66050000D02*
X180450000Y-64050000D01*
%TO.C,SW4*%
X58050000Y-50950000D02*
X79050000Y-50950000D01*
X79050000Y-65950000D02*
X58050000Y-65950000D01*
X83550000Y-63750000D02*
X52550000Y-63750000D01*
X83550000Y-53150000D02*
X83550000Y-63744000D01*
X52550000Y-63750000D02*
X52550000Y-53150000D01*
X52550000Y-53150000D02*
X83550000Y-53150000D01*
X58050000Y-50950000D02*
X58050000Y-52950000D01*
X79050000Y-50950000D02*
X79050000Y-52950000D01*
X79050000Y-65950000D02*
X79050000Y-63950000D01*
X58050000Y-65950000D02*
X58050000Y-63950000D01*
%TO.C,SW5*%
X139650000Y-51150000D02*
X160650000Y-51150000D01*
X160650000Y-66150000D02*
X139650000Y-66150000D01*
X165150000Y-63950000D02*
X134150000Y-63950000D01*
X165150000Y-53350000D02*
X165150000Y-63944000D01*
X134150000Y-63950000D02*
X134150000Y-53350000D01*
X134150000Y-53350000D02*
X165150000Y-53350000D01*
X139650000Y-51150000D02*
X139650000Y-53150000D01*
X160650000Y-51150000D02*
X160650000Y-53150000D01*
X160650000Y-66150000D02*
X160650000Y-64150000D01*
X139650000Y-66150000D02*
X139650000Y-64150000D01*
%TO.C,Fuse_7*%
X91207000Y-46700000D02*
X85207000Y-46700000D01*
X85207000Y-46700000D02*
X85207000Y-46000000D01*
X85207000Y-28000000D02*
X91207000Y-28000000D01*
X91207000Y-46000000D02*
X91207000Y-46700000D01*
X85207000Y-28700000D02*
X85207000Y-28000000D01*
X91207000Y-28700000D02*
X91207000Y-28000000D01*
%TO.C,Fuse8*%
X132520000Y-41555000D02*
X132520000Y-44645000D01*
X137580000Y-43100000D02*
G75*
G03*
X137580000Y-43100000I-2500000J0D01*
G01*
X138070000Y-43099538D02*
G75*
G02*
X132520000Y-44644830I-2990000J-462D01*
G01*
X138070000Y-43100462D02*
G75*
G03*
X132520000Y-41555170I-2990000J462D01*
G01*
%TO.C,Fuse10*%
X214120000Y-41555000D02*
X214120000Y-44645000D01*
X219180000Y-43100000D02*
G75*
G03*
X219180000Y-43100000I-2500000J0D01*
G01*
X219670000Y-43099538D02*
G75*
G02*
X214120000Y-44644830I-2990000J-462D01*
G01*
X219670000Y-43100462D02*
G75*
G03*
X214120000Y-41555170I-2990000J462D01*
G01*
%TO.C,H34*%
X54950000Y-91000000D02*
G75*
G03*
X54950000Y-91000000I-3100000J0D01*
G01*
%TO.C,H6*%
X136550000Y-91000000D02*
G75*
G03*
X136550000Y-91000000I-3100000J0D01*
G01*
%TO.C,H4*%
X95750000Y-91000000D02*
G75*
G03*
X95750000Y-91000000I-3100000J0D01*
G01*
%TO.C,H12*%
X177350000Y-91000000D02*
G75*
G03*
X177350000Y-91000000I-3100000J0D01*
G01*
%TO.C,H11*%
X218150000Y-91000000D02*
G75*
G03*
X218150000Y-91000000I-3100000J0D01*
G01*
%TO.C,Fuse1*%
X27094000Y-44645000D02*
X27094000Y-41555000D01*
X27034000Y-43100000D02*
G75*
G03*
X27034000Y-43100000I-2500000J0D01*
G01*
X21544000Y-43100462D02*
G75*
G02*
X27094000Y-41555170I2990000J462D01*
G01*
X21544000Y-43099538D02*
G75*
G03*
X27094000Y-44644830I2990000J-462D01*
G01*
%TO.C,R1*%
X25525000Y-37220000D02*
X25525000Y-36450000D01*
X25525000Y-29140000D02*
X25525000Y-29910000D01*
X26895000Y-36450000D02*
X26895000Y-29910000D01*
X24155000Y-36450000D02*
X26895000Y-36450000D01*
X24155000Y-29910000D02*
X24155000Y-36450000D01*
X26895000Y-29910000D02*
X24155000Y-29910000D01*
%TO.C,Fuse_1*%
X34607000Y-46700000D02*
X28607000Y-46700000D01*
X28607000Y-46700000D02*
X28607000Y-46000000D01*
X28607000Y-28000000D02*
X34607000Y-28000000D01*
X34607000Y-46000000D02*
X34607000Y-46700000D01*
X28607000Y-28700000D02*
X28607000Y-28000000D01*
X34607000Y-28700000D02*
X34607000Y-28000000D01*
%TO.C,J1*%
X9500000Y-98000000D02*
X-11500000Y-98000000D01*
X-11500000Y-53500000D02*
X9500000Y-53500000D01*
X9500000Y-53500000D02*
X9500000Y-98000000D01*
X-11500000Y-98000000D02*
X-11500000Y-53500000D01*
%TO.C,H2*%
X-5900000Y-37000000D02*
G75*
G03*
X-5900000Y-37000000I-3100000J0D01*
G01*
%TO.C,H5*%
X-5900000Y-116000000D02*
G75*
G03*
X-5900000Y-116000000I-3100000J0D01*
G01*
%TO.C,H9*%
X17100000Y-91000000D02*
G75*
G03*
X17100000Y-91000000I-3100000J0D01*
G01*
%TO.C,H17*%
X63100000Y-32000000D02*
G75*
G03*
X63100000Y-32000000I-3100000J0D01*
G01*
%TO.C,H22*%
X144100000Y-32000000D02*
G75*
G03*
X144100000Y-32000000I-3100000J0D01*
G01*
%TO.C,H14*%
D11*
X4761904Y-76252380D02*
X4761904Y-75252380D01*
X4761904Y-75728571D02*
X5333333Y-75728571D01*
X5333333Y-76252380D02*
X5333333Y-75252380D01*
X6333333Y-76252380D02*
X5761904Y-76252380D01*
X6047619Y-76252380D02*
X6047619Y-75252380D01*
X5952380Y-75395238D01*
X5857142Y-75490476D01*
X5761904Y-75538095D01*
X7190476Y-75585714D02*
X7190476Y-76252380D01*
X6952380Y-75204761D02*
X6714285Y-75919047D01*
X7333333Y-75919047D01*
%TO.C,H3*%
X-8761904Y-76252380D02*
X-8761904Y-75252380D01*
X-8761904Y-75728571D02*
X-8190476Y-75728571D01*
X-8190476Y-76252380D02*
X-8190476Y-75252380D01*
X-7809523Y-75252380D02*
X-7190476Y-75252380D01*
X-7523809Y-75633333D01*
X-7380952Y-75633333D01*
X-7285714Y-75680952D01*
X-7238095Y-75728571D01*
X-7190476Y-75823809D01*
X-7190476Y-76061904D01*
X-7238095Y-76157142D01*
X-7285714Y-76204761D01*
X-7380952Y-76252380D01*
X-7666666Y-76252380D01*
X-7761904Y-76204761D01*
X-7809523Y-76157142D01*
%TO.C,H19*%
X-2238095Y-101952380D02*
X-2238095Y-100952380D01*
X-2238095Y-101428571D02*
X-1666666Y-101428571D01*
X-1666666Y-101952380D02*
X-1666666Y-100952380D01*
X-666666Y-101952380D02*
X-1238095Y-101952380D01*
X-952380Y-101952380D02*
X-952380Y-100952380D01*
X-1047619Y-101095238D01*
X-1142857Y-101190476D01*
X-1238095Y-101238095D01*
X-190476Y-101952380D02*
X0Y-101952380D01*
X95238Y-101904761D01*
X142857Y-101857142D01*
X238095Y-101714285D01*
X285714Y-101523809D01*
X285714Y-101142857D01*
X238095Y-101047619D01*
X190476Y-101000000D01*
X95238Y-100952380D01*
X-95238Y-100952380D01*
X-190476Y-101000000D01*
X-238095Y-101047619D01*
X-285714Y-101142857D01*
X-285714Y-101380952D01*
X-238095Y-101476190D01*
X-190476Y-101523809D01*
X-95238Y-101571428D01*
X95238Y-101571428D01*
X190476Y-101523809D01*
X238095Y-101476190D01*
X285714Y-101380952D01*
%TO.C,H18*%
X-2238095Y-50452380D02*
X-2238095Y-49452380D01*
X-2238095Y-49928571D02*
X-1666666Y-49928571D01*
X-1666666Y-50452380D02*
X-1666666Y-49452380D01*
X-666666Y-50452380D02*
X-1238095Y-50452380D01*
X-952380Y-50452380D02*
X-952380Y-49452380D01*
X-1047619Y-49595238D01*
X-1142857Y-49690476D01*
X-1238095Y-49738095D01*
X-95238Y-49880952D02*
X-190476Y-49833333D01*
X-238095Y-49785714D01*
X-285714Y-49690476D01*
X-285714Y-49642857D01*
X-238095Y-49547619D01*
X-190476Y-49500000D01*
X-95238Y-49452380D01*
X95238Y-49452380D01*
X190476Y-49500000D01*
X238095Y-49547619D01*
X285714Y-49642857D01*
X285714Y-49690476D01*
X238095Y-49785714D01*
X190476Y-49833333D01*
X95238Y-49880952D01*
X-95238Y-49880952D01*
X-190476Y-49928571D01*
X-238095Y-49976190D01*
X-285714Y-50071428D01*
X-285714Y-50261904D01*
X-238095Y-50357142D01*
X-190476Y-50404761D01*
X-95238Y-50452380D01*
X95238Y-50452380D01*
X190476Y-50404761D01*
X238095Y-50357142D01*
X285714Y-50261904D01*
X285714Y-50071428D01*
X238095Y-49976190D01*
X190476Y-49928571D01*
X95238Y-49880952D01*
%TO.C,H28*%
X98761904Y-120452380D02*
X98761904Y-119452380D01*
X98761904Y-119928571D02*
X99333333Y-119928571D01*
X99333333Y-120452380D02*
X99333333Y-119452380D01*
X99761904Y-119547619D02*
X99809523Y-119500000D01*
X99904761Y-119452380D01*
X100142857Y-119452380D01*
X100238095Y-119500000D01*
X100285714Y-119547619D01*
X100333333Y-119642857D01*
X100333333Y-119738095D01*
X100285714Y-119880952D01*
X99714285Y-120452380D01*
X100333333Y-120452380D01*
X100904761Y-119880952D02*
X100809523Y-119833333D01*
X100761904Y-119785714D01*
X100714285Y-119690476D01*
X100714285Y-119642857D01*
X100761904Y-119547619D01*
X100809523Y-119500000D01*
X100904761Y-119452380D01*
X101095238Y-119452380D01*
X101190476Y-119500000D01*
X101238095Y-119547619D01*
X101285714Y-119642857D01*
X101285714Y-119690476D01*
X101238095Y-119785714D01*
X101190476Y-119833333D01*
X101095238Y-119880952D01*
X100904761Y-119880952D01*
X100809523Y-119928571D01*
X100761904Y-119976190D01*
X100714285Y-120071428D01*
X100714285Y-120261904D01*
X100761904Y-120357142D01*
X100809523Y-120404761D01*
X100904761Y-120452380D01*
X101095238Y-120452380D01*
X101190476Y-120404761D01*
X101238095Y-120357142D01*
X101285714Y-120261904D01*
X101285714Y-120071428D01*
X101238095Y-119976190D01*
X101190476Y-119928571D01*
X101095238Y-119880952D01*
%TO.C,H26*%
X139761904Y-120452380D02*
X139761904Y-119452380D01*
X139761904Y-119928571D02*
X140333333Y-119928571D01*
X140333333Y-120452380D02*
X140333333Y-119452380D01*
X140761904Y-119547619D02*
X140809523Y-119500000D01*
X140904761Y-119452380D01*
X141142857Y-119452380D01*
X141238095Y-119500000D01*
X141285714Y-119547619D01*
X141333333Y-119642857D01*
X141333333Y-119738095D01*
X141285714Y-119880952D01*
X140714285Y-120452380D01*
X141333333Y-120452380D01*
X142190476Y-119452380D02*
X142000000Y-119452380D01*
X141904761Y-119500000D01*
X141857142Y-119547619D01*
X141761904Y-119690476D01*
X141714285Y-119880952D01*
X141714285Y-120261904D01*
X141761904Y-120357142D01*
X141809523Y-120404761D01*
X141904761Y-120452380D01*
X142095238Y-120452380D01*
X142190476Y-120404761D01*
X142238095Y-120357142D01*
X142285714Y-120261904D01*
X142285714Y-120023809D01*
X142238095Y-119928571D01*
X142190476Y-119880952D01*
X142095238Y-119833333D01*
X141904761Y-119833333D01*
X141809523Y-119880952D01*
X141761904Y-119928571D01*
X141714285Y-120023809D01*
%TO.C,H13*%
X180761904Y-120452380D02*
X180761904Y-119452380D01*
X180761904Y-119928571D02*
X181333333Y-119928571D01*
X181333333Y-120452380D02*
X181333333Y-119452380D01*
X182333333Y-120452380D02*
X181761904Y-120452380D01*
X182047619Y-120452380D02*
X182047619Y-119452380D01*
X181952380Y-119595238D01*
X181857142Y-119690476D01*
X181761904Y-119738095D01*
X182666666Y-119452380D02*
X183285714Y-119452380D01*
X182952380Y-119833333D01*
X183095238Y-119833333D01*
X183190476Y-119880952D01*
X183238095Y-119928571D01*
X183285714Y-120023809D01*
X183285714Y-120261904D01*
X183238095Y-120357142D01*
X183190476Y-120404761D01*
X183095238Y-120452380D01*
X182809523Y-120452380D01*
X182714285Y-120404761D01*
X182666666Y-120357142D01*
%TO.C,H8*%
X59238095Y-120452380D02*
X59238095Y-119452380D01*
X59238095Y-119928571D02*
X59809523Y-119928571D01*
X59809523Y-120452380D02*
X59809523Y-119452380D01*
X60428571Y-119880952D02*
X60333333Y-119833333D01*
X60285714Y-119785714D01*
X60238095Y-119690476D01*
X60238095Y-119642857D01*
X60285714Y-119547619D01*
X60333333Y-119500000D01*
X60428571Y-119452380D01*
X60619047Y-119452380D01*
X60714285Y-119500000D01*
X60761904Y-119547619D01*
X60809523Y-119642857D01*
X60809523Y-119690476D01*
X60761904Y-119785714D01*
X60714285Y-119833333D01*
X60619047Y-119880952D01*
X60428571Y-119880952D01*
X60333333Y-119928571D01*
X60285714Y-119976190D01*
X60238095Y-120071428D01*
X60238095Y-120261904D01*
X60285714Y-120357142D01*
X60333333Y-120404761D01*
X60428571Y-120452380D01*
X60619047Y-120452380D01*
X60714285Y-120404761D01*
X60761904Y-120357142D01*
X60809523Y-120261904D01*
X60809523Y-120071428D01*
X60761904Y-119976190D01*
X60714285Y-119928571D01*
X60619047Y-119880952D01*
%TO.C,H1*%
X13238095Y-47852380D02*
X13238095Y-46852380D01*
X13238095Y-47328571D02*
X13809523Y-47328571D01*
X13809523Y-47852380D02*
X13809523Y-46852380D01*
X14809523Y-47852380D02*
X14238095Y-47852380D01*
X14523809Y-47852380D02*
X14523809Y-46852380D01*
X14428571Y-46995238D01*
X14333333Y-47090476D01*
X14238095Y-47138095D01*
%TO.C,R4*%
X148292380Y-25266666D02*
X147816190Y-25600000D01*
X148292380Y-25838095D02*
X147292380Y-25838095D01*
X147292380Y-25457142D01*
X147340000Y-25361904D01*
X147387619Y-25314285D01*
X147482857Y-25266666D01*
X147625714Y-25266666D01*
X147720952Y-25314285D01*
X147768571Y-25361904D01*
X147816190Y-25457142D01*
X147816190Y-25838095D01*
X147625714Y-24409523D02*
X148292380Y-24409523D01*
X147244761Y-24647619D02*
X147959047Y-24885714D01*
X147959047Y-24266666D01*
%TO.C,R5*%
X189292380Y-25266666D02*
X188816190Y-25600000D01*
X189292380Y-25838095D02*
X188292380Y-25838095D01*
X188292380Y-25457142D01*
X188340000Y-25361904D01*
X188387619Y-25314285D01*
X188482857Y-25266666D01*
X188625714Y-25266666D01*
X188720952Y-25314285D01*
X188768571Y-25361904D01*
X188816190Y-25457142D01*
X188816190Y-25838095D01*
X188292380Y-24361904D02*
X188292380Y-24838095D01*
X188768571Y-24885714D01*
X188720952Y-24838095D01*
X188673333Y-24742857D01*
X188673333Y-24504761D01*
X188720952Y-24409523D01*
X188768571Y-24361904D01*
X188863809Y-24314285D01*
X189101904Y-24314285D01*
X189197142Y-24361904D01*
X189244761Y-24409523D01*
X189292380Y-24504761D01*
X189292380Y-24742857D01*
X189244761Y-24838095D01*
X189197142Y-24885714D01*
%TO.C,R6*%
X53452380Y-25266666D02*
X52976190Y-25600000D01*
X53452380Y-25838095D02*
X52452380Y-25838095D01*
X52452380Y-25457142D01*
X52500000Y-25361904D01*
X52547619Y-25314285D01*
X52642857Y-25266666D01*
X52785714Y-25266666D01*
X52880952Y-25314285D01*
X52928571Y-25361904D01*
X52976190Y-25457142D01*
X52976190Y-25838095D01*
X52452380Y-24409523D02*
X52452380Y-24600000D01*
X52500000Y-24695238D01*
X52547619Y-24742857D01*
X52690476Y-24838095D01*
X52880952Y-24885714D01*
X53261904Y-24885714D01*
X53357142Y-24838095D01*
X53404761Y-24790476D01*
X53452380Y-24695238D01*
X53452380Y-24504761D01*
X53404761Y-24409523D01*
X53357142Y-24361904D01*
X53261904Y-24314285D01*
X53023809Y-24314285D01*
X52928571Y-24361904D01*
X52880952Y-24409523D01*
X52833333Y-24504761D01*
X52833333Y-24695238D01*
X52880952Y-24790476D01*
X52928571Y-24838095D01*
X53023809Y-24885714D01*
%TO.C,R7*%
X94452380Y-25266666D02*
X93976190Y-25600000D01*
X94452380Y-25838095D02*
X93452380Y-25838095D01*
X93452380Y-25457142D01*
X93500000Y-25361904D01*
X93547619Y-25314285D01*
X93642857Y-25266666D01*
X93785714Y-25266666D01*
X93880952Y-25314285D01*
X93928571Y-25361904D01*
X93976190Y-25457142D01*
X93976190Y-25838095D01*
X93452380Y-24933333D02*
X93452380Y-24266666D01*
X94452380Y-24695238D01*
%TO.C,R8*%
X135452380Y-25266666D02*
X134976190Y-25600000D01*
X135452380Y-25838095D02*
X134452380Y-25838095D01*
X134452380Y-25457142D01*
X134500000Y-25361904D01*
X134547619Y-25314285D01*
X134642857Y-25266666D01*
X134785714Y-25266666D01*
X134880952Y-25314285D01*
X134928571Y-25361904D01*
X134976190Y-25457142D01*
X134976190Y-25838095D01*
X134880952Y-24695238D02*
X134833333Y-24790476D01*
X134785714Y-24838095D01*
X134690476Y-24885714D01*
X134642857Y-24885714D01*
X134547619Y-24838095D01*
X134500000Y-24790476D01*
X134452380Y-24695238D01*
X134452380Y-24504761D01*
X134500000Y-24409523D01*
X134547619Y-24361904D01*
X134642857Y-24314285D01*
X134690476Y-24314285D01*
X134785714Y-24361904D01*
X134833333Y-24409523D01*
X134880952Y-24504761D01*
X134880952Y-24695238D01*
X134928571Y-24790476D01*
X134976190Y-24838095D01*
X135071428Y-24885714D01*
X135261904Y-24885714D01*
X135357142Y-24838095D01*
X135404761Y-24790476D01*
X135452380Y-24695238D01*
X135452380Y-24504761D01*
X135404761Y-24409523D01*
X135357142Y-24361904D01*
X135261904Y-24314285D01*
X135071428Y-24314285D01*
X134976190Y-24361904D01*
X134928571Y-24409523D01*
X134880952Y-24504761D01*
%TO.C,R9*%
X176452380Y-25266666D02*
X175976190Y-25600000D01*
X176452380Y-25838095D02*
X175452380Y-25838095D01*
X175452380Y-25457142D01*
X175500000Y-25361904D01*
X175547619Y-25314285D01*
X175642857Y-25266666D01*
X175785714Y-25266666D01*
X175880952Y-25314285D01*
X175928571Y-25361904D01*
X175976190Y-25457142D01*
X175976190Y-25838095D01*
X176452380Y-24790476D02*
X176452380Y-24600000D01*
X176404761Y-24504761D01*
X176357142Y-24457142D01*
X176214285Y-24361904D01*
X176023809Y-24314285D01*
X175642857Y-24314285D01*
X175547619Y-24361904D01*
X175500000Y-24409523D01*
X175452380Y-24504761D01*
X175452380Y-24695238D01*
X175500000Y-24790476D01*
X175547619Y-24838095D01*
X175642857Y-24885714D01*
X175880952Y-24885714D01*
X175976190Y-24838095D01*
X176023809Y-24790476D01*
X176071428Y-24695238D01*
X176071428Y-24504761D01*
X176023809Y-24409523D01*
X175976190Y-24361904D01*
X175880952Y-24314285D01*
%TO.C,R10*%
X216452380Y-25742857D02*
X215976190Y-26076190D01*
X216452380Y-26314285D02*
X215452380Y-26314285D01*
X215452380Y-25933333D01*
X215500000Y-25838095D01*
X215547619Y-25790476D01*
X215642857Y-25742857D01*
X215785714Y-25742857D01*
X215880952Y-25790476D01*
X215928571Y-25838095D01*
X215976190Y-25933333D01*
X215976190Y-26314285D01*
X216452380Y-24790476D02*
X216452380Y-25361904D01*
X216452380Y-25076190D02*
X215452380Y-25076190D01*
X215595238Y-25171428D01*
X215690476Y-25266666D01*
X215738095Y-25361904D01*
X215452380Y-24171428D02*
X215452380Y-24076190D01*
X215500000Y-23980952D01*
X215547619Y-23933333D01*
X215642857Y-23885714D01*
X215833333Y-23838095D01*
X216071428Y-23838095D01*
X216261904Y-23885714D01*
X216357142Y-23933333D01*
X216404761Y-23980952D01*
X216452380Y-24076190D01*
X216452380Y-24171428D01*
X216404761Y-24266666D01*
X216357142Y-24314285D01*
X216261904Y-24361904D01*
X216071428Y-24409523D01*
X215833333Y-24409523D01*
X215642857Y-24361904D01*
X215547619Y-24314285D01*
X215500000Y-24266666D01*
X215452380Y-24171428D01*
%TO.C,Fuse3*%
X105380952Y-46928571D02*
X105047619Y-46928571D01*
X105047619Y-47452380D02*
X105047619Y-46452380D01*
X105523809Y-46452380D01*
X106333333Y-46785714D02*
X106333333Y-47452380D01*
X105904761Y-46785714D02*
X105904761Y-47309523D01*
X105952380Y-47404761D01*
X106047619Y-47452380D01*
X106190476Y-47452380D01*
X106285714Y-47404761D01*
X106333333Y-47357142D01*
X106761904Y-47404761D02*
X106857142Y-47452380D01*
X107047619Y-47452380D01*
X107142857Y-47404761D01*
X107190476Y-47309523D01*
X107190476Y-47261904D01*
X107142857Y-47166666D01*
X107047619Y-47119047D01*
X106904761Y-47119047D01*
X106809523Y-47071428D01*
X106761904Y-46976190D01*
X106761904Y-46928571D01*
X106809523Y-46833333D01*
X106904761Y-46785714D01*
X107047619Y-46785714D01*
X107142857Y-46833333D01*
X108000000Y-47404761D02*
X107904761Y-47452380D01*
X107714285Y-47452380D01*
X107619047Y-47404761D01*
X107571428Y-47309523D01*
X107571428Y-46928571D01*
X107619047Y-46833333D01*
X107714285Y-46785714D01*
X107904761Y-46785714D01*
X108000000Y-46833333D01*
X108047619Y-46928571D01*
X108047619Y-47023809D01*
X107571428Y-47119047D01*
X108380952Y-46452380D02*
X109000000Y-46452380D01*
X108666666Y-46833333D01*
X108809523Y-46833333D01*
X108904761Y-46880952D01*
X108952380Y-46928571D01*
X109000000Y-47023809D01*
X109000000Y-47261904D01*
X108952380Y-47357142D01*
X108904761Y-47404761D01*
X108809523Y-47452380D01*
X108523809Y-47452380D01*
X108428571Y-47404761D01*
X108380952Y-47357142D01*
%TO.C,Fuse4*%
X146380952Y-46928571D02*
X146047619Y-46928571D01*
X146047619Y-47452380D02*
X146047619Y-46452380D01*
X146523809Y-46452380D01*
X147333333Y-46785714D02*
X147333333Y-47452380D01*
X146904761Y-46785714D02*
X146904761Y-47309523D01*
X146952380Y-47404761D01*
X147047619Y-47452380D01*
X147190476Y-47452380D01*
X147285714Y-47404761D01*
X147333333Y-47357142D01*
X147761904Y-47404761D02*
X147857142Y-47452380D01*
X148047619Y-47452380D01*
X148142857Y-47404761D01*
X148190476Y-47309523D01*
X148190476Y-47261904D01*
X148142857Y-47166666D01*
X148047619Y-47119047D01*
X147904761Y-47119047D01*
X147809523Y-47071428D01*
X147761904Y-46976190D01*
X147761904Y-46928571D01*
X147809523Y-46833333D01*
X147904761Y-46785714D01*
X148047619Y-46785714D01*
X148142857Y-46833333D01*
X149000000Y-47404761D02*
X148904761Y-47452380D01*
X148714285Y-47452380D01*
X148619047Y-47404761D01*
X148571428Y-47309523D01*
X148571428Y-46928571D01*
X148619047Y-46833333D01*
X148714285Y-46785714D01*
X148904761Y-46785714D01*
X149000000Y-46833333D01*
X149047619Y-46928571D01*
X149047619Y-47023809D01*
X148571428Y-47119047D01*
X149904761Y-46785714D02*
X149904761Y-47452380D01*
X149666666Y-46404761D02*
X149428571Y-47119047D01*
X150047619Y-47119047D01*
%TO.C,Fuse5*%
X187380952Y-46928571D02*
X187047619Y-46928571D01*
X187047619Y-47452380D02*
X187047619Y-46452380D01*
X187523809Y-46452380D01*
X188333333Y-46785714D02*
X188333333Y-47452380D01*
X187904761Y-46785714D02*
X187904761Y-47309523D01*
X187952380Y-47404761D01*
X188047619Y-47452380D01*
X188190476Y-47452380D01*
X188285714Y-47404761D01*
X188333333Y-47357142D01*
X188761904Y-47404761D02*
X188857142Y-47452380D01*
X189047619Y-47452380D01*
X189142857Y-47404761D01*
X189190476Y-47309523D01*
X189190476Y-47261904D01*
X189142857Y-47166666D01*
X189047619Y-47119047D01*
X188904761Y-47119047D01*
X188809523Y-47071428D01*
X188761904Y-46976190D01*
X188761904Y-46928571D01*
X188809523Y-46833333D01*
X188904761Y-46785714D01*
X189047619Y-46785714D01*
X189142857Y-46833333D01*
X190000000Y-47404761D02*
X189904761Y-47452380D01*
X189714285Y-47452380D01*
X189619047Y-47404761D01*
X189571428Y-47309523D01*
X189571428Y-46928571D01*
X189619047Y-46833333D01*
X189714285Y-46785714D01*
X189904761Y-46785714D01*
X190000000Y-46833333D01*
X190047619Y-46928571D01*
X190047619Y-47023809D01*
X189571428Y-47119047D01*
X190952380Y-46452380D02*
X190476190Y-46452380D01*
X190428571Y-46928571D01*
X190476190Y-46880952D01*
X190571428Y-46833333D01*
X190809523Y-46833333D01*
X190904761Y-46880952D01*
X190952380Y-46928571D01*
X191000000Y-47023809D01*
X191000000Y-47261904D01*
X190952380Y-47357142D01*
X190904761Y-47404761D01*
X190809523Y-47452380D01*
X190571428Y-47452380D01*
X190476190Y-47404761D01*
X190428571Y-47357142D01*
%TO.C,Fuse7*%
X92380952Y-47028571D02*
X92047619Y-47028571D01*
X92047619Y-47552380D02*
X92047619Y-46552380D01*
X92523809Y-46552380D01*
X93333333Y-46885714D02*
X93333333Y-47552380D01*
X92904761Y-46885714D02*
X92904761Y-47409523D01*
X92952380Y-47504761D01*
X93047619Y-47552380D01*
X93190476Y-47552380D01*
X93285714Y-47504761D01*
X93333333Y-47457142D01*
X93761904Y-47504761D02*
X93857142Y-47552380D01*
X94047619Y-47552380D01*
X94142857Y-47504761D01*
X94190476Y-47409523D01*
X94190476Y-47361904D01*
X94142857Y-47266666D01*
X94047619Y-47219047D01*
X93904761Y-47219047D01*
X93809523Y-47171428D01*
X93761904Y-47076190D01*
X93761904Y-47028571D01*
X93809523Y-46933333D01*
X93904761Y-46885714D01*
X94047619Y-46885714D01*
X94142857Y-46933333D01*
X95000000Y-47504761D02*
X94904761Y-47552380D01*
X94714285Y-47552380D01*
X94619047Y-47504761D01*
X94571428Y-47409523D01*
X94571428Y-47028571D01*
X94619047Y-46933333D01*
X94714285Y-46885714D01*
X94904761Y-46885714D01*
X95000000Y-46933333D01*
X95047619Y-47028571D01*
X95047619Y-47123809D01*
X94571428Y-47219047D01*
X95380952Y-46552380D02*
X96047619Y-46552380D01*
X95619047Y-47552380D01*
%TO.C,Fuse9*%
X174380952Y-47028571D02*
X174047619Y-47028571D01*
X174047619Y-47552380D02*
X174047619Y-46552380D01*
X174523809Y-46552380D01*
X175333333Y-46885714D02*
X175333333Y-47552380D01*
X174904761Y-46885714D02*
X174904761Y-47409523D01*
X174952380Y-47504761D01*
X175047619Y-47552380D01*
X175190476Y-47552380D01*
X175285714Y-47504761D01*
X175333333Y-47457142D01*
X175761904Y-47504761D02*
X175857142Y-47552380D01*
X176047619Y-47552380D01*
X176142857Y-47504761D01*
X176190476Y-47409523D01*
X176190476Y-47361904D01*
X176142857Y-47266666D01*
X176047619Y-47219047D01*
X175904761Y-47219047D01*
X175809523Y-47171428D01*
X175761904Y-47076190D01*
X175761904Y-47028571D01*
X175809523Y-46933333D01*
X175904761Y-46885714D01*
X176047619Y-46885714D01*
X176142857Y-46933333D01*
X177000000Y-47504761D02*
X176904761Y-47552380D01*
X176714285Y-47552380D01*
X176619047Y-47504761D01*
X176571428Y-47409523D01*
X176571428Y-47028571D01*
X176619047Y-46933333D01*
X176714285Y-46885714D01*
X176904761Y-46885714D01*
X177000000Y-46933333D01*
X177047619Y-47028571D01*
X177047619Y-47123809D01*
X176571428Y-47219047D01*
X177523809Y-47552380D02*
X177714285Y-47552380D01*
X177809523Y-47504761D01*
X177857142Y-47457142D01*
X177952380Y-47314285D01*
X178000000Y-47123809D01*
X178000000Y-46742857D01*
X177952380Y-46647619D01*
X177904761Y-46600000D01*
X177809523Y-46552380D01*
X177619047Y-46552380D01*
X177523809Y-46600000D01*
X177476190Y-46647619D01*
X177428571Y-46742857D01*
X177428571Y-46980952D01*
X177476190Y-47076190D01*
X177523809Y-47123809D01*
X177619047Y-47171428D01*
X177809523Y-47171428D01*
X177904761Y-47123809D01*
X177952380Y-47076190D01*
X178000000Y-46980952D01*
%TO.C,R3*%
X107292380Y-25166666D02*
X106816190Y-25500000D01*
X107292380Y-25738095D02*
X106292380Y-25738095D01*
X106292380Y-25357142D01*
X106340000Y-25261904D01*
X106387619Y-25214285D01*
X106482857Y-25166666D01*
X106625714Y-25166666D01*
X106720952Y-25214285D01*
X106768571Y-25261904D01*
X106816190Y-25357142D01*
X106816190Y-25738095D01*
X106292380Y-24833333D02*
X106292380Y-24214285D01*
X106673333Y-24547619D01*
X106673333Y-24404761D01*
X106720952Y-24309523D01*
X106768571Y-24261904D01*
X106863809Y-24214285D01*
X107101904Y-24214285D01*
X107197142Y-24261904D01*
X107244761Y-24309523D01*
X107292380Y-24404761D01*
X107292380Y-24690476D01*
X107244761Y-24785714D01*
X107197142Y-24833333D01*
%TO.C,Fuse2*%
X64380952Y-46928571D02*
X64047619Y-46928571D01*
X64047619Y-47452380D02*
X64047619Y-46452380D01*
X64523809Y-46452380D01*
X65333333Y-46785714D02*
X65333333Y-47452380D01*
X64904761Y-46785714D02*
X64904761Y-47309523D01*
X64952380Y-47404761D01*
X65047619Y-47452380D01*
X65190476Y-47452380D01*
X65285714Y-47404761D01*
X65333333Y-47357142D01*
X65761904Y-47404761D02*
X65857142Y-47452380D01*
X66047619Y-47452380D01*
X66142857Y-47404761D01*
X66190476Y-47309523D01*
X66190476Y-47261904D01*
X66142857Y-47166666D01*
X66047619Y-47119047D01*
X65904761Y-47119047D01*
X65809523Y-47071428D01*
X65761904Y-46976190D01*
X65761904Y-46928571D01*
X65809523Y-46833333D01*
X65904761Y-46785714D01*
X66047619Y-46785714D01*
X66142857Y-46833333D01*
X67000000Y-47404761D02*
X66904761Y-47452380D01*
X66714285Y-47452380D01*
X66619047Y-47404761D01*
X66571428Y-47309523D01*
X66571428Y-46928571D01*
X66619047Y-46833333D01*
X66714285Y-46785714D01*
X66904761Y-46785714D01*
X67000000Y-46833333D01*
X67047619Y-46928571D01*
X67047619Y-47023809D01*
X66571428Y-47119047D01*
X67428571Y-46547619D02*
X67476190Y-46500000D01*
X67571428Y-46452380D01*
X67809523Y-46452380D01*
X67904761Y-46500000D01*
X67952380Y-46547619D01*
X68000000Y-46642857D01*
X68000000Y-46738095D01*
X67952380Y-46880952D01*
X67380952Y-47452380D01*
X68000000Y-47452380D01*
%TO.C,Fuse6*%
X51380952Y-47028571D02*
X51047619Y-47028571D01*
X51047619Y-47552380D02*
X51047619Y-46552380D01*
X51523809Y-46552380D01*
X52333333Y-46885714D02*
X52333333Y-47552380D01*
X51904761Y-46885714D02*
X51904761Y-47409523D01*
X51952380Y-47504761D01*
X52047619Y-47552380D01*
X52190476Y-47552380D01*
X52285714Y-47504761D01*
X52333333Y-47457142D01*
X52761904Y-47504761D02*
X52857142Y-47552380D01*
X53047619Y-47552380D01*
X53142857Y-47504761D01*
X53190476Y-47409523D01*
X53190476Y-47361904D01*
X53142857Y-47266666D01*
X53047619Y-47219047D01*
X52904761Y-47219047D01*
X52809523Y-47171428D01*
X52761904Y-47076190D01*
X52761904Y-47028571D01*
X52809523Y-46933333D01*
X52904761Y-46885714D01*
X53047619Y-46885714D01*
X53142857Y-46933333D01*
X54000000Y-47504761D02*
X53904761Y-47552380D01*
X53714285Y-47552380D01*
X53619047Y-47504761D01*
X53571428Y-47409523D01*
X53571428Y-47028571D01*
X53619047Y-46933333D01*
X53714285Y-46885714D01*
X53904761Y-46885714D01*
X54000000Y-46933333D01*
X54047619Y-47028571D01*
X54047619Y-47123809D01*
X53571428Y-47219047D01*
X54904761Y-46552380D02*
X54714285Y-46552380D01*
X54619047Y-46600000D01*
X54571428Y-46647619D01*
X54476190Y-46790476D01*
X54428571Y-46980952D01*
X54428571Y-47361904D01*
X54476190Y-47457142D01*
X54523809Y-47504761D01*
X54619047Y-47552380D01*
X54809523Y-47552380D01*
X54904761Y-47504761D01*
X54952380Y-47457142D01*
X55000000Y-47361904D01*
X55000000Y-47123809D01*
X54952380Y-47028571D01*
X54904761Y-46980952D01*
X54809523Y-46933333D01*
X54619047Y-46933333D01*
X54523809Y-46980952D01*
X54476190Y-47028571D01*
X54428571Y-47123809D01*
%TO.C,R2*%
X66292380Y-25266666D02*
X65816190Y-25600000D01*
X66292380Y-25838095D02*
X65292380Y-25838095D01*
X65292380Y-25457142D01*
X65340000Y-25361904D01*
X65387619Y-25314285D01*
X65482857Y-25266666D01*
X65625714Y-25266666D01*
X65720952Y-25314285D01*
X65768571Y-25361904D01*
X65816190Y-25457142D01*
X65816190Y-25838095D01*
X65387619Y-24885714D02*
X65340000Y-24838095D01*
X65292380Y-24742857D01*
X65292380Y-24504761D01*
X65340000Y-24409523D01*
X65387619Y-24361904D01*
X65482857Y-24314285D01*
X65578095Y-24314285D01*
X65720952Y-24361904D01*
X66292380Y-24933333D01*
X66292380Y-24314285D01*
%TO.C,Fuse_2*%
X72928571Y-27000000D02*
X72928571Y-27333333D01*
X73452380Y-27333333D02*
X72452380Y-27333333D01*
X72452380Y-26857142D01*
X72785714Y-26047619D02*
X73452380Y-26047619D01*
X72785714Y-26476190D02*
X73309523Y-26476190D01*
X73404761Y-26428571D01*
X73452380Y-26333333D01*
X73452380Y-26190476D01*
X73404761Y-26095238D01*
X73357142Y-26047619D01*
X73404761Y-25619047D02*
X73452380Y-25523809D01*
X73452380Y-25333333D01*
X73404761Y-25238095D01*
X73309523Y-25190476D01*
X73261904Y-25190476D01*
X73166666Y-25238095D01*
X73119047Y-25333333D01*
X73119047Y-25476190D01*
X73071428Y-25571428D01*
X72976190Y-25619047D01*
X72928571Y-25619047D01*
X72833333Y-25571428D01*
X72785714Y-25476190D01*
X72785714Y-25333333D01*
X72833333Y-25238095D01*
X73404761Y-24380952D02*
X73452380Y-24476190D01*
X73452380Y-24666666D01*
X73404761Y-24761904D01*
X73309523Y-24809523D01*
X72928571Y-24809523D01*
X72833333Y-24761904D01*
X72785714Y-24666666D01*
X72785714Y-24476190D01*
X72833333Y-24380952D01*
X72928571Y-24333333D01*
X73023809Y-24333333D01*
X73119047Y-24809523D01*
X73547619Y-24142857D02*
X73547619Y-23380952D01*
X72547619Y-23190476D02*
X72500000Y-23142857D01*
X72452380Y-23047619D01*
X72452380Y-22809523D01*
X72500000Y-22714285D01*
X72547619Y-22666666D01*
X72642857Y-22619047D01*
X72738095Y-22619047D01*
X72880952Y-22666666D01*
X73452380Y-23238095D01*
X73452380Y-22619047D01*
%TO.C,Fuse_3*%
X112928571Y-27000000D02*
X112928571Y-27333333D01*
X113452380Y-27333333D02*
X112452380Y-27333333D01*
X112452380Y-26857142D01*
X112785714Y-26047619D02*
X113452380Y-26047619D01*
X112785714Y-26476190D02*
X113309523Y-26476190D01*
X113404761Y-26428571D01*
X113452380Y-26333333D01*
X113452380Y-26190476D01*
X113404761Y-26095238D01*
X113357142Y-26047619D01*
X113404761Y-25619047D02*
X113452380Y-25523809D01*
X113452380Y-25333333D01*
X113404761Y-25238095D01*
X113309523Y-25190476D01*
X113261904Y-25190476D01*
X113166666Y-25238095D01*
X113119047Y-25333333D01*
X113119047Y-25476190D01*
X113071428Y-25571428D01*
X112976190Y-25619047D01*
X112928571Y-25619047D01*
X112833333Y-25571428D01*
X112785714Y-25476190D01*
X112785714Y-25333333D01*
X112833333Y-25238095D01*
X113404761Y-24380952D02*
X113452380Y-24476190D01*
X113452380Y-24666666D01*
X113404761Y-24761904D01*
X113309523Y-24809523D01*
X112928571Y-24809523D01*
X112833333Y-24761904D01*
X112785714Y-24666666D01*
X112785714Y-24476190D01*
X112833333Y-24380952D01*
X112928571Y-24333333D01*
X113023809Y-24333333D01*
X113119047Y-24809523D01*
X113547619Y-24142857D02*
X113547619Y-23380952D01*
X112452380Y-23238095D02*
X112452380Y-22619047D01*
X112833333Y-22952380D01*
X112833333Y-22809523D01*
X112880952Y-22714285D01*
X112928571Y-22666666D01*
X113023809Y-22619047D01*
X113261904Y-22619047D01*
X113357142Y-22666666D01*
X113404761Y-22714285D01*
X113452380Y-22809523D01*
X113452380Y-23095238D01*
X113404761Y-23190476D01*
X113357142Y-23238095D01*
%TO.C,Fuse_4*%
X153928571Y-27000000D02*
X153928571Y-27333333D01*
X154452380Y-27333333D02*
X153452380Y-27333333D01*
X153452380Y-26857142D01*
X153785714Y-26047619D02*
X154452380Y-26047619D01*
X153785714Y-26476190D02*
X154309523Y-26476190D01*
X154404761Y-26428571D01*
X154452380Y-26333333D01*
X154452380Y-26190476D01*
X154404761Y-26095238D01*
X154357142Y-26047619D01*
X154404761Y-25619047D02*
X154452380Y-25523809D01*
X154452380Y-25333333D01*
X154404761Y-25238095D01*
X154309523Y-25190476D01*
X154261904Y-25190476D01*
X154166666Y-25238095D01*
X154119047Y-25333333D01*
X154119047Y-25476190D01*
X154071428Y-25571428D01*
X153976190Y-25619047D01*
X153928571Y-25619047D01*
X153833333Y-25571428D01*
X153785714Y-25476190D01*
X153785714Y-25333333D01*
X153833333Y-25238095D01*
X154404761Y-24380952D02*
X154452380Y-24476190D01*
X154452380Y-24666666D01*
X154404761Y-24761904D01*
X154309523Y-24809523D01*
X153928571Y-24809523D01*
X153833333Y-24761904D01*
X153785714Y-24666666D01*
X153785714Y-24476190D01*
X153833333Y-24380952D01*
X153928571Y-24333333D01*
X154023809Y-24333333D01*
X154119047Y-24809523D01*
X154547619Y-24142857D02*
X154547619Y-23380952D01*
X153785714Y-22714285D02*
X154452380Y-22714285D01*
X153404761Y-22952380D02*
X154119047Y-23190476D01*
X154119047Y-22571428D01*
%TO.C,Fuse_5*%
X194928571Y-27000000D02*
X194928571Y-27333333D01*
X195452380Y-27333333D02*
X194452380Y-27333333D01*
X194452380Y-26857142D01*
X194785714Y-26047619D02*
X195452380Y-26047619D01*
X194785714Y-26476190D02*
X195309523Y-26476190D01*
X195404761Y-26428571D01*
X195452380Y-26333333D01*
X195452380Y-26190476D01*
X195404761Y-26095238D01*
X195357142Y-26047619D01*
X195404761Y-25619047D02*
X195452380Y-25523809D01*
X195452380Y-25333333D01*
X195404761Y-25238095D01*
X195309523Y-25190476D01*
X195261904Y-25190476D01*
X195166666Y-25238095D01*
X195119047Y-25333333D01*
X195119047Y-25476190D01*
X195071428Y-25571428D01*
X194976190Y-25619047D01*
X194928571Y-25619047D01*
X194833333Y-25571428D01*
X194785714Y-25476190D01*
X194785714Y-25333333D01*
X194833333Y-25238095D01*
X195404761Y-24380952D02*
X195452380Y-24476190D01*
X195452380Y-24666666D01*
X195404761Y-24761904D01*
X195309523Y-24809523D01*
X194928571Y-24809523D01*
X194833333Y-24761904D01*
X194785714Y-24666666D01*
X194785714Y-24476190D01*
X194833333Y-24380952D01*
X194928571Y-24333333D01*
X195023809Y-24333333D01*
X195119047Y-24809523D01*
X195547619Y-24142857D02*
X195547619Y-23380952D01*
X194452380Y-22666666D02*
X194452380Y-23142857D01*
X194928571Y-23190476D01*
X194880952Y-23142857D01*
X194833333Y-23047619D01*
X194833333Y-22809523D01*
X194880952Y-22714285D01*
X194928571Y-22666666D01*
X195023809Y-22619047D01*
X195261904Y-22619047D01*
X195357142Y-22666666D01*
X195404761Y-22714285D01*
X195452380Y-22809523D01*
X195452380Y-23047619D01*
X195404761Y-23142857D01*
X195357142Y-23190476D01*
%TO.C,Fuse_6*%
X46928571Y-27000000D02*
X46928571Y-27333333D01*
X47452380Y-27333333D02*
X46452380Y-27333333D01*
X46452380Y-26857142D01*
X46785714Y-26047619D02*
X47452380Y-26047619D01*
X46785714Y-26476190D02*
X47309523Y-26476190D01*
X47404761Y-26428571D01*
X47452380Y-26333333D01*
X47452380Y-26190476D01*
X47404761Y-26095238D01*
X47357142Y-26047619D01*
X47404761Y-25619047D02*
X47452380Y-25523809D01*
X47452380Y-25333333D01*
X47404761Y-25238095D01*
X47309523Y-25190476D01*
X47261904Y-25190476D01*
X47166666Y-25238095D01*
X47119047Y-25333333D01*
X47119047Y-25476190D01*
X47071428Y-25571428D01*
X46976190Y-25619047D01*
X46928571Y-25619047D01*
X46833333Y-25571428D01*
X46785714Y-25476190D01*
X46785714Y-25333333D01*
X46833333Y-25238095D01*
X47404761Y-24380952D02*
X47452380Y-24476190D01*
X47452380Y-24666666D01*
X47404761Y-24761904D01*
X47309523Y-24809523D01*
X46928571Y-24809523D01*
X46833333Y-24761904D01*
X46785714Y-24666666D01*
X46785714Y-24476190D01*
X46833333Y-24380952D01*
X46928571Y-24333333D01*
X47023809Y-24333333D01*
X47119047Y-24809523D01*
X47547619Y-24142857D02*
X47547619Y-23380952D01*
X46452380Y-22714285D02*
X46452380Y-22904761D01*
X46500000Y-23000000D01*
X46547619Y-23047619D01*
X46690476Y-23142857D01*
X46880952Y-23190476D01*
X47261904Y-23190476D01*
X47357142Y-23142857D01*
X47404761Y-23095238D01*
X47452380Y-23000000D01*
X47452380Y-22809523D01*
X47404761Y-22714285D01*
X47357142Y-22666666D01*
X47261904Y-22619047D01*
X47023809Y-22619047D01*
X46928571Y-22666666D01*
X46880952Y-22714285D01*
X46833333Y-22809523D01*
X46833333Y-23000000D01*
X46880952Y-23095238D01*
X46928571Y-23142857D01*
X47023809Y-23190476D01*
%TO.C,Fuse_8*%
X128928571Y-27000000D02*
X128928571Y-27333333D01*
X129452380Y-27333333D02*
X128452380Y-27333333D01*
X128452380Y-26857142D01*
X128785714Y-26047619D02*
X129452380Y-26047619D01*
X128785714Y-26476190D02*
X129309523Y-26476190D01*
X129404761Y-26428571D01*
X129452380Y-26333333D01*
X129452380Y-26190476D01*
X129404761Y-26095238D01*
X129357142Y-26047619D01*
X129404761Y-25619047D02*
X129452380Y-25523809D01*
X129452380Y-25333333D01*
X129404761Y-25238095D01*
X129309523Y-25190476D01*
X129261904Y-25190476D01*
X129166666Y-25238095D01*
X129119047Y-25333333D01*
X129119047Y-25476190D01*
X129071428Y-25571428D01*
X128976190Y-25619047D01*
X128928571Y-25619047D01*
X128833333Y-25571428D01*
X128785714Y-25476190D01*
X128785714Y-25333333D01*
X128833333Y-25238095D01*
X129404761Y-24380952D02*
X129452380Y-24476190D01*
X129452380Y-24666666D01*
X129404761Y-24761904D01*
X129309523Y-24809523D01*
X128928571Y-24809523D01*
X128833333Y-24761904D01*
X128785714Y-24666666D01*
X128785714Y-24476190D01*
X128833333Y-24380952D01*
X128928571Y-24333333D01*
X129023809Y-24333333D01*
X129119047Y-24809523D01*
X129547619Y-24142857D02*
X129547619Y-23380952D01*
X128880952Y-23000000D02*
X128833333Y-23095238D01*
X128785714Y-23142857D01*
X128690476Y-23190476D01*
X128642857Y-23190476D01*
X128547619Y-23142857D01*
X128500000Y-23095238D01*
X128452380Y-23000000D01*
X128452380Y-22809523D01*
X128500000Y-22714285D01*
X128547619Y-22666666D01*
X128642857Y-22619047D01*
X128690476Y-22619047D01*
X128785714Y-22666666D01*
X128833333Y-22714285D01*
X128880952Y-22809523D01*
X128880952Y-23000000D01*
X128928571Y-23095238D01*
X128976190Y-23142857D01*
X129071428Y-23190476D01*
X129261904Y-23190476D01*
X129357142Y-23142857D01*
X129404761Y-23095238D01*
X129452380Y-23000000D01*
X129452380Y-22809523D01*
X129404761Y-22714285D01*
X129357142Y-22666666D01*
X129261904Y-22619047D01*
X129071428Y-22619047D01*
X128976190Y-22666666D01*
X128928571Y-22714285D01*
X128880952Y-22809523D01*
%TO.C,Fuse_9*%
X169928571Y-27000000D02*
X169928571Y-27333333D01*
X170452380Y-27333333D02*
X169452380Y-27333333D01*
X169452380Y-26857142D01*
X169785714Y-26047619D02*
X170452380Y-26047619D01*
X169785714Y-26476190D02*
X170309523Y-26476190D01*
X170404761Y-26428571D01*
X170452380Y-26333333D01*
X170452380Y-26190476D01*
X170404761Y-26095238D01*
X170357142Y-26047619D01*
X170404761Y-25619047D02*
X170452380Y-25523809D01*
X170452380Y-25333333D01*
X170404761Y-25238095D01*
X170309523Y-25190476D01*
X170261904Y-25190476D01*
X170166666Y-25238095D01*
X170119047Y-25333333D01*
X170119047Y-25476190D01*
X170071428Y-25571428D01*
X169976190Y-25619047D01*
X169928571Y-25619047D01*
X169833333Y-25571428D01*
X169785714Y-25476190D01*
X169785714Y-25333333D01*
X169833333Y-25238095D01*
X170404761Y-24380952D02*
X170452380Y-24476190D01*
X170452380Y-24666666D01*
X170404761Y-24761904D01*
X170309523Y-24809523D01*
X169928571Y-24809523D01*
X169833333Y-24761904D01*
X169785714Y-24666666D01*
X169785714Y-24476190D01*
X169833333Y-24380952D01*
X169928571Y-24333333D01*
X170023809Y-24333333D01*
X170119047Y-24809523D01*
X170547619Y-24142857D02*
X170547619Y-23380952D01*
X170452380Y-23095238D02*
X170452380Y-22904761D01*
X170404761Y-22809523D01*
X170357142Y-22761904D01*
X170214285Y-22666666D01*
X170023809Y-22619047D01*
X169642857Y-22619047D01*
X169547619Y-22666666D01*
X169500000Y-22714285D01*
X169452380Y-22809523D01*
X169452380Y-23000000D01*
X169500000Y-23095238D01*
X169547619Y-23142857D01*
X169642857Y-23190476D01*
X169880952Y-23190476D01*
X169976190Y-23142857D01*
X170023809Y-23095238D01*
X170071428Y-23000000D01*
X170071428Y-22809523D01*
X170023809Y-22714285D01*
X169976190Y-22666666D01*
X169880952Y-22619047D01*
%TO.C,Fuse_10*%
X210928571Y-26476190D02*
X210928571Y-26809523D01*
X211452380Y-26809523D02*
X210452380Y-26809523D01*
X210452380Y-26333333D01*
X210785714Y-25523809D02*
X211452380Y-25523809D01*
X210785714Y-25952380D02*
X211309523Y-25952380D01*
X211404761Y-25904761D01*
X211452380Y-25809523D01*
X211452380Y-25666666D01*
X211404761Y-25571428D01*
X211357142Y-25523809D01*
X211404761Y-25095238D02*
X211452380Y-25000000D01*
X211452380Y-24809523D01*
X211404761Y-24714285D01*
X211309523Y-24666666D01*
X211261904Y-24666666D01*
X211166666Y-24714285D01*
X211119047Y-24809523D01*
X211119047Y-24952380D01*
X211071428Y-25047619D01*
X210976190Y-25095238D01*
X210928571Y-25095238D01*
X210833333Y-25047619D01*
X210785714Y-24952380D01*
X210785714Y-24809523D01*
X210833333Y-24714285D01*
X211404761Y-23857142D02*
X211452380Y-23952380D01*
X211452380Y-24142857D01*
X211404761Y-24238095D01*
X211309523Y-24285714D01*
X210928571Y-24285714D01*
X210833333Y-24238095D01*
X210785714Y-24142857D01*
X210785714Y-23952380D01*
X210833333Y-23857142D01*
X210928571Y-23809523D01*
X211023809Y-23809523D01*
X211119047Y-24285714D01*
X211547619Y-23619047D02*
X211547619Y-22857142D01*
X211452380Y-22095238D02*
X211452380Y-22666666D01*
X211452380Y-22380952D02*
X210452380Y-22380952D01*
X210595238Y-22476190D01*
X210690476Y-22571428D01*
X210738095Y-22666666D01*
X210452380Y-21476190D02*
X210452380Y-21380952D01*
X210500000Y-21285714D01*
X210547619Y-21238095D01*
X210642857Y-21190476D01*
X210833333Y-21142857D01*
X211071428Y-21142857D01*
X211261904Y-21190476D01*
X211357142Y-21238095D01*
X211404761Y-21285714D01*
X211452380Y-21380952D01*
X211452380Y-21476190D01*
X211404761Y-21571428D01*
X211357142Y-21619047D01*
X211261904Y-21666666D01*
X211071428Y-21714285D01*
X210833333Y-21714285D01*
X210642857Y-21666666D01*
X210547619Y-21619047D01*
X210500000Y-21571428D01*
X210452380Y-21476190D01*
%TO.C,H7*%
X214238095Y-137452380D02*
X214238095Y-136452380D01*
X214238095Y-136928571D02*
X214809523Y-136928571D01*
X214809523Y-137452380D02*
X214809523Y-136452380D01*
X215190476Y-136452380D02*
X215857142Y-136452380D01*
X215428571Y-137452380D01*
%TO.C,H10*%
X58861904Y-47852380D02*
X58861904Y-46852380D01*
X58861904Y-47328571D02*
X59433333Y-47328571D01*
X59433333Y-47852380D02*
X59433333Y-46852380D01*
X60433333Y-47852380D02*
X59861904Y-47852380D01*
X60147619Y-47852380D02*
X60147619Y-46852380D01*
X60052380Y-46995238D01*
X59957142Y-47090476D01*
X59861904Y-47138095D01*
X61052380Y-46852380D02*
X61147619Y-46852380D01*
X61242857Y-46900000D01*
X61290476Y-46947619D01*
X61338095Y-47042857D01*
X61385714Y-47233333D01*
X61385714Y-47471428D01*
X61338095Y-47661904D01*
X61290476Y-47757142D01*
X61242857Y-47804761D01*
X61147619Y-47852380D01*
X61052380Y-47852380D01*
X60957142Y-47804761D01*
X60909523Y-47757142D01*
X60861904Y-47661904D01*
X60814285Y-47471428D01*
X60814285Y-47233333D01*
X60861904Y-47042857D01*
X60909523Y-46947619D01*
X60957142Y-46900000D01*
X61052380Y-46852380D01*
%TO.C,H15*%
X180761904Y-32452380D02*
X180761904Y-31452380D01*
X180761904Y-31928571D02*
X181333333Y-31928571D01*
X181333333Y-32452380D02*
X181333333Y-31452380D01*
X182333333Y-32452380D02*
X181761904Y-32452380D01*
X182047619Y-32452380D02*
X182047619Y-31452380D01*
X181952380Y-31595238D01*
X181857142Y-31690476D01*
X181761904Y-31738095D01*
X183238095Y-31452380D02*
X182761904Y-31452380D01*
X182714285Y-31928571D01*
X182761904Y-31880952D01*
X182857142Y-31833333D01*
X183095238Y-31833333D01*
X183190476Y-31880952D01*
X183238095Y-31928571D01*
X183285714Y-32023809D01*
X183285714Y-32261904D01*
X183238095Y-32357142D01*
X183190476Y-32404761D01*
X183095238Y-32452380D01*
X182857142Y-32452380D01*
X182761904Y-32404761D01*
X182714285Y-32357142D01*
%TO.C,H21*%
X17761904Y-120452380D02*
X17761904Y-119452380D01*
X17761904Y-119928571D02*
X18333333Y-119928571D01*
X18333333Y-120452380D02*
X18333333Y-119452380D01*
X18761904Y-119547619D02*
X18809523Y-119500000D01*
X18904761Y-119452380D01*
X19142857Y-119452380D01*
X19238095Y-119500000D01*
X19285714Y-119547619D01*
X19333333Y-119642857D01*
X19333333Y-119738095D01*
X19285714Y-119880952D01*
X18714285Y-120452380D01*
X19333333Y-120452380D01*
X20285714Y-120452380D02*
X19714285Y-120452380D01*
X20000000Y-120452380D02*
X20000000Y-119452380D01*
X19904761Y-119595238D01*
X19809523Y-119690476D01*
X19714285Y-119738095D01*
%TO.C,H23*%
X213761904Y-16452380D02*
X213761904Y-15452380D01*
X213761904Y-15928571D02*
X214333333Y-15928571D01*
X214333333Y-16452380D02*
X214333333Y-15452380D01*
X214761904Y-15547619D02*
X214809523Y-15500000D01*
X214904761Y-15452380D01*
X215142857Y-15452380D01*
X215238095Y-15500000D01*
X215285714Y-15547619D01*
X215333333Y-15642857D01*
X215333333Y-15738095D01*
X215285714Y-15880952D01*
X214714285Y-16452380D01*
X215333333Y-16452380D01*
X215666666Y-15452380D02*
X216285714Y-15452380D01*
X215952380Y-15833333D01*
X216095238Y-15833333D01*
X216190476Y-15880952D01*
X216238095Y-15928571D01*
X216285714Y-16023809D01*
X216285714Y-16261904D01*
X216238095Y-16357142D01*
X216190476Y-16404761D01*
X216095238Y-16452380D01*
X215809523Y-16452380D01*
X215714285Y-16404761D01*
X215666666Y-16357142D01*
%TO.C,H24*%
X99761904Y-47952380D02*
X99761904Y-46952380D01*
X99761904Y-47428571D02*
X100333333Y-47428571D01*
X100333333Y-47952380D02*
X100333333Y-46952380D01*
X100761904Y-47047619D02*
X100809523Y-47000000D01*
X100904761Y-46952380D01*
X101142857Y-46952380D01*
X101238095Y-47000000D01*
X101285714Y-47047619D01*
X101333333Y-47142857D01*
X101333333Y-47238095D01*
X101285714Y-47380952D01*
X100714285Y-47952380D01*
X101333333Y-47952380D01*
X102190476Y-47285714D02*
X102190476Y-47952380D01*
X101952380Y-46904761D02*
X101714285Y-47619047D01*
X102333333Y-47619047D01*
%TO.C,H27*%
X140561904Y-47952380D02*
X140561904Y-46952380D01*
X140561904Y-47428571D02*
X141133333Y-47428571D01*
X141133333Y-47952380D02*
X141133333Y-46952380D01*
X141561904Y-47047619D02*
X141609523Y-47000000D01*
X141704761Y-46952380D01*
X141942857Y-46952380D01*
X142038095Y-47000000D01*
X142085714Y-47047619D01*
X142133333Y-47142857D01*
X142133333Y-47238095D01*
X142085714Y-47380952D01*
X141514285Y-47952380D01*
X142133333Y-47952380D01*
X142466666Y-46952380D02*
X143133333Y-46952380D01*
X142704761Y-47952380D01*
%TO.C,H33*%
X181061904Y-47952380D02*
X181061904Y-46952380D01*
X181061904Y-47428571D02*
X181633333Y-47428571D01*
X181633333Y-47952380D02*
X181633333Y-46952380D01*
X182014285Y-46952380D02*
X182633333Y-46952380D01*
X182300000Y-47333333D01*
X182442857Y-47333333D01*
X182538095Y-47380952D01*
X182585714Y-47428571D01*
X182633333Y-47523809D01*
X182633333Y-47761904D01*
X182585714Y-47857142D01*
X182538095Y-47904761D01*
X182442857Y-47952380D01*
X182157142Y-47952380D01*
X182061904Y-47904761D01*
X182014285Y-47857142D01*
X182966666Y-46952380D02*
X183585714Y-46952380D01*
X183252380Y-47333333D01*
X183395238Y-47333333D01*
X183490476Y-47380952D01*
X183538095Y-47428571D01*
X183585714Y-47523809D01*
X183585714Y-47761904D01*
X183538095Y-47857142D01*
X183490476Y-47904761D01*
X183395238Y-47952380D01*
X183109523Y-47952380D01*
X183014285Y-47904761D01*
X182966666Y-47857142D01*
%TO.C,H36*%
X98761904Y-32452380D02*
X98761904Y-31452380D01*
X98761904Y-31928571D02*
X99333333Y-31928571D01*
X99333333Y-32452380D02*
X99333333Y-31452380D01*
X99714285Y-31452380D02*
X100333333Y-31452380D01*
X100000000Y-31833333D01*
X100142857Y-31833333D01*
X100238095Y-31880952D01*
X100285714Y-31928571D01*
X100333333Y-32023809D01*
X100333333Y-32261904D01*
X100285714Y-32357142D01*
X100238095Y-32404761D01*
X100142857Y-32452380D01*
X99857142Y-32452380D01*
X99761904Y-32404761D01*
X99714285Y-32357142D01*
X101190476Y-31452380D02*
X101000000Y-31452380D01*
X100904761Y-31500000D01*
X100857142Y-31547619D01*
X100761904Y-31690476D01*
X100714285Y-31880952D01*
X100714285Y-32261904D01*
X100761904Y-32357142D01*
X100809523Y-32404761D01*
X100904761Y-32452380D01*
X101095238Y-32452380D01*
X101190476Y-32404761D01*
X101238095Y-32357142D01*
X101285714Y-32261904D01*
X101285714Y-32023809D01*
X101238095Y-31928571D01*
X101190476Y-31880952D01*
X101095238Y-31833333D01*
X100904761Y-31833333D01*
X100809523Y-31880952D01*
X100761904Y-31928571D01*
X100714285Y-32023809D01*
%TO.C,J15*%
X45190476Y-93452380D02*
X45190476Y-94166666D01*
X45142857Y-94309523D01*
X45047619Y-94404761D01*
X44904761Y-94452380D01*
X44809523Y-94452380D01*
X46190476Y-94452380D02*
X45619047Y-94452380D01*
X45904761Y-94452380D02*
X45904761Y-93452380D01*
X45809523Y-93595238D01*
X45714285Y-93690476D01*
X45619047Y-93738095D01*
X47095238Y-93452380D02*
X46619047Y-93452380D01*
X46571428Y-93928571D01*
X46619047Y-93880952D01*
X46714285Y-93833333D01*
X46952380Y-93833333D01*
X47047619Y-93880952D01*
X47095238Y-93928571D01*
X47142857Y-94023809D01*
X47142857Y-94261904D01*
X47095238Y-94357142D01*
X47047619Y-94404761D01*
X46952380Y-94452380D01*
X46714285Y-94452380D01*
X46619047Y-94404761D01*
X46571428Y-94357142D01*
%TO.C,J16*%
X87190476Y-93452380D02*
X87190476Y-94166666D01*
X87142857Y-94309523D01*
X87047619Y-94404761D01*
X86904761Y-94452380D01*
X86809523Y-94452380D01*
X88190476Y-94452380D02*
X87619047Y-94452380D01*
X87904761Y-94452380D02*
X87904761Y-93452380D01*
X87809523Y-93595238D01*
X87714285Y-93690476D01*
X87619047Y-93738095D01*
X89047619Y-93452380D02*
X88857142Y-93452380D01*
X88761904Y-93500000D01*
X88714285Y-93547619D01*
X88619047Y-93690476D01*
X88571428Y-93880952D01*
X88571428Y-94261904D01*
X88619047Y-94357142D01*
X88666666Y-94404761D01*
X88761904Y-94452380D01*
X88952380Y-94452380D01*
X89047619Y-94404761D01*
X89095238Y-94357142D01*
X89142857Y-94261904D01*
X89142857Y-94023809D01*
X89095238Y-93928571D01*
X89047619Y-93880952D01*
X88952380Y-93833333D01*
X88761904Y-93833333D01*
X88666666Y-93880952D01*
X88619047Y-93928571D01*
X88571428Y-94023809D01*
%TO.C,J19*%
X128190476Y-93452380D02*
X128190476Y-94166666D01*
X128142857Y-94309523D01*
X128047619Y-94404761D01*
X127904761Y-94452380D01*
X127809523Y-94452380D01*
X129190476Y-94452380D02*
X128619047Y-94452380D01*
X128904761Y-94452380D02*
X128904761Y-93452380D01*
X128809523Y-93595238D01*
X128714285Y-93690476D01*
X128619047Y-93738095D01*
X129666666Y-94452380D02*
X129857142Y-94452380D01*
X129952380Y-94404761D01*
X130000000Y-94357142D01*
X130095238Y-94214285D01*
X130142857Y-94023809D01*
X130142857Y-93642857D01*
X130095238Y-93547619D01*
X130047619Y-93500000D01*
X129952380Y-93452380D01*
X129761904Y-93452380D01*
X129666666Y-93500000D01*
X129619047Y-93547619D01*
X129571428Y-93642857D01*
X129571428Y-93880952D01*
X129619047Y-93976190D01*
X129666666Y-94023809D01*
X129761904Y-94071428D01*
X129952380Y-94071428D01*
X130047619Y-94023809D01*
X130095238Y-93976190D01*
X130142857Y-93880952D01*
%TO.C,J22*%
X168190476Y-93452380D02*
X168190476Y-94166666D01*
X168142857Y-94309523D01*
X168047619Y-94404761D01*
X167904761Y-94452380D01*
X167809523Y-94452380D01*
X168619047Y-93547619D02*
X168666666Y-93500000D01*
X168761904Y-93452380D01*
X169000000Y-93452380D01*
X169095238Y-93500000D01*
X169142857Y-93547619D01*
X169190476Y-93642857D01*
X169190476Y-93738095D01*
X169142857Y-93880952D01*
X168571428Y-94452380D01*
X169190476Y-94452380D01*
X169571428Y-93547619D02*
X169619047Y-93500000D01*
X169714285Y-93452380D01*
X169952380Y-93452380D01*
X170047619Y-93500000D01*
X170095238Y-93547619D01*
X170142857Y-93642857D01*
X170142857Y-93738095D01*
X170095238Y-93880952D01*
X169523809Y-94452380D01*
X170142857Y-94452380D01*
%TO.C,J25*%
X209090476Y-93452380D02*
X209090476Y-94166666D01*
X209042857Y-94309523D01*
X208947619Y-94404761D01*
X208804761Y-94452380D01*
X208709523Y-94452380D01*
X209519047Y-93547619D02*
X209566666Y-93500000D01*
X209661904Y-93452380D01*
X209900000Y-93452380D01*
X209995238Y-93500000D01*
X210042857Y-93547619D01*
X210090476Y-93642857D01*
X210090476Y-93738095D01*
X210042857Y-93880952D01*
X209471428Y-94452380D01*
X210090476Y-94452380D01*
X210995238Y-93452380D02*
X210519047Y-93452380D01*
X210471428Y-93928571D01*
X210519047Y-93880952D01*
X210614285Y-93833333D01*
X210852380Y-93833333D01*
X210947619Y-93880952D01*
X210995238Y-93928571D01*
X211042857Y-94023809D01*
X211042857Y-94261904D01*
X210995238Y-94357142D01*
X210947619Y-94404761D01*
X210852380Y-94452380D01*
X210614285Y-94452380D01*
X210519047Y-94404761D01*
X210471428Y-94357142D01*
%TO.C,J29*%
X32190476Y-93452380D02*
X32190476Y-94166666D01*
X32142857Y-94309523D01*
X32047619Y-94404761D01*
X31904761Y-94452380D01*
X31809523Y-94452380D01*
X32619047Y-93547619D02*
X32666666Y-93500000D01*
X32761904Y-93452380D01*
X33000000Y-93452380D01*
X33095238Y-93500000D01*
X33142857Y-93547619D01*
X33190476Y-93642857D01*
X33190476Y-93738095D01*
X33142857Y-93880952D01*
X32571428Y-94452380D01*
X33190476Y-94452380D01*
X33666666Y-94452380D02*
X33857142Y-94452380D01*
X33952380Y-94404761D01*
X34000000Y-94357142D01*
X34095238Y-94214285D01*
X34142857Y-94023809D01*
X34142857Y-93642857D01*
X34095238Y-93547619D01*
X34047619Y-93500000D01*
X33952380Y-93452380D01*
X33761904Y-93452380D01*
X33666666Y-93500000D01*
X33619047Y-93547619D01*
X33571428Y-93642857D01*
X33571428Y-93880952D01*
X33619047Y-93976190D01*
X33666666Y-94023809D01*
X33761904Y-94071428D01*
X33952380Y-94071428D01*
X34047619Y-94023809D01*
X34095238Y-93976190D01*
X34142857Y-93880952D01*
%TO.C,J30*%
X113190476Y-93452380D02*
X113190476Y-94166666D01*
X113142857Y-94309523D01*
X113047619Y-94404761D01*
X112904761Y-94452380D01*
X112809523Y-94452380D01*
X113571428Y-93452380D02*
X114190476Y-93452380D01*
X113857142Y-93833333D01*
X114000000Y-93833333D01*
X114095238Y-93880952D01*
X114142857Y-93928571D01*
X114190476Y-94023809D01*
X114190476Y-94261904D01*
X114142857Y-94357142D01*
X114095238Y-94404761D01*
X114000000Y-94452380D01*
X113714285Y-94452380D01*
X113619047Y-94404761D01*
X113571428Y-94357142D01*
X114809523Y-93452380D02*
X114904761Y-93452380D01*
X115000000Y-93500000D01*
X115047619Y-93547619D01*
X115095238Y-93642857D01*
X115142857Y-93833333D01*
X115142857Y-94071428D01*
X115095238Y-94261904D01*
X115047619Y-94357142D01*
X115000000Y-94404761D01*
X114904761Y-94452380D01*
X114809523Y-94452380D01*
X114714285Y-94404761D01*
X114666666Y-94357142D01*
X114619047Y-94261904D01*
X114571428Y-94071428D01*
X114571428Y-93833333D01*
X114619047Y-93642857D01*
X114666666Y-93547619D01*
X114714285Y-93500000D01*
X114809523Y-93452380D01*
%TO.C,J31*%
X194190476Y-93452380D02*
X194190476Y-94166666D01*
X194142857Y-94309523D01*
X194047619Y-94404761D01*
X193904761Y-94452380D01*
X193809523Y-94452380D01*
X194571428Y-93452380D02*
X195190476Y-93452380D01*
X194857142Y-93833333D01*
X195000000Y-93833333D01*
X195095238Y-93880952D01*
X195142857Y-93928571D01*
X195190476Y-94023809D01*
X195190476Y-94261904D01*
X195142857Y-94357142D01*
X195095238Y-94404761D01*
X195000000Y-94452380D01*
X194714285Y-94452380D01*
X194619047Y-94404761D01*
X194571428Y-94357142D01*
X196142857Y-94452380D02*
X195571428Y-94452380D01*
X195857142Y-94452380D02*
X195857142Y-93452380D01*
X195761904Y-93595238D01*
X195666666Y-93690476D01*
X195571428Y-93738095D01*
%TO.C,J32*%
X18190476Y-94452380D02*
X18190476Y-95166666D01*
X18142857Y-95309523D01*
X18047619Y-95404761D01*
X17904761Y-95452380D01*
X17809523Y-95452380D01*
X18571428Y-94452380D02*
X19190476Y-94452380D01*
X18857142Y-94833333D01*
X19000000Y-94833333D01*
X19095238Y-94880952D01*
X19142857Y-94928571D01*
X19190476Y-95023809D01*
X19190476Y-95261904D01*
X19142857Y-95357142D01*
X19095238Y-95404761D01*
X19000000Y-95452380D01*
X18714285Y-95452380D01*
X18619047Y-95404761D01*
X18571428Y-95357142D01*
X19571428Y-94547619D02*
X19619047Y-94500000D01*
X19714285Y-94452380D01*
X19952380Y-94452380D01*
X20047619Y-94500000D01*
X20095238Y-94547619D01*
X20142857Y-94642857D01*
X20142857Y-94738095D01*
X20095238Y-94880952D01*
X19523809Y-95452380D01*
X20142857Y-95452380D01*
%TO.C,J33*%
X99190476Y-94452380D02*
X99190476Y-95166666D01*
X99142857Y-95309523D01*
X99047619Y-95404761D01*
X98904761Y-95452380D01*
X98809523Y-95452380D01*
X99571428Y-94452380D02*
X100190476Y-94452380D01*
X99857142Y-94833333D01*
X100000000Y-94833333D01*
X100095238Y-94880952D01*
X100142857Y-94928571D01*
X100190476Y-95023809D01*
X100190476Y-95261904D01*
X100142857Y-95357142D01*
X100095238Y-95404761D01*
X100000000Y-95452380D01*
X99714285Y-95452380D01*
X99619047Y-95404761D01*
X99571428Y-95357142D01*
X100523809Y-94452380D02*
X101142857Y-94452380D01*
X100809523Y-94833333D01*
X100952380Y-94833333D01*
X101047619Y-94880952D01*
X101095238Y-94928571D01*
X101142857Y-95023809D01*
X101142857Y-95261904D01*
X101095238Y-95357142D01*
X101047619Y-95404761D01*
X100952380Y-95452380D01*
X100666666Y-95452380D01*
X100571428Y-95404761D01*
X100523809Y-95357142D01*
%TO.C,J34*%
X181190476Y-94452380D02*
X181190476Y-95166666D01*
X181142857Y-95309523D01*
X181047619Y-95404761D01*
X180904761Y-95452380D01*
X180809523Y-95452380D01*
X181571428Y-94452380D02*
X182190476Y-94452380D01*
X181857142Y-94833333D01*
X182000000Y-94833333D01*
X182095238Y-94880952D01*
X182142857Y-94928571D01*
X182190476Y-95023809D01*
X182190476Y-95261904D01*
X182142857Y-95357142D01*
X182095238Y-95404761D01*
X182000000Y-95452380D01*
X181714285Y-95452380D01*
X181619047Y-95404761D01*
X181571428Y-95357142D01*
X183047619Y-94785714D02*
X183047619Y-95452380D01*
X182809523Y-94404761D02*
X182571428Y-95119047D01*
X183190476Y-95119047D01*
%TO.C,J35*%
X72190476Y-93452380D02*
X72190476Y-94166666D01*
X72142857Y-94309523D01*
X72047619Y-94404761D01*
X71904761Y-94452380D01*
X71809523Y-94452380D01*
X72571428Y-93452380D02*
X73190476Y-93452380D01*
X72857142Y-93833333D01*
X73000000Y-93833333D01*
X73095238Y-93880952D01*
X73142857Y-93928571D01*
X73190476Y-94023809D01*
X73190476Y-94261904D01*
X73142857Y-94357142D01*
X73095238Y-94404761D01*
X73000000Y-94452380D01*
X72714285Y-94452380D01*
X72619047Y-94404761D01*
X72571428Y-94357142D01*
X74095238Y-93452380D02*
X73619047Y-93452380D01*
X73571428Y-93928571D01*
X73619047Y-93880952D01*
X73714285Y-93833333D01*
X73952380Y-93833333D01*
X74047619Y-93880952D01*
X74095238Y-93928571D01*
X74142857Y-94023809D01*
X74142857Y-94261904D01*
X74095238Y-94357142D01*
X74047619Y-94404761D01*
X73952380Y-94452380D01*
X73714285Y-94452380D01*
X73619047Y-94404761D01*
X73571428Y-94357142D01*
%TO.C,J36*%
X153190476Y-93452380D02*
X153190476Y-94166666D01*
X153142857Y-94309523D01*
X153047619Y-94404761D01*
X152904761Y-94452380D01*
X152809523Y-94452380D01*
X153571428Y-93452380D02*
X154190476Y-93452380D01*
X153857142Y-93833333D01*
X154000000Y-93833333D01*
X154095238Y-93880952D01*
X154142857Y-93928571D01*
X154190476Y-94023809D01*
X154190476Y-94261904D01*
X154142857Y-94357142D01*
X154095238Y-94404761D01*
X154000000Y-94452380D01*
X153714285Y-94452380D01*
X153619047Y-94404761D01*
X153571428Y-94357142D01*
X155047619Y-93452380D02*
X154857142Y-93452380D01*
X154761904Y-93500000D01*
X154714285Y-93547619D01*
X154619047Y-93690476D01*
X154571428Y-93880952D01*
X154571428Y-94261904D01*
X154619047Y-94357142D01*
X154666666Y-94404761D01*
X154761904Y-94452380D01*
X154952380Y-94452380D01*
X155047619Y-94404761D01*
X155095238Y-94357142D01*
X155142857Y-94261904D01*
X155142857Y-94023809D01*
X155095238Y-93928571D01*
X155047619Y-93880952D01*
X154952380Y-93833333D01*
X154761904Y-93833333D01*
X154666666Y-93880952D01*
X154619047Y-93928571D01*
X154571428Y-94023809D01*
%TO.C,J37*%
X59190476Y-94452380D02*
X59190476Y-95166666D01*
X59142857Y-95309523D01*
X59047619Y-95404761D01*
X58904761Y-95452380D01*
X58809523Y-95452380D01*
X59571428Y-94452380D02*
X60190476Y-94452380D01*
X59857142Y-94833333D01*
X60000000Y-94833333D01*
X60095238Y-94880952D01*
X60142857Y-94928571D01*
X60190476Y-95023809D01*
X60190476Y-95261904D01*
X60142857Y-95357142D01*
X60095238Y-95404761D01*
X60000000Y-95452380D01*
X59714285Y-95452380D01*
X59619047Y-95404761D01*
X59571428Y-95357142D01*
X60523809Y-94452380D02*
X61190476Y-94452380D01*
X60761904Y-95452380D01*
%TO.C,J38*%
X140190476Y-94452380D02*
X140190476Y-95166666D01*
X140142857Y-95309523D01*
X140047619Y-95404761D01*
X139904761Y-95452380D01*
X139809523Y-95452380D01*
X140571428Y-94452380D02*
X141190476Y-94452380D01*
X140857142Y-94833333D01*
X141000000Y-94833333D01*
X141095238Y-94880952D01*
X141142857Y-94928571D01*
X141190476Y-95023809D01*
X141190476Y-95261904D01*
X141142857Y-95357142D01*
X141095238Y-95404761D01*
X141000000Y-95452380D01*
X140714285Y-95452380D01*
X140619047Y-95404761D01*
X140571428Y-95357142D01*
X141761904Y-94880952D02*
X141666666Y-94833333D01*
X141619047Y-94785714D01*
X141571428Y-94690476D01*
X141571428Y-94642857D01*
X141619047Y-94547619D01*
X141666666Y-94500000D01*
X141761904Y-94452380D01*
X141952380Y-94452380D01*
X142047619Y-94500000D01*
X142095238Y-94547619D01*
X142142857Y-94642857D01*
X142142857Y-94690476D01*
X142095238Y-94785714D01*
X142047619Y-94833333D01*
X141952380Y-94880952D01*
X141761904Y-94880952D01*
X141666666Y-94928571D01*
X141619047Y-94976190D01*
X141571428Y-95071428D01*
X141571428Y-95261904D01*
X141619047Y-95357142D01*
X141666666Y-95404761D01*
X141761904Y-95452380D01*
X141952380Y-95452380D01*
X142047619Y-95404761D01*
X142095238Y-95357142D01*
X142142857Y-95261904D01*
X142142857Y-95071428D01*
X142095238Y-94976190D01*
X142047619Y-94928571D01*
X141952380Y-94880952D01*
%TO.C,SW1*%
X44354761Y-56483333D02*
X44402380Y-56340476D01*
X44402380Y-56102380D01*
X44354761Y-56007142D01*
X44307142Y-55959523D01*
X44211904Y-55911904D01*
X44116666Y-55911904D01*
X44021428Y-55959523D01*
X43973809Y-56007142D01*
X43926190Y-56102380D01*
X43878571Y-56292857D01*
X43830952Y-56388095D01*
X43783333Y-56435714D01*
X43688095Y-56483333D01*
X43592857Y-56483333D01*
X43497619Y-56435714D01*
X43450000Y-56388095D01*
X43402380Y-56292857D01*
X43402380Y-56054761D01*
X43450000Y-55911904D01*
X43402380Y-55578571D02*
X44402380Y-55340476D01*
X43688095Y-55150000D01*
X44402380Y-54959523D01*
X43402380Y-54721428D01*
X44402380Y-53816666D02*
X44402380Y-54388095D01*
X44402380Y-54102380D02*
X43402380Y-54102380D01*
X43545238Y-54197619D01*
X43640476Y-54292857D01*
X43688095Y-54388095D01*
%TO.C,SW2*%
X125954761Y-56583333D02*
X126002380Y-56440476D01*
X126002380Y-56202380D01*
X125954761Y-56107142D01*
X125907142Y-56059523D01*
X125811904Y-56011904D01*
X125716666Y-56011904D01*
X125621428Y-56059523D01*
X125573809Y-56107142D01*
X125526190Y-56202380D01*
X125478571Y-56392857D01*
X125430952Y-56488095D01*
X125383333Y-56535714D01*
X125288095Y-56583333D01*
X125192857Y-56583333D01*
X125097619Y-56535714D01*
X125050000Y-56488095D01*
X125002380Y-56392857D01*
X125002380Y-56154761D01*
X125050000Y-56011904D01*
X125002380Y-55678571D02*
X126002380Y-55440476D01*
X125288095Y-55250000D01*
X126002380Y-55059523D01*
X125002380Y-54821428D01*
X125097619Y-54488095D02*
X125050000Y-54440476D01*
X125002380Y-54345238D01*
X125002380Y-54107142D01*
X125050000Y-54011904D01*
X125097619Y-53964285D01*
X125192857Y-53916666D01*
X125288095Y-53916666D01*
X125430952Y-53964285D01*
X126002380Y-54535714D01*
X126002380Y-53916666D01*
%TO.C,SW3*%
X207554761Y-56583333D02*
X207602380Y-56440476D01*
X207602380Y-56202380D01*
X207554761Y-56107142D01*
X207507142Y-56059523D01*
X207411904Y-56011904D01*
X207316666Y-56011904D01*
X207221428Y-56059523D01*
X207173809Y-56107142D01*
X207126190Y-56202380D01*
X207078571Y-56392857D01*
X207030952Y-56488095D01*
X206983333Y-56535714D01*
X206888095Y-56583333D01*
X206792857Y-56583333D01*
X206697619Y-56535714D01*
X206650000Y-56488095D01*
X206602380Y-56392857D01*
X206602380Y-56154761D01*
X206650000Y-56011904D01*
X206602380Y-55678571D02*
X207602380Y-55440476D01*
X206888095Y-55250000D01*
X207602380Y-55059523D01*
X206602380Y-54821428D01*
X206602380Y-54535714D02*
X206602380Y-53916666D01*
X206983333Y-54250000D01*
X206983333Y-54107142D01*
X207030952Y-54011904D01*
X207078571Y-53964285D01*
X207173809Y-53916666D01*
X207411904Y-53916666D01*
X207507142Y-53964285D01*
X207554761Y-54011904D01*
X207602380Y-54107142D01*
X207602380Y-54392857D01*
X207554761Y-54488095D01*
X207507142Y-54535714D01*
%TO.C,SW4*%
X85154761Y-56483333D02*
X85202380Y-56340476D01*
X85202380Y-56102380D01*
X85154761Y-56007142D01*
X85107142Y-55959523D01*
X85011904Y-55911904D01*
X84916666Y-55911904D01*
X84821428Y-55959523D01*
X84773809Y-56007142D01*
X84726190Y-56102380D01*
X84678571Y-56292857D01*
X84630952Y-56388095D01*
X84583333Y-56435714D01*
X84488095Y-56483333D01*
X84392857Y-56483333D01*
X84297619Y-56435714D01*
X84250000Y-56388095D01*
X84202380Y-56292857D01*
X84202380Y-56054761D01*
X84250000Y-55911904D01*
X84202380Y-55578571D02*
X85202380Y-55340476D01*
X84488095Y-55150000D01*
X85202380Y-54959523D01*
X84202380Y-54721428D01*
X84535714Y-53911904D02*
X85202380Y-53911904D01*
X84154761Y-54150000D02*
X84869047Y-54388095D01*
X84869047Y-53769047D01*
%TO.C,SW5*%
X166754761Y-56683333D02*
X166802380Y-56540476D01*
X166802380Y-56302380D01*
X166754761Y-56207142D01*
X166707142Y-56159523D01*
X166611904Y-56111904D01*
X166516666Y-56111904D01*
X166421428Y-56159523D01*
X166373809Y-56207142D01*
X166326190Y-56302380D01*
X166278571Y-56492857D01*
X166230952Y-56588095D01*
X166183333Y-56635714D01*
X166088095Y-56683333D01*
X165992857Y-56683333D01*
X165897619Y-56635714D01*
X165850000Y-56588095D01*
X165802380Y-56492857D01*
X165802380Y-56254761D01*
X165850000Y-56111904D01*
X165802380Y-55778571D02*
X166802380Y-55540476D01*
X166088095Y-55350000D01*
X166802380Y-55159523D01*
X165802380Y-54921428D01*
X165802380Y-54064285D02*
X165802380Y-54540476D01*
X166278571Y-54588095D01*
X166230952Y-54540476D01*
X166183333Y-54445238D01*
X166183333Y-54207142D01*
X166230952Y-54111904D01*
X166278571Y-54064285D01*
X166373809Y-54016666D01*
X166611904Y-54016666D01*
X166707142Y-54064285D01*
X166754761Y-54111904D01*
X166802380Y-54207142D01*
X166802380Y-54445238D01*
X166754761Y-54540476D01*
X166707142Y-54588095D01*
%TO.C,Fuse_7*%
X87928571Y-27000000D02*
X87928571Y-27333333D01*
X88452380Y-27333333D02*
X87452380Y-27333333D01*
X87452380Y-26857142D01*
X87785714Y-26047619D02*
X88452380Y-26047619D01*
X87785714Y-26476190D02*
X88309523Y-26476190D01*
X88404761Y-26428571D01*
X88452380Y-26333333D01*
X88452380Y-26190476D01*
X88404761Y-26095238D01*
X88357142Y-26047619D01*
X88404761Y-25619047D02*
X88452380Y-25523809D01*
X88452380Y-25333333D01*
X88404761Y-25238095D01*
X88309523Y-25190476D01*
X88261904Y-25190476D01*
X88166666Y-25238095D01*
X88119047Y-25333333D01*
X88119047Y-25476190D01*
X88071428Y-25571428D01*
X87976190Y-25619047D01*
X87928571Y-25619047D01*
X87833333Y-25571428D01*
X87785714Y-25476190D01*
X87785714Y-25333333D01*
X87833333Y-25238095D01*
X88404761Y-24380952D02*
X88452380Y-24476190D01*
X88452380Y-24666666D01*
X88404761Y-24761904D01*
X88309523Y-24809523D01*
X87928571Y-24809523D01*
X87833333Y-24761904D01*
X87785714Y-24666666D01*
X87785714Y-24476190D01*
X87833333Y-24380952D01*
X87928571Y-24333333D01*
X88023809Y-24333333D01*
X88119047Y-24809523D01*
X88547619Y-24142857D02*
X88547619Y-23380952D01*
X87452380Y-23238095D02*
X87452380Y-22571428D01*
X88452380Y-23000000D01*
%TO.C,Fuse8*%
X133380952Y-47028571D02*
X133047619Y-47028571D01*
X133047619Y-47552380D02*
X133047619Y-46552380D01*
X133523809Y-46552380D01*
X134333333Y-46885714D02*
X134333333Y-47552380D01*
X133904761Y-46885714D02*
X133904761Y-47409523D01*
X133952380Y-47504761D01*
X134047619Y-47552380D01*
X134190476Y-47552380D01*
X134285714Y-47504761D01*
X134333333Y-47457142D01*
X134761904Y-47504761D02*
X134857142Y-47552380D01*
X135047619Y-47552380D01*
X135142857Y-47504761D01*
X135190476Y-47409523D01*
X135190476Y-47361904D01*
X135142857Y-47266666D01*
X135047619Y-47219047D01*
X134904761Y-47219047D01*
X134809523Y-47171428D01*
X134761904Y-47076190D01*
X134761904Y-47028571D01*
X134809523Y-46933333D01*
X134904761Y-46885714D01*
X135047619Y-46885714D01*
X135142857Y-46933333D01*
X136000000Y-47504761D02*
X135904761Y-47552380D01*
X135714285Y-47552380D01*
X135619047Y-47504761D01*
X135571428Y-47409523D01*
X135571428Y-47028571D01*
X135619047Y-46933333D01*
X135714285Y-46885714D01*
X135904761Y-46885714D01*
X136000000Y-46933333D01*
X136047619Y-47028571D01*
X136047619Y-47123809D01*
X135571428Y-47219047D01*
X136619047Y-46980952D02*
X136523809Y-46933333D01*
X136476190Y-46885714D01*
X136428571Y-46790476D01*
X136428571Y-46742857D01*
X136476190Y-46647619D01*
X136523809Y-46600000D01*
X136619047Y-46552380D01*
X136809523Y-46552380D01*
X136904761Y-46600000D01*
X136952380Y-46647619D01*
X137000000Y-46742857D01*
X137000000Y-46790476D01*
X136952380Y-46885714D01*
X136904761Y-46933333D01*
X136809523Y-46980952D01*
X136619047Y-46980952D01*
X136523809Y-47028571D01*
X136476190Y-47076190D01*
X136428571Y-47171428D01*
X136428571Y-47361904D01*
X136476190Y-47457142D01*
X136523809Y-47504761D01*
X136619047Y-47552380D01*
X136809523Y-47552380D01*
X136904761Y-47504761D01*
X136952380Y-47457142D01*
X137000000Y-47361904D01*
X137000000Y-47171428D01*
X136952380Y-47076190D01*
X136904761Y-47028571D01*
X136809523Y-46980952D01*
%TO.C,Fuse10*%
X214904761Y-47028571D02*
X214571428Y-47028571D01*
X214571428Y-47552380D02*
X214571428Y-46552380D01*
X215047619Y-46552380D01*
X215857142Y-46885714D02*
X215857142Y-47552380D01*
X215428571Y-46885714D02*
X215428571Y-47409523D01*
X215476190Y-47504761D01*
X215571428Y-47552380D01*
X215714285Y-47552380D01*
X215809523Y-47504761D01*
X215857142Y-47457142D01*
X216285714Y-47504761D02*
X216380952Y-47552380D01*
X216571428Y-47552380D01*
X216666666Y-47504761D01*
X216714285Y-47409523D01*
X216714285Y-47361904D01*
X216666666Y-47266666D01*
X216571428Y-47219047D01*
X216428571Y-47219047D01*
X216333333Y-47171428D01*
X216285714Y-47076190D01*
X216285714Y-47028571D01*
X216333333Y-46933333D01*
X216428571Y-46885714D01*
X216571428Y-46885714D01*
X216666666Y-46933333D01*
X217523809Y-47504761D02*
X217428571Y-47552380D01*
X217238095Y-47552380D01*
X217142857Y-47504761D01*
X217095238Y-47409523D01*
X217095238Y-47028571D01*
X217142857Y-46933333D01*
X217238095Y-46885714D01*
X217428571Y-46885714D01*
X217523809Y-46933333D01*
X217571428Y-47028571D01*
X217571428Y-47123809D01*
X217095238Y-47219047D01*
X218523809Y-47552380D02*
X217952380Y-47552380D01*
X218238095Y-47552380D02*
X218238095Y-46552380D01*
X218142857Y-46695238D01*
X218047619Y-46790476D01*
X217952380Y-46838095D01*
X219142857Y-46552380D02*
X219238095Y-46552380D01*
X219333333Y-46600000D01*
X219380952Y-46647619D01*
X219428571Y-46742857D01*
X219476190Y-46933333D01*
X219476190Y-47171428D01*
X219428571Y-47361904D01*
X219380952Y-47457142D01*
X219333333Y-47504761D01*
X219238095Y-47552380D01*
X219142857Y-47552380D01*
X219047619Y-47504761D01*
X219000000Y-47457142D01*
X218952380Y-47361904D01*
X218904761Y-47171428D01*
X218904761Y-46933333D01*
X218952380Y-46742857D01*
X219000000Y-46647619D01*
X219047619Y-46600000D01*
X219142857Y-46552380D01*
%TO.C,H34*%
X50611904Y-91452380D02*
X50611904Y-90452380D01*
X50611904Y-90928571D02*
X51183333Y-90928571D01*
X51183333Y-91452380D02*
X51183333Y-90452380D01*
X51564285Y-90452380D02*
X52183333Y-90452380D01*
X51850000Y-90833333D01*
X51992857Y-90833333D01*
X52088095Y-90880952D01*
X52135714Y-90928571D01*
X52183333Y-91023809D01*
X52183333Y-91261904D01*
X52135714Y-91357142D01*
X52088095Y-91404761D01*
X51992857Y-91452380D01*
X51707142Y-91452380D01*
X51611904Y-91404761D01*
X51564285Y-91357142D01*
X53040476Y-90785714D02*
X53040476Y-91452380D01*
X52802380Y-90404761D02*
X52564285Y-91119047D01*
X53183333Y-91119047D01*
%TO.C,H6*%
X132688095Y-91452380D02*
X132688095Y-90452380D01*
X132688095Y-90928571D02*
X133259523Y-90928571D01*
X133259523Y-91452380D02*
X133259523Y-90452380D01*
X134164285Y-90452380D02*
X133973809Y-90452380D01*
X133878571Y-90500000D01*
X133830952Y-90547619D01*
X133735714Y-90690476D01*
X133688095Y-90880952D01*
X133688095Y-91261904D01*
X133735714Y-91357142D01*
X133783333Y-91404761D01*
X133878571Y-91452380D01*
X134069047Y-91452380D01*
X134164285Y-91404761D01*
X134211904Y-91357142D01*
X134259523Y-91261904D01*
X134259523Y-91023809D01*
X134211904Y-90928571D01*
X134164285Y-90880952D01*
X134069047Y-90833333D01*
X133878571Y-90833333D01*
X133783333Y-90880952D01*
X133735714Y-90928571D01*
X133688095Y-91023809D01*
%TO.C,H4*%
X91888095Y-91452380D02*
X91888095Y-90452380D01*
X91888095Y-90928571D02*
X92459523Y-90928571D01*
X92459523Y-91452380D02*
X92459523Y-90452380D01*
X93364285Y-90785714D02*
X93364285Y-91452380D01*
X93126190Y-90404761D02*
X92888095Y-91119047D01*
X93507142Y-91119047D01*
%TO.C,H12*%
X173011904Y-91452380D02*
X173011904Y-90452380D01*
X173011904Y-90928571D02*
X173583333Y-90928571D01*
X173583333Y-91452380D02*
X173583333Y-90452380D01*
X174583333Y-91452380D02*
X174011904Y-91452380D01*
X174297619Y-91452380D02*
X174297619Y-90452380D01*
X174202380Y-90595238D01*
X174107142Y-90690476D01*
X174011904Y-90738095D01*
X174964285Y-90547619D02*
X175011904Y-90500000D01*
X175107142Y-90452380D01*
X175345238Y-90452380D01*
X175440476Y-90500000D01*
X175488095Y-90547619D01*
X175535714Y-90642857D01*
X175535714Y-90738095D01*
X175488095Y-90880952D01*
X174916666Y-91452380D01*
X175535714Y-91452380D01*
%TO.C,H11*%
X213811904Y-91452380D02*
X213811904Y-90452380D01*
X213811904Y-90928571D02*
X214383333Y-90928571D01*
X214383333Y-91452380D02*
X214383333Y-90452380D01*
X215383333Y-91452380D02*
X214811904Y-91452380D01*
X215097619Y-91452380D02*
X215097619Y-90452380D01*
X215002380Y-90595238D01*
X214907142Y-90690476D01*
X214811904Y-90738095D01*
X216335714Y-91452380D02*
X215764285Y-91452380D01*
X216050000Y-91452380D02*
X216050000Y-90452380D01*
X215954761Y-90595238D01*
X215859523Y-90690476D01*
X215764285Y-90738095D01*
%TO.C,Fuse1*%
X22914952Y-46928571D02*
X22581619Y-46928571D01*
X22581619Y-47452380D02*
X22581619Y-46452380D01*
X23057809Y-46452380D01*
X23867333Y-46785714D02*
X23867333Y-47452380D01*
X23438761Y-46785714D02*
X23438761Y-47309523D01*
X23486380Y-47404761D01*
X23581619Y-47452380D01*
X23724476Y-47452380D01*
X23819714Y-47404761D01*
X23867333Y-47357142D01*
X24295904Y-47404761D02*
X24391142Y-47452380D01*
X24581619Y-47452380D01*
X24676857Y-47404761D01*
X24724476Y-47309523D01*
X24724476Y-47261904D01*
X24676857Y-47166666D01*
X24581619Y-47119047D01*
X24438761Y-47119047D01*
X24343523Y-47071428D01*
X24295904Y-46976190D01*
X24295904Y-46928571D01*
X24343523Y-46833333D01*
X24438761Y-46785714D01*
X24581619Y-46785714D01*
X24676857Y-46833333D01*
X25534000Y-47404761D02*
X25438761Y-47452380D01*
X25248285Y-47452380D01*
X25153047Y-47404761D01*
X25105428Y-47309523D01*
X25105428Y-46928571D01*
X25153047Y-46833333D01*
X25248285Y-46785714D01*
X25438761Y-46785714D01*
X25534000Y-46833333D01*
X25581619Y-46928571D01*
X25581619Y-47023809D01*
X25105428Y-47119047D01*
X26534000Y-47452380D02*
X25962571Y-47452380D01*
X26248285Y-47452380D02*
X26248285Y-46452380D01*
X26153047Y-46595238D01*
X26057809Y-46690476D01*
X25962571Y-46738095D01*
%TO.C,R1*%
X26292380Y-25266666D02*
X25816190Y-25600000D01*
X26292380Y-25838095D02*
X25292380Y-25838095D01*
X25292380Y-25457142D01*
X25340000Y-25361904D01*
X25387619Y-25314285D01*
X25482857Y-25266666D01*
X25625714Y-25266666D01*
X25720952Y-25314285D01*
X25768571Y-25361904D01*
X25816190Y-25457142D01*
X25816190Y-25838095D01*
X26292380Y-24314285D02*
X26292380Y-24885714D01*
X26292380Y-24600000D02*
X25292380Y-24600000D01*
X25435238Y-24695238D01*
X25530476Y-24790476D01*
X25578095Y-24885714D01*
%TO.C,Fuse_1*%
X31928571Y-27000000D02*
X31928571Y-27333333D01*
X32452380Y-27333333D02*
X31452380Y-27333333D01*
X31452380Y-26857142D01*
X31785714Y-26047619D02*
X32452380Y-26047619D01*
X31785714Y-26476190D02*
X32309523Y-26476190D01*
X32404761Y-26428571D01*
X32452380Y-26333333D01*
X32452380Y-26190476D01*
X32404761Y-26095238D01*
X32357142Y-26047619D01*
X32404761Y-25619047D02*
X32452380Y-25523809D01*
X32452380Y-25333333D01*
X32404761Y-25238095D01*
X32309523Y-25190476D01*
X32261904Y-25190476D01*
X32166666Y-25238095D01*
X32119047Y-25333333D01*
X32119047Y-25476190D01*
X32071428Y-25571428D01*
X31976190Y-25619047D01*
X31928571Y-25619047D01*
X31833333Y-25571428D01*
X31785714Y-25476190D01*
X31785714Y-25333333D01*
X31833333Y-25238095D01*
X32404761Y-24380952D02*
X32452380Y-24476190D01*
X32452380Y-24666666D01*
X32404761Y-24761904D01*
X32309523Y-24809523D01*
X31928571Y-24809523D01*
X31833333Y-24761904D01*
X31785714Y-24666666D01*
X31785714Y-24476190D01*
X31833333Y-24380952D01*
X31928571Y-24333333D01*
X32023809Y-24333333D01*
X32119047Y-24809523D01*
X32547619Y-24142857D02*
X32547619Y-23380952D01*
X32452380Y-22619047D02*
X32452380Y-23190476D01*
X32452380Y-22904761D02*
X31452380Y-22904761D01*
X31595238Y-23000000D01*
X31690476Y-23095238D01*
X31738095Y-23190476D01*
%TO.C,J1*%
X6666666Y-51452380D02*
X6666666Y-52166666D01*
X6619047Y-52309523D01*
X6523809Y-52404761D01*
X6380952Y-52452380D01*
X6285714Y-52452380D01*
X7666666Y-52452380D02*
X7095238Y-52452380D01*
X7380952Y-52452380D02*
X7380952Y-51452380D01*
X7285714Y-51595238D01*
X7190476Y-51690476D01*
X7095238Y-51738095D01*
%TO.C,H2*%
X-9761904Y-37452380D02*
X-9761904Y-36452380D01*
X-9761904Y-36928571D02*
X-9190476Y-36928571D01*
X-9190476Y-37452380D02*
X-9190476Y-36452380D01*
X-8761904Y-36547619D02*
X-8714285Y-36500000D01*
X-8619047Y-36452380D01*
X-8380952Y-36452380D01*
X-8285714Y-36500000D01*
X-8238095Y-36547619D01*
X-8190476Y-36642857D01*
X-8190476Y-36738095D01*
X-8238095Y-36880952D01*
X-8809523Y-37452380D01*
X-8190476Y-37452380D01*
%TO.C,H5*%
X-9761904Y-116452380D02*
X-9761904Y-115452380D01*
X-9761904Y-115928571D02*
X-9190476Y-115928571D01*
X-9190476Y-116452380D02*
X-9190476Y-115452380D01*
X-8238095Y-115452380D02*
X-8714285Y-115452380D01*
X-8761904Y-115928571D01*
X-8714285Y-115880952D01*
X-8619047Y-115833333D01*
X-8380952Y-115833333D01*
X-8285714Y-115880952D01*
X-8238095Y-115928571D01*
X-8190476Y-116023809D01*
X-8190476Y-116261904D01*
X-8238095Y-116357142D01*
X-8285714Y-116404761D01*
X-8380952Y-116452380D01*
X-8619047Y-116452380D01*
X-8714285Y-116404761D01*
X-8761904Y-116357142D01*
%TO.C,H9*%
X13238095Y-91452380D02*
X13238095Y-90452380D01*
X13238095Y-90928571D02*
X13809523Y-90928571D01*
X13809523Y-91452380D02*
X13809523Y-90452380D01*
X14333333Y-91452380D02*
X14523809Y-91452380D01*
X14619047Y-91404761D01*
X14666666Y-91357142D01*
X14761904Y-91214285D01*
X14809523Y-91023809D01*
X14809523Y-90642857D01*
X14761904Y-90547619D01*
X14714285Y-90500000D01*
X14619047Y-90452380D01*
X14428571Y-90452380D01*
X14333333Y-90500000D01*
X14285714Y-90547619D01*
X14238095Y-90642857D01*
X14238095Y-90880952D01*
X14285714Y-90976190D01*
X14333333Y-91023809D01*
X14428571Y-91071428D01*
X14619047Y-91071428D01*
X14714285Y-91023809D01*
X14761904Y-90976190D01*
X14809523Y-90880952D01*
%TO.C,H17*%
X58761904Y-32452380D02*
X58761904Y-31452380D01*
X58761904Y-31928571D02*
X59333333Y-31928571D01*
X59333333Y-32452380D02*
X59333333Y-31452380D01*
X60333333Y-32452380D02*
X59761904Y-32452380D01*
X60047619Y-32452380D02*
X60047619Y-31452380D01*
X59952380Y-31595238D01*
X59857142Y-31690476D01*
X59761904Y-31738095D01*
X60666666Y-31452380D02*
X61333333Y-31452380D01*
X60904761Y-32452380D01*
%TO.C,H22*%
X139761904Y-32452380D02*
X139761904Y-31452380D01*
X139761904Y-31928571D02*
X140333333Y-31928571D01*
X140333333Y-32452380D02*
X140333333Y-31452380D01*
X140761904Y-31547619D02*
X140809523Y-31500000D01*
X140904761Y-31452380D01*
X141142857Y-31452380D01*
X141238095Y-31500000D01*
X141285714Y-31547619D01*
X141333333Y-31642857D01*
X141333333Y-31738095D01*
X141285714Y-31880952D01*
X140714285Y-32452380D01*
X141333333Y-32452380D01*
X141714285Y-31547619D02*
X141761904Y-31500000D01*
X141857142Y-31452380D01*
X142095238Y-31452380D01*
X142190476Y-31500000D01*
X142238095Y-31547619D01*
X142285714Y-31642857D01*
X142285714Y-31738095D01*
X142238095Y-31880952D01*
X141666666Y-32452380D01*
X142285714Y-32452380D01*
%TD*%
M02*
