M48
; DRILL file {KiCad (5.1.8)-1} date 07/20/21 10:02:15
; FORMAT={-:-/ absolute / inch / decimal}
; #@! TF.CreationDate,2021-07-20T10:02:15+02:00
; #@! TF.GenerationSoftware,Kicad,Pcbnew,(5.1.8)-1
; #@! TF.FileFunction,Plated,1,2,PTH
FMAT,2
INCH
T1C0.0236
T2C0.0315
T3C0.0354
T4C0.0433
T5C0.0512
T6C0.0630
T7C0.1024
T8C0.1102
T9C0.1654
T10C0.2047
T11C0.2165
T12C0.2992
%
G90
G05
T1
X-0.3937Y-4.9213
X-0.3937Y-5.1575
X-0.3937Y-5.3937
X-0.1181Y-4.9213
X-0.1181Y-5.3937
X0.1181Y-4.9213
X0.1181Y-5.1575
X0.1181Y-5.3937
X-0.315Y-2.5197
X-0.315Y-3.4488
X-0.2559Y-2.3425
X-0.2559Y-2.6969
X-0.2559Y-3.2717
X-0.2559Y-3.626
X-0.0394Y-2.2441
X-0.0394Y-2.7953
X-0.0394Y-3.1732
X-0.0394Y-3.7244
X0.1772Y-2.3425
X0.1772Y-2.6969
X0.1772Y-3.2717
X0.1772Y-3.626
X0.2362Y-2.5197
X0.2362Y-3.4488
X-0.3937Y-0.6299
X-0.3937Y-0.8661
X-0.3937Y-1.1024
X-0.1181Y-0.6299
X-0.1181Y-1.1024
X0.1181Y-0.6299
X0.1181Y-0.8661
X0.1181Y-1.1024
T2
X2.6112Y-1.1063
X2.6112Y-1.5063
X7.4301Y-1.1063
X7.4301Y-1.5063
X1.0049Y-1.1063
X1.0049Y-1.5063
X2.1057Y-1.1063
X2.1057Y-1.5063
X8.5309Y-1.1063
X8.5309Y-1.5063
X6.573Y-2.0669
X6.573Y-2.4669
X4.9667Y-2.0669
X4.9667Y-2.4669
X1.7541Y-2.0669
X1.7541Y-2.4669
X4.2175Y-1.1024
X4.2175Y-1.5024
X6.9246Y-1.1063
X6.9246Y-1.5063
X8.1793Y-2.0669
X8.1793Y-2.4669
X5.3183Y-1.1063
X5.3183Y-1.5063
X3.712Y-1.1063
X3.712Y-1.5063
X3.3604Y-2.0669
X3.3604Y-2.4669
X5.8238Y-1.1063
X5.8238Y-1.5063
T3
X5.2681Y-1.6969
X5.3681Y-1.6969
X2.0555Y-1.6969
X2.1555Y-1.6969
X2.5222Y-1.6969
X2.6222Y-1.6969
X3.6618Y-1.6969
X3.7618Y-1.6969
X7.3411Y-1.6969
X7.4411Y-1.6969
X0.9159Y-1.6969
X1.0159Y-1.6969
X4.1285Y-1.6969
X4.2285Y-1.6969
X8.4807Y-1.6969
X8.5807Y-1.6969
X6.8744Y-1.6969
X6.9744Y-1.6969
X5.7348Y-1.6969
X5.8348Y-1.6969
T4
X6.3228Y-1.5748
X6.4228Y-1.5748
X5.8425Y-2.5787
X6.2425Y-2.5787
X1.7913Y-2.6181
X1.7913Y-2.7181
X1.7913Y-2.8181
X2.6299Y-2.5787
X3.0299Y-2.5787
X4.7165Y-1.5748
X4.8165Y-1.5748
X4.2362Y-2.5787
X4.6362Y-2.5787
X1.0236Y-2.5787
X1.4236Y-2.5787
X7.4488Y-2.5787
X7.8488Y-2.5787
X3.1102Y-1.5748
X3.2102Y-1.5748
X7.9291Y-1.5748
X8.0291Y-1.5748
X1.5039Y-1.5748
X1.6039Y-1.5748
X5.0039Y-2.6181
X5.0039Y-2.7181
X5.0039Y-2.8181
X3.3976Y-2.6181
X3.3976Y-2.7181
X3.3976Y-2.8181
X8.2165Y-2.6181
X8.2165Y-2.7181
X8.2165Y-2.8181
X6.6102Y-2.6181
X6.6102Y-2.7181
X6.6102Y-2.8181
T5
X7.3996Y-2.3051
X7.5965Y-2.3051
X5.7933Y-2.3091
X5.9902Y-2.3091
X4.187Y-2.3051
X4.3839Y-2.3051
X0.9744Y-2.3012
X1.1713Y-2.3012
X2.5807Y-2.3012
X2.7776Y-2.3012
T6
X6.5102Y-4.3228
X6.8102Y-4.3228
X4.9039Y-4.3224
X5.2039Y-4.3224
X4.3039Y-4.3224
X4.6039Y-4.3224
X3.2976Y-4.3189
X3.5976Y-4.3189
X8.1165Y-4.3224
X8.4165Y-4.3224
X1.6913Y-4.3185
X1.9913Y-4.3185
X2.6976Y-4.3189
X2.9976Y-4.3189
X1.0913Y-4.3189
X1.3913Y-4.3189
X7.5165Y-4.3224
X7.8165Y-4.3224
X5.9102Y-4.3268
X6.2102Y-4.3268
T7
X5.7736Y-2.2106
X5.7736Y-2.4114
X6.0492Y-2.2106
X6.0492Y-2.4114
X4.1673Y-2.2067
X4.1673Y-2.4075
X4.4429Y-2.2067
X4.4429Y-2.4075
X1.8467Y-1.189
X1.8467Y-1.3898
X1.8467Y-1.5512
X1.8467Y-1.752
X1.2247Y-1.189
X1.2247Y-1.3898
X1.2247Y-1.5512
X1.2247Y-1.752
X6.6656Y-1.189
X6.6656Y-1.3898
X6.6656Y-1.5512
X6.6656Y-1.752
X0.9547Y-2.2028
X0.9547Y-2.4035
X1.2303Y-2.2028
X1.2303Y-2.4035
X8.2719Y-1.189
X8.2719Y-1.3898
X8.2719Y-1.5512
X8.2719Y-1.752
X3.453Y-1.189
X3.453Y-1.3898
X3.453Y-1.5512
X3.453Y-1.752
X6.0436Y-1.189
X6.0436Y-1.3898
X6.0436Y-1.5512
X6.0436Y-1.752
X2.561Y-2.2028
X2.561Y-2.4035
X2.8366Y-2.2028
X2.8366Y-2.4035
X7.3799Y-2.2067
X7.3799Y-2.4075
X7.6555Y-2.2067
X7.6555Y-2.4075
X5.0593Y-1.189
X5.0593Y-1.3898
X5.0593Y-1.5512
X5.0593Y-1.752
X7.6499Y-1.189
X7.6499Y-1.3898
X7.6499Y-1.5512
X7.6499Y-1.752
X4.4373Y-1.189
X4.4373Y-1.3898
X4.4373Y-1.5512
X4.4373Y-1.752
X2.831Y-1.189
X2.831Y-1.3898
X2.831Y-1.5512
X2.831Y-1.752
T8
X7.1575Y-3.2283
X7.5Y-2.8543
X7.5Y-3.2559
X7.5Y-3.5709
X7.8425Y-3.2283
X3.9449Y-3.2283
X4.2874Y-2.8543
X4.2874Y-3.2559
X4.2874Y-3.5709
X4.6299Y-3.2283
X5.5512Y-3.2283
X5.8937Y-2.8543
X5.8937Y-3.2559
X5.8937Y-3.5709
X6.2362Y-3.2283
X0.7323Y-3.2283
X1.0748Y-2.8543
X1.0748Y-3.2559
X1.0748Y-3.5709
X1.4173Y-3.2283
X2.3386Y-3.2283
X2.6811Y-2.8543
X2.6811Y-3.2559
X2.6811Y-3.5709
X3.0236Y-3.2283
T9
X2.3465Y-3.9606
X2.3465Y-4.374
X7.1614Y-3.9606
X7.1614Y-4.374
X3.9488Y-3.9606
X3.9488Y-4.374
X0.7402Y-3.9606
X0.7402Y-4.374
X5.5551Y-3.9606
X5.5551Y-4.374
T10
X5.8937Y-3.8937
X6.2047Y-3.8937
X1.0748Y-3.8937
X1.3858Y-3.8937
X2.6811Y-3.8937
X2.9921Y-3.8937
X7.5Y-3.8937
X7.811Y-3.8937
X4.2874Y-3.8937
X4.5984Y-3.8937
X1.6969Y-3.8937
X2.0079Y-3.8937
X6.5157Y-3.8937
X6.8268Y-3.8937
X3.3031Y-3.8935
X3.6142Y-3.8935
X8.122Y-3.8937
X8.4331Y-3.8937
X4.9094Y-3.8937
X5.2205Y-3.8937
T11
X7.065Y-2.3071
X7.9311Y-2.3071
X3.8524Y-2.3071
X4.7185Y-2.3071
X0.6398Y-2.3031
X1.5059Y-2.3031
X2.2461Y-2.3031
X3.1122Y-2.3031
X5.4587Y-2.311
X6.3248Y-2.311
T12
X-0.1181Y-5.1575
X-0.0394Y-2.5197
X-0.0394Y-3.4488
X-0.1181Y-0.8661
T0
M30
