%TF.GenerationSoftware,KiCad,Pcbnew,(5.1.8)-1*%
%TF.CreationDate,2021-07-20T10:02:20+02:00*%
%TF.ProjectId,FJElectricsPCBFront,464a456c-6563-4747-9269-637350434246,rev?*%
%TF.SameCoordinates,Original*%
%TF.FileFunction,Legend,Bot*%
%TF.FilePolarity,Positive*%
%FSLAX46Y46*%
G04 Gerber Fmt 4.6, Leading zero omitted, Abs format (unit mm)*
G04 Created by KiCad (PCBNEW (5.1.8)-1) date 2021-07-20 10:02:20*
%MOMM*%
%LPD*%
G01*
G04 APERTURE LIST*
%ADD10C,0.150000*%
%ADD11C,0.120000*%
G04 APERTURE END LIST*
D10*
X27173809Y-128712023D02*
X27126190Y-128569166D01*
X27126190Y-128331071D01*
X27173809Y-128235833D01*
X27221428Y-128188214D01*
X27316666Y-128140595D01*
X27411904Y-128140595D01*
X27507142Y-128188214D01*
X27554761Y-128235833D01*
X27602380Y-128331071D01*
X27649999Y-128521547D01*
X27697618Y-128616785D01*
X27745237Y-128664404D01*
X27840475Y-128712023D01*
X27935713Y-128712023D01*
X28030951Y-128664404D01*
X28078571Y-128616785D01*
X28126190Y-128521547D01*
X28126190Y-128283452D01*
X28078571Y-128140595D01*
X28126190Y-127807261D02*
X27126190Y-127569166D01*
X27840475Y-127378690D01*
X27126190Y-127188214D01*
X28126190Y-126950119D01*
X28126190Y-125616785D02*
X28126190Y-125426309D01*
X28078571Y-125331071D01*
X27983332Y-125235833D01*
X27792856Y-125188214D01*
X27459523Y-125188214D01*
X27269047Y-125235833D01*
X27173809Y-125331071D01*
X27126190Y-125426309D01*
X27126190Y-125616785D01*
X27173809Y-125712023D01*
X27269047Y-125807261D01*
X27459523Y-125854880D01*
X27792856Y-125854880D01*
X27983332Y-125807261D01*
X28078571Y-125712023D01*
X28126190Y-125616785D01*
X28126190Y-124759642D02*
X27316666Y-124759642D01*
X27221428Y-124712023D01*
X27173809Y-124664404D01*
X27126190Y-124569166D01*
X27126190Y-124378690D01*
X27173809Y-124283452D01*
X27221428Y-124235833D01*
X27316666Y-124188214D01*
X28126190Y-124188214D01*
X28126190Y-123854880D02*
X28126190Y-123283452D01*
X27126190Y-123569166D02*
X28126190Y-123569166D01*
X27126190Y-121664404D02*
X27126190Y-122235833D01*
X27126190Y-121950119D02*
X28126190Y-121950119D01*
X27983332Y-122045357D01*
X27888094Y-122140595D01*
X27840475Y-122235833D01*
X27507142Y-120473928D02*
X27507142Y-119712023D01*
X27126190Y-120092976D02*
X27888094Y-120092976D01*
X205547619Y-128473928D02*
X205547619Y-128283452D01*
X205500000Y-128188214D01*
X205404761Y-128092976D01*
X205214285Y-128045357D01*
X204880952Y-128045357D01*
X204690476Y-128092976D01*
X204595238Y-128188214D01*
X204547619Y-128283452D01*
X204547619Y-128473928D01*
X204595238Y-128569166D01*
X204690476Y-128664404D01*
X204880952Y-128712023D01*
X205214285Y-128712023D01*
X205404761Y-128664404D01*
X205500000Y-128569166D01*
X205547619Y-128473928D01*
X205547619Y-127616785D02*
X204738095Y-127616785D01*
X204642857Y-127569166D01*
X204595238Y-127521547D01*
X204547619Y-127426309D01*
X204547619Y-127235833D01*
X204595238Y-127140595D01*
X204642857Y-127092976D01*
X204738095Y-127045357D01*
X205547619Y-127045357D01*
X205547619Y-126712023D02*
X205547619Y-126140595D01*
X204547619Y-126426309D02*
X205547619Y-126426309D01*
X205547619Y-124569166D02*
X205547619Y-125045357D01*
X205071428Y-125092976D01*
X205119047Y-125045357D01*
X205166666Y-124950119D01*
X205166666Y-124712023D01*
X205119047Y-124616785D01*
X205071428Y-124569166D01*
X204976190Y-124521547D01*
X204738095Y-124521547D01*
X204642857Y-124569166D01*
X204595238Y-124616785D01*
X204547619Y-124712023D01*
X204547619Y-124950119D01*
X204595238Y-125045357D01*
X204642857Y-125092976D01*
X204928571Y-123331071D02*
X204928571Y-122569166D01*
X204547619Y-122950119D02*
X205309523Y-122950119D01*
X189173809Y-128712023D02*
X189126190Y-128569166D01*
X189126190Y-128331071D01*
X189173809Y-128235833D01*
X189221428Y-128188214D01*
X189316666Y-128140595D01*
X189411904Y-128140595D01*
X189507142Y-128188214D01*
X189554761Y-128235833D01*
X189602380Y-128331071D01*
X189649999Y-128521547D01*
X189697618Y-128616785D01*
X189745237Y-128664404D01*
X189840475Y-128712023D01*
X189935713Y-128712023D01*
X190030951Y-128664404D01*
X190078571Y-128616785D01*
X190126190Y-128521547D01*
X190126190Y-128283452D01*
X190078571Y-128140595D01*
X190126190Y-127807261D02*
X189126190Y-127569166D01*
X189840475Y-127378690D01*
X189126190Y-127188214D01*
X190126190Y-126950119D01*
X190126190Y-125616785D02*
X190126190Y-125426309D01*
X190078571Y-125331071D01*
X189983332Y-125235833D01*
X189792856Y-125188214D01*
X189459523Y-125188214D01*
X189269047Y-125235833D01*
X189173809Y-125331071D01*
X189126190Y-125426309D01*
X189126190Y-125616785D01*
X189173809Y-125712023D01*
X189269047Y-125807261D01*
X189459523Y-125854880D01*
X189792856Y-125854880D01*
X189983332Y-125807261D01*
X190078571Y-125712023D01*
X190126190Y-125616785D01*
X190126190Y-124759642D02*
X189316666Y-124759642D01*
X189221428Y-124712023D01*
X189173809Y-124664404D01*
X189126190Y-124569166D01*
X189126190Y-124378690D01*
X189173809Y-124283452D01*
X189221428Y-124235833D01*
X189316666Y-124188214D01*
X190126190Y-124188214D01*
X190126190Y-123854880D02*
X190126190Y-123283452D01*
X189126190Y-123569166D02*
X190126190Y-123569166D01*
X190126190Y-121712023D02*
X190126190Y-122188214D01*
X189649999Y-122235833D01*
X189697618Y-122188214D01*
X189745237Y-122092976D01*
X189745237Y-121854880D01*
X189697618Y-121759642D01*
X189649999Y-121712023D01*
X189554761Y-121664404D01*
X189316666Y-121664404D01*
X189221428Y-121712023D01*
X189173809Y-121759642D01*
X189126190Y-121854880D01*
X189126190Y-122092976D01*
X189173809Y-122188214D01*
X189221428Y-122235833D01*
X189507142Y-120473928D02*
X189507142Y-119712023D01*
X189126190Y-120092976D02*
X189888094Y-120092976D01*
X212547619Y-128473928D02*
X212547619Y-128283452D01*
X212500000Y-128188214D01*
X212404761Y-128092976D01*
X212214285Y-128045357D01*
X211880952Y-128045357D01*
X211690476Y-128092976D01*
X211595238Y-128188214D01*
X211547619Y-128283452D01*
X211547619Y-128473928D01*
X211595238Y-128569166D01*
X211690476Y-128664404D01*
X211880952Y-128712023D01*
X212214285Y-128712023D01*
X212404761Y-128664404D01*
X212500000Y-128569166D01*
X212547619Y-128473928D01*
X212547619Y-127616785D02*
X211738095Y-127616785D01*
X211642857Y-127569166D01*
X211595238Y-127521547D01*
X211547619Y-127426309D01*
X211547619Y-127235833D01*
X211595238Y-127140595D01*
X211642857Y-127092976D01*
X211738095Y-127045357D01*
X212547619Y-127045357D01*
X212547619Y-126712023D02*
X212547619Y-126140595D01*
X211547619Y-126426309D02*
X212547619Y-126426309D01*
X212547619Y-124569166D02*
X212547619Y-125045357D01*
X212071428Y-125092976D01*
X212119047Y-125045357D01*
X212166666Y-124950119D01*
X212166666Y-124712023D01*
X212119047Y-124616785D01*
X212071428Y-124569166D01*
X211976190Y-124521547D01*
X211738095Y-124521547D01*
X211642857Y-124569166D01*
X211595238Y-124616785D01*
X211547619Y-124712023D01*
X211547619Y-124950119D01*
X211595238Y-125045357D01*
X211642857Y-125092976D01*
X211928571Y-123331071D02*
X211928571Y-122569166D01*
X196595238Y-128712023D02*
X196547619Y-128569166D01*
X196547619Y-128331071D01*
X196595238Y-128235833D01*
X196642857Y-128188214D01*
X196738095Y-128140595D01*
X196833333Y-128140595D01*
X196928571Y-128188214D01*
X196976190Y-128235833D01*
X197023809Y-128331071D01*
X197071428Y-128521547D01*
X197119047Y-128616785D01*
X197166666Y-128664404D01*
X197261904Y-128712023D01*
X197357142Y-128712023D01*
X197452380Y-128664404D01*
X197500000Y-128616785D01*
X197547619Y-128521547D01*
X197547619Y-128283452D01*
X197500000Y-128140595D01*
X197547619Y-127807261D02*
X196547619Y-127569166D01*
X197261904Y-127378690D01*
X196547619Y-127188214D01*
X197547619Y-126950119D01*
X197547619Y-125616785D02*
X197547619Y-125426309D01*
X197500000Y-125331071D01*
X197404761Y-125235833D01*
X197214285Y-125188214D01*
X196880952Y-125188214D01*
X196690476Y-125235833D01*
X196595238Y-125331071D01*
X196547619Y-125426309D01*
X196547619Y-125616785D01*
X196595238Y-125712023D01*
X196690476Y-125807261D01*
X196880952Y-125854880D01*
X197214285Y-125854880D01*
X197404761Y-125807261D01*
X197500000Y-125712023D01*
X197547619Y-125616785D01*
X197547619Y-124759642D02*
X196738095Y-124759642D01*
X196642857Y-124712023D01*
X196595238Y-124664404D01*
X196547619Y-124569166D01*
X196547619Y-124378690D01*
X196595238Y-124283452D01*
X196642857Y-124235833D01*
X196738095Y-124188214D01*
X197547619Y-124188214D01*
X197547619Y-123854880D02*
X197547619Y-123283452D01*
X196547619Y-123569166D02*
X197547619Y-123569166D01*
X197547619Y-121712023D02*
X197547619Y-122188214D01*
X197071428Y-122235833D01*
X197119047Y-122188214D01*
X197166666Y-122092976D01*
X197166666Y-121854880D01*
X197119047Y-121759642D01*
X197071428Y-121712023D01*
X196976190Y-121664404D01*
X196738095Y-121664404D01*
X196642857Y-121712023D01*
X196595238Y-121759642D01*
X196547619Y-121854880D01*
X196547619Y-122092976D01*
X196595238Y-122188214D01*
X196642857Y-122235833D01*
X196928571Y-120473928D02*
X196928571Y-119712023D01*
X164547619Y-128473928D02*
X164547619Y-128283452D01*
X164500000Y-128188214D01*
X164404761Y-128092976D01*
X164214285Y-128045357D01*
X163880952Y-128045357D01*
X163690476Y-128092976D01*
X163595238Y-128188214D01*
X163547619Y-128283452D01*
X163547619Y-128473928D01*
X163595238Y-128569166D01*
X163690476Y-128664404D01*
X163880952Y-128712023D01*
X164214285Y-128712023D01*
X164404761Y-128664404D01*
X164500000Y-128569166D01*
X164547619Y-128473928D01*
X164547619Y-127616785D02*
X163738095Y-127616785D01*
X163642857Y-127569166D01*
X163595238Y-127521547D01*
X163547619Y-127426309D01*
X163547619Y-127235833D01*
X163595238Y-127140595D01*
X163642857Y-127092976D01*
X163738095Y-127045357D01*
X164547619Y-127045357D01*
X164547619Y-126712023D02*
X164547619Y-126140595D01*
X163547619Y-126426309D02*
X164547619Y-126426309D01*
X164214285Y-124616785D02*
X163547619Y-124616785D01*
X164595238Y-124854880D02*
X163880952Y-125092976D01*
X163880952Y-124473928D01*
X163928571Y-123331071D02*
X163928571Y-122569166D01*
X163547619Y-122950119D02*
X164309523Y-122950119D01*
X148595238Y-128712023D02*
X148547619Y-128569166D01*
X148547619Y-128331071D01*
X148595238Y-128235833D01*
X148642857Y-128188214D01*
X148738095Y-128140595D01*
X148833333Y-128140595D01*
X148928571Y-128188214D01*
X148976190Y-128235833D01*
X149023809Y-128331071D01*
X149071428Y-128521547D01*
X149119047Y-128616785D01*
X149166666Y-128664404D01*
X149261904Y-128712023D01*
X149357142Y-128712023D01*
X149452380Y-128664404D01*
X149500000Y-128616785D01*
X149547619Y-128521547D01*
X149547619Y-128283452D01*
X149500000Y-128140595D01*
X149547619Y-127807261D02*
X148547619Y-127569166D01*
X149261904Y-127378690D01*
X148547619Y-127188214D01*
X149547619Y-126950119D01*
X149547619Y-125616785D02*
X149547619Y-125426309D01*
X149500000Y-125331071D01*
X149404761Y-125235833D01*
X149214285Y-125188214D01*
X148880952Y-125188214D01*
X148690476Y-125235833D01*
X148595238Y-125331071D01*
X148547619Y-125426309D01*
X148547619Y-125616785D01*
X148595238Y-125712023D01*
X148690476Y-125807261D01*
X148880952Y-125854880D01*
X149214285Y-125854880D01*
X149404761Y-125807261D01*
X149500000Y-125712023D01*
X149547619Y-125616785D01*
X149547619Y-124759642D02*
X148738095Y-124759642D01*
X148642857Y-124712023D01*
X148595238Y-124664404D01*
X148547619Y-124569166D01*
X148547619Y-124378690D01*
X148595238Y-124283452D01*
X148642857Y-124235833D01*
X148738095Y-124188214D01*
X149547619Y-124188214D01*
X149547619Y-123854880D02*
X149547619Y-123283452D01*
X148547619Y-123569166D02*
X149547619Y-123569166D01*
X149214285Y-121759642D02*
X148547619Y-121759642D01*
X149595238Y-121997738D02*
X148880952Y-122235833D01*
X148880952Y-121616785D01*
X148928571Y-120473928D02*
X148928571Y-119712023D01*
X148547619Y-120092976D02*
X149309523Y-120092976D01*
X172547619Y-128473928D02*
X172547619Y-128283452D01*
X172500000Y-128188214D01*
X172404761Y-128092976D01*
X172214285Y-128045357D01*
X171880952Y-128045357D01*
X171690476Y-128092976D01*
X171595238Y-128188214D01*
X171547619Y-128283452D01*
X171547619Y-128473928D01*
X171595238Y-128569166D01*
X171690476Y-128664404D01*
X171880952Y-128712023D01*
X172214285Y-128712023D01*
X172404761Y-128664404D01*
X172500000Y-128569166D01*
X172547619Y-128473928D01*
X172547619Y-127616785D02*
X171738095Y-127616785D01*
X171642857Y-127569166D01*
X171595238Y-127521547D01*
X171547619Y-127426309D01*
X171547619Y-127235833D01*
X171595238Y-127140595D01*
X171642857Y-127092976D01*
X171738095Y-127045357D01*
X172547619Y-127045357D01*
X172547619Y-126712023D02*
X172547619Y-126140595D01*
X171547619Y-126426309D02*
X172547619Y-126426309D01*
X172214285Y-124616785D02*
X171547619Y-124616785D01*
X172595238Y-124854880D02*
X171880952Y-125092976D01*
X171880952Y-124473928D01*
X171928571Y-123331071D02*
X171928571Y-122569166D01*
X155595238Y-128712023D02*
X155547619Y-128569166D01*
X155547619Y-128331071D01*
X155595238Y-128235833D01*
X155642857Y-128188214D01*
X155738095Y-128140595D01*
X155833333Y-128140595D01*
X155928571Y-128188214D01*
X155976190Y-128235833D01*
X156023809Y-128331071D01*
X156071428Y-128521547D01*
X156119047Y-128616785D01*
X156166666Y-128664404D01*
X156261904Y-128712023D01*
X156357142Y-128712023D01*
X156452380Y-128664404D01*
X156500000Y-128616785D01*
X156547619Y-128521547D01*
X156547619Y-128283452D01*
X156500000Y-128140595D01*
X156547619Y-127807261D02*
X155547619Y-127569166D01*
X156261904Y-127378690D01*
X155547619Y-127188214D01*
X156547619Y-126950119D01*
X156547619Y-125616785D02*
X156547619Y-125426309D01*
X156500000Y-125331071D01*
X156404761Y-125235833D01*
X156214285Y-125188214D01*
X155880952Y-125188214D01*
X155690476Y-125235833D01*
X155595238Y-125331071D01*
X155547619Y-125426309D01*
X155547619Y-125616785D01*
X155595238Y-125712023D01*
X155690476Y-125807261D01*
X155880952Y-125854880D01*
X156214285Y-125854880D01*
X156404761Y-125807261D01*
X156500000Y-125712023D01*
X156547619Y-125616785D01*
X156547619Y-124759642D02*
X155738095Y-124759642D01*
X155642857Y-124712023D01*
X155595238Y-124664404D01*
X155547619Y-124569166D01*
X155547619Y-124378690D01*
X155595238Y-124283452D01*
X155642857Y-124235833D01*
X155738095Y-124188214D01*
X156547619Y-124188214D01*
X156547619Y-123854880D02*
X156547619Y-123283452D01*
X155547619Y-123569166D02*
X156547619Y-123569166D01*
X156214285Y-121759642D02*
X155547619Y-121759642D01*
X156595238Y-121997738D02*
X155880952Y-122235833D01*
X155880952Y-121616785D01*
X155928571Y-120473928D02*
X155928571Y-119712023D01*
X124547619Y-128473928D02*
X124547619Y-128283452D01*
X124500000Y-128188214D01*
X124404761Y-128092976D01*
X124214285Y-128045357D01*
X123880952Y-128045357D01*
X123690476Y-128092976D01*
X123595238Y-128188214D01*
X123547619Y-128283452D01*
X123547619Y-128473928D01*
X123595238Y-128569166D01*
X123690476Y-128664404D01*
X123880952Y-128712023D01*
X124214285Y-128712023D01*
X124404761Y-128664404D01*
X124500000Y-128569166D01*
X124547619Y-128473928D01*
X124547619Y-127616785D02*
X123738095Y-127616785D01*
X123642857Y-127569166D01*
X123595238Y-127521547D01*
X123547619Y-127426309D01*
X123547619Y-127235833D01*
X123595238Y-127140595D01*
X123642857Y-127092976D01*
X123738095Y-127045357D01*
X124547619Y-127045357D01*
X124547619Y-126712023D02*
X124547619Y-126140595D01*
X123547619Y-126426309D02*
X124547619Y-126426309D01*
X124547619Y-125140595D02*
X124547619Y-124521547D01*
X124166666Y-124854880D01*
X124166666Y-124712023D01*
X124119047Y-124616785D01*
X124071428Y-124569166D01*
X123976190Y-124521547D01*
X123738095Y-124521547D01*
X123642857Y-124569166D01*
X123595238Y-124616785D01*
X123547619Y-124712023D01*
X123547619Y-124997738D01*
X123595238Y-125092976D01*
X123642857Y-125140595D01*
X123928571Y-123331071D02*
X123928571Y-122569166D01*
X123547619Y-122950119D02*
X124309523Y-122950119D01*
X107595238Y-128712023D02*
X107547619Y-128569166D01*
X107547619Y-128331071D01*
X107595238Y-128235833D01*
X107642857Y-128188214D01*
X107738095Y-128140595D01*
X107833333Y-128140595D01*
X107928571Y-128188214D01*
X107976190Y-128235833D01*
X108023809Y-128331071D01*
X108071428Y-128521547D01*
X108119047Y-128616785D01*
X108166666Y-128664404D01*
X108261904Y-128712023D01*
X108357142Y-128712023D01*
X108452380Y-128664404D01*
X108500000Y-128616785D01*
X108547619Y-128521547D01*
X108547619Y-128283452D01*
X108500000Y-128140595D01*
X108547619Y-127807261D02*
X107547619Y-127569166D01*
X108261904Y-127378690D01*
X107547619Y-127188214D01*
X108547619Y-126950119D01*
X108547619Y-125616785D02*
X108547619Y-125426309D01*
X108500000Y-125331071D01*
X108404761Y-125235833D01*
X108214285Y-125188214D01*
X107880952Y-125188214D01*
X107690476Y-125235833D01*
X107595238Y-125331071D01*
X107547619Y-125426309D01*
X107547619Y-125616785D01*
X107595238Y-125712023D01*
X107690476Y-125807261D01*
X107880952Y-125854880D01*
X108214285Y-125854880D01*
X108404761Y-125807261D01*
X108500000Y-125712023D01*
X108547619Y-125616785D01*
X108547619Y-124759642D02*
X107738095Y-124759642D01*
X107642857Y-124712023D01*
X107595238Y-124664404D01*
X107547619Y-124569166D01*
X107547619Y-124378690D01*
X107595238Y-124283452D01*
X107642857Y-124235833D01*
X107738095Y-124188214D01*
X108547619Y-124188214D01*
X108547619Y-123854880D02*
X108547619Y-123283452D01*
X107547619Y-123569166D02*
X108547619Y-123569166D01*
X108547619Y-122283452D02*
X108547619Y-121664404D01*
X108166666Y-121997738D01*
X108166666Y-121854880D01*
X108119047Y-121759642D01*
X108071428Y-121712023D01*
X107976190Y-121664404D01*
X107738095Y-121664404D01*
X107642857Y-121712023D01*
X107595238Y-121759642D01*
X107547619Y-121854880D01*
X107547619Y-122140595D01*
X107595238Y-122235833D01*
X107642857Y-122283452D01*
X107928571Y-120473928D02*
X107928571Y-119712023D01*
X107547619Y-120092976D02*
X108309523Y-120092976D01*
X131547619Y-128473928D02*
X131547619Y-128283452D01*
X131500000Y-128188214D01*
X131404761Y-128092976D01*
X131214285Y-128045357D01*
X130880952Y-128045357D01*
X130690476Y-128092976D01*
X130595238Y-128188214D01*
X130547619Y-128283452D01*
X130547619Y-128473928D01*
X130595238Y-128569166D01*
X130690476Y-128664404D01*
X130880952Y-128712023D01*
X131214285Y-128712023D01*
X131404761Y-128664404D01*
X131500000Y-128569166D01*
X131547619Y-128473928D01*
X131547619Y-127616785D02*
X130738095Y-127616785D01*
X130642857Y-127569166D01*
X130595238Y-127521547D01*
X130547619Y-127426309D01*
X130547619Y-127235833D01*
X130595238Y-127140595D01*
X130642857Y-127092976D01*
X130738095Y-127045357D01*
X131547619Y-127045357D01*
X131547619Y-126712023D02*
X131547619Y-126140595D01*
X130547619Y-126426309D02*
X131547619Y-126426309D01*
X131547619Y-125140595D02*
X131547619Y-124521547D01*
X131166666Y-124854880D01*
X131166666Y-124712023D01*
X131119047Y-124616785D01*
X131071428Y-124569166D01*
X130976190Y-124521547D01*
X130738095Y-124521547D01*
X130642857Y-124569166D01*
X130595238Y-124616785D01*
X130547619Y-124712023D01*
X130547619Y-124997738D01*
X130595238Y-125092976D01*
X130642857Y-125140595D01*
X130928571Y-123331071D02*
X130928571Y-122569166D01*
X115173809Y-128712023D02*
X115126190Y-128569166D01*
X115126190Y-128331071D01*
X115173809Y-128235833D01*
X115221428Y-128188214D01*
X115316666Y-128140595D01*
X115411904Y-128140595D01*
X115507142Y-128188214D01*
X115554761Y-128235833D01*
X115602380Y-128331071D01*
X115649999Y-128521547D01*
X115697618Y-128616785D01*
X115745237Y-128664404D01*
X115840475Y-128712023D01*
X115935713Y-128712023D01*
X116030951Y-128664404D01*
X116078571Y-128616785D01*
X116126190Y-128521547D01*
X116126190Y-128283452D01*
X116078571Y-128140595D01*
X116126190Y-127807261D02*
X115126190Y-127569166D01*
X115840475Y-127378690D01*
X115126190Y-127188214D01*
X116126190Y-126950119D01*
X116126190Y-125616785D02*
X116126190Y-125426309D01*
X116078571Y-125331071D01*
X115983332Y-125235833D01*
X115792856Y-125188214D01*
X115459523Y-125188214D01*
X115269047Y-125235833D01*
X115173809Y-125331071D01*
X115126190Y-125426309D01*
X115126190Y-125616785D01*
X115173809Y-125712023D01*
X115269047Y-125807261D01*
X115459523Y-125854880D01*
X115792856Y-125854880D01*
X115983332Y-125807261D01*
X116078571Y-125712023D01*
X116126190Y-125616785D01*
X116126190Y-124759642D02*
X115316666Y-124759642D01*
X115221428Y-124712023D01*
X115173809Y-124664404D01*
X115126190Y-124569166D01*
X115126190Y-124378690D01*
X115173809Y-124283452D01*
X115221428Y-124235833D01*
X115316666Y-124188214D01*
X116126190Y-124188214D01*
X116126190Y-123854880D02*
X116126190Y-123283452D01*
X115126190Y-123569166D02*
X116126190Y-123569166D01*
X116126190Y-122283452D02*
X116126190Y-121664404D01*
X115745237Y-121997738D01*
X115745237Y-121854880D01*
X115697618Y-121759642D01*
X115649999Y-121712023D01*
X115554761Y-121664404D01*
X115316666Y-121664404D01*
X115221428Y-121712023D01*
X115173809Y-121759642D01*
X115126190Y-121854880D01*
X115126190Y-122140595D01*
X115173809Y-122235833D01*
X115221428Y-122283452D01*
X115507142Y-120473928D02*
X115507142Y-119712023D01*
X83547619Y-128473928D02*
X83547619Y-128283452D01*
X83500000Y-128188214D01*
X83404761Y-128092976D01*
X83214285Y-128045357D01*
X82880952Y-128045357D01*
X82690476Y-128092976D01*
X82595238Y-128188214D01*
X82547619Y-128283452D01*
X82547619Y-128473928D01*
X82595238Y-128569166D01*
X82690476Y-128664404D01*
X82880952Y-128712023D01*
X83214285Y-128712023D01*
X83404761Y-128664404D01*
X83500000Y-128569166D01*
X83547619Y-128473928D01*
X83547619Y-127616785D02*
X82738095Y-127616785D01*
X82642857Y-127569166D01*
X82595238Y-127521547D01*
X82547619Y-127426309D01*
X82547619Y-127235833D01*
X82595238Y-127140595D01*
X82642857Y-127092976D01*
X82738095Y-127045357D01*
X83547619Y-127045357D01*
X83547619Y-126712023D02*
X83547619Y-126140595D01*
X82547619Y-126426309D02*
X83547619Y-126426309D01*
X83452380Y-125092976D02*
X83500000Y-125045357D01*
X83547619Y-124950119D01*
X83547619Y-124712023D01*
X83500000Y-124616785D01*
X83452380Y-124569166D01*
X83357142Y-124521547D01*
X83261904Y-124521547D01*
X83119047Y-124569166D01*
X82547619Y-125140595D01*
X82547619Y-124521547D01*
X82928571Y-123331071D02*
X82928571Y-122569166D01*
X82547619Y-122950119D02*
X83309523Y-122950119D01*
X67595238Y-128712023D02*
X67547619Y-128569166D01*
X67547619Y-128331071D01*
X67595238Y-128235833D01*
X67642857Y-128188214D01*
X67738095Y-128140595D01*
X67833333Y-128140595D01*
X67928571Y-128188214D01*
X67976190Y-128235833D01*
X68023809Y-128331071D01*
X68071428Y-128521547D01*
X68119047Y-128616785D01*
X68166666Y-128664404D01*
X68261904Y-128712023D01*
X68357142Y-128712023D01*
X68452380Y-128664404D01*
X68500000Y-128616785D01*
X68547619Y-128521547D01*
X68547619Y-128283452D01*
X68500000Y-128140595D01*
X68547619Y-127807261D02*
X67547619Y-127569166D01*
X68261904Y-127378690D01*
X67547619Y-127188214D01*
X68547619Y-126950119D01*
X68547619Y-125616785D02*
X68547619Y-125426309D01*
X68500000Y-125331071D01*
X68404761Y-125235833D01*
X68214285Y-125188214D01*
X67880952Y-125188214D01*
X67690476Y-125235833D01*
X67595238Y-125331071D01*
X67547619Y-125426309D01*
X67547619Y-125616785D01*
X67595238Y-125712023D01*
X67690476Y-125807261D01*
X67880952Y-125854880D01*
X68214285Y-125854880D01*
X68404761Y-125807261D01*
X68500000Y-125712023D01*
X68547619Y-125616785D01*
X68547619Y-124759642D02*
X67738095Y-124759642D01*
X67642857Y-124712023D01*
X67595238Y-124664404D01*
X67547619Y-124569166D01*
X67547619Y-124378690D01*
X67595238Y-124283452D01*
X67642857Y-124235833D01*
X67738095Y-124188214D01*
X68547619Y-124188214D01*
X68547619Y-123854880D02*
X68547619Y-123283452D01*
X67547619Y-123569166D02*
X68547619Y-123569166D01*
X68452380Y-122235833D02*
X68500000Y-122188214D01*
X68547619Y-122092976D01*
X68547619Y-121854880D01*
X68500000Y-121759642D01*
X68452380Y-121712023D01*
X68357142Y-121664404D01*
X68261904Y-121664404D01*
X68119047Y-121712023D01*
X67547619Y-122283452D01*
X67547619Y-121664404D01*
X67928571Y-120473928D02*
X67928571Y-119712023D01*
X67547619Y-120092976D02*
X68309523Y-120092976D01*
X90547619Y-128473928D02*
X90547619Y-128283452D01*
X90500000Y-128188214D01*
X90404761Y-128092976D01*
X90214285Y-128045357D01*
X89880952Y-128045357D01*
X89690476Y-128092976D01*
X89595238Y-128188214D01*
X89547619Y-128283452D01*
X89547619Y-128473928D01*
X89595238Y-128569166D01*
X89690476Y-128664404D01*
X89880952Y-128712023D01*
X90214285Y-128712023D01*
X90404761Y-128664404D01*
X90500000Y-128569166D01*
X90547619Y-128473928D01*
X90547619Y-127616785D02*
X89738095Y-127616785D01*
X89642857Y-127569166D01*
X89595238Y-127521547D01*
X89547619Y-127426309D01*
X89547619Y-127235833D01*
X89595238Y-127140595D01*
X89642857Y-127092976D01*
X89738095Y-127045357D01*
X90547619Y-127045357D01*
X90547619Y-126712023D02*
X90547619Y-126140595D01*
X89547619Y-126426309D02*
X90547619Y-126426309D01*
X90452380Y-125092976D02*
X90500000Y-125045357D01*
X90547619Y-124950119D01*
X90547619Y-124712023D01*
X90500000Y-124616785D01*
X90452380Y-124569166D01*
X90357142Y-124521547D01*
X90261904Y-124521547D01*
X90119047Y-124569166D01*
X89547619Y-125140595D01*
X89547619Y-124521547D01*
X89928571Y-123331071D02*
X89928571Y-122569166D01*
X74595238Y-128712023D02*
X74547619Y-128569166D01*
X74547619Y-128331071D01*
X74595238Y-128235833D01*
X74642857Y-128188214D01*
X74738095Y-128140595D01*
X74833333Y-128140595D01*
X74928571Y-128188214D01*
X74976190Y-128235833D01*
X75023809Y-128331071D01*
X75071428Y-128521547D01*
X75119047Y-128616785D01*
X75166666Y-128664404D01*
X75261904Y-128712023D01*
X75357142Y-128712023D01*
X75452380Y-128664404D01*
X75500000Y-128616785D01*
X75547619Y-128521547D01*
X75547619Y-128283452D01*
X75500000Y-128140595D01*
X75547619Y-127807261D02*
X74547619Y-127569166D01*
X75261904Y-127378690D01*
X74547619Y-127188214D01*
X75547619Y-126950119D01*
X75547619Y-125616785D02*
X75547619Y-125426309D01*
X75500000Y-125331071D01*
X75404761Y-125235833D01*
X75214285Y-125188214D01*
X74880952Y-125188214D01*
X74690476Y-125235833D01*
X74595238Y-125331071D01*
X74547619Y-125426309D01*
X74547619Y-125616785D01*
X74595238Y-125712023D01*
X74690476Y-125807261D01*
X74880952Y-125854880D01*
X75214285Y-125854880D01*
X75404761Y-125807261D01*
X75500000Y-125712023D01*
X75547619Y-125616785D01*
X75547619Y-124759642D02*
X74738095Y-124759642D01*
X74642857Y-124712023D01*
X74595238Y-124664404D01*
X74547619Y-124569166D01*
X74547619Y-124378690D01*
X74595238Y-124283452D01*
X74642857Y-124235833D01*
X74738095Y-124188214D01*
X75547619Y-124188214D01*
X75547619Y-123854880D02*
X75547619Y-123283452D01*
X74547619Y-123569166D02*
X75547619Y-123569166D01*
X75452380Y-122235833D02*
X75500000Y-122188214D01*
X75547619Y-122092976D01*
X75547619Y-121854880D01*
X75500000Y-121759642D01*
X75452380Y-121712023D01*
X75357142Y-121664404D01*
X75261904Y-121664404D01*
X75119047Y-121712023D01*
X74547619Y-122283452D01*
X74547619Y-121664404D01*
X74928571Y-120473928D02*
X74928571Y-119712023D01*
X48269048Y-128473928D02*
X48269048Y-128283452D01*
X48221429Y-128188214D01*
X48126190Y-128092976D01*
X47935714Y-128045357D01*
X47602381Y-128045357D01*
X47411905Y-128092976D01*
X47316667Y-128188214D01*
X47269048Y-128283452D01*
X47269048Y-128473928D01*
X47316667Y-128569166D01*
X47411905Y-128664404D01*
X47602381Y-128712023D01*
X47935714Y-128712023D01*
X48126190Y-128664404D01*
X48221429Y-128569166D01*
X48269048Y-128473928D01*
X48269048Y-127616785D02*
X47459524Y-127616785D01*
X47364286Y-127569166D01*
X47316667Y-127521547D01*
X47269048Y-127426309D01*
X47269048Y-127235833D01*
X47316667Y-127140595D01*
X47364286Y-127092976D01*
X47459524Y-127045357D01*
X48269048Y-127045357D01*
X48269048Y-126712023D02*
X48269048Y-126140595D01*
X47269048Y-126426309D02*
X48269048Y-126426309D01*
X47269048Y-124521547D02*
X47269048Y-125092976D01*
X47269048Y-124807261D02*
X48269048Y-124807261D01*
X48126190Y-124902500D01*
X48030952Y-124997738D01*
X47983333Y-125092976D01*
X47650000Y-123331071D02*
X47650000Y-122569166D01*
X33595238Y-128712023D02*
X33547619Y-128569166D01*
X33547619Y-128331071D01*
X33595238Y-128235833D01*
X33642857Y-128188214D01*
X33738095Y-128140595D01*
X33833333Y-128140595D01*
X33928571Y-128188214D01*
X33976190Y-128235833D01*
X34023809Y-128331071D01*
X34071428Y-128521547D01*
X34119047Y-128616785D01*
X34166666Y-128664404D01*
X34261904Y-128712023D01*
X34357142Y-128712023D01*
X34452380Y-128664404D01*
X34500000Y-128616785D01*
X34547619Y-128521547D01*
X34547619Y-128283452D01*
X34500000Y-128140595D01*
X34547619Y-127807261D02*
X33547619Y-127569166D01*
X34261904Y-127378690D01*
X33547619Y-127188214D01*
X34547619Y-126950119D01*
X34547619Y-125616785D02*
X34547619Y-125426309D01*
X34500000Y-125331071D01*
X34404761Y-125235833D01*
X34214285Y-125188214D01*
X33880952Y-125188214D01*
X33690476Y-125235833D01*
X33595238Y-125331071D01*
X33547619Y-125426309D01*
X33547619Y-125616785D01*
X33595238Y-125712023D01*
X33690476Y-125807261D01*
X33880952Y-125854880D01*
X34214285Y-125854880D01*
X34404761Y-125807261D01*
X34500000Y-125712023D01*
X34547619Y-125616785D01*
X34547619Y-124759642D02*
X33738095Y-124759642D01*
X33642857Y-124712023D01*
X33595238Y-124664404D01*
X33547619Y-124569166D01*
X33547619Y-124378690D01*
X33595238Y-124283452D01*
X33642857Y-124235833D01*
X33738095Y-124188214D01*
X34547619Y-124188214D01*
X34547619Y-123854880D02*
X34547619Y-123283452D01*
X33547619Y-123569166D02*
X34547619Y-123569166D01*
X33547619Y-121664404D02*
X33547619Y-122235833D01*
X33547619Y-121950119D02*
X34547619Y-121950119D01*
X34404761Y-122045357D01*
X34309523Y-122140595D01*
X34261904Y-122235833D01*
X33928571Y-120473928D02*
X33928571Y-119712023D01*
X42547619Y-128473928D02*
X42547619Y-128283452D01*
X42500000Y-128188214D01*
X42404761Y-128092976D01*
X42214285Y-128045357D01*
X41880952Y-128045357D01*
X41690476Y-128092976D01*
X41595238Y-128188214D01*
X41547619Y-128283452D01*
X41547619Y-128473928D01*
X41595238Y-128569166D01*
X41690476Y-128664404D01*
X41880952Y-128712023D01*
X42214285Y-128712023D01*
X42404761Y-128664404D01*
X42500000Y-128569166D01*
X42547619Y-128473928D01*
X42547619Y-127616785D02*
X41738095Y-127616785D01*
X41642857Y-127569166D01*
X41595238Y-127521547D01*
X41547619Y-127426309D01*
X41547619Y-127235833D01*
X41595238Y-127140595D01*
X41642857Y-127092976D01*
X41738095Y-127045357D01*
X42547619Y-127045357D01*
X42547619Y-126712023D02*
X42547619Y-126140595D01*
X41547619Y-126426309D02*
X42547619Y-126426309D01*
X41547619Y-124521547D02*
X41547619Y-125092976D01*
X41547619Y-124807261D02*
X42547619Y-124807261D01*
X42404761Y-124902500D01*
X42309523Y-124997738D01*
X42261904Y-125092976D01*
X41928571Y-123331071D02*
X41928571Y-122569166D01*
X41547619Y-122950119D02*
X42309523Y-122950119D01*
D11*
%TO.C,R15*%
X166955000Y-61620000D02*
X166955000Y-60850000D01*
X166955000Y-53540000D02*
X166955000Y-54310000D01*
X165585000Y-60850000D02*
X165585000Y-54310000D01*
X168325000Y-60850000D02*
X165585000Y-60850000D01*
X168325000Y-54310000D02*
X168325000Y-60850000D01*
X165585000Y-54310000D02*
X168325000Y-54310000D01*
%TO.C,R14*%
X85355000Y-61620000D02*
X85355000Y-60850000D01*
X85355000Y-53540000D02*
X85355000Y-54310000D01*
X83985000Y-60850000D02*
X83985000Y-54310000D01*
X86725000Y-60850000D02*
X83985000Y-60850000D01*
X86725000Y-54310000D02*
X86725000Y-60850000D01*
X83985000Y-54310000D02*
X86725000Y-54310000D01*
%TO.C,R13*%
X207755000Y-61620000D02*
X207755000Y-60850000D01*
X207755000Y-53540000D02*
X207755000Y-54310000D01*
X206385000Y-60850000D02*
X206385000Y-54310000D01*
X209125000Y-60850000D02*
X206385000Y-60850000D01*
X209125000Y-54310000D02*
X209125000Y-60850000D01*
X206385000Y-54310000D02*
X209125000Y-54310000D01*
%TO.C,R12*%
X126155000Y-61620000D02*
X126155000Y-60850000D01*
X126155000Y-53540000D02*
X126155000Y-54310000D01*
X124785000Y-60850000D02*
X124785000Y-54310000D01*
X127525000Y-60850000D02*
X124785000Y-60850000D01*
X127525000Y-54310000D02*
X127525000Y-60850000D01*
X124785000Y-54310000D02*
X127525000Y-54310000D01*
%TO.C,Q5*%
X164630000Y-70891000D02*
X166140000Y-70891000D01*
X164630000Y-67190000D02*
X166140000Y-67190000D01*
X166140000Y-63920000D02*
X166140000Y-74160000D01*
X164630000Y-74160000D02*
X169271000Y-74160000D01*
X164630000Y-63920000D02*
X169271000Y-63920000D01*
X169271000Y-63920000D02*
X169271000Y-74160000D01*
X164630000Y-63920000D02*
X164630000Y-74160000D01*
%TO.C,Q4*%
X83030000Y-70891000D02*
X84540000Y-70891000D01*
X83030000Y-67190000D02*
X84540000Y-67190000D01*
X84540000Y-63920000D02*
X84540000Y-74160000D01*
X83030000Y-74160000D02*
X87671000Y-74160000D01*
X83030000Y-63920000D02*
X87671000Y-63920000D01*
X87671000Y-63920000D02*
X87671000Y-74160000D01*
X83030000Y-63920000D02*
X83030000Y-74160000D01*
%TO.C,Q3*%
X205430000Y-70891000D02*
X206940000Y-70891000D01*
X205430000Y-67190000D02*
X206940000Y-67190000D01*
X206940000Y-63920000D02*
X206940000Y-74160000D01*
X205430000Y-74160000D02*
X210071000Y-74160000D01*
X205430000Y-63920000D02*
X210071000Y-63920000D01*
X210071000Y-63920000D02*
X210071000Y-74160000D01*
X205430000Y-63920000D02*
X205430000Y-74160000D01*
%TO.C,Q2*%
X123830000Y-70891000D02*
X125340000Y-70891000D01*
X123830000Y-67190000D02*
X125340000Y-67190000D01*
X125340000Y-63920000D02*
X125340000Y-74160000D01*
X123830000Y-74160000D02*
X128471000Y-74160000D01*
X123830000Y-63920000D02*
X128471000Y-63920000D01*
X128471000Y-63920000D02*
X128471000Y-74160000D01*
X123830000Y-63920000D02*
X123830000Y-74160000D01*
%TO.C,J10*%
X158800000Y-36600000D02*
X159300000Y-36600000D01*
X158800000Y-37340000D02*
X158800000Y-36600000D01*
X164700000Y-43160000D02*
X164700000Y-36840000D01*
X159040000Y-43160000D02*
X159040000Y-36840000D01*
X163930000Y-36840000D02*
X164700000Y-36840000D01*
X161390000Y-36840000D02*
X162350000Y-36840000D01*
X159040000Y-36840000D02*
X159810000Y-36840000D01*
X159040000Y-43160000D02*
X164700000Y-43160000D01*
X159040000Y-42700000D02*
X164700000Y-42700000D01*
X163930000Y-37400000D02*
X164700000Y-37400000D01*
X161390000Y-37400000D02*
X162350000Y-37400000D01*
X159040000Y-37400000D02*
X159810000Y-37400000D01*
%TO.C,J8*%
X77200000Y-36600000D02*
X77700000Y-36600000D01*
X77200000Y-37340000D02*
X77200000Y-36600000D01*
X83100000Y-43160000D02*
X83100000Y-36840000D01*
X77440000Y-43160000D02*
X77440000Y-36840000D01*
X82330000Y-36840000D02*
X83100000Y-36840000D01*
X79790000Y-36840000D02*
X80750000Y-36840000D01*
X77440000Y-36840000D02*
X78210000Y-36840000D01*
X77440000Y-43160000D02*
X83100000Y-43160000D01*
X77440000Y-42700000D02*
X83100000Y-42700000D01*
X82330000Y-37400000D02*
X83100000Y-37400000D01*
X79790000Y-37400000D02*
X80750000Y-37400000D01*
X77440000Y-37400000D02*
X78210000Y-37400000D01*
%TO.C,J7*%
X199600000Y-36600000D02*
X200100000Y-36600000D01*
X199600000Y-37340000D02*
X199600000Y-36600000D01*
X205500000Y-43160000D02*
X205500000Y-36840000D01*
X199840000Y-43160000D02*
X199840000Y-36840000D01*
X204730000Y-36840000D02*
X205500000Y-36840000D01*
X202190000Y-36840000D02*
X203150000Y-36840000D01*
X199840000Y-36840000D02*
X200610000Y-36840000D01*
X199840000Y-43160000D02*
X205500000Y-43160000D01*
X199840000Y-42700000D02*
X205500000Y-42700000D01*
X204730000Y-37400000D02*
X205500000Y-37400000D01*
X202190000Y-37400000D02*
X203150000Y-37400000D01*
X199840000Y-37400000D02*
X200610000Y-37400000D01*
%TO.C,J5*%
X118000000Y-36600000D02*
X118500000Y-36600000D01*
X118000000Y-37340000D02*
X118000000Y-36600000D01*
X123900000Y-43160000D02*
X123900000Y-36840000D01*
X118240000Y-43160000D02*
X118240000Y-36840000D01*
X123130000Y-36840000D02*
X123900000Y-36840000D01*
X120590000Y-36840000D02*
X121550000Y-36840000D01*
X118240000Y-36840000D02*
X119010000Y-36840000D01*
X118240000Y-43160000D02*
X123900000Y-43160000D01*
X118240000Y-42700000D02*
X123900000Y-42700000D01*
X123130000Y-37400000D02*
X123900000Y-37400000D01*
X120590000Y-37400000D02*
X121550000Y-37400000D01*
X118240000Y-37400000D02*
X119010000Y-37400000D01*
%TO.C,D5*%
X151540000Y-66970000D02*
X151540000Y-64030000D01*
X151780000Y-66970000D02*
X151780000Y-64030000D01*
X151660000Y-66970000D02*
X151660000Y-64030000D01*
X157220000Y-65500000D02*
X156200000Y-65500000D01*
X149740000Y-65500000D02*
X150760000Y-65500000D01*
X156200000Y-66970000D02*
X150760000Y-66970000D01*
X156200000Y-64030000D02*
X156200000Y-66970000D01*
X150760000Y-64030000D02*
X156200000Y-64030000D01*
X150760000Y-66970000D02*
X150760000Y-64030000D01*
%TO.C,D4*%
X69940000Y-66970000D02*
X69940000Y-64030000D01*
X70180000Y-66970000D02*
X70180000Y-64030000D01*
X70060000Y-66970000D02*
X70060000Y-64030000D01*
X75620000Y-65500000D02*
X74600000Y-65500000D01*
X68140000Y-65500000D02*
X69160000Y-65500000D01*
X74600000Y-66970000D02*
X69160000Y-66970000D01*
X74600000Y-64030000D02*
X74600000Y-66970000D01*
X69160000Y-64030000D02*
X74600000Y-64030000D01*
X69160000Y-66970000D02*
X69160000Y-64030000D01*
%TO.C,D3*%
X192340000Y-66970000D02*
X192340000Y-64030000D01*
X192580000Y-66970000D02*
X192580000Y-64030000D01*
X192460000Y-66970000D02*
X192460000Y-64030000D01*
X198020000Y-65500000D02*
X197000000Y-65500000D01*
X190540000Y-65500000D02*
X191560000Y-65500000D01*
X197000000Y-66970000D02*
X191560000Y-66970000D01*
X197000000Y-64030000D02*
X197000000Y-66970000D01*
X191560000Y-64030000D02*
X197000000Y-64030000D01*
X191560000Y-66970000D02*
X191560000Y-64030000D01*
%TO.C,D2*%
X110740000Y-66970000D02*
X110740000Y-64030000D01*
X110980000Y-66970000D02*
X110980000Y-64030000D01*
X110860000Y-66970000D02*
X110860000Y-64030000D01*
X116420000Y-65500000D02*
X115400000Y-65500000D01*
X108940000Y-65500000D02*
X109960000Y-65500000D01*
X115400000Y-66970000D02*
X109960000Y-66970000D01*
X115400000Y-64030000D02*
X115400000Y-66970000D01*
X109960000Y-64030000D02*
X115400000Y-64030000D01*
X109960000Y-66970000D02*
X109960000Y-64030000D01*
%TO.C,J2*%
X36400000Y-36600000D02*
X36900000Y-36600000D01*
X36400000Y-37340000D02*
X36400000Y-36600000D01*
X42300000Y-43160000D02*
X42300000Y-36840000D01*
X36640000Y-43160000D02*
X36640000Y-36840000D01*
X41530000Y-36840000D02*
X42300000Y-36840000D01*
X38990000Y-36840000D02*
X39950000Y-36840000D01*
X36640000Y-36840000D02*
X37410000Y-36840000D01*
X36640000Y-43160000D02*
X42300000Y-43160000D01*
X36640000Y-42700000D02*
X42300000Y-42700000D01*
X41530000Y-37400000D02*
X42300000Y-37400000D01*
X38990000Y-37400000D02*
X39950000Y-37400000D01*
X36640000Y-37400000D02*
X37410000Y-37400000D01*
%TO.C,R11*%
X44555000Y-61620000D02*
X44555000Y-60850000D01*
X44555000Y-53540000D02*
X44555000Y-54310000D01*
X43185000Y-60850000D02*
X43185000Y-54310000D01*
X45925000Y-60850000D02*
X43185000Y-60850000D01*
X45925000Y-54310000D02*
X45925000Y-60850000D01*
X43185000Y-54310000D02*
X45925000Y-54310000D01*
%TO.C,Q1*%
X42230000Y-70891000D02*
X43740000Y-70891000D01*
X42230000Y-67190000D02*
X43740000Y-67190000D01*
X43740000Y-63920000D02*
X43740000Y-74160000D01*
X42230000Y-74160000D02*
X46871000Y-74160000D01*
X42230000Y-63920000D02*
X46871000Y-63920000D01*
X46871000Y-63920000D02*
X46871000Y-74160000D01*
X42230000Y-63920000D02*
X42230000Y-74160000D01*
%TO.C,D1*%
X29140000Y-66970000D02*
X29140000Y-64030000D01*
X29380000Y-66970000D02*
X29380000Y-64030000D01*
X29260000Y-66970000D02*
X29260000Y-64030000D01*
X34820000Y-65500000D02*
X33800000Y-65500000D01*
X27340000Y-65500000D02*
X28360000Y-65500000D01*
X33800000Y-66970000D02*
X28360000Y-66970000D01*
X33800000Y-64030000D02*
X33800000Y-66970000D01*
X28360000Y-64030000D02*
X33800000Y-64030000D01*
X28360000Y-66970000D02*
X28360000Y-64030000D01*
%TO.C,J3*%
X23910000Y-104700000D02*
X23910000Y-117700000D01*
X39150000Y-104700000D02*
X23910000Y-104700000D01*
X38040000Y-117700000D02*
X39150000Y-116700000D01*
X23910000Y-117700000D02*
X38040000Y-117700000D01*
X39150000Y-116700000D02*
X39150000Y-104700000D01*
%TO.C,J6*%
X105510000Y-104790000D02*
X105510000Y-117790000D01*
X120750000Y-104790000D02*
X105510000Y-104790000D01*
X119640000Y-117790000D02*
X120750000Y-116790000D01*
X105510000Y-117790000D02*
X119640000Y-117790000D01*
X120750000Y-116790000D02*
X120750000Y-104790000D01*
%TO.C,J9*%
X146310000Y-104900000D02*
X146310000Y-117900000D01*
X161550000Y-104900000D02*
X146310000Y-104900000D01*
X160440000Y-117900000D02*
X161550000Y-116900000D01*
X146310000Y-117900000D02*
X160440000Y-117900000D01*
X161550000Y-116900000D02*
X161550000Y-104900000D01*
%TO.C,J14*%
X187110000Y-104790000D02*
X187110000Y-117790000D01*
X202350000Y-104790000D02*
X187110000Y-104790000D01*
X201240000Y-117790000D02*
X202350000Y-116790000D01*
X187110000Y-117790000D02*
X201240000Y-117790000D01*
X202350000Y-116790000D02*
X202350000Y-104790000D01*
%TO.C,J20*%
X79950000Y-104700000D02*
X79950000Y-117700000D01*
X95190000Y-104700000D02*
X79950000Y-104700000D01*
X94080000Y-117700000D02*
X95190000Y-116700000D01*
X79950000Y-117700000D02*
X94080000Y-117700000D01*
X95190000Y-116700000D02*
X95190000Y-104700000D01*
%TO.C,J24*%
X120750000Y-104790000D02*
X120750000Y-117790000D01*
X135990000Y-104790000D02*
X120750000Y-104790000D01*
X134880000Y-117790000D02*
X135990000Y-116790000D01*
X120750000Y-117790000D02*
X134880000Y-117790000D01*
X135990000Y-116790000D02*
X135990000Y-104790000D01*
%TO.C,J26*%
X161550000Y-104800000D02*
X161550000Y-117800000D01*
X176790000Y-104800000D02*
X161550000Y-104800000D01*
X175680000Y-117800000D02*
X176790000Y-116800000D01*
X161550000Y-117800000D02*
X175680000Y-117800000D01*
X176790000Y-116800000D02*
X176790000Y-104800000D01*
%TO.C,J27*%
X202350000Y-104790000D02*
X202350000Y-117790000D01*
X217590000Y-104790000D02*
X202350000Y-104790000D01*
X216480000Y-117790000D02*
X217590000Y-116790000D01*
X202350000Y-117790000D02*
X216480000Y-117790000D01*
X217590000Y-116790000D02*
X217590000Y-104790000D01*
%TO.C,J39*%
X8000000Y-142000000D02*
X8000000Y-120000000D01*
X-14000000Y-120000000D02*
X-14000000Y-142000000D01*
X-14000000Y-142000000D02*
X8000000Y-142000000D01*
X8000000Y-120000000D02*
X-14000000Y-120000000D01*
%TO.C,J18*%
X8000000Y-33000000D02*
X8000000Y-11000000D01*
X-14000000Y-11000000D02*
X-14000000Y-33000000D01*
X-14000000Y-33000000D02*
X8000000Y-33000000D01*
X8000000Y-11000000D02*
X-14000000Y-11000000D01*
%TO.C,J17*%
X39150000Y-104690000D02*
X39150000Y-117690000D01*
X54390000Y-104690000D02*
X39150000Y-104690000D01*
X53280000Y-117690000D02*
X54390000Y-116690000D01*
X39150000Y-117690000D02*
X53280000Y-117690000D01*
X54390000Y-116690000D02*
X54390000Y-104690000D01*
%TO.C,J4*%
X64710000Y-104700000D02*
X64710000Y-117700000D01*
X79950000Y-104700000D02*
X64710000Y-104700000D01*
X78840000Y-117700000D02*
X79950000Y-116700000D01*
X64710000Y-117700000D02*
X78840000Y-117700000D01*
X79950000Y-116700000D02*
X79950000Y-104700000D01*
%TO.C,K1*%
X39300000Y-87200000D02*
X32500000Y-93900000D01*
X24050000Y-67400000D02*
X15300000Y-76800000D01*
X39300000Y-67400000D02*
X39300000Y-93900000D01*
X15300000Y-67400000D02*
X15300000Y-93900000D01*
X39300000Y-93900000D02*
X15300000Y-93900000D01*
X39300000Y-67400000D02*
X15300000Y-67400000D01*
X32500000Y-93900000D02*
X32500000Y-87200000D01*
X24050000Y-67400000D02*
X24050000Y-76800000D01*
X22100000Y-87200000D02*
X15300000Y-87200000D01*
X24050000Y-76800000D02*
X15300000Y-76800000D01*
X39300000Y-87200000D02*
X32500000Y-87200000D01*
X39300000Y-76800000D02*
X30550000Y-76800000D01*
X22100000Y-93900000D02*
X22100000Y-87200000D01*
X30550000Y-67400000D02*
X30550000Y-76800000D01*
%TO.C,K3*%
X202500000Y-87200000D02*
X195700000Y-93900000D01*
X187250000Y-67400000D02*
X178500000Y-76800000D01*
X202500000Y-67400000D02*
X202500000Y-93900000D01*
X178500000Y-67400000D02*
X178500000Y-93900000D01*
X202500000Y-93900000D02*
X178500000Y-93900000D01*
X202500000Y-67400000D02*
X178500000Y-67400000D01*
X195700000Y-93900000D02*
X195700000Y-87200000D01*
X187250000Y-67400000D02*
X187250000Y-76800000D01*
X185300000Y-87200000D02*
X178500000Y-87200000D01*
X187250000Y-76800000D02*
X178500000Y-76800000D01*
X202500000Y-87200000D02*
X195700000Y-87200000D01*
X202500000Y-76800000D02*
X193750000Y-76800000D01*
X185300000Y-93900000D02*
X185300000Y-87200000D01*
X193750000Y-67400000D02*
X193750000Y-76800000D01*
%TO.C,K4*%
X80100000Y-87200000D02*
X73300000Y-93900000D01*
X64850000Y-67400000D02*
X56100000Y-76800000D01*
X80100000Y-67400000D02*
X80100000Y-93900000D01*
X56100000Y-67400000D02*
X56100000Y-93900000D01*
X80100000Y-93900000D02*
X56100000Y-93900000D01*
X80100000Y-67400000D02*
X56100000Y-67400000D01*
X73300000Y-93900000D02*
X73300000Y-87200000D01*
X64850000Y-67400000D02*
X64850000Y-76800000D01*
X62900000Y-87200000D02*
X56100000Y-87200000D01*
X64850000Y-76800000D02*
X56100000Y-76800000D01*
X80100000Y-87200000D02*
X73300000Y-87200000D01*
X80100000Y-76800000D02*
X71350000Y-76800000D01*
X62900000Y-93900000D02*
X62900000Y-87200000D01*
X71350000Y-67400000D02*
X71350000Y-76800000D01*
%TO.C,K5*%
X161700000Y-87200000D02*
X154900000Y-93900000D01*
X146450000Y-67400000D02*
X137700000Y-76800000D01*
X161700000Y-67400000D02*
X161700000Y-93900000D01*
X137700000Y-67400000D02*
X137700000Y-93900000D01*
X161700000Y-93900000D02*
X137700000Y-93900000D01*
X161700000Y-67400000D02*
X137700000Y-67400000D01*
X154900000Y-93900000D02*
X154900000Y-87200000D01*
X146450000Y-67400000D02*
X146450000Y-76800000D01*
X144500000Y-87200000D02*
X137700000Y-87200000D01*
X146450000Y-76800000D02*
X137700000Y-76800000D01*
X161700000Y-87200000D02*
X154900000Y-87200000D01*
X161700000Y-76800000D02*
X152950000Y-76800000D01*
X144500000Y-93900000D02*
X144500000Y-87200000D01*
X152950000Y-67400000D02*
X152950000Y-76800000D01*
%TO.C,K2*%
X120900000Y-87200000D02*
X114100000Y-93900000D01*
X105650000Y-67400000D02*
X96900000Y-76800000D01*
X120900000Y-67400000D02*
X120900000Y-93900000D01*
X96900000Y-67400000D02*
X96900000Y-93900000D01*
X120900000Y-93900000D02*
X96900000Y-93900000D01*
X120900000Y-67400000D02*
X96900000Y-67400000D01*
X114100000Y-93900000D02*
X114100000Y-87200000D01*
X105650000Y-67400000D02*
X105650000Y-76800000D01*
X103700000Y-87200000D02*
X96900000Y-87200000D01*
X105650000Y-76800000D02*
X96900000Y-76800000D01*
X120900000Y-87200000D02*
X114100000Y-87200000D01*
X120900000Y-76800000D02*
X112150000Y-76800000D01*
X103700000Y-93900000D02*
X103700000Y-87200000D01*
X112150000Y-67400000D02*
X112150000Y-76800000D01*
%TO.C,R15*%
D10*
X170452380Y-56937142D02*
X169976190Y-56603809D01*
X170452380Y-56365714D02*
X169452380Y-56365714D01*
X169452380Y-56746666D01*
X169500000Y-56841904D01*
X169547619Y-56889523D01*
X169642857Y-56937142D01*
X169785714Y-56937142D01*
X169880952Y-56889523D01*
X169928571Y-56841904D01*
X169976190Y-56746666D01*
X169976190Y-56365714D01*
X170452380Y-57889523D02*
X170452380Y-57318095D01*
X170452380Y-57603809D02*
X169452380Y-57603809D01*
X169595238Y-57508571D01*
X169690476Y-57413333D01*
X169738095Y-57318095D01*
X169452380Y-58794285D02*
X169452380Y-58318095D01*
X169928571Y-58270476D01*
X169880952Y-58318095D01*
X169833333Y-58413333D01*
X169833333Y-58651428D01*
X169880952Y-58746666D01*
X169928571Y-58794285D01*
X170023809Y-58841904D01*
X170261904Y-58841904D01*
X170357142Y-58794285D01*
X170404761Y-58746666D01*
X170452380Y-58651428D01*
X170452380Y-58413333D01*
X170404761Y-58318095D01*
X170357142Y-58270476D01*
%TO.C,R14*%
X88452380Y-56937142D02*
X87976190Y-56603809D01*
X88452380Y-56365714D02*
X87452380Y-56365714D01*
X87452380Y-56746666D01*
X87500000Y-56841904D01*
X87547619Y-56889523D01*
X87642857Y-56937142D01*
X87785714Y-56937142D01*
X87880952Y-56889523D01*
X87928571Y-56841904D01*
X87976190Y-56746666D01*
X87976190Y-56365714D01*
X88452380Y-57889523D02*
X88452380Y-57318095D01*
X88452380Y-57603809D02*
X87452380Y-57603809D01*
X87595238Y-57508571D01*
X87690476Y-57413333D01*
X87738095Y-57318095D01*
X87785714Y-58746666D02*
X88452380Y-58746666D01*
X87404761Y-58508571D02*
X88119047Y-58270476D01*
X88119047Y-58889523D01*
%TO.C,R13*%
X210452380Y-56937142D02*
X209976190Y-56603809D01*
X210452380Y-56365714D02*
X209452380Y-56365714D01*
X209452380Y-56746666D01*
X209500000Y-56841904D01*
X209547619Y-56889523D01*
X209642857Y-56937142D01*
X209785714Y-56937142D01*
X209880952Y-56889523D01*
X209928571Y-56841904D01*
X209976190Y-56746666D01*
X209976190Y-56365714D01*
X210452380Y-57889523D02*
X210452380Y-57318095D01*
X210452380Y-57603809D02*
X209452380Y-57603809D01*
X209595238Y-57508571D01*
X209690476Y-57413333D01*
X209738095Y-57318095D01*
X209452380Y-58222857D02*
X209452380Y-58841904D01*
X209833333Y-58508571D01*
X209833333Y-58651428D01*
X209880952Y-58746666D01*
X209928571Y-58794285D01*
X210023809Y-58841904D01*
X210261904Y-58841904D01*
X210357142Y-58794285D01*
X210404761Y-58746666D01*
X210452380Y-58651428D01*
X210452380Y-58365714D01*
X210404761Y-58270476D01*
X210357142Y-58222857D01*
%TO.C,R12*%
X129452380Y-56937142D02*
X128976190Y-56603809D01*
X129452380Y-56365714D02*
X128452380Y-56365714D01*
X128452380Y-56746666D01*
X128500000Y-56841904D01*
X128547619Y-56889523D01*
X128642857Y-56937142D01*
X128785714Y-56937142D01*
X128880952Y-56889523D01*
X128928571Y-56841904D01*
X128976190Y-56746666D01*
X128976190Y-56365714D01*
X129452380Y-57889523D02*
X129452380Y-57318095D01*
X129452380Y-57603809D02*
X128452380Y-57603809D01*
X128595238Y-57508571D01*
X128690476Y-57413333D01*
X128738095Y-57318095D01*
X128547619Y-58270476D02*
X128500000Y-58318095D01*
X128452380Y-58413333D01*
X128452380Y-58651428D01*
X128500000Y-58746666D01*
X128547619Y-58794285D01*
X128642857Y-58841904D01*
X128738095Y-58841904D01*
X128880952Y-58794285D01*
X129452380Y-58222857D01*
X129452380Y-58841904D01*
%TO.C,Q5*%
X164177619Y-68944761D02*
X164130000Y-68849523D01*
X164034761Y-68754285D01*
X163891904Y-68611428D01*
X163844285Y-68516190D01*
X163844285Y-68420952D01*
X164082380Y-68468571D02*
X164034761Y-68373333D01*
X163939523Y-68278095D01*
X163749047Y-68230476D01*
X163415714Y-68230476D01*
X163225238Y-68278095D01*
X163130000Y-68373333D01*
X163082380Y-68468571D01*
X163082380Y-68659047D01*
X163130000Y-68754285D01*
X163225238Y-68849523D01*
X163415714Y-68897142D01*
X163749047Y-68897142D01*
X163939523Y-68849523D01*
X164034761Y-68754285D01*
X164082380Y-68659047D01*
X164082380Y-68468571D01*
X163082380Y-69801904D02*
X163082380Y-69325714D01*
X163558571Y-69278095D01*
X163510952Y-69325714D01*
X163463333Y-69420952D01*
X163463333Y-69659047D01*
X163510952Y-69754285D01*
X163558571Y-69801904D01*
X163653809Y-69849523D01*
X163891904Y-69849523D01*
X163987142Y-69801904D01*
X164034761Y-69754285D01*
X164082380Y-69659047D01*
X164082380Y-69420952D01*
X164034761Y-69325714D01*
X163987142Y-69278095D01*
%TO.C,Q4*%
X82577619Y-68944761D02*
X82530000Y-68849523D01*
X82434761Y-68754285D01*
X82291904Y-68611428D01*
X82244285Y-68516190D01*
X82244285Y-68420952D01*
X82482380Y-68468571D02*
X82434761Y-68373333D01*
X82339523Y-68278095D01*
X82149047Y-68230476D01*
X81815714Y-68230476D01*
X81625238Y-68278095D01*
X81530000Y-68373333D01*
X81482380Y-68468571D01*
X81482380Y-68659047D01*
X81530000Y-68754285D01*
X81625238Y-68849523D01*
X81815714Y-68897142D01*
X82149047Y-68897142D01*
X82339523Y-68849523D01*
X82434761Y-68754285D01*
X82482380Y-68659047D01*
X82482380Y-68468571D01*
X81815714Y-69754285D02*
X82482380Y-69754285D01*
X81434761Y-69516190D02*
X82149047Y-69278095D01*
X82149047Y-69897142D01*
%TO.C,Q3*%
X204977619Y-68944761D02*
X204930000Y-68849523D01*
X204834761Y-68754285D01*
X204691904Y-68611428D01*
X204644285Y-68516190D01*
X204644285Y-68420952D01*
X204882380Y-68468571D02*
X204834761Y-68373333D01*
X204739523Y-68278095D01*
X204549047Y-68230476D01*
X204215714Y-68230476D01*
X204025238Y-68278095D01*
X203930000Y-68373333D01*
X203882380Y-68468571D01*
X203882380Y-68659047D01*
X203930000Y-68754285D01*
X204025238Y-68849523D01*
X204215714Y-68897142D01*
X204549047Y-68897142D01*
X204739523Y-68849523D01*
X204834761Y-68754285D01*
X204882380Y-68659047D01*
X204882380Y-68468571D01*
X203882380Y-69230476D02*
X203882380Y-69849523D01*
X204263333Y-69516190D01*
X204263333Y-69659047D01*
X204310952Y-69754285D01*
X204358571Y-69801904D01*
X204453809Y-69849523D01*
X204691904Y-69849523D01*
X204787142Y-69801904D01*
X204834761Y-69754285D01*
X204882380Y-69659047D01*
X204882380Y-69373333D01*
X204834761Y-69278095D01*
X204787142Y-69230476D01*
%TO.C,Q2*%
X123377619Y-68944761D02*
X123330000Y-68849523D01*
X123234761Y-68754285D01*
X123091904Y-68611428D01*
X123044285Y-68516190D01*
X123044285Y-68420952D01*
X123282380Y-68468571D02*
X123234761Y-68373333D01*
X123139523Y-68278095D01*
X122949047Y-68230476D01*
X122615714Y-68230476D01*
X122425238Y-68278095D01*
X122330000Y-68373333D01*
X122282380Y-68468571D01*
X122282380Y-68659047D01*
X122330000Y-68754285D01*
X122425238Y-68849523D01*
X122615714Y-68897142D01*
X122949047Y-68897142D01*
X123139523Y-68849523D01*
X123234761Y-68754285D01*
X123282380Y-68659047D01*
X123282380Y-68468571D01*
X122377619Y-69278095D02*
X122330000Y-69325714D01*
X122282380Y-69420952D01*
X122282380Y-69659047D01*
X122330000Y-69754285D01*
X122377619Y-69801904D01*
X122472857Y-69849523D01*
X122568095Y-69849523D01*
X122710952Y-69801904D01*
X123282380Y-69230476D01*
X123282380Y-69849523D01*
%TO.C,J10*%
X162679523Y-43612380D02*
X162679523Y-44326666D01*
X162727142Y-44469523D01*
X162822380Y-44564761D01*
X162965238Y-44612380D01*
X163060476Y-44612380D01*
X161679523Y-44612380D02*
X162250952Y-44612380D01*
X161965238Y-44612380D02*
X161965238Y-43612380D01*
X162060476Y-43755238D01*
X162155714Y-43850476D01*
X162250952Y-43898095D01*
X161060476Y-43612380D02*
X160965238Y-43612380D01*
X160870000Y-43660000D01*
X160822380Y-43707619D01*
X160774761Y-43802857D01*
X160727142Y-43993333D01*
X160727142Y-44231428D01*
X160774761Y-44421904D01*
X160822380Y-44517142D01*
X160870000Y-44564761D01*
X160965238Y-44612380D01*
X161060476Y-44612380D01*
X161155714Y-44564761D01*
X161203333Y-44517142D01*
X161250952Y-44421904D01*
X161298571Y-44231428D01*
X161298571Y-43993333D01*
X161250952Y-43802857D01*
X161203333Y-43707619D01*
X161155714Y-43660000D01*
X161060476Y-43612380D01*
%TO.C,J8*%
X80603333Y-43612380D02*
X80603333Y-44326666D01*
X80650952Y-44469523D01*
X80746190Y-44564761D01*
X80889047Y-44612380D01*
X80984285Y-44612380D01*
X79984285Y-44040952D02*
X80079523Y-43993333D01*
X80127142Y-43945714D01*
X80174761Y-43850476D01*
X80174761Y-43802857D01*
X80127142Y-43707619D01*
X80079523Y-43660000D01*
X79984285Y-43612380D01*
X79793809Y-43612380D01*
X79698571Y-43660000D01*
X79650952Y-43707619D01*
X79603333Y-43802857D01*
X79603333Y-43850476D01*
X79650952Y-43945714D01*
X79698571Y-43993333D01*
X79793809Y-44040952D01*
X79984285Y-44040952D01*
X80079523Y-44088571D01*
X80127142Y-44136190D01*
X80174761Y-44231428D01*
X80174761Y-44421904D01*
X80127142Y-44517142D01*
X80079523Y-44564761D01*
X79984285Y-44612380D01*
X79793809Y-44612380D01*
X79698571Y-44564761D01*
X79650952Y-44517142D01*
X79603333Y-44421904D01*
X79603333Y-44231428D01*
X79650952Y-44136190D01*
X79698571Y-44088571D01*
X79793809Y-44040952D01*
%TO.C,J7*%
X203003333Y-43612380D02*
X203003333Y-44326666D01*
X203050952Y-44469523D01*
X203146190Y-44564761D01*
X203289047Y-44612380D01*
X203384285Y-44612380D01*
X202622380Y-43612380D02*
X201955714Y-43612380D01*
X202384285Y-44612380D01*
%TO.C,J5*%
X121403333Y-43612380D02*
X121403333Y-44326666D01*
X121450952Y-44469523D01*
X121546190Y-44564761D01*
X121689047Y-44612380D01*
X121784285Y-44612380D01*
X120450952Y-43612380D02*
X120927142Y-43612380D01*
X120974761Y-44088571D01*
X120927142Y-44040952D01*
X120831904Y-43993333D01*
X120593809Y-43993333D01*
X120498571Y-44040952D01*
X120450952Y-44088571D01*
X120403333Y-44183809D01*
X120403333Y-44421904D01*
X120450952Y-44517142D01*
X120498571Y-44564761D01*
X120593809Y-44612380D01*
X120831904Y-44612380D01*
X120927142Y-44564761D01*
X120974761Y-44517142D01*
%TO.C,D5*%
X146738095Y-65452380D02*
X146738095Y-64452380D01*
X146500000Y-64452380D01*
X146357142Y-64500000D01*
X146261904Y-64595238D01*
X146214285Y-64690476D01*
X146166666Y-64880952D01*
X146166666Y-65023809D01*
X146214285Y-65214285D01*
X146261904Y-65309523D01*
X146357142Y-65404761D01*
X146500000Y-65452380D01*
X146738095Y-65452380D01*
X145261904Y-64452380D02*
X145738095Y-64452380D01*
X145785714Y-64928571D01*
X145738095Y-64880952D01*
X145642857Y-64833333D01*
X145404761Y-64833333D01*
X145309523Y-64880952D01*
X145261904Y-64928571D01*
X145214285Y-65023809D01*
X145214285Y-65261904D01*
X145261904Y-65357142D01*
X145309523Y-65404761D01*
X145404761Y-65452380D01*
X145642857Y-65452380D01*
X145738095Y-65404761D01*
X145785714Y-65357142D01*
X153261904Y-65452380D02*
X153261904Y-64452380D01*
X152690476Y-65452380D02*
X153119047Y-64880952D01*
X152690476Y-64452380D02*
X153261904Y-65023809D01*
%TO.C,D4*%
X64738095Y-65452380D02*
X64738095Y-64452380D01*
X64500000Y-64452380D01*
X64357142Y-64500000D01*
X64261904Y-64595238D01*
X64214285Y-64690476D01*
X64166666Y-64880952D01*
X64166666Y-65023809D01*
X64214285Y-65214285D01*
X64261904Y-65309523D01*
X64357142Y-65404761D01*
X64500000Y-65452380D01*
X64738095Y-65452380D01*
X63309523Y-64785714D02*
X63309523Y-65452380D01*
X63547619Y-64404761D02*
X63785714Y-65119047D01*
X63166666Y-65119047D01*
X71261904Y-65452380D02*
X71261904Y-64452380D01*
X70690476Y-65452380D02*
X71119047Y-64880952D01*
X70690476Y-64452380D02*
X71261904Y-65023809D01*
%TO.C,D3*%
X186738095Y-65452380D02*
X186738095Y-64452380D01*
X186500000Y-64452380D01*
X186357142Y-64500000D01*
X186261904Y-64595238D01*
X186214285Y-64690476D01*
X186166666Y-64880952D01*
X186166666Y-65023809D01*
X186214285Y-65214285D01*
X186261904Y-65309523D01*
X186357142Y-65404761D01*
X186500000Y-65452380D01*
X186738095Y-65452380D01*
X185833333Y-64452380D02*
X185214285Y-64452380D01*
X185547619Y-64833333D01*
X185404761Y-64833333D01*
X185309523Y-64880952D01*
X185261904Y-64928571D01*
X185214285Y-65023809D01*
X185214285Y-65261904D01*
X185261904Y-65357142D01*
X185309523Y-65404761D01*
X185404761Y-65452380D01*
X185690476Y-65452380D01*
X185785714Y-65404761D01*
X185833333Y-65357142D01*
X194261904Y-65452380D02*
X194261904Y-64452380D01*
X193690476Y-65452380D02*
X194119047Y-64880952D01*
X193690476Y-64452380D02*
X194261904Y-65023809D01*
%TO.C,D2*%
X105738095Y-65452380D02*
X105738095Y-64452380D01*
X105500000Y-64452380D01*
X105357142Y-64500000D01*
X105261904Y-64595238D01*
X105214285Y-64690476D01*
X105166666Y-64880952D01*
X105166666Y-65023809D01*
X105214285Y-65214285D01*
X105261904Y-65309523D01*
X105357142Y-65404761D01*
X105500000Y-65452380D01*
X105738095Y-65452380D01*
X104785714Y-64547619D02*
X104738095Y-64500000D01*
X104642857Y-64452380D01*
X104404761Y-64452380D01*
X104309523Y-64500000D01*
X104261904Y-64547619D01*
X104214285Y-64642857D01*
X104214285Y-64738095D01*
X104261904Y-64880952D01*
X104833333Y-65452380D01*
X104214285Y-65452380D01*
X112261904Y-65452380D02*
X112261904Y-64452380D01*
X111690476Y-65452380D02*
X112119047Y-64880952D01*
X111690476Y-64452380D02*
X112261904Y-65023809D01*
%TO.C,J2*%
X39803333Y-43612380D02*
X39803333Y-44326666D01*
X39850952Y-44469523D01*
X39946190Y-44564761D01*
X40089047Y-44612380D01*
X40184285Y-44612380D01*
X39374761Y-43707619D02*
X39327142Y-43660000D01*
X39231904Y-43612380D01*
X38993809Y-43612380D01*
X38898571Y-43660000D01*
X38850952Y-43707619D01*
X38803333Y-43802857D01*
X38803333Y-43898095D01*
X38850952Y-44040952D01*
X39422380Y-44612380D01*
X38803333Y-44612380D01*
%TO.C,R11*%
X47452380Y-56937142D02*
X46976190Y-56603809D01*
X47452380Y-56365714D02*
X46452380Y-56365714D01*
X46452380Y-56746666D01*
X46500000Y-56841904D01*
X46547619Y-56889523D01*
X46642857Y-56937142D01*
X46785714Y-56937142D01*
X46880952Y-56889523D01*
X46928571Y-56841904D01*
X46976190Y-56746666D01*
X46976190Y-56365714D01*
X47452380Y-57889523D02*
X47452380Y-57318095D01*
X47452380Y-57603809D02*
X46452380Y-57603809D01*
X46595238Y-57508571D01*
X46690476Y-57413333D01*
X46738095Y-57318095D01*
X47452380Y-58841904D02*
X47452380Y-58270476D01*
X47452380Y-58556190D02*
X46452380Y-58556190D01*
X46595238Y-58460952D01*
X46690476Y-58365714D01*
X46738095Y-58270476D01*
%TO.C,Q1*%
X41777619Y-68944761D02*
X41730000Y-68849523D01*
X41634761Y-68754285D01*
X41491904Y-68611428D01*
X41444285Y-68516190D01*
X41444285Y-68420952D01*
X41682380Y-68468571D02*
X41634761Y-68373333D01*
X41539523Y-68278095D01*
X41349047Y-68230476D01*
X41015714Y-68230476D01*
X40825238Y-68278095D01*
X40730000Y-68373333D01*
X40682380Y-68468571D01*
X40682380Y-68659047D01*
X40730000Y-68754285D01*
X40825238Y-68849523D01*
X41015714Y-68897142D01*
X41349047Y-68897142D01*
X41539523Y-68849523D01*
X41634761Y-68754285D01*
X41682380Y-68659047D01*
X41682380Y-68468571D01*
X41682380Y-69849523D02*
X41682380Y-69278095D01*
X41682380Y-69563809D02*
X40682380Y-69563809D01*
X40825238Y-69468571D01*
X40920476Y-69373333D01*
X40968095Y-69278095D01*
%TO.C,D1*%
X23738095Y-65452380D02*
X23738095Y-64452380D01*
X23500000Y-64452380D01*
X23357142Y-64500000D01*
X23261904Y-64595238D01*
X23214285Y-64690476D01*
X23166666Y-64880952D01*
X23166666Y-65023809D01*
X23214285Y-65214285D01*
X23261904Y-65309523D01*
X23357142Y-65404761D01*
X23500000Y-65452380D01*
X23738095Y-65452380D01*
X22214285Y-65452380D02*
X22785714Y-65452380D01*
X22500000Y-65452380D02*
X22500000Y-64452380D01*
X22595238Y-64595238D01*
X22690476Y-64690476D01*
X22785714Y-64738095D01*
X30261904Y-65452380D02*
X30261904Y-64452380D01*
X29690476Y-65452380D02*
X30119047Y-64880952D01*
X29690476Y-64452380D02*
X30261904Y-65023809D01*
%TO.C,J3*%
X38573333Y-101252380D02*
X38573333Y-101966666D01*
X38620952Y-102109523D01*
X38716190Y-102204761D01*
X38859047Y-102252380D01*
X38954285Y-102252380D01*
X38192380Y-101252380D02*
X37573333Y-101252380D01*
X37906666Y-101633333D01*
X37763809Y-101633333D01*
X37668571Y-101680952D01*
X37620952Y-101728571D01*
X37573333Y-101823809D01*
X37573333Y-102061904D01*
X37620952Y-102157142D01*
X37668571Y-102204761D01*
X37763809Y-102252380D01*
X38049523Y-102252380D01*
X38144761Y-102204761D01*
X38192380Y-102157142D01*
%TO.C,J6*%
X120173333Y-101342380D02*
X120173333Y-102056666D01*
X120220952Y-102199523D01*
X120316190Y-102294761D01*
X120459047Y-102342380D01*
X120554285Y-102342380D01*
X119268571Y-101342380D02*
X119459047Y-101342380D01*
X119554285Y-101390000D01*
X119601904Y-101437619D01*
X119697142Y-101580476D01*
X119744761Y-101770952D01*
X119744761Y-102151904D01*
X119697142Y-102247142D01*
X119649523Y-102294761D01*
X119554285Y-102342380D01*
X119363809Y-102342380D01*
X119268571Y-102294761D01*
X119220952Y-102247142D01*
X119173333Y-102151904D01*
X119173333Y-101913809D01*
X119220952Y-101818571D01*
X119268571Y-101770952D01*
X119363809Y-101723333D01*
X119554285Y-101723333D01*
X119649523Y-101770952D01*
X119697142Y-101818571D01*
X119744761Y-101913809D01*
%TO.C,J9*%
X160973333Y-101452380D02*
X160973333Y-102166666D01*
X161020952Y-102309523D01*
X161116190Y-102404761D01*
X161259047Y-102452380D01*
X161354285Y-102452380D01*
X160449523Y-102452380D02*
X160259047Y-102452380D01*
X160163809Y-102404761D01*
X160116190Y-102357142D01*
X160020952Y-102214285D01*
X159973333Y-102023809D01*
X159973333Y-101642857D01*
X160020952Y-101547619D01*
X160068571Y-101500000D01*
X160163809Y-101452380D01*
X160354285Y-101452380D01*
X160449523Y-101500000D01*
X160497142Y-101547619D01*
X160544761Y-101642857D01*
X160544761Y-101880952D01*
X160497142Y-101976190D01*
X160449523Y-102023809D01*
X160354285Y-102071428D01*
X160163809Y-102071428D01*
X160068571Y-102023809D01*
X160020952Y-101976190D01*
X159973333Y-101880952D01*
%TO.C,J14*%
X202249523Y-101342380D02*
X202249523Y-102056666D01*
X202297142Y-102199523D01*
X202392380Y-102294761D01*
X202535238Y-102342380D01*
X202630476Y-102342380D01*
X201249523Y-102342380D02*
X201820952Y-102342380D01*
X201535238Y-102342380D02*
X201535238Y-101342380D01*
X201630476Y-101485238D01*
X201725714Y-101580476D01*
X201820952Y-101628095D01*
X200392380Y-101675714D02*
X200392380Y-102342380D01*
X200630476Y-101294761D02*
X200868571Y-102009047D01*
X200249523Y-102009047D01*
%TO.C,J20*%
X95089523Y-101252380D02*
X95089523Y-101966666D01*
X95137142Y-102109523D01*
X95232380Y-102204761D01*
X95375238Y-102252380D01*
X95470476Y-102252380D01*
X94660952Y-101347619D02*
X94613333Y-101300000D01*
X94518095Y-101252380D01*
X94280000Y-101252380D01*
X94184761Y-101300000D01*
X94137142Y-101347619D01*
X94089523Y-101442857D01*
X94089523Y-101538095D01*
X94137142Y-101680952D01*
X94708571Y-102252380D01*
X94089523Y-102252380D01*
X93470476Y-101252380D02*
X93375238Y-101252380D01*
X93280000Y-101300000D01*
X93232380Y-101347619D01*
X93184761Y-101442857D01*
X93137142Y-101633333D01*
X93137142Y-101871428D01*
X93184761Y-102061904D01*
X93232380Y-102157142D01*
X93280000Y-102204761D01*
X93375238Y-102252380D01*
X93470476Y-102252380D01*
X93565714Y-102204761D01*
X93613333Y-102157142D01*
X93660952Y-102061904D01*
X93708571Y-101871428D01*
X93708571Y-101633333D01*
X93660952Y-101442857D01*
X93613333Y-101347619D01*
X93565714Y-101300000D01*
X93470476Y-101252380D01*
%TO.C,J24*%
X135889523Y-101342380D02*
X135889523Y-102056666D01*
X135937142Y-102199523D01*
X136032380Y-102294761D01*
X136175238Y-102342380D01*
X136270476Y-102342380D01*
X135460952Y-101437619D02*
X135413333Y-101390000D01*
X135318095Y-101342380D01*
X135080000Y-101342380D01*
X134984761Y-101390000D01*
X134937142Y-101437619D01*
X134889523Y-101532857D01*
X134889523Y-101628095D01*
X134937142Y-101770952D01*
X135508571Y-102342380D01*
X134889523Y-102342380D01*
X134032380Y-101675714D02*
X134032380Y-102342380D01*
X134270476Y-101294761D02*
X134508571Y-102009047D01*
X133889523Y-102009047D01*
%TO.C,J26*%
X176689523Y-101352380D02*
X176689523Y-102066666D01*
X176737142Y-102209523D01*
X176832380Y-102304761D01*
X176975238Y-102352380D01*
X177070476Y-102352380D01*
X176260952Y-101447619D02*
X176213333Y-101400000D01*
X176118095Y-101352380D01*
X175880000Y-101352380D01*
X175784761Y-101400000D01*
X175737142Y-101447619D01*
X175689523Y-101542857D01*
X175689523Y-101638095D01*
X175737142Y-101780952D01*
X176308571Y-102352380D01*
X175689523Y-102352380D01*
X174832380Y-101352380D02*
X175022857Y-101352380D01*
X175118095Y-101400000D01*
X175165714Y-101447619D01*
X175260952Y-101590476D01*
X175308571Y-101780952D01*
X175308571Y-102161904D01*
X175260952Y-102257142D01*
X175213333Y-102304761D01*
X175118095Y-102352380D01*
X174927619Y-102352380D01*
X174832380Y-102304761D01*
X174784761Y-102257142D01*
X174737142Y-102161904D01*
X174737142Y-101923809D01*
X174784761Y-101828571D01*
X174832380Y-101780952D01*
X174927619Y-101733333D01*
X175118095Y-101733333D01*
X175213333Y-101780952D01*
X175260952Y-101828571D01*
X175308571Y-101923809D01*
%TO.C,J27*%
X217489523Y-101342380D02*
X217489523Y-102056666D01*
X217537142Y-102199523D01*
X217632380Y-102294761D01*
X217775238Y-102342380D01*
X217870476Y-102342380D01*
X217060952Y-101437619D02*
X217013333Y-101390000D01*
X216918095Y-101342380D01*
X216680000Y-101342380D01*
X216584761Y-101390000D01*
X216537142Y-101437619D01*
X216489523Y-101532857D01*
X216489523Y-101628095D01*
X216537142Y-101770952D01*
X217108571Y-102342380D01*
X216489523Y-102342380D01*
X216156190Y-101342380D02*
X215489523Y-101342380D01*
X215918095Y-102342380D01*
%TO.C,J39*%
X10809523Y-122452380D02*
X10809523Y-123166666D01*
X10857142Y-123309523D01*
X10952380Y-123404761D01*
X11095238Y-123452380D01*
X11190476Y-123452380D01*
X10428571Y-122452380D02*
X9809523Y-122452380D01*
X10142857Y-122833333D01*
X10000000Y-122833333D01*
X9904761Y-122880952D01*
X9857142Y-122928571D01*
X9809523Y-123023809D01*
X9809523Y-123261904D01*
X9857142Y-123357142D01*
X9904761Y-123404761D01*
X10000000Y-123452380D01*
X10285714Y-123452380D01*
X10380952Y-123404761D01*
X10428571Y-123357142D01*
X9333333Y-123452380D02*
X9142857Y-123452380D01*
X9047619Y-123404761D01*
X9000000Y-123357142D01*
X8904761Y-123214285D01*
X8857142Y-123023809D01*
X8857142Y-122642857D01*
X8904761Y-122547619D01*
X8952380Y-122500000D01*
X9047619Y-122452380D01*
X9238095Y-122452380D01*
X9333333Y-122500000D01*
X9380952Y-122547619D01*
X9428571Y-122642857D01*
X9428571Y-122880952D01*
X9380952Y-122976190D01*
X9333333Y-123023809D01*
X9238095Y-123071428D01*
X9047619Y-123071428D01*
X8952380Y-123023809D01*
X8904761Y-122976190D01*
X8857142Y-122880952D01*
%TO.C,J18*%
X10809523Y-25452380D02*
X10809523Y-26166666D01*
X10857142Y-26309523D01*
X10952380Y-26404761D01*
X11095238Y-26452380D01*
X11190476Y-26452380D01*
X9809523Y-26452380D02*
X10380952Y-26452380D01*
X10095238Y-26452380D02*
X10095238Y-25452380D01*
X10190476Y-25595238D01*
X10285714Y-25690476D01*
X10380952Y-25738095D01*
X9238095Y-25880952D02*
X9333333Y-25833333D01*
X9380952Y-25785714D01*
X9428571Y-25690476D01*
X9428571Y-25642857D01*
X9380952Y-25547619D01*
X9333333Y-25500000D01*
X9238095Y-25452380D01*
X9047619Y-25452380D01*
X8952380Y-25500000D01*
X8904761Y-25547619D01*
X8857142Y-25642857D01*
X8857142Y-25690476D01*
X8904761Y-25785714D01*
X8952380Y-25833333D01*
X9047619Y-25880952D01*
X9238095Y-25880952D01*
X9333333Y-25928571D01*
X9380952Y-25976190D01*
X9428571Y-26071428D01*
X9428571Y-26261904D01*
X9380952Y-26357142D01*
X9333333Y-26404761D01*
X9238095Y-26452380D01*
X9047619Y-26452380D01*
X8952380Y-26404761D01*
X8904761Y-26357142D01*
X8857142Y-26261904D01*
X8857142Y-26071428D01*
X8904761Y-25976190D01*
X8952380Y-25928571D01*
X9047619Y-25880952D01*
%TO.C,J17*%
X54289523Y-101242380D02*
X54289523Y-101956666D01*
X54337142Y-102099523D01*
X54432380Y-102194761D01*
X54575238Y-102242380D01*
X54670476Y-102242380D01*
X53289523Y-102242380D02*
X53860952Y-102242380D01*
X53575238Y-102242380D02*
X53575238Y-101242380D01*
X53670476Y-101385238D01*
X53765714Y-101480476D01*
X53860952Y-101528095D01*
X52956190Y-101242380D02*
X52289523Y-101242380D01*
X52718095Y-102242380D01*
%TO.C,J4*%
X79373333Y-101252380D02*
X79373333Y-101966666D01*
X79420952Y-102109523D01*
X79516190Y-102204761D01*
X79659047Y-102252380D01*
X79754285Y-102252380D01*
X78468571Y-101585714D02*
X78468571Y-102252380D01*
X78706666Y-101204761D02*
X78944761Y-101919047D01*
X78325714Y-101919047D01*
%TO.C,K1*%
X41738095Y-80452380D02*
X41738095Y-79452380D01*
X41166666Y-80452380D02*
X41595238Y-79880952D01*
X41166666Y-79452380D02*
X41738095Y-80023809D01*
X40214285Y-80452380D02*
X40785714Y-80452380D01*
X40500000Y-80452380D02*
X40500000Y-79452380D01*
X40595238Y-79595238D01*
X40690476Y-79690476D01*
X40785714Y-79738095D01*
%TO.C,K3*%
X204738095Y-80452380D02*
X204738095Y-79452380D01*
X204166666Y-80452380D02*
X204595238Y-79880952D01*
X204166666Y-79452380D02*
X204738095Y-80023809D01*
X203833333Y-79452380D02*
X203214285Y-79452380D01*
X203547619Y-79833333D01*
X203404761Y-79833333D01*
X203309523Y-79880952D01*
X203261904Y-79928571D01*
X203214285Y-80023809D01*
X203214285Y-80261904D01*
X203261904Y-80357142D01*
X203309523Y-80404761D01*
X203404761Y-80452380D01*
X203690476Y-80452380D01*
X203785714Y-80404761D01*
X203833333Y-80357142D01*
%TO.C,K4*%
X82738095Y-80452380D02*
X82738095Y-79452380D01*
X82166666Y-80452380D02*
X82595238Y-79880952D01*
X82166666Y-79452380D02*
X82738095Y-80023809D01*
X81309523Y-79785714D02*
X81309523Y-80452380D01*
X81547619Y-79404761D02*
X81785714Y-80119047D01*
X81166666Y-80119047D01*
%TO.C,K5*%
X163738095Y-80452380D02*
X163738095Y-79452380D01*
X163166666Y-80452380D02*
X163595238Y-79880952D01*
X163166666Y-79452380D02*
X163738095Y-80023809D01*
X162261904Y-79452380D02*
X162738095Y-79452380D01*
X162785714Y-79928571D01*
X162738095Y-79880952D01*
X162642857Y-79833333D01*
X162404761Y-79833333D01*
X162309523Y-79880952D01*
X162261904Y-79928571D01*
X162214285Y-80023809D01*
X162214285Y-80261904D01*
X162261904Y-80357142D01*
X162309523Y-80404761D01*
X162404761Y-80452380D01*
X162642857Y-80452380D01*
X162738095Y-80404761D01*
X162785714Y-80357142D01*
%TO.C,K2*%
X122738095Y-80452380D02*
X122738095Y-79452380D01*
X122166666Y-80452380D02*
X122595238Y-79880952D01*
X122166666Y-79452380D02*
X122738095Y-80023809D01*
X121785714Y-79547619D02*
X121738095Y-79500000D01*
X121642857Y-79452380D01*
X121404761Y-79452380D01*
X121309523Y-79500000D01*
X121261904Y-79547619D01*
X121214285Y-79642857D01*
X121214285Y-79738095D01*
X121261904Y-79880952D01*
X121833333Y-80452380D01*
X121214285Y-80452380D01*
%TD*%
M02*
