M48
; DRILL file {KiCad (5.1.8)-1} date 07/20/21 10:02:15
; FORMAT={-:-/ absolute / inch / decimal}
; #@! TF.CreationDate,2021-07-20T10:02:15+02:00
; #@! TF.GenerationSoftware,Kicad,Pcbnew,(5.1.8)-1
; #@! TF.FileFunction,NonPlated,1,2,NPTH
FMAT,2
INCH
T1C0.0433
T2C0.0866
T3C0.1260
%
G90
G05
T1
X3.1102Y-1.4748
X3.2102Y-1.4748
X6.3228Y-1.4748
X6.4228Y-1.4748
X4.7165Y-1.4748
X4.8165Y-1.4748
X7.9291Y-1.4748
X8.0291Y-1.4748
X1.5039Y-1.4748
X1.6039Y-1.4748
T2
X7.2441Y-2.9331
X7.7559Y-3.4843
X4.0315Y-2.9331
X4.5433Y-3.4843
X5.6378Y-2.9331
X6.1496Y-3.4843
X0.8189Y-2.9331
X1.3307Y-3.4843
X2.4252Y-2.9331
X2.937Y-3.4843
T3
X5.5512Y-1.2598
X5.2539Y-3.5827
X0.5512Y-3.5827
X2.3661Y-1.8661
X8.4646Y-5.3937
X0.5512Y-1.8661
X-0.3543Y-1.4567
X2.0413Y-3.5827
X7.1654Y-1.2598
X5.5512Y-4.7244
X5.5787Y-1.8661
X7.1654Y-4.7244
X3.937Y-1.2598
X-0.315Y-2.9843
X6.8602Y-3.5827
X8.4665Y-3.5827
X8.4646Y-0.6299
X2.3622Y-4.7244
X3.937Y-4.7244
X7.185Y-1.8661
X3.6476Y-3.5827
X-0.0394Y-1.9685
X-0.0394Y-3.9961
X2.3622Y-1.2598
X-0.3543Y-4.5669
X0.748Y-4.7244
X3.9724Y-1.8661
X0.2362Y-2.9843
T0
M30
