%TF.GenerationSoftware,KiCad,Pcbnew,(5.1.8)-1*%
%TF.CreationDate,2021-07-20T16:41:24+02:00*%
%TF.ProjectId,FJElectricsPCBBack,464a456c-6563-4747-9269-637350434242,rev?*%
%TF.SameCoordinates,Original*%
%TF.FileFunction,Legend,Top*%
%TF.FilePolarity,Positive*%
%FSLAX46Y46*%
G04 Gerber Fmt 4.6, Leading zero omitted, Abs format (unit mm)*
G04 Created by KiCad (PCBNEW (5.1.8)-1) date 2021-07-20 16:41:24*
%MOMM*%
%LPD*%
G01*
G04 APERTURE LIST*
%ADD10C,0.150000*%
%ADD11C,1.000000*%
%ADD12C,0.120000*%
G04 APERTURE END LIST*
D10*
X94668928Y-95453571D02*
X94811785Y-95501190D01*
X94859404Y-95548809D01*
X94907023Y-95644047D01*
X94907023Y-95786904D01*
X94859404Y-95882142D01*
X94811785Y-95929761D01*
X94716547Y-95977380D01*
X94335595Y-95977380D01*
X94335595Y-94977380D01*
X94668928Y-94977380D01*
X94764166Y-95025000D01*
X94811785Y-95072619D01*
X94859404Y-95167857D01*
X94859404Y-95263095D01*
X94811785Y-95358333D01*
X94764166Y-95405952D01*
X94668928Y-95453571D01*
X94335595Y-95453571D01*
X95764166Y-95977380D02*
X95764166Y-95453571D01*
X95716547Y-95358333D01*
X95621309Y-95310714D01*
X95430833Y-95310714D01*
X95335595Y-95358333D01*
X95764166Y-95929761D02*
X95668928Y-95977380D01*
X95430833Y-95977380D01*
X95335595Y-95929761D01*
X95287976Y-95834523D01*
X95287976Y-95739285D01*
X95335595Y-95644047D01*
X95430833Y-95596428D01*
X95668928Y-95596428D01*
X95764166Y-95548809D01*
X96097500Y-95310714D02*
X96478452Y-95310714D01*
X96240357Y-94977380D02*
X96240357Y-95834523D01*
X96287976Y-95929761D01*
X96383214Y-95977380D01*
X96478452Y-95977380D01*
X96668928Y-95310714D02*
X97049880Y-95310714D01*
X96811785Y-94977380D02*
X96811785Y-95834523D01*
X96859404Y-95929761D01*
X96954642Y-95977380D01*
X97049880Y-95977380D01*
X97764166Y-95929761D02*
X97668928Y-95977380D01*
X97478452Y-95977380D01*
X97383214Y-95929761D01*
X97335595Y-95834523D01*
X97335595Y-95453571D01*
X97383214Y-95358333D01*
X97478452Y-95310714D01*
X97668928Y-95310714D01*
X97764166Y-95358333D01*
X97811785Y-95453571D01*
X97811785Y-95548809D01*
X97335595Y-95644047D01*
X98240357Y-95977380D02*
X98240357Y-95310714D01*
X98240357Y-95501190D02*
X98287976Y-95405952D01*
X98335595Y-95358333D01*
X98430833Y-95310714D01*
X98526071Y-95310714D01*
X98764166Y-95310714D02*
X99002261Y-95977380D01*
X99240357Y-95310714D02*
X99002261Y-95977380D01*
X98907023Y-96215476D01*
X98859404Y-96263095D01*
X98764166Y-96310714D01*
X100716547Y-95453571D02*
X100859404Y-95501190D01*
X100907023Y-95548809D01*
X100954642Y-95644047D01*
X100954642Y-95786904D01*
X100907023Y-95882142D01*
X100859404Y-95929761D01*
X100764166Y-95977380D01*
X100383214Y-95977380D01*
X100383214Y-94977380D01*
X100716547Y-94977380D01*
X100811785Y-95025000D01*
X100859404Y-95072619D01*
X100907023Y-95167857D01*
X100907023Y-95263095D01*
X100859404Y-95358333D01*
X100811785Y-95405952D01*
X100716547Y-95453571D01*
X100383214Y-95453571D01*
X101811785Y-95310714D02*
X101811785Y-95977380D01*
X101383214Y-95310714D02*
X101383214Y-95834523D01*
X101430833Y-95929761D01*
X101526071Y-95977380D01*
X101668928Y-95977380D01*
X101764166Y-95929761D01*
X101811785Y-95882142D01*
X102240357Y-95929761D02*
X102335595Y-95977380D01*
X102526071Y-95977380D01*
X102621309Y-95929761D01*
X102668928Y-95834523D01*
X102668928Y-95786904D01*
X102621309Y-95691666D01*
X102526071Y-95644047D01*
X102383214Y-95644047D01*
X102287976Y-95596428D01*
X102240357Y-95501190D01*
X102240357Y-95453571D01*
X102287976Y-95358333D01*
X102383214Y-95310714D01*
X102526071Y-95310714D01*
X102621309Y-95358333D01*
X103097500Y-95977380D02*
X103097500Y-94977380D01*
X103097500Y-95358333D02*
X103192738Y-95310714D01*
X103383214Y-95310714D01*
X103478452Y-95358333D01*
X103526071Y-95405952D01*
X103573690Y-95501190D01*
X103573690Y-95786904D01*
X103526071Y-95882142D01*
X103478452Y-95929761D01*
X103383214Y-95977380D01*
X103192738Y-95977380D01*
X103097500Y-95929761D01*
X104430833Y-95977380D02*
X104430833Y-95453571D01*
X104383214Y-95358333D01*
X104287976Y-95310714D01*
X104097500Y-95310714D01*
X104002261Y-95358333D01*
X104430833Y-95929761D02*
X104335595Y-95977380D01*
X104097500Y-95977380D01*
X104002261Y-95929761D01*
X103954642Y-95834523D01*
X103954642Y-95739285D01*
X104002261Y-95644047D01*
X104097500Y-95596428D01*
X104335595Y-95596428D01*
X104430833Y-95548809D01*
X104907023Y-95977380D02*
X104907023Y-95310714D01*
X104907023Y-95501190D02*
X104954642Y-95405952D01*
X105002261Y-95358333D01*
X105097500Y-95310714D01*
X105192738Y-95310714D01*
X94859404Y-97627380D02*
X94287976Y-97627380D01*
X94573690Y-97627380D02*
X94573690Y-96627380D01*
X94478452Y-96770238D01*
X94383214Y-96865476D01*
X94287976Y-96913095D01*
X95240357Y-96722619D02*
X95287976Y-96675000D01*
X95383214Y-96627380D01*
X95621309Y-96627380D01*
X95716547Y-96675000D01*
X95764166Y-96722619D01*
X95811785Y-96817857D01*
X95811785Y-96913095D01*
X95764166Y-97055952D01*
X95192738Y-97627380D01*
X95811785Y-97627380D01*
X96430833Y-96627380D02*
X96526071Y-96627380D01*
X96621309Y-96675000D01*
X96668928Y-96722619D01*
X96716547Y-96817857D01*
X96764166Y-97008333D01*
X96764166Y-97246428D01*
X96716547Y-97436904D01*
X96668928Y-97532142D01*
X96621309Y-97579761D01*
X96526071Y-97627380D01*
X96430833Y-97627380D01*
X96335595Y-97579761D01*
X96287976Y-97532142D01*
X96240357Y-97436904D01*
X96192738Y-97246428D01*
X96192738Y-97008333D01*
X96240357Y-96817857D01*
X96287976Y-96722619D01*
X96335595Y-96675000D01*
X96430833Y-96627380D01*
X97145119Y-97341666D02*
X97621309Y-97341666D01*
X97049880Y-97627380D02*
X97383214Y-96627380D01*
X97716547Y-97627380D01*
X98811785Y-97627380D02*
X98811785Y-96627380D01*
X99145119Y-97341666D01*
X99478452Y-96627380D01*
X99478452Y-97627380D01*
X100383214Y-97627380D02*
X100383214Y-97103571D01*
X100335595Y-97008333D01*
X100240357Y-96960714D01*
X100049880Y-96960714D01*
X99954642Y-97008333D01*
X100383214Y-97579761D02*
X100287976Y-97627380D01*
X100049880Y-97627380D01*
X99954642Y-97579761D01*
X99907023Y-97484523D01*
X99907023Y-97389285D01*
X99954642Y-97294047D01*
X100049880Y-97246428D01*
X100287976Y-97246428D01*
X100383214Y-97198809D01*
X100764166Y-97627380D02*
X101287976Y-96960714D01*
X100764166Y-96960714D02*
X101287976Y-97627380D01*
X94192738Y-98277380D02*
X94526071Y-99277380D01*
X94859404Y-98277380D01*
X95573690Y-99229761D02*
X95478452Y-99277380D01*
X95287976Y-99277380D01*
X95192738Y-99229761D01*
X95145119Y-99134523D01*
X95145119Y-98753571D01*
X95192738Y-98658333D01*
X95287976Y-98610714D01*
X95478452Y-98610714D01*
X95573690Y-98658333D01*
X95621309Y-98753571D01*
X95621309Y-98848809D01*
X95145119Y-98944047D01*
X96049880Y-99277380D02*
X96049880Y-98610714D01*
X96049880Y-98801190D02*
X96097500Y-98705952D01*
X96145119Y-98658333D01*
X96240357Y-98610714D01*
X96335595Y-98610714D01*
X96621309Y-99229761D02*
X96716547Y-99277380D01*
X96907023Y-99277380D01*
X97002261Y-99229761D01*
X97049880Y-99134523D01*
X97049880Y-99086904D01*
X97002261Y-98991666D01*
X96907023Y-98944047D01*
X96764166Y-98944047D01*
X96668928Y-98896428D01*
X96621309Y-98801190D01*
X96621309Y-98753571D01*
X96668928Y-98658333D01*
X96764166Y-98610714D01*
X96907023Y-98610714D01*
X97002261Y-98658333D01*
X97478452Y-99277380D02*
X97478452Y-98610714D01*
X97478452Y-98277380D02*
X97430833Y-98325000D01*
X97478452Y-98372619D01*
X97526071Y-98325000D01*
X97478452Y-98277380D01*
X97478452Y-98372619D01*
X98097500Y-99277380D02*
X98002261Y-99229761D01*
X97954642Y-99182142D01*
X97907023Y-99086904D01*
X97907023Y-98801190D01*
X97954642Y-98705952D01*
X98002261Y-98658333D01*
X98097500Y-98610714D01*
X98240357Y-98610714D01*
X98335595Y-98658333D01*
X98383214Y-98705952D01*
X98430833Y-98801190D01*
X98430833Y-99086904D01*
X98383214Y-99182142D01*
X98335595Y-99229761D01*
X98240357Y-99277380D01*
X98097500Y-99277380D01*
X98859404Y-98610714D02*
X98859404Y-99277380D01*
X98859404Y-98705952D02*
X98907023Y-98658333D01*
X99002261Y-98610714D01*
X99145119Y-98610714D01*
X99240357Y-98658333D01*
X99287976Y-98753571D01*
X99287976Y-99277380D01*
X99764166Y-99182142D02*
X99811785Y-99229761D01*
X99764166Y-99277380D01*
X99716547Y-99229761D01*
X99764166Y-99182142D01*
X99764166Y-99277380D01*
X99764166Y-98658333D02*
X99811785Y-98705952D01*
X99764166Y-98753571D01*
X99716547Y-98705952D01*
X99764166Y-98658333D01*
X99764166Y-98753571D01*
X101192738Y-98277380D02*
X101287976Y-98277380D01*
X101383214Y-98325000D01*
X101430833Y-98372619D01*
X101478452Y-98467857D01*
X101526071Y-98658333D01*
X101526071Y-98896428D01*
X101478452Y-99086904D01*
X101430833Y-99182142D01*
X101383214Y-99229761D01*
X101287976Y-99277380D01*
X101192738Y-99277380D01*
X101097500Y-99229761D01*
X101049880Y-99182142D01*
X101002261Y-99086904D01*
X100954642Y-98896428D01*
X100954642Y-98658333D01*
X101002261Y-98467857D01*
X101049880Y-98372619D01*
X101097500Y-98325000D01*
X101192738Y-98277380D01*
X101954642Y-99182142D02*
X102002261Y-99229761D01*
X101954642Y-99277380D01*
X101907023Y-99229761D01*
X101954642Y-99182142D01*
X101954642Y-99277380D01*
X102621309Y-98277380D02*
X102716547Y-98277380D01*
X102811785Y-98325000D01*
X102859404Y-98372619D01*
X102907023Y-98467857D01*
X102954642Y-98658333D01*
X102954642Y-98896428D01*
X102907023Y-99086904D01*
X102859404Y-99182142D01*
X102811785Y-99229761D01*
X102716547Y-99277380D01*
X102621309Y-99277380D01*
X102526071Y-99229761D01*
X102478452Y-99182142D01*
X102430833Y-99086904D01*
X102383214Y-98896428D01*
X102383214Y-98658333D01*
X102430833Y-98467857D01*
X102478452Y-98372619D01*
X102526071Y-98325000D01*
X102621309Y-98277380D01*
X103573690Y-98277380D02*
X103668928Y-98277380D01*
X103764166Y-98325000D01*
X103811785Y-98372619D01*
X103859404Y-98467857D01*
X103907023Y-98658333D01*
X103907023Y-98896428D01*
X103859404Y-99086904D01*
X103811785Y-99182142D01*
X103764166Y-99229761D01*
X103668928Y-99277380D01*
X103573690Y-99277380D01*
X103478452Y-99229761D01*
X103430833Y-99182142D01*
X103383214Y-99086904D01*
X103335595Y-98896428D01*
X103335595Y-98658333D01*
X103383214Y-98467857D01*
X103430833Y-98372619D01*
X103478452Y-98325000D01*
X103573690Y-98277380D01*
X94192738Y-99927380D02*
X94526071Y-100927380D01*
X94859404Y-99927380D01*
X95192738Y-100927380D02*
X95192738Y-100260714D01*
X95192738Y-99927380D02*
X95145119Y-99975000D01*
X95192738Y-100022619D01*
X95240357Y-99975000D01*
X95192738Y-99927380D01*
X95192738Y-100022619D01*
X96097500Y-100879761D02*
X96002261Y-100927380D01*
X95811785Y-100927380D01*
X95716547Y-100879761D01*
X95668928Y-100832142D01*
X95621309Y-100736904D01*
X95621309Y-100451190D01*
X95668928Y-100355952D01*
X95716547Y-100308333D01*
X95811785Y-100260714D01*
X96002261Y-100260714D01*
X96097500Y-100308333D01*
X96907023Y-100879761D02*
X96811785Y-100927380D01*
X96621309Y-100927380D01*
X96526071Y-100879761D01*
X96478452Y-100784523D01*
X96478452Y-100403571D01*
X96526071Y-100308333D01*
X96621309Y-100260714D01*
X96811785Y-100260714D01*
X96907023Y-100308333D01*
X96954642Y-100403571D01*
X96954642Y-100498809D01*
X96478452Y-100594047D01*
X97383214Y-100260714D02*
X97383214Y-100927380D01*
X97383214Y-100355952D02*
X97430833Y-100308333D01*
X97526071Y-100260714D01*
X97668928Y-100260714D01*
X97764166Y-100308333D01*
X97811785Y-100403571D01*
X97811785Y-100927380D01*
X98145119Y-100260714D02*
X98526071Y-100260714D01*
X98287976Y-99927380D02*
X98287976Y-100784523D01*
X98335595Y-100879761D01*
X98430833Y-100927380D01*
X98526071Y-100927380D01*
X99240357Y-100879761D02*
X99145119Y-100927380D01*
X98954642Y-100927380D01*
X98859404Y-100879761D01*
X98811785Y-100784523D01*
X98811785Y-100403571D01*
X98859404Y-100308333D01*
X98954642Y-100260714D01*
X99145119Y-100260714D01*
X99240357Y-100308333D01*
X99287976Y-100403571D01*
X99287976Y-100498809D01*
X98811785Y-100594047D01*
X100478452Y-100927380D02*
X100478452Y-99927380D01*
X100716547Y-99927380D01*
X100859404Y-99975000D01*
X100954642Y-100070238D01*
X101002261Y-100165476D01*
X101049880Y-100355952D01*
X101049880Y-100498809D01*
X101002261Y-100689285D01*
X100954642Y-100784523D01*
X100859404Y-100879761D01*
X100716547Y-100927380D01*
X100478452Y-100927380D01*
X101907023Y-100927380D02*
X101907023Y-100403571D01*
X101859404Y-100308333D01*
X101764166Y-100260714D01*
X101573690Y-100260714D01*
X101478452Y-100308333D01*
X101907023Y-100879761D02*
X101811785Y-100927380D01*
X101573690Y-100927380D01*
X101478452Y-100879761D01*
X101430833Y-100784523D01*
X101430833Y-100689285D01*
X101478452Y-100594047D01*
X101573690Y-100546428D01*
X101811785Y-100546428D01*
X101907023Y-100498809D01*
X103097500Y-100879761D02*
X103240357Y-100927380D01*
X103478452Y-100927380D01*
X103573690Y-100879761D01*
X103621309Y-100832142D01*
X103668928Y-100736904D01*
X103668928Y-100641666D01*
X103621309Y-100546428D01*
X103573690Y-100498809D01*
X103478452Y-100451190D01*
X103287976Y-100403571D01*
X103192738Y-100355952D01*
X103145119Y-100308333D01*
X103097500Y-100213095D01*
X103097500Y-100117857D01*
X103145119Y-100022619D01*
X103192738Y-99975000D01*
X103287976Y-99927380D01*
X103526071Y-99927380D01*
X103668928Y-99975000D01*
X104097500Y-100927380D02*
X104097500Y-100260714D01*
X104097500Y-99927380D02*
X104049880Y-99975000D01*
X104097500Y-100022619D01*
X104145119Y-99975000D01*
X104097500Y-99927380D01*
X104097500Y-100022619D01*
X104716547Y-100927380D02*
X104621309Y-100879761D01*
X104573690Y-100784523D01*
X104573690Y-99927380D01*
X105002261Y-100260714D02*
X105240357Y-100927380D01*
X105478452Y-100260714D01*
X106287976Y-100927380D02*
X106287976Y-100403571D01*
X106240357Y-100308333D01*
X106145119Y-100260714D01*
X105954642Y-100260714D01*
X105859404Y-100308333D01*
X106287976Y-100879761D02*
X106192738Y-100927380D01*
X105954642Y-100927380D01*
X105859404Y-100879761D01*
X105811785Y-100784523D01*
X105811785Y-100689285D01*
X105859404Y-100594047D01*
X105954642Y-100546428D01*
X106192738Y-100546428D01*
X106287976Y-100498809D01*
X43335595Y-75952380D02*
X43335595Y-74952380D01*
X43716547Y-74952380D01*
X43811785Y-75000000D01*
X43859404Y-75047619D01*
X43907023Y-75142857D01*
X43907023Y-75285714D01*
X43859404Y-75380952D01*
X43811785Y-75428571D01*
X43716547Y-75476190D01*
X43335595Y-75476190D01*
X44192738Y-74952380D02*
X44526071Y-75952380D01*
X44859404Y-74952380D01*
X45192738Y-75571428D02*
X45954642Y-75571428D01*
X100287976Y-79904761D02*
X100430833Y-79952380D01*
X100668928Y-79952380D01*
X100764166Y-79904761D01*
X100811785Y-79857142D01*
X100859404Y-79761904D01*
X100859404Y-79666666D01*
X100811785Y-79571428D01*
X100764166Y-79523809D01*
X100668928Y-79476190D01*
X100478452Y-79428571D01*
X100383214Y-79380952D01*
X100335595Y-79333333D01*
X100287976Y-79238095D01*
X100287976Y-79142857D01*
X100335595Y-79047619D01*
X100383214Y-79000000D01*
X100478452Y-78952380D01*
X100716547Y-78952380D01*
X100859404Y-79000000D01*
X101287976Y-79952380D02*
X101287976Y-78952380D01*
X101287976Y-79428571D02*
X101859404Y-79428571D01*
X101859404Y-79952380D02*
X101859404Y-78952380D01*
X102335595Y-78952380D02*
X102335595Y-79761904D01*
X102383214Y-79857142D01*
X102430833Y-79904761D01*
X102526071Y-79952380D01*
X102716547Y-79952380D01*
X102811785Y-79904761D01*
X102859404Y-79857142D01*
X102907023Y-79761904D01*
X102907023Y-78952380D01*
X103383214Y-79952380D02*
X103383214Y-78952380D01*
X103954642Y-79952380D01*
X103954642Y-78952380D01*
X104287976Y-78952380D02*
X104859404Y-78952380D01*
X104573690Y-79952380D02*
X104573690Y-78952380D01*
X104954642Y-80047619D02*
X105716547Y-80047619D01*
X106287976Y-79428571D02*
X106430833Y-79476190D01*
X106478452Y-79523809D01*
X106526071Y-79619047D01*
X106526071Y-79761904D01*
X106478452Y-79857142D01*
X106430833Y-79904761D01*
X106335595Y-79952380D01*
X105954642Y-79952380D01*
X105954642Y-78952380D01*
X106287976Y-78952380D01*
X106383214Y-79000000D01*
X106430833Y-79047619D01*
X106478452Y-79142857D01*
X106478452Y-79238095D01*
X106430833Y-79333333D01*
X106383214Y-79380952D01*
X106287976Y-79428571D01*
X105954642Y-79428571D01*
X106907023Y-79666666D02*
X107383214Y-79666666D01*
X106811785Y-79952380D02*
X107145119Y-78952380D01*
X107478452Y-79952380D01*
X107668928Y-78952380D02*
X108240357Y-78952380D01*
X107954642Y-79952380D02*
X107954642Y-78952380D01*
X99287976Y-1904761D02*
X99430833Y-1952380D01*
X99668928Y-1952380D01*
X99764166Y-1904761D01*
X99811785Y-1857142D01*
X99859404Y-1761904D01*
X99859404Y-1666666D01*
X99811785Y-1571428D01*
X99764166Y-1523809D01*
X99668928Y-1476190D01*
X99478452Y-1428571D01*
X99383214Y-1380952D01*
X99335595Y-1333333D01*
X99287976Y-1238095D01*
X99287976Y-1142857D01*
X99335595Y-1047619D01*
X99383214Y-1000000D01*
X99478452Y-952380D01*
X99716547Y-952380D01*
X99859404Y-1000000D01*
X100287976Y-1952380D02*
X100287976Y-952380D01*
X100287976Y-1428571D02*
X100859404Y-1428571D01*
X100859404Y-1952380D02*
X100859404Y-952380D01*
X101335595Y-952380D02*
X101335595Y-1761904D01*
X101383214Y-1857142D01*
X101430833Y-1904761D01*
X101526071Y-1952380D01*
X101716547Y-1952380D01*
X101811785Y-1904761D01*
X101859404Y-1857142D01*
X101907023Y-1761904D01*
X101907023Y-952380D01*
X102383214Y-1952380D02*
X102383214Y-952380D01*
X102954642Y-1952380D01*
X102954642Y-952380D01*
X103287976Y-952380D02*
X103859404Y-952380D01*
X103573690Y-1952380D02*
X103573690Y-952380D01*
X103954642Y-2047619D02*
X104716547Y-2047619D01*
X105430833Y-1952380D02*
X104954642Y-1952380D01*
X104954642Y-952380D01*
X105954642Y-952380D02*
X106145119Y-952380D01*
X106240357Y-1000000D01*
X106335595Y-1095238D01*
X106383214Y-1285714D01*
X106383214Y-1619047D01*
X106335595Y-1809523D01*
X106240357Y-1904761D01*
X106145119Y-1952380D01*
X105954642Y-1952380D01*
X105859404Y-1904761D01*
X105764166Y-1809523D01*
X105716547Y-1619047D01*
X105716547Y-1285714D01*
X105764166Y-1095238D01*
X105859404Y-1000000D01*
X105954642Y-952380D01*
X106764166Y-1666666D02*
X107240357Y-1666666D01*
X106668928Y-1952380D02*
X107002261Y-952380D01*
X107335595Y-1952380D01*
X107668928Y-1952380D02*
X107668928Y-952380D01*
X107907023Y-952380D01*
X108049880Y-1000000D01*
X108145119Y-1095238D01*
X108192738Y-1190476D01*
X108240357Y-1380952D01*
X108240357Y-1523809D01*
X108192738Y-1714285D01*
X108145119Y-1809523D01*
X108049880Y-1904761D01*
X107907023Y-1952380D01*
X107668928Y-1952380D01*
X31335595Y-75952380D02*
X31335595Y-74952380D01*
X31716547Y-74952380D01*
X31811785Y-75000000D01*
X31859404Y-75047619D01*
X31907023Y-75142857D01*
X31907023Y-75285714D01*
X31859404Y-75380952D01*
X31811785Y-75428571D01*
X31716547Y-75476190D01*
X31335595Y-75476190D01*
X32192738Y-74952380D02*
X32526071Y-75952380D01*
X32859404Y-74952380D01*
X33192738Y-75571428D02*
X33954642Y-75571428D01*
X33573690Y-75952380D02*
X33573690Y-75190476D01*
D11*
X94870238Y-92761904D02*
X95495238Y-87761904D01*
X97400000Y-87761904D01*
X97846428Y-88000000D01*
X98054761Y-88238095D01*
X98233333Y-88714285D01*
X98144047Y-89428571D01*
X97846428Y-89904761D01*
X97578571Y-90142857D01*
X97072619Y-90380952D01*
X95167857Y-90380952D01*
X100584523Y-92761904D02*
X100138095Y-92523809D01*
X99929761Y-92285714D01*
X99751190Y-91809523D01*
X99929761Y-90380952D01*
X100227380Y-89904761D01*
X100495238Y-89666666D01*
X101001190Y-89428571D01*
X101715476Y-89428571D01*
X102161904Y-89666666D01*
X102370238Y-89904761D01*
X102548809Y-90380952D01*
X102370238Y-91809523D01*
X102072619Y-92285714D01*
X101804761Y-92523809D01*
X101298809Y-92761904D01*
X100584523Y-92761904D01*
X104334523Y-89428571D02*
X104870238Y-92761904D01*
X106120238Y-90380952D01*
X106775000Y-92761904D01*
X108144047Y-89428571D01*
X111566666Y-92523809D02*
X111060714Y-92761904D01*
X110108333Y-92761904D01*
X109661904Y-92523809D01*
X109483333Y-92047619D01*
X109721428Y-90142857D01*
X110019047Y-89666666D01*
X110525000Y-89428571D01*
X111477380Y-89428571D01*
X111923809Y-89666666D01*
X112102380Y-90142857D01*
X112042857Y-90619047D01*
X109602380Y-91095238D01*
X113917857Y-92761904D02*
X114334523Y-89428571D01*
X114215476Y-90380952D02*
X114513095Y-89904761D01*
X114780952Y-89666666D01*
X115286904Y-89428571D01*
X115763095Y-89428571D01*
X120822619Y-92761904D02*
X121447619Y-87761904D01*
X122638095Y-87761904D01*
X123322619Y-88000000D01*
X123739285Y-88476190D01*
X123917857Y-88952380D01*
X124036904Y-89904761D01*
X123947619Y-90619047D01*
X123590476Y-91571428D01*
X123292857Y-92047619D01*
X122757142Y-92523809D01*
X122013095Y-92761904D01*
X120822619Y-92761904D01*
X127757142Y-92523809D02*
X127251190Y-92761904D01*
X126298809Y-92761904D01*
X125852380Y-92523809D01*
X125673809Y-92047619D01*
X125911904Y-90142857D01*
X126209523Y-89666666D01*
X126715476Y-89428571D01*
X127667857Y-89428571D01*
X128114285Y-89666666D01*
X128292857Y-90142857D01*
X128233333Y-90619047D01*
X125792857Y-91095238D01*
X130525000Y-89428571D02*
X129900000Y-94428571D01*
X130495238Y-89666666D02*
X131001190Y-89428571D01*
X131953571Y-89428571D01*
X132400000Y-89666666D01*
X132608333Y-89904761D01*
X132786904Y-90380952D01*
X132608333Y-91809523D01*
X132310714Y-92285714D01*
X132042857Y-92523809D01*
X131536904Y-92761904D01*
X130584523Y-92761904D01*
X130138095Y-92523809D01*
X135346428Y-92761904D02*
X134900000Y-92523809D01*
X134691666Y-92285714D01*
X134513095Y-91809523D01*
X134691666Y-90380952D01*
X134989285Y-89904761D01*
X135257142Y-89666666D01*
X135763095Y-89428571D01*
X136477380Y-89428571D01*
X136923809Y-89666666D01*
X137132142Y-89904761D01*
X137310714Y-90380952D01*
X137132142Y-91809523D01*
X136834523Y-92285714D01*
X136566666Y-92523809D01*
X136060714Y-92761904D01*
X135346428Y-92761904D01*
X138858333Y-89428571D02*
X140763095Y-89428571D01*
X139780952Y-87761904D02*
X139245238Y-92047619D01*
X139423809Y-92523809D01*
X139870238Y-92761904D01*
X140346428Y-92761904D01*
D12*
%TO.C,Fuse7*%
X5770000Y-70500000D02*
G75*
G03*
X5770000Y-70500000I-2500000J0D01*
G01*
X710000Y-68955000D02*
X710000Y-72045000D01*
X6260000Y-70499538D02*
G75*
G02*
X710000Y-72044830I-2990000J-462D01*
G01*
X6260000Y-70500462D02*
G75*
G03*
X710000Y-68955170I-2990000J462D01*
G01*
%TO.C,R7*%
X-15370000Y-63690000D02*
X-12630000Y-63690000D01*
X-12630000Y-63690000D02*
X-12630000Y-57150000D01*
X-12630000Y-57150000D02*
X-15370000Y-57150000D01*
X-15370000Y-57150000D02*
X-15370000Y-63690000D01*
X-14000000Y-64460000D02*
X-14000000Y-63690000D01*
X-14000000Y-56380000D02*
X-14000000Y-57150000D01*
%TO.C,H25*%
X160500000Y15500000D02*
G75*
G03*
X160500000Y15500000I-3100000J0D01*
G01*
%TO.C,H23*%
X160500000Y-96500000D02*
G75*
G03*
X160500000Y-96500000I-3100000J0D01*
G01*
%TO.C,Fuse_8*%
X183500000Y-32500000D02*
X150000000Y-32500000D01*
X150000000Y-23500000D02*
X183500000Y-23500000D01*
X201000000Y-38250000D02*
X132500000Y-38250000D01*
X132500000Y-38250000D02*
X132500000Y-18750000D01*
X132500000Y-18750000D02*
X201000000Y-18750000D01*
X201000000Y-18750000D02*
X201000000Y-38250000D01*
%TO.C,H45*%
X180100000Y-40500000D02*
G75*
G03*
X180100000Y-40500000I-3100000J0D01*
G01*
%TO.C,H43*%
X159300000Y-40500000D02*
G75*
G03*
X159300000Y-40500000I-3100000J0D01*
G01*
%TO.C,H42*%
X160500000Y-13500000D02*
G75*
G03*
X160500000Y-13500000I-3100000J0D01*
G01*
%TO.C,H41*%
X160500000Y-67500000D02*
G75*
G03*
X160500000Y-67500000I-3100000J0D01*
G01*
%TO.C,H40*%
X54600000Y-79500000D02*
G75*
G03*
X54600000Y-79500000I-3100000J0D01*
G01*
%TO.C,H11*%
X21100000Y-49500000D02*
G75*
G03*
X21100000Y-49500000I-3100000J0D01*
G01*
%TO.C,J28*%
X58500000Y-21670000D02*
X58500000Y13330000D01*
X74500000Y-21670000D02*
X58500000Y-21670000D01*
X58500000Y13330000D02*
X74500000Y13330000D01*
X74500000Y13330000D02*
X74500000Y-21670000D01*
%TO.C,J27*%
X31500000Y-21500000D02*
X31500000Y13500000D01*
X47500000Y-21500000D02*
X31500000Y-21500000D01*
X31500000Y13500000D02*
X47500000Y13500000D01*
X47500000Y13500000D02*
X47500000Y-21500000D01*
%TO.C,J7*%
X4500000Y-21500000D02*
X4500000Y13500000D01*
X20500000Y-21500000D02*
X4500000Y-21500000D01*
X4500000Y13500000D02*
X20500000Y13500000D01*
X20500000Y13500000D02*
X20500000Y-21500000D01*
%TO.C,J25*%
X30850000Y-86000000D02*
X30850000Y-76700000D01*
X30850000Y-76700000D02*
X46650000Y-76700000D01*
X46650000Y-86000000D02*
X30850000Y-86000000D01*
X46650000Y-76700000D02*
X46650000Y-86000000D01*
%TO.C,H39*%
X42600000Y17500000D02*
G75*
G03*
X42600000Y17500000I-3100000J0D01*
G01*
%TO.C,H38*%
X69600000Y17500000D02*
G75*
G03*
X69600000Y17500000I-3100000J0D01*
G01*
%TO.C,H37*%
X42600000Y-25500000D02*
G75*
G03*
X42600000Y-25500000I-3100000J0D01*
G01*
%TO.C,H36*%
X15600000Y17500000D02*
G75*
G03*
X15600000Y17500000I-3100000J0D01*
G01*
%TO.C,H35*%
X15600000Y-25500000D02*
G75*
G03*
X15600000Y-25500000I-3100000J0D01*
G01*
%TO.C,H34*%
X69600000Y-25500000D02*
G75*
G03*
X69600000Y-25500000I-3100000J0D01*
G01*
%TO.C,H33*%
X200100000Y1000000D02*
G75*
G03*
X200100000Y1000000I-3100000J0D01*
G01*
%TO.C,H32*%
X-11900000Y-79500000D02*
G75*
G03*
X-11900000Y-79500000I-3100000J0D01*
G01*
%TO.C,H27*%
X144600000Y1000000D02*
G75*
G03*
X144600000Y1000000I-3100000J0D01*
G01*
%TO.C,H22*%
X144600000Y-82000000D02*
G75*
G03*
X144600000Y-82000000I-3100000J0D01*
G01*
%TO.C,H19*%
X200100000Y-82000000D02*
G75*
G03*
X200100000Y-82000000I-3100000J0D01*
G01*
%TO.C,J18*%
X147000000Y-71500000D02*
X191500000Y-71500000D01*
X191500000Y-92500000D02*
X147000000Y-92500000D01*
X191500000Y-71500000D02*
X191500000Y-92500000D01*
X147000000Y-92500000D02*
X147000000Y-71500000D01*
%TO.C,J22*%
X147000000Y11500000D02*
X191500000Y11500000D01*
X191500000Y-9500000D02*
X147000000Y-9500000D01*
X191500000Y11500000D02*
X191500000Y-9500000D01*
X147000000Y-9500000D02*
X147000000Y11500000D01*
%TO.C,J21*%
X47500000Y-21920000D02*
X41580000Y-21920000D01*
X47500000Y13500000D02*
X41580000Y13500000D01*
X47500000Y-23420000D02*
X47500000Y-21920000D01*
X47500000Y13500000D02*
X47500000Y15080000D01*
X59180000Y-23420000D02*
X59180000Y15080000D01*
X59180000Y-23420000D02*
X41580000Y-23420000D01*
X41580000Y15080000D02*
X59180000Y15080000D01*
X41580000Y15080000D02*
X41580000Y-23420000D01*
%TO.C,J20*%
X20500000Y-21920000D02*
X14580000Y-21920000D01*
X20500000Y13500000D02*
X14580000Y13500000D01*
X20500000Y-23420000D02*
X20500000Y-21920000D01*
X20500000Y13500000D02*
X20500000Y15080000D01*
X32180000Y-23420000D02*
X32180000Y15080000D01*
X32180000Y-23420000D02*
X14580000Y-23420000D01*
X14580000Y15080000D02*
X32180000Y15080000D01*
X14580000Y15080000D02*
X14580000Y-23420000D01*
%TO.C,J19*%
X-6500000Y-21920000D02*
X-12420000Y-21920000D01*
X-6500000Y13500000D02*
X-12420000Y13500000D01*
X-6500000Y-23420000D02*
X-6500000Y-21920000D01*
X-6500000Y13500000D02*
X-6500000Y15080000D01*
X5180000Y-23420000D02*
X5180000Y15080000D01*
X5180000Y-23420000D02*
X-12420000Y-23420000D01*
X-12420000Y15080000D02*
X5180000Y15080000D01*
X-12420000Y15080000D02*
X-12420000Y-23420000D01*
%TO.C,H31*%
X-11900000Y17500000D02*
G75*
G03*
X-11900000Y17500000I-3100000J0D01*
G01*
%TO.C,H16*%
X29100000Y-79500000D02*
G75*
G03*
X29100000Y-79500000I-3100000J0D01*
G01*
%TO.C,H21*%
X203100000Y17500000D02*
G75*
G03*
X203100000Y17500000I-3100000J0D01*
G01*
%TO.C,H3*%
X140100000Y17500000D02*
G75*
G03*
X140100000Y17500000I-3100000J0D01*
G01*
%TO.C,H28*%
X184100000Y-13500000D02*
G75*
G03*
X184100000Y-13500000I-3100000J0D01*
G01*
%TO.C,H10*%
X48100000Y-49500000D02*
G75*
G03*
X48100000Y-49500000I-3100000J0D01*
G01*
%TO.C,H17*%
X184100000Y-67500000D02*
G75*
G03*
X184100000Y-67500000I-3100000J0D01*
G01*
%TO.C,H8*%
X184100000Y15500000D02*
G75*
G03*
X184100000Y15500000I-3100000J0D01*
G01*
%TO.C,H15*%
X61100000Y-98500000D02*
G75*
G03*
X61100000Y-98500000I-3100000J0D01*
G01*
%TO.C,H12*%
X-11900000Y-25500000D02*
G75*
G03*
X-11900000Y-25500000I-3100000J0D01*
G01*
%TO.C,H13*%
X6100000Y-79500000D02*
G75*
G03*
X6100000Y-79500000I-3100000J0D01*
G01*
%TO.C,H20*%
X81100000Y-79500000D02*
G75*
G03*
X81100000Y-79500000I-3100000J0D01*
G01*
%TO.C,H9*%
X64100000Y-79500000D02*
G75*
G03*
X64100000Y-79500000I-3100000J0D01*
G01*
%TO.C,H18*%
X184100000Y-96500000D02*
G75*
G03*
X184100000Y-96500000I-3100000J0D01*
G01*
%TO.C,H5*%
X-11900000Y-98500000D02*
G75*
G03*
X-11900000Y-98500000I-3100000J0D01*
G01*
%TO.C,H1*%
X203100000Y-98500000D02*
G75*
G03*
X203100000Y-98500000I-3100000J0D01*
G01*
%TO.C,R1*%
X1630000Y-63690000D02*
X4370000Y-63690000D01*
X4370000Y-63690000D02*
X4370000Y-57150000D01*
X4370000Y-57150000D02*
X1630000Y-57150000D01*
X1630000Y-57150000D02*
X1630000Y-63690000D01*
X3000000Y-64460000D02*
X3000000Y-63690000D01*
X3000000Y-56380000D02*
X3000000Y-57150000D01*
%TO.C,Fuse_6*%
X8300000Y-54300000D02*
X8300000Y-54600000D01*
X14700000Y-54300000D02*
X14700000Y-54600000D01*
X8300000Y-54300000D02*
X14700000Y-54300000D01*
X14700000Y-89300000D02*
X8300000Y-89300000D01*
X8300000Y-89300000D02*
X8300000Y-89000000D01*
X14700000Y-89000000D02*
X14700000Y-89300000D01*
%TO.C,Fuse3*%
X128500000Y-61770000D02*
G75*
G03*
X128500000Y-61770000I-2500000J0D01*
G01*
X127545000Y-59210000D02*
X124455000Y-59210000D01*
X126000462Y-64760000D02*
G75*
G02*
X124455170Y-59210000I-462J2990000D01*
G01*
X125999538Y-64760000D02*
G75*
G03*
X127544830Y-59210000I462J2990000D01*
G01*
%TO.C,Fuse_3*%
X183500000Y-56500000D02*
X150000000Y-56500000D01*
X150000000Y-47500000D02*
X183500000Y-47500000D01*
X201000000Y-62250000D02*
X132500000Y-62250000D01*
X132500000Y-62250000D02*
X132500000Y-42750000D01*
X132500000Y-42750000D02*
X201000000Y-42750000D01*
X201000000Y-42750000D02*
X201000000Y-62250000D01*
%TO.C,Fuse_4*%
X23300000Y-24300000D02*
X23300000Y-24600000D01*
X29700000Y-24300000D02*
X29700000Y-24600000D01*
X23300000Y-24300000D02*
X29700000Y-24300000D01*
X29700000Y-59300000D02*
X23300000Y-59300000D01*
X23300000Y-59300000D02*
X23300000Y-59000000D01*
X29700000Y-59000000D02*
X29700000Y-59300000D01*
%TO.C,R8*%
X39170000Y-48690000D02*
X41910000Y-48690000D01*
X41910000Y-48690000D02*
X41910000Y-42150000D01*
X41910000Y-42150000D02*
X39170000Y-42150000D01*
X39170000Y-42150000D02*
X39170000Y-48690000D01*
X40540000Y-49460000D02*
X40540000Y-48690000D01*
X40540000Y-41380000D02*
X40540000Y-42150000D01*
%TO.C,R6*%
X12170000Y-48690000D02*
X14910000Y-48690000D01*
X14910000Y-48690000D02*
X14910000Y-42150000D01*
X14910000Y-42150000D02*
X12170000Y-42150000D01*
X12170000Y-42150000D02*
X12170000Y-48690000D01*
X13540000Y-49460000D02*
X13540000Y-48690000D01*
X13540000Y-41380000D02*
X13540000Y-42150000D01*
%TO.C,R5*%
X59630000Y-63690000D02*
X62370000Y-63690000D01*
X62370000Y-63690000D02*
X62370000Y-57150000D01*
X62370000Y-57150000D02*
X59630000Y-57150000D01*
X59630000Y-57150000D02*
X59630000Y-63690000D01*
X61000000Y-64460000D02*
X61000000Y-63690000D01*
X61000000Y-56380000D02*
X61000000Y-57150000D01*
%TO.C,R4*%
X76630000Y-63690000D02*
X79370000Y-63690000D01*
X79370000Y-63690000D02*
X79370000Y-57150000D01*
X79370000Y-57150000D02*
X76630000Y-57150000D01*
X76630000Y-57150000D02*
X76630000Y-63690000D01*
X78000000Y-64460000D02*
X78000000Y-63690000D01*
X78000000Y-56380000D02*
X78000000Y-57150000D01*
%TO.C,R3*%
X138960000Y-16500000D02*
X138190000Y-16500000D01*
X130880000Y-16500000D02*
X131650000Y-16500000D01*
X138190000Y-15130000D02*
X131650000Y-15130000D01*
X138190000Y-17870000D02*
X138190000Y-15130000D01*
X131650000Y-17870000D02*
X138190000Y-17870000D01*
X131650000Y-15130000D02*
X131650000Y-17870000D01*
%TO.C,R2*%
X138190000Y-65870000D02*
X138190000Y-63130000D01*
X138190000Y-63130000D02*
X131650000Y-63130000D01*
X131650000Y-63130000D02*
X131650000Y-65870000D01*
X131650000Y-65870000D02*
X138190000Y-65870000D01*
X138960000Y-64500000D02*
X138190000Y-64500000D01*
X130880000Y-64500000D02*
X131650000Y-64500000D01*
%TO.C,H24*%
X124100000Y-98500000D02*
G75*
G03*
X124100000Y-98500000I-3100000J0D01*
G01*
%TO.C,H7*%
X23100000Y-98500000D02*
G75*
G03*
X23100000Y-98500000I-3100000J0D01*
G01*
%TO.C,Fuse8*%
X128500000Y-19270000D02*
G75*
G03*
X128500000Y-19270000I-2500000J0D01*
G01*
X127545000Y-16710000D02*
X124455000Y-16710000D01*
X126000462Y-22260000D02*
G75*
G02*
X124455170Y-16710000I-462J2990000D01*
G01*
X125999538Y-22260000D02*
G75*
G03*
X127544830Y-16710000I462J2990000D01*
G01*
%TO.C,Fuse6*%
X-11230000Y-70500000D02*
G75*
G03*
X-11230000Y-70500000I-2500000J0D01*
G01*
X-16290000Y-68955000D02*
X-16290000Y-72045000D01*
X-10740000Y-70499538D02*
G75*
G02*
X-16290000Y-72044830I-2990000J-462D01*
G01*
X-10740000Y-70500462D02*
G75*
G03*
X-16290000Y-68955170I-2990000J462D01*
G01*
%TO.C,Fuse5*%
X47770000Y-40500000D02*
G75*
G03*
X47770000Y-40500000I-2500000J0D01*
G01*
X47830000Y-42045000D02*
X47830000Y-38955000D01*
X42280000Y-40500462D02*
G75*
G02*
X47830000Y-38955170I2990000J462D01*
G01*
X42280000Y-40499538D02*
G75*
G03*
X47830000Y-42044830I2990000J-462D01*
G01*
%TO.C,Fuse4*%
X20770000Y-40500000D02*
G75*
G03*
X20770000Y-40500000I-2500000J0D01*
G01*
X20830000Y-42045000D02*
X20830000Y-38955000D01*
X15280000Y-40500462D02*
G75*
G02*
X20830000Y-38955170I2990000J462D01*
G01*
X15280000Y-40499538D02*
G75*
G03*
X20830000Y-42044830I2990000J-462D01*
G01*
%TO.C,Fuse2*%
X63770000Y-70500000D02*
G75*
G03*
X63770000Y-70500000I-2500000J0D01*
G01*
X58710000Y-68955000D02*
X58710000Y-72045000D01*
X64260000Y-70499538D02*
G75*
G02*
X58710000Y-72044830I-2990000J-462D01*
G01*
X64260000Y-70500462D02*
G75*
G03*
X58710000Y-68955170I-2990000J462D01*
G01*
%TO.C,Fuse1*%
X80770000Y-70500000D02*
G75*
G03*
X80770000Y-70500000I-2500000J0D01*
G01*
X75710000Y-68955000D02*
X75710000Y-72045000D01*
X81260000Y-70499538D02*
G75*
G02*
X75710000Y-72044830I-2990000J-462D01*
G01*
X81260000Y-70500462D02*
G75*
G03*
X75710000Y-68955170I-2990000J462D01*
G01*
%TO.C,Fuse_7*%
X-8700000Y-54300000D02*
X-8700000Y-54600000D01*
X-2300000Y-54300000D02*
X-2300000Y-54600000D01*
X-8700000Y-54300000D02*
X-2300000Y-54300000D01*
X-2300000Y-89300000D02*
X-8700000Y-89300000D01*
X-8700000Y-89300000D02*
X-8700000Y-89000000D01*
X-2300000Y-89000000D02*
X-2300000Y-89300000D01*
%TO.C,Fuse_2*%
X66300000Y-54300000D02*
X66300000Y-54600000D01*
X72700000Y-54300000D02*
X72700000Y-54600000D01*
X66300000Y-54300000D02*
X72700000Y-54300000D01*
X72700000Y-89300000D02*
X66300000Y-89300000D01*
X66300000Y-89300000D02*
X66300000Y-89000000D01*
X72700000Y-89000000D02*
X72700000Y-89300000D01*
%TO.C,Fuse_1*%
X83300000Y-54300000D02*
X83300000Y-54600000D01*
X89700000Y-54300000D02*
X89700000Y-54600000D01*
X83300000Y-54300000D02*
X89700000Y-54300000D01*
X89700000Y-89300000D02*
X83300000Y-89300000D01*
X83300000Y-89300000D02*
X83300000Y-89000000D01*
X89700000Y-89000000D02*
X89700000Y-89300000D01*
%TO.C,Fuse_5*%
X50300000Y-24300000D02*
X50300000Y-24600000D01*
X56700000Y-24300000D02*
X56700000Y-24600000D01*
X50300000Y-24300000D02*
X56700000Y-24300000D01*
X56700000Y-59300000D02*
X50300000Y-59300000D01*
X50300000Y-59300000D02*
X50300000Y-59000000D01*
X56700000Y-59000000D02*
X56700000Y-59300000D01*
%TO.C,Fuse7*%
D10*
X1380952Y-74428571D02*
X1047619Y-74428571D01*
X1047619Y-74952380D02*
X1047619Y-73952380D01*
X1523809Y-73952380D01*
X2333333Y-74285714D02*
X2333333Y-74952380D01*
X1904761Y-74285714D02*
X1904761Y-74809523D01*
X1952380Y-74904761D01*
X2047619Y-74952380D01*
X2190476Y-74952380D01*
X2285714Y-74904761D01*
X2333333Y-74857142D01*
X2761904Y-74904761D02*
X2857142Y-74952380D01*
X3047619Y-74952380D01*
X3142857Y-74904761D01*
X3190476Y-74809523D01*
X3190476Y-74761904D01*
X3142857Y-74666666D01*
X3047619Y-74619047D01*
X2904761Y-74619047D01*
X2809523Y-74571428D01*
X2761904Y-74476190D01*
X2761904Y-74428571D01*
X2809523Y-74333333D01*
X2904761Y-74285714D01*
X3047619Y-74285714D01*
X3142857Y-74333333D01*
X4000000Y-74904761D02*
X3904761Y-74952380D01*
X3714285Y-74952380D01*
X3619047Y-74904761D01*
X3571428Y-74809523D01*
X3571428Y-74428571D01*
X3619047Y-74333333D01*
X3714285Y-74285714D01*
X3904761Y-74285714D01*
X4000000Y-74333333D01*
X4047619Y-74428571D01*
X4047619Y-74523809D01*
X3571428Y-74619047D01*
X4380952Y-73952380D02*
X5047619Y-73952380D01*
X4619047Y-74952380D01*
%TO.C,R7*%
X-13547619Y-53666666D02*
X-14023809Y-54000000D01*
X-13547619Y-54238095D02*
X-14547619Y-54238095D01*
X-14547619Y-53857142D01*
X-14500000Y-53761904D01*
X-14452380Y-53714285D01*
X-14357142Y-53666666D01*
X-14214285Y-53666666D01*
X-14119047Y-53714285D01*
X-14071428Y-53761904D01*
X-14023809Y-53857142D01*
X-14023809Y-54238095D01*
X-14547619Y-53333333D02*
X-14547619Y-52666666D01*
X-13547619Y-53095238D01*
%TO.C,H25*%
X156161904Y15047619D02*
X156161904Y16047619D01*
X156161904Y15571428D02*
X156733333Y15571428D01*
X156733333Y15047619D02*
X156733333Y16047619D01*
X157161904Y15952380D02*
X157209523Y16000000D01*
X157304761Y16047619D01*
X157542857Y16047619D01*
X157638095Y16000000D01*
X157685714Y15952380D01*
X157733333Y15857142D01*
X157733333Y15761904D01*
X157685714Y15619047D01*
X157114285Y15047619D01*
X157733333Y15047619D01*
X158638095Y16047619D02*
X158161904Y16047619D01*
X158114285Y15571428D01*
X158161904Y15619047D01*
X158257142Y15666666D01*
X158495238Y15666666D01*
X158590476Y15619047D01*
X158638095Y15571428D01*
X158685714Y15476190D01*
X158685714Y15238095D01*
X158638095Y15142857D01*
X158590476Y15095238D01*
X158495238Y15047619D01*
X158257142Y15047619D01*
X158161904Y15095238D01*
X158114285Y15142857D01*
%TO.C,H23*%
X156161904Y-96952380D02*
X156161904Y-95952380D01*
X156161904Y-96428571D02*
X156733333Y-96428571D01*
X156733333Y-96952380D02*
X156733333Y-95952380D01*
X157161904Y-96047619D02*
X157209523Y-96000000D01*
X157304761Y-95952380D01*
X157542857Y-95952380D01*
X157638095Y-96000000D01*
X157685714Y-96047619D01*
X157733333Y-96142857D01*
X157733333Y-96238095D01*
X157685714Y-96380952D01*
X157114285Y-96952380D01*
X157733333Y-96952380D01*
X158066666Y-95952380D02*
X158685714Y-95952380D01*
X158352380Y-96333333D01*
X158495238Y-96333333D01*
X158590476Y-96380952D01*
X158638095Y-96428571D01*
X158685714Y-96523809D01*
X158685714Y-96761904D01*
X158638095Y-96857142D01*
X158590476Y-96904761D01*
X158495238Y-96952380D01*
X158209523Y-96952380D01*
X158114285Y-96904761D01*
X158066666Y-96857142D01*
%TO.C,Fuse_8*%
X131428571Y-31500000D02*
X131428571Y-31833333D01*
X131952380Y-31833333D02*
X130952380Y-31833333D01*
X130952380Y-31357142D01*
X131285714Y-30547619D02*
X131952380Y-30547619D01*
X131285714Y-30976190D02*
X131809523Y-30976190D01*
X131904761Y-30928571D01*
X131952380Y-30833333D01*
X131952380Y-30690476D01*
X131904761Y-30595238D01*
X131857142Y-30547619D01*
X131904761Y-30119047D02*
X131952380Y-30023809D01*
X131952380Y-29833333D01*
X131904761Y-29738095D01*
X131809523Y-29690476D01*
X131761904Y-29690476D01*
X131666666Y-29738095D01*
X131619047Y-29833333D01*
X131619047Y-29976190D01*
X131571428Y-30071428D01*
X131476190Y-30119047D01*
X131428571Y-30119047D01*
X131333333Y-30071428D01*
X131285714Y-29976190D01*
X131285714Y-29833333D01*
X131333333Y-29738095D01*
X131904761Y-28880952D02*
X131952380Y-28976190D01*
X131952380Y-29166666D01*
X131904761Y-29261904D01*
X131809523Y-29309523D01*
X131428571Y-29309523D01*
X131333333Y-29261904D01*
X131285714Y-29166666D01*
X131285714Y-28976190D01*
X131333333Y-28880952D01*
X131428571Y-28833333D01*
X131523809Y-28833333D01*
X131619047Y-29309523D01*
X132047619Y-28642857D02*
X132047619Y-27880952D01*
X131380952Y-27500000D02*
X131333333Y-27595238D01*
X131285714Y-27642857D01*
X131190476Y-27690476D01*
X131142857Y-27690476D01*
X131047619Y-27642857D01*
X131000000Y-27595238D01*
X130952380Y-27500000D01*
X130952380Y-27309523D01*
X131000000Y-27214285D01*
X131047619Y-27166666D01*
X131142857Y-27119047D01*
X131190476Y-27119047D01*
X131285714Y-27166666D01*
X131333333Y-27214285D01*
X131380952Y-27309523D01*
X131380952Y-27500000D01*
X131428571Y-27595238D01*
X131476190Y-27642857D01*
X131571428Y-27690476D01*
X131761904Y-27690476D01*
X131857142Y-27642857D01*
X131904761Y-27595238D01*
X131952380Y-27500000D01*
X131952380Y-27309523D01*
X131904761Y-27214285D01*
X131857142Y-27166666D01*
X131761904Y-27119047D01*
X131571428Y-27119047D01*
X131476190Y-27166666D01*
X131428571Y-27214285D01*
X131380952Y-27309523D01*
%TO.C,H45*%
X175761904Y-40952380D02*
X175761904Y-39952380D01*
X175761904Y-40428571D02*
X176333333Y-40428571D01*
X176333333Y-40952380D02*
X176333333Y-39952380D01*
X177238095Y-40285714D02*
X177238095Y-40952380D01*
X177000000Y-39904761D02*
X176761904Y-40619047D01*
X177380952Y-40619047D01*
X178238095Y-39952380D02*
X177761904Y-39952380D01*
X177714285Y-40428571D01*
X177761904Y-40380952D01*
X177857142Y-40333333D01*
X178095238Y-40333333D01*
X178190476Y-40380952D01*
X178238095Y-40428571D01*
X178285714Y-40523809D01*
X178285714Y-40761904D01*
X178238095Y-40857142D01*
X178190476Y-40904761D01*
X178095238Y-40952380D01*
X177857142Y-40952380D01*
X177761904Y-40904761D01*
X177714285Y-40857142D01*
%TO.C,H43*%
X154961904Y-40952380D02*
X154961904Y-39952380D01*
X154961904Y-40428571D02*
X155533333Y-40428571D01*
X155533333Y-40952380D02*
X155533333Y-39952380D01*
X156438095Y-40285714D02*
X156438095Y-40952380D01*
X156200000Y-39904761D02*
X155961904Y-40619047D01*
X156580952Y-40619047D01*
X156866666Y-39952380D02*
X157485714Y-39952380D01*
X157152380Y-40333333D01*
X157295238Y-40333333D01*
X157390476Y-40380952D01*
X157438095Y-40428571D01*
X157485714Y-40523809D01*
X157485714Y-40761904D01*
X157438095Y-40857142D01*
X157390476Y-40904761D01*
X157295238Y-40952380D01*
X157009523Y-40952380D01*
X156914285Y-40904761D01*
X156866666Y-40857142D01*
%TO.C,H42*%
X156161904Y-13952380D02*
X156161904Y-12952380D01*
X156161904Y-13428571D02*
X156733333Y-13428571D01*
X156733333Y-13952380D02*
X156733333Y-12952380D01*
X157638095Y-13285714D02*
X157638095Y-13952380D01*
X157400000Y-12904761D02*
X157161904Y-13619047D01*
X157780952Y-13619047D01*
X158114285Y-13047619D02*
X158161904Y-13000000D01*
X158257142Y-12952380D01*
X158495238Y-12952380D01*
X158590476Y-13000000D01*
X158638095Y-13047619D01*
X158685714Y-13142857D01*
X158685714Y-13238095D01*
X158638095Y-13380952D01*
X158066666Y-13952380D01*
X158685714Y-13952380D01*
%TO.C,H41*%
X156161904Y-67952380D02*
X156161904Y-66952380D01*
X156161904Y-67428571D02*
X156733333Y-67428571D01*
X156733333Y-67952380D02*
X156733333Y-66952380D01*
X157638095Y-67285714D02*
X157638095Y-67952380D01*
X157400000Y-66904761D02*
X157161904Y-67619047D01*
X157780952Y-67619047D01*
X158685714Y-67952380D02*
X158114285Y-67952380D01*
X158400000Y-67952380D02*
X158400000Y-66952380D01*
X158304761Y-67095238D01*
X158209523Y-67190476D01*
X158114285Y-67238095D01*
%TO.C,H40*%
X51952380Y-80738095D02*
X50952380Y-80738095D01*
X51428571Y-80738095D02*
X51428571Y-80166666D01*
X51952380Y-80166666D02*
X50952380Y-80166666D01*
X51285714Y-79261904D02*
X51952380Y-79261904D01*
X50904761Y-79500000D02*
X51619047Y-79738095D01*
X51619047Y-79119047D01*
X50952380Y-78547619D02*
X50952380Y-78452380D01*
X51000000Y-78357142D01*
X51047619Y-78309523D01*
X51142857Y-78261904D01*
X51333333Y-78214285D01*
X51571428Y-78214285D01*
X51761904Y-78261904D01*
X51857142Y-78309523D01*
X51904761Y-78357142D01*
X51952380Y-78452380D01*
X51952380Y-78547619D01*
X51904761Y-78642857D01*
X51857142Y-78690476D01*
X51761904Y-78738095D01*
X51571428Y-78785714D01*
X51333333Y-78785714D01*
X51142857Y-78738095D01*
X51047619Y-78690476D01*
X51000000Y-78642857D01*
X50952380Y-78547619D01*
%TO.C,H11*%
X18452380Y-50738095D02*
X17452380Y-50738095D01*
X17928571Y-50738095D02*
X17928571Y-50166666D01*
X18452380Y-50166666D02*
X17452380Y-50166666D01*
X18452380Y-49166666D02*
X18452380Y-49738095D01*
X18452380Y-49452380D02*
X17452380Y-49452380D01*
X17595238Y-49547619D01*
X17690476Y-49642857D01*
X17738095Y-49738095D01*
X18452380Y-48214285D02*
X18452380Y-48785714D01*
X18452380Y-48500000D02*
X17452380Y-48500000D01*
X17595238Y-48595238D01*
X17690476Y-48690476D01*
X17738095Y-48785714D01*
%TO.C,J28*%
X60052380Y14490476D02*
X60766666Y14490476D01*
X60909523Y14442857D01*
X61004761Y14347619D01*
X61052380Y14204761D01*
X61052380Y14109523D01*
X60147619Y14919047D02*
X60100000Y14966666D01*
X60052380Y15061904D01*
X60052380Y15300000D01*
X60100000Y15395238D01*
X60147619Y15442857D01*
X60242857Y15490476D01*
X60338095Y15490476D01*
X60480952Y15442857D01*
X61052380Y14871428D01*
X61052380Y15490476D01*
X60480952Y16061904D02*
X60433333Y15966666D01*
X60385714Y15919047D01*
X60290476Y15871428D01*
X60242857Y15871428D01*
X60147619Y15919047D01*
X60100000Y15966666D01*
X60052380Y16061904D01*
X60052380Y16252380D01*
X60100000Y16347619D01*
X60147619Y16395238D01*
X60242857Y16442857D01*
X60290476Y16442857D01*
X60385714Y16395238D01*
X60433333Y16347619D01*
X60480952Y16252380D01*
X60480952Y16061904D01*
X60528571Y15966666D01*
X60576190Y15919047D01*
X60671428Y15871428D01*
X60861904Y15871428D01*
X60957142Y15919047D01*
X61004761Y15966666D01*
X61052380Y16061904D01*
X61052380Y16252380D01*
X61004761Y16347619D01*
X60957142Y16395238D01*
X60861904Y16442857D01*
X60671428Y16442857D01*
X60576190Y16395238D01*
X60528571Y16347619D01*
X60480952Y16252380D01*
%TO.C,J27*%
X33352380Y15290476D02*
X34066666Y15290476D01*
X34209523Y15242857D01*
X34304761Y15147619D01*
X34352380Y15004761D01*
X34352380Y14909523D01*
X33447619Y15719047D02*
X33400000Y15766666D01*
X33352380Y15861904D01*
X33352380Y16100000D01*
X33400000Y16195238D01*
X33447619Y16242857D01*
X33542857Y16290476D01*
X33638095Y16290476D01*
X33780952Y16242857D01*
X34352380Y15671428D01*
X34352380Y16290476D01*
X33352380Y16623809D02*
X33352380Y17290476D01*
X34352380Y16861904D01*
%TO.C,J7*%
X6352380Y15566666D02*
X7066666Y15566666D01*
X7209523Y15519047D01*
X7304761Y15423809D01*
X7352380Y15280952D01*
X7352380Y15185714D01*
X6352380Y15947619D02*
X6352380Y16614285D01*
X7352380Y16185714D01*
%TO.C,J25*%
X37890476Y-74952380D02*
X37890476Y-75666666D01*
X37842857Y-75809523D01*
X37747619Y-75904761D01*
X37604761Y-75952380D01*
X37509523Y-75952380D01*
X38319047Y-75047619D02*
X38366666Y-75000000D01*
X38461904Y-74952380D01*
X38700000Y-74952380D01*
X38795238Y-75000000D01*
X38842857Y-75047619D01*
X38890476Y-75142857D01*
X38890476Y-75238095D01*
X38842857Y-75380952D01*
X38271428Y-75952380D01*
X38890476Y-75952380D01*
X39795238Y-74952380D02*
X39319047Y-74952380D01*
X39271428Y-75428571D01*
X39319047Y-75380952D01*
X39414285Y-75333333D01*
X39652380Y-75333333D01*
X39747619Y-75380952D01*
X39795238Y-75428571D01*
X39842857Y-75523809D01*
X39842857Y-75761904D01*
X39795238Y-75857142D01*
X39747619Y-75904761D01*
X39652380Y-75952380D01*
X39414285Y-75952380D01*
X39319047Y-75904761D01*
X39271428Y-75857142D01*
%TO.C,H39*%
X38261904Y17047619D02*
X38261904Y18047619D01*
X38261904Y17571428D02*
X38833333Y17571428D01*
X38833333Y17047619D02*
X38833333Y18047619D01*
X39214285Y18047619D02*
X39833333Y18047619D01*
X39500000Y17666666D01*
X39642857Y17666666D01*
X39738095Y17619047D01*
X39785714Y17571428D01*
X39833333Y17476190D01*
X39833333Y17238095D01*
X39785714Y17142857D01*
X39738095Y17095238D01*
X39642857Y17047619D01*
X39357142Y17047619D01*
X39261904Y17095238D01*
X39214285Y17142857D01*
X40309523Y17047619D02*
X40500000Y17047619D01*
X40595238Y17095238D01*
X40642857Y17142857D01*
X40738095Y17285714D01*
X40785714Y17476190D01*
X40785714Y17857142D01*
X40738095Y17952380D01*
X40690476Y18000000D01*
X40595238Y18047619D01*
X40404761Y18047619D01*
X40309523Y18000000D01*
X40261904Y17952380D01*
X40214285Y17857142D01*
X40214285Y17619047D01*
X40261904Y17523809D01*
X40309523Y17476190D01*
X40404761Y17428571D01*
X40595238Y17428571D01*
X40690476Y17476190D01*
X40738095Y17523809D01*
X40785714Y17619047D01*
%TO.C,H38*%
X65261904Y17047619D02*
X65261904Y18047619D01*
X65261904Y17571428D02*
X65833333Y17571428D01*
X65833333Y17047619D02*
X65833333Y18047619D01*
X66214285Y18047619D02*
X66833333Y18047619D01*
X66500000Y17666666D01*
X66642857Y17666666D01*
X66738095Y17619047D01*
X66785714Y17571428D01*
X66833333Y17476190D01*
X66833333Y17238095D01*
X66785714Y17142857D01*
X66738095Y17095238D01*
X66642857Y17047619D01*
X66357142Y17047619D01*
X66261904Y17095238D01*
X66214285Y17142857D01*
X67404761Y17619047D02*
X67309523Y17666666D01*
X67261904Y17714285D01*
X67214285Y17809523D01*
X67214285Y17857142D01*
X67261904Y17952380D01*
X67309523Y18000000D01*
X67404761Y18047619D01*
X67595238Y18047619D01*
X67690476Y18000000D01*
X67738095Y17952380D01*
X67785714Y17857142D01*
X67785714Y17809523D01*
X67738095Y17714285D01*
X67690476Y17666666D01*
X67595238Y17619047D01*
X67404761Y17619047D01*
X67309523Y17571428D01*
X67261904Y17523809D01*
X67214285Y17428571D01*
X67214285Y17238095D01*
X67261904Y17142857D01*
X67309523Y17095238D01*
X67404761Y17047619D01*
X67595238Y17047619D01*
X67690476Y17095238D01*
X67738095Y17142857D01*
X67785714Y17238095D01*
X67785714Y17428571D01*
X67738095Y17523809D01*
X67690476Y17571428D01*
X67595238Y17619047D01*
%TO.C,H37*%
X38261904Y-25952380D02*
X38261904Y-24952380D01*
X38261904Y-25428571D02*
X38833333Y-25428571D01*
X38833333Y-25952380D02*
X38833333Y-24952380D01*
X39214285Y-24952380D02*
X39833333Y-24952380D01*
X39500000Y-25333333D01*
X39642857Y-25333333D01*
X39738095Y-25380952D01*
X39785714Y-25428571D01*
X39833333Y-25523809D01*
X39833333Y-25761904D01*
X39785714Y-25857142D01*
X39738095Y-25904761D01*
X39642857Y-25952380D01*
X39357142Y-25952380D01*
X39261904Y-25904761D01*
X39214285Y-25857142D01*
X40166666Y-24952380D02*
X40833333Y-24952380D01*
X40404761Y-25952380D01*
%TO.C,H36*%
X11261904Y17047619D02*
X11261904Y18047619D01*
X11261904Y17571428D02*
X11833333Y17571428D01*
X11833333Y17047619D02*
X11833333Y18047619D01*
X12214285Y18047619D02*
X12833333Y18047619D01*
X12500000Y17666666D01*
X12642857Y17666666D01*
X12738095Y17619047D01*
X12785714Y17571428D01*
X12833333Y17476190D01*
X12833333Y17238095D01*
X12785714Y17142857D01*
X12738095Y17095238D01*
X12642857Y17047619D01*
X12357142Y17047619D01*
X12261904Y17095238D01*
X12214285Y17142857D01*
X13690476Y18047619D02*
X13500000Y18047619D01*
X13404761Y18000000D01*
X13357142Y17952380D01*
X13261904Y17809523D01*
X13214285Y17619047D01*
X13214285Y17238095D01*
X13261904Y17142857D01*
X13309523Y17095238D01*
X13404761Y17047619D01*
X13595238Y17047619D01*
X13690476Y17095238D01*
X13738095Y17142857D01*
X13785714Y17238095D01*
X13785714Y17476190D01*
X13738095Y17571428D01*
X13690476Y17619047D01*
X13595238Y17666666D01*
X13404761Y17666666D01*
X13309523Y17619047D01*
X13261904Y17571428D01*
X13214285Y17476190D01*
%TO.C,H35*%
X11261904Y-25952380D02*
X11261904Y-24952380D01*
X11261904Y-25428571D02*
X11833333Y-25428571D01*
X11833333Y-25952380D02*
X11833333Y-24952380D01*
X12214285Y-24952380D02*
X12833333Y-24952380D01*
X12500000Y-25333333D01*
X12642857Y-25333333D01*
X12738095Y-25380952D01*
X12785714Y-25428571D01*
X12833333Y-25523809D01*
X12833333Y-25761904D01*
X12785714Y-25857142D01*
X12738095Y-25904761D01*
X12642857Y-25952380D01*
X12357142Y-25952380D01*
X12261904Y-25904761D01*
X12214285Y-25857142D01*
X13738095Y-24952380D02*
X13261904Y-24952380D01*
X13214285Y-25428571D01*
X13261904Y-25380952D01*
X13357142Y-25333333D01*
X13595238Y-25333333D01*
X13690476Y-25380952D01*
X13738095Y-25428571D01*
X13785714Y-25523809D01*
X13785714Y-25761904D01*
X13738095Y-25857142D01*
X13690476Y-25904761D01*
X13595238Y-25952380D01*
X13357142Y-25952380D01*
X13261904Y-25904761D01*
X13214285Y-25857142D01*
%TO.C,H34*%
X65261904Y-25952380D02*
X65261904Y-24952380D01*
X65261904Y-25428571D02*
X65833333Y-25428571D01*
X65833333Y-25952380D02*
X65833333Y-24952380D01*
X66214285Y-24952380D02*
X66833333Y-24952380D01*
X66500000Y-25333333D01*
X66642857Y-25333333D01*
X66738095Y-25380952D01*
X66785714Y-25428571D01*
X66833333Y-25523809D01*
X66833333Y-25761904D01*
X66785714Y-25857142D01*
X66738095Y-25904761D01*
X66642857Y-25952380D01*
X66357142Y-25952380D01*
X66261904Y-25904761D01*
X66214285Y-25857142D01*
X67690476Y-25285714D02*
X67690476Y-25952380D01*
X67452380Y-24904761D02*
X67214285Y-25619047D01*
X67833333Y-25619047D01*
%TO.C,H33*%
X195761904Y547619D02*
X195761904Y1547619D01*
X195761904Y1071428D02*
X196333333Y1071428D01*
X196333333Y547619D02*
X196333333Y1547619D01*
X196714285Y1547619D02*
X197333333Y1547619D01*
X197000000Y1166666D01*
X197142857Y1166666D01*
X197238095Y1119047D01*
X197285714Y1071428D01*
X197333333Y976190D01*
X197333333Y738095D01*
X197285714Y642857D01*
X197238095Y595238D01*
X197142857Y547619D01*
X196857142Y547619D01*
X196761904Y595238D01*
X196714285Y642857D01*
X197666666Y1547619D02*
X198285714Y1547619D01*
X197952380Y1166666D01*
X198095238Y1166666D01*
X198190476Y1119047D01*
X198238095Y1071428D01*
X198285714Y976190D01*
X198285714Y738095D01*
X198238095Y642857D01*
X198190476Y595238D01*
X198095238Y547619D01*
X197809523Y547619D01*
X197714285Y595238D01*
X197666666Y642857D01*
%TO.C,H32*%
X-16238095Y-79952380D02*
X-16238095Y-78952380D01*
X-16238095Y-79428571D02*
X-15666666Y-79428571D01*
X-15666666Y-79952380D02*
X-15666666Y-78952380D01*
X-15285714Y-78952380D02*
X-14666666Y-78952380D01*
X-15000000Y-79333333D01*
X-14857142Y-79333333D01*
X-14761904Y-79380952D01*
X-14714285Y-79428571D01*
X-14666666Y-79523809D01*
X-14666666Y-79761904D01*
X-14714285Y-79857142D01*
X-14761904Y-79904761D01*
X-14857142Y-79952380D01*
X-15142857Y-79952380D01*
X-15238095Y-79904761D01*
X-15285714Y-79857142D01*
X-14285714Y-79047619D02*
X-14238095Y-79000000D01*
X-14142857Y-78952380D01*
X-13904761Y-78952380D01*
X-13809523Y-79000000D01*
X-13761904Y-79047619D01*
X-13714285Y-79142857D01*
X-13714285Y-79238095D01*
X-13761904Y-79380952D01*
X-14333333Y-79952380D01*
X-13714285Y-79952380D01*
%TO.C,H27*%
X140261904Y547619D02*
X140261904Y1547619D01*
X140261904Y1071428D02*
X140833333Y1071428D01*
X140833333Y547619D02*
X140833333Y1547619D01*
X141261904Y1452380D02*
X141309523Y1500000D01*
X141404761Y1547619D01*
X141642857Y1547619D01*
X141738095Y1500000D01*
X141785714Y1452380D01*
X141833333Y1357142D01*
X141833333Y1261904D01*
X141785714Y1119047D01*
X141214285Y547619D01*
X141833333Y547619D01*
X142166666Y1547619D02*
X142833333Y1547619D01*
X142404761Y547619D01*
%TO.C,H22*%
X140261904Y-82452380D02*
X140261904Y-81452380D01*
X140261904Y-81928571D02*
X140833333Y-81928571D01*
X140833333Y-82452380D02*
X140833333Y-81452380D01*
X141261904Y-81547619D02*
X141309523Y-81500000D01*
X141404761Y-81452380D01*
X141642857Y-81452380D01*
X141738095Y-81500000D01*
X141785714Y-81547619D01*
X141833333Y-81642857D01*
X141833333Y-81738095D01*
X141785714Y-81880952D01*
X141214285Y-82452380D01*
X141833333Y-82452380D01*
X142214285Y-81547619D02*
X142261904Y-81500000D01*
X142357142Y-81452380D01*
X142595238Y-81452380D01*
X142690476Y-81500000D01*
X142738095Y-81547619D01*
X142785714Y-81642857D01*
X142785714Y-81738095D01*
X142738095Y-81880952D01*
X142166666Y-82452380D01*
X142785714Y-82452380D01*
%TO.C,H19*%
X195761904Y-82452380D02*
X195761904Y-81452380D01*
X195761904Y-81928571D02*
X196333333Y-81928571D01*
X196333333Y-82452380D02*
X196333333Y-81452380D01*
X197333333Y-82452380D02*
X196761904Y-82452380D01*
X197047619Y-82452380D02*
X197047619Y-81452380D01*
X196952380Y-81595238D01*
X196857142Y-81690476D01*
X196761904Y-81738095D01*
X197809523Y-82452380D02*
X198000000Y-82452380D01*
X198095238Y-82404761D01*
X198142857Y-82357142D01*
X198238095Y-82214285D01*
X198285714Y-82023809D01*
X198285714Y-81642857D01*
X198238095Y-81547619D01*
X198190476Y-81500000D01*
X198095238Y-81452380D01*
X197904761Y-81452380D01*
X197809523Y-81500000D01*
X197761904Y-81547619D01*
X197714285Y-81642857D01*
X197714285Y-81880952D01*
X197761904Y-81976190D01*
X197809523Y-82023809D01*
X197904761Y-82071428D01*
X198095238Y-82071428D01*
X198190476Y-82023809D01*
X198238095Y-81976190D01*
X198285714Y-81880952D01*
%TO.C,J18*%
X188690476Y-92952380D02*
X188690476Y-93666666D01*
X188642857Y-93809523D01*
X188547619Y-93904761D01*
X188404761Y-93952380D01*
X188309523Y-93952380D01*
X189690476Y-93952380D02*
X189119047Y-93952380D01*
X189404761Y-93952380D02*
X189404761Y-92952380D01*
X189309523Y-93095238D01*
X189214285Y-93190476D01*
X189119047Y-93238095D01*
X190261904Y-93380952D02*
X190166666Y-93333333D01*
X190119047Y-93285714D01*
X190071428Y-93190476D01*
X190071428Y-93142857D01*
X190119047Y-93047619D01*
X190166666Y-93000000D01*
X190261904Y-92952380D01*
X190452380Y-92952380D01*
X190547619Y-93000000D01*
X190595238Y-93047619D01*
X190642857Y-93142857D01*
X190642857Y-93190476D01*
X190595238Y-93285714D01*
X190547619Y-93333333D01*
X190452380Y-93380952D01*
X190261904Y-93380952D01*
X190166666Y-93428571D01*
X190119047Y-93476190D01*
X190071428Y-93571428D01*
X190071428Y-93761904D01*
X190119047Y-93857142D01*
X190166666Y-93904761D01*
X190261904Y-93952380D01*
X190452380Y-93952380D01*
X190547619Y-93904761D01*
X190595238Y-93857142D01*
X190642857Y-93761904D01*
X190642857Y-93571428D01*
X190595238Y-93476190D01*
X190547619Y-93428571D01*
X190452380Y-93380952D01*
%TO.C,J22*%
X148290476Y-10152380D02*
X148290476Y-10866666D01*
X148242857Y-11009523D01*
X148147619Y-11104761D01*
X148004761Y-11152380D01*
X147909523Y-11152380D01*
X148719047Y-10247619D02*
X148766666Y-10200000D01*
X148861904Y-10152380D01*
X149100000Y-10152380D01*
X149195238Y-10200000D01*
X149242857Y-10247619D01*
X149290476Y-10342857D01*
X149290476Y-10438095D01*
X149242857Y-10580952D01*
X148671428Y-11152380D01*
X149290476Y-11152380D01*
X149671428Y-10247619D02*
X149719047Y-10200000D01*
X149814285Y-10152380D01*
X150052380Y-10152380D01*
X150147619Y-10200000D01*
X150195238Y-10247619D01*
X150242857Y-10342857D01*
X150242857Y-10438095D01*
X150195238Y-10580952D01*
X149623809Y-11152380D01*
X150242857Y-11152380D01*
%TO.C,J21*%
X48952380Y16690476D02*
X49666666Y16690476D01*
X49809523Y16642857D01*
X49904761Y16547619D01*
X49952380Y16404761D01*
X49952380Y16309523D01*
X49047619Y17119047D02*
X49000000Y17166666D01*
X48952380Y17261904D01*
X48952380Y17500000D01*
X49000000Y17595238D01*
X49047619Y17642857D01*
X49142857Y17690476D01*
X49238095Y17690476D01*
X49380952Y17642857D01*
X49952380Y17071428D01*
X49952380Y17690476D01*
X49952380Y18642857D02*
X49952380Y18071428D01*
X49952380Y18357142D02*
X48952380Y18357142D01*
X49095238Y18261904D01*
X49190476Y18166666D01*
X49238095Y18071428D01*
X46571428Y-22880952D02*
X46571428Y-22119047D01*
X46952380Y-22500000D02*
X46190476Y-22500000D01*
%TO.C,J20*%
X22952380Y16690476D02*
X23666666Y16690476D01*
X23809523Y16642857D01*
X23904761Y16547619D01*
X23952380Y16404761D01*
X23952380Y16309523D01*
X23047619Y17119047D02*
X23000000Y17166666D01*
X22952380Y17261904D01*
X22952380Y17500000D01*
X23000000Y17595238D01*
X23047619Y17642857D01*
X23142857Y17690476D01*
X23238095Y17690476D01*
X23380952Y17642857D01*
X23952380Y17071428D01*
X23952380Y17690476D01*
X22952380Y18309523D02*
X22952380Y18404761D01*
X23000000Y18500000D01*
X23047619Y18547619D01*
X23142857Y18595238D01*
X23333333Y18642857D01*
X23571428Y18642857D01*
X23761904Y18595238D01*
X23857142Y18547619D01*
X23904761Y18500000D01*
X23952380Y18404761D01*
X23952380Y18309523D01*
X23904761Y18214285D01*
X23857142Y18166666D01*
X23761904Y18119047D01*
X23571428Y18071428D01*
X23333333Y18071428D01*
X23142857Y18119047D01*
X23047619Y18166666D01*
X23000000Y18214285D01*
X22952380Y18309523D01*
X19571428Y-22880952D02*
X19571428Y-22119047D01*
X19952380Y-22500000D02*
X19190476Y-22500000D01*
%TO.C,J19*%
X-3047619Y16690476D02*
X-2333333Y16690476D01*
X-2190476Y16642857D01*
X-2095238Y16547619D01*
X-2047619Y16404761D01*
X-2047619Y16309523D01*
X-2047619Y17690476D02*
X-2047619Y17119047D01*
X-2047619Y17404761D02*
X-3047619Y17404761D01*
X-2904761Y17309523D01*
X-2809523Y17214285D01*
X-2761904Y17119047D01*
X-2047619Y18166666D02*
X-2047619Y18357142D01*
X-2095238Y18452380D01*
X-2142857Y18500000D01*
X-2285714Y18595238D01*
X-2476190Y18642857D01*
X-2857142Y18642857D01*
X-2952380Y18595238D01*
X-3000000Y18547619D01*
X-3047619Y18452380D01*
X-3047619Y18261904D01*
X-3000000Y18166666D01*
X-2952380Y18119047D01*
X-2857142Y18071428D01*
X-2619047Y18071428D01*
X-2523809Y18119047D01*
X-2476190Y18166666D01*
X-2428571Y18261904D01*
X-2428571Y18452380D01*
X-2476190Y18547619D01*
X-2523809Y18595238D01*
X-2619047Y18642857D01*
X-7428571Y-22880952D02*
X-7428571Y-22119047D01*
X-7047619Y-22500000D02*
X-7809523Y-22500000D01*
%TO.C,H31*%
X-16138095Y17047619D02*
X-16138095Y18047619D01*
X-16138095Y17571428D02*
X-15566666Y17571428D01*
X-15566666Y17047619D02*
X-15566666Y18047619D01*
X-15185714Y18047619D02*
X-14566666Y18047619D01*
X-14900000Y17666666D01*
X-14757142Y17666666D01*
X-14661904Y17619047D01*
X-14614285Y17571428D01*
X-14566666Y17476190D01*
X-14566666Y17238095D01*
X-14614285Y17142857D01*
X-14661904Y17095238D01*
X-14757142Y17047619D01*
X-15042857Y17047619D01*
X-15138095Y17095238D01*
X-15185714Y17142857D01*
X-13614285Y17047619D02*
X-14185714Y17047619D01*
X-13900000Y17047619D02*
X-13900000Y18047619D01*
X-13995238Y17904761D01*
X-14090476Y17809523D01*
X-14185714Y17761904D01*
%TO.C,H16*%
X24761904Y-79952380D02*
X24761904Y-78952380D01*
X24761904Y-79428571D02*
X25333333Y-79428571D01*
X25333333Y-79952380D02*
X25333333Y-78952380D01*
X26333333Y-79952380D02*
X25761904Y-79952380D01*
X26047619Y-79952380D02*
X26047619Y-78952380D01*
X25952380Y-79095238D01*
X25857142Y-79190476D01*
X25761904Y-79238095D01*
X27190476Y-78952380D02*
X27000000Y-78952380D01*
X26904761Y-79000000D01*
X26857142Y-79047619D01*
X26761904Y-79190476D01*
X26714285Y-79380952D01*
X26714285Y-79761904D01*
X26761904Y-79857142D01*
X26809523Y-79904761D01*
X26904761Y-79952380D01*
X27095238Y-79952380D01*
X27190476Y-79904761D01*
X27238095Y-79857142D01*
X27285714Y-79761904D01*
X27285714Y-79523809D01*
X27238095Y-79428571D01*
X27190476Y-79380952D01*
X27095238Y-79333333D01*
X26904761Y-79333333D01*
X26809523Y-79380952D01*
X26761904Y-79428571D01*
X26714285Y-79523809D01*
%TO.C,H21*%
X198761904Y17047619D02*
X198761904Y18047619D01*
X198761904Y17571428D02*
X199333333Y17571428D01*
X199333333Y17047619D02*
X199333333Y18047619D01*
X199761904Y17952380D02*
X199809523Y18000000D01*
X199904761Y18047619D01*
X200142857Y18047619D01*
X200238095Y18000000D01*
X200285714Y17952380D01*
X200333333Y17857142D01*
X200333333Y17761904D01*
X200285714Y17619047D01*
X199714285Y17047619D01*
X200333333Y17047619D01*
X201285714Y17047619D02*
X200714285Y17047619D01*
X201000000Y17047619D02*
X201000000Y18047619D01*
X200904761Y17904761D01*
X200809523Y17809523D01*
X200714285Y17761904D01*
%TO.C,H3*%
X136238095Y17047619D02*
X136238095Y18047619D01*
X136238095Y17571428D02*
X136809523Y17571428D01*
X136809523Y17047619D02*
X136809523Y18047619D01*
X137190476Y18047619D02*
X137809523Y18047619D01*
X137476190Y17666666D01*
X137619047Y17666666D01*
X137714285Y17619047D01*
X137761904Y17571428D01*
X137809523Y17476190D01*
X137809523Y17238095D01*
X137761904Y17142857D01*
X137714285Y17095238D01*
X137619047Y17047619D01*
X137333333Y17047619D01*
X137238095Y17095238D01*
X137190476Y17142857D01*
%TO.C,H28*%
X179661904Y-13952380D02*
X179661904Y-12952380D01*
X179661904Y-13428571D02*
X180233333Y-13428571D01*
X180233333Y-13952380D02*
X180233333Y-12952380D01*
X180661904Y-13047619D02*
X180709523Y-13000000D01*
X180804761Y-12952380D01*
X181042857Y-12952380D01*
X181138095Y-13000000D01*
X181185714Y-13047619D01*
X181233333Y-13142857D01*
X181233333Y-13238095D01*
X181185714Y-13380952D01*
X180614285Y-13952380D01*
X181233333Y-13952380D01*
X181804761Y-13380952D02*
X181709523Y-13333333D01*
X181661904Y-13285714D01*
X181614285Y-13190476D01*
X181614285Y-13142857D01*
X181661904Y-13047619D01*
X181709523Y-13000000D01*
X181804761Y-12952380D01*
X181995238Y-12952380D01*
X182090476Y-13000000D01*
X182138095Y-13047619D01*
X182185714Y-13142857D01*
X182185714Y-13190476D01*
X182138095Y-13285714D01*
X182090476Y-13333333D01*
X181995238Y-13380952D01*
X181804761Y-13380952D01*
X181709523Y-13428571D01*
X181661904Y-13476190D01*
X181614285Y-13571428D01*
X181614285Y-13761904D01*
X181661904Y-13857142D01*
X181709523Y-13904761D01*
X181804761Y-13952380D01*
X181995238Y-13952380D01*
X182090476Y-13904761D01*
X182138095Y-13857142D01*
X182185714Y-13761904D01*
X182185714Y-13571428D01*
X182138095Y-13476190D01*
X182090476Y-13428571D01*
X181995238Y-13380952D01*
%TO.C,H10*%
X43761904Y-49952380D02*
X43761904Y-48952380D01*
X43761904Y-49428571D02*
X44333333Y-49428571D01*
X44333333Y-49952380D02*
X44333333Y-48952380D01*
X45333333Y-49952380D02*
X44761904Y-49952380D01*
X45047619Y-49952380D02*
X45047619Y-48952380D01*
X44952380Y-49095238D01*
X44857142Y-49190476D01*
X44761904Y-49238095D01*
X45952380Y-48952380D02*
X46047619Y-48952380D01*
X46142857Y-49000000D01*
X46190476Y-49047619D01*
X46238095Y-49142857D01*
X46285714Y-49333333D01*
X46285714Y-49571428D01*
X46238095Y-49761904D01*
X46190476Y-49857142D01*
X46142857Y-49904761D01*
X46047619Y-49952380D01*
X45952380Y-49952380D01*
X45857142Y-49904761D01*
X45809523Y-49857142D01*
X45761904Y-49761904D01*
X45714285Y-49571428D01*
X45714285Y-49333333D01*
X45761904Y-49142857D01*
X45809523Y-49047619D01*
X45857142Y-49000000D01*
X45952380Y-48952380D01*
%TO.C,H17*%
X179761904Y-67952380D02*
X179761904Y-66952380D01*
X179761904Y-67428571D02*
X180333333Y-67428571D01*
X180333333Y-67952380D02*
X180333333Y-66952380D01*
X181333333Y-67952380D02*
X180761904Y-67952380D01*
X181047619Y-67952380D02*
X181047619Y-66952380D01*
X180952380Y-67095238D01*
X180857142Y-67190476D01*
X180761904Y-67238095D01*
X181666666Y-66952380D02*
X182333333Y-66952380D01*
X181904761Y-67952380D01*
%TO.C,H8*%
X180138095Y15047619D02*
X180138095Y16047619D01*
X180138095Y15571428D02*
X180709523Y15571428D01*
X180709523Y15047619D02*
X180709523Y16047619D01*
X181328571Y15619047D02*
X181233333Y15666666D01*
X181185714Y15714285D01*
X181138095Y15809523D01*
X181138095Y15857142D01*
X181185714Y15952380D01*
X181233333Y16000000D01*
X181328571Y16047619D01*
X181519047Y16047619D01*
X181614285Y16000000D01*
X181661904Y15952380D01*
X181709523Y15857142D01*
X181709523Y15809523D01*
X181661904Y15714285D01*
X181614285Y15666666D01*
X181519047Y15619047D01*
X181328571Y15619047D01*
X181233333Y15571428D01*
X181185714Y15523809D01*
X181138095Y15428571D01*
X181138095Y15238095D01*
X181185714Y15142857D01*
X181233333Y15095238D01*
X181328571Y15047619D01*
X181519047Y15047619D01*
X181614285Y15095238D01*
X181661904Y15142857D01*
X181709523Y15238095D01*
X181709523Y15428571D01*
X181661904Y15523809D01*
X181614285Y15571428D01*
X181519047Y15619047D01*
%TO.C,H15*%
X56761904Y-98952380D02*
X56761904Y-97952380D01*
X56761904Y-98428571D02*
X57333333Y-98428571D01*
X57333333Y-98952380D02*
X57333333Y-97952380D01*
X58333333Y-98952380D02*
X57761904Y-98952380D01*
X58047619Y-98952380D02*
X58047619Y-97952380D01*
X57952380Y-98095238D01*
X57857142Y-98190476D01*
X57761904Y-98238095D01*
X59238095Y-97952380D02*
X58761904Y-97952380D01*
X58714285Y-98428571D01*
X58761904Y-98380952D01*
X58857142Y-98333333D01*
X59095238Y-98333333D01*
X59190476Y-98380952D01*
X59238095Y-98428571D01*
X59285714Y-98523809D01*
X59285714Y-98761904D01*
X59238095Y-98857142D01*
X59190476Y-98904761D01*
X59095238Y-98952380D01*
X58857142Y-98952380D01*
X58761904Y-98904761D01*
X58714285Y-98857142D01*
%TO.C,H12*%
X-16238095Y-25952380D02*
X-16238095Y-24952380D01*
X-16238095Y-25428571D02*
X-15666666Y-25428571D01*
X-15666666Y-25952380D02*
X-15666666Y-24952380D01*
X-14666666Y-25952380D02*
X-15238095Y-25952380D01*
X-14952380Y-25952380D02*
X-14952380Y-24952380D01*
X-15047619Y-25095238D01*
X-15142857Y-25190476D01*
X-15238095Y-25238095D01*
X-14285714Y-25047619D02*
X-14238095Y-25000000D01*
X-14142857Y-24952380D01*
X-13904761Y-24952380D01*
X-13809523Y-25000000D01*
X-13761904Y-25047619D01*
X-13714285Y-25142857D01*
X-13714285Y-25238095D01*
X-13761904Y-25380952D01*
X-14333333Y-25952380D01*
X-13714285Y-25952380D01*
%TO.C,H13*%
X1861904Y-79952380D02*
X1861904Y-78952380D01*
X1861904Y-79428571D02*
X2433333Y-79428571D01*
X2433333Y-79952380D02*
X2433333Y-78952380D01*
X3433333Y-79952380D02*
X2861904Y-79952380D01*
X3147619Y-79952380D02*
X3147619Y-78952380D01*
X3052380Y-79095238D01*
X2957142Y-79190476D01*
X2861904Y-79238095D01*
X3766666Y-78952380D02*
X4385714Y-78952380D01*
X4052380Y-79333333D01*
X4195238Y-79333333D01*
X4290476Y-79380952D01*
X4338095Y-79428571D01*
X4385714Y-79523809D01*
X4385714Y-79761904D01*
X4338095Y-79857142D01*
X4290476Y-79904761D01*
X4195238Y-79952380D01*
X3909523Y-79952380D01*
X3814285Y-79904761D01*
X3766666Y-79857142D01*
%TO.C,H20*%
X76761904Y-79952380D02*
X76761904Y-78952380D01*
X76761904Y-79428571D02*
X77333333Y-79428571D01*
X77333333Y-79952380D02*
X77333333Y-78952380D01*
X77761904Y-79047619D02*
X77809523Y-79000000D01*
X77904761Y-78952380D01*
X78142857Y-78952380D01*
X78238095Y-79000000D01*
X78285714Y-79047619D01*
X78333333Y-79142857D01*
X78333333Y-79238095D01*
X78285714Y-79380952D01*
X77714285Y-79952380D01*
X78333333Y-79952380D01*
X78952380Y-78952380D02*
X79047619Y-78952380D01*
X79142857Y-79000000D01*
X79190476Y-79047619D01*
X79238095Y-79142857D01*
X79285714Y-79333333D01*
X79285714Y-79571428D01*
X79238095Y-79761904D01*
X79190476Y-79857142D01*
X79142857Y-79904761D01*
X79047619Y-79952380D01*
X78952380Y-79952380D01*
X78857142Y-79904761D01*
X78809523Y-79857142D01*
X78761904Y-79761904D01*
X78714285Y-79571428D01*
X78714285Y-79333333D01*
X78761904Y-79142857D01*
X78809523Y-79047619D01*
X78857142Y-79000000D01*
X78952380Y-78952380D01*
%TO.C,H9*%
X60238095Y-79952380D02*
X60238095Y-78952380D01*
X60238095Y-79428571D02*
X60809523Y-79428571D01*
X60809523Y-79952380D02*
X60809523Y-78952380D01*
X61333333Y-79952380D02*
X61523809Y-79952380D01*
X61619047Y-79904761D01*
X61666666Y-79857142D01*
X61761904Y-79714285D01*
X61809523Y-79523809D01*
X61809523Y-79142857D01*
X61761904Y-79047619D01*
X61714285Y-79000000D01*
X61619047Y-78952380D01*
X61428571Y-78952380D01*
X61333333Y-79000000D01*
X61285714Y-79047619D01*
X61238095Y-79142857D01*
X61238095Y-79380952D01*
X61285714Y-79476190D01*
X61333333Y-79523809D01*
X61428571Y-79571428D01*
X61619047Y-79571428D01*
X61714285Y-79523809D01*
X61761904Y-79476190D01*
X61809523Y-79380952D01*
%TO.C,H18*%
X179761904Y-96952380D02*
X179761904Y-95952380D01*
X179761904Y-96428571D02*
X180333333Y-96428571D01*
X180333333Y-96952380D02*
X180333333Y-95952380D01*
X181333333Y-96952380D02*
X180761904Y-96952380D01*
X181047619Y-96952380D02*
X181047619Y-95952380D01*
X180952380Y-96095238D01*
X180857142Y-96190476D01*
X180761904Y-96238095D01*
X181904761Y-96380952D02*
X181809523Y-96333333D01*
X181761904Y-96285714D01*
X181714285Y-96190476D01*
X181714285Y-96142857D01*
X181761904Y-96047619D01*
X181809523Y-96000000D01*
X181904761Y-95952380D01*
X182095238Y-95952380D01*
X182190476Y-96000000D01*
X182238095Y-96047619D01*
X182285714Y-96142857D01*
X182285714Y-96190476D01*
X182238095Y-96285714D01*
X182190476Y-96333333D01*
X182095238Y-96380952D01*
X181904761Y-96380952D01*
X181809523Y-96428571D01*
X181761904Y-96476190D01*
X181714285Y-96571428D01*
X181714285Y-96761904D01*
X181761904Y-96857142D01*
X181809523Y-96904761D01*
X181904761Y-96952380D01*
X182095238Y-96952380D01*
X182190476Y-96904761D01*
X182238095Y-96857142D01*
X182285714Y-96761904D01*
X182285714Y-96571428D01*
X182238095Y-96476190D01*
X182190476Y-96428571D01*
X182095238Y-96380952D01*
%TO.C,H5*%
X-15761904Y-98952380D02*
X-15761904Y-97952380D01*
X-15761904Y-98428571D02*
X-15190476Y-98428571D01*
X-15190476Y-98952380D02*
X-15190476Y-97952380D01*
X-14238095Y-97952380D02*
X-14714285Y-97952380D01*
X-14761904Y-98428571D01*
X-14714285Y-98380952D01*
X-14619047Y-98333333D01*
X-14380952Y-98333333D01*
X-14285714Y-98380952D01*
X-14238095Y-98428571D01*
X-14190476Y-98523809D01*
X-14190476Y-98761904D01*
X-14238095Y-98857142D01*
X-14285714Y-98904761D01*
X-14380952Y-98952380D01*
X-14619047Y-98952380D01*
X-14714285Y-98904761D01*
X-14761904Y-98857142D01*
%TO.C,H1*%
X199238095Y-98952380D02*
X199238095Y-97952380D01*
X199238095Y-98428571D02*
X199809523Y-98428571D01*
X199809523Y-98952380D02*
X199809523Y-97952380D01*
X200809523Y-98952380D02*
X200238095Y-98952380D01*
X200523809Y-98952380D02*
X200523809Y-97952380D01*
X200428571Y-98095238D01*
X200333333Y-98190476D01*
X200238095Y-98238095D01*
%TO.C,R1*%
X3452380Y-53666666D02*
X2976190Y-54000000D01*
X3452380Y-54238095D02*
X2452380Y-54238095D01*
X2452380Y-53857142D01*
X2500000Y-53761904D01*
X2547619Y-53714285D01*
X2642857Y-53666666D01*
X2785714Y-53666666D01*
X2880952Y-53714285D01*
X2928571Y-53761904D01*
X2976190Y-53857142D01*
X2976190Y-54238095D01*
X3452380Y-52714285D02*
X3452380Y-53285714D01*
X3452380Y-53000000D02*
X2452380Y-53000000D01*
X2595238Y-53095238D01*
X2690476Y-53190476D01*
X2738095Y-53285714D01*
%TO.C,Fuse_6*%
X10928571Y-53500000D02*
X10928571Y-53833333D01*
X11452380Y-53833333D02*
X10452380Y-53833333D01*
X10452380Y-53357142D01*
X10785714Y-52547619D02*
X11452380Y-52547619D01*
X10785714Y-52976190D02*
X11309523Y-52976190D01*
X11404761Y-52928571D01*
X11452380Y-52833333D01*
X11452380Y-52690476D01*
X11404761Y-52595238D01*
X11357142Y-52547619D01*
X11404761Y-52119047D02*
X11452380Y-52023809D01*
X11452380Y-51833333D01*
X11404761Y-51738095D01*
X11309523Y-51690476D01*
X11261904Y-51690476D01*
X11166666Y-51738095D01*
X11119047Y-51833333D01*
X11119047Y-51976190D01*
X11071428Y-52071428D01*
X10976190Y-52119047D01*
X10928571Y-52119047D01*
X10833333Y-52071428D01*
X10785714Y-51976190D01*
X10785714Y-51833333D01*
X10833333Y-51738095D01*
X11404761Y-50880952D02*
X11452380Y-50976190D01*
X11452380Y-51166666D01*
X11404761Y-51261904D01*
X11309523Y-51309523D01*
X10928571Y-51309523D01*
X10833333Y-51261904D01*
X10785714Y-51166666D01*
X10785714Y-50976190D01*
X10833333Y-50880952D01*
X10928571Y-50833333D01*
X11023809Y-50833333D01*
X11119047Y-51309523D01*
X11547619Y-50642857D02*
X11547619Y-49880952D01*
X10452380Y-49214285D02*
X10452380Y-49404761D01*
X10500000Y-49500000D01*
X10547619Y-49547619D01*
X10690476Y-49642857D01*
X10880952Y-49690476D01*
X11261904Y-49690476D01*
X11357142Y-49642857D01*
X11404761Y-49595238D01*
X11452380Y-49500000D01*
X11452380Y-49309523D01*
X11404761Y-49214285D01*
X11357142Y-49166666D01*
X11261904Y-49119047D01*
X11023809Y-49119047D01*
X10928571Y-49166666D01*
X10880952Y-49214285D01*
X10833333Y-49309523D01*
X10833333Y-49500000D01*
X10880952Y-49595238D01*
X10928571Y-49642857D01*
X11023809Y-49690476D01*
%TO.C,Fuse3*%
X124380952Y-65428571D02*
X124047619Y-65428571D01*
X124047619Y-65952380D02*
X124047619Y-64952380D01*
X124523809Y-64952380D01*
X125333333Y-65285714D02*
X125333333Y-65952380D01*
X124904761Y-65285714D02*
X124904761Y-65809523D01*
X124952380Y-65904761D01*
X125047619Y-65952380D01*
X125190476Y-65952380D01*
X125285714Y-65904761D01*
X125333333Y-65857142D01*
X125761904Y-65904761D02*
X125857142Y-65952380D01*
X126047619Y-65952380D01*
X126142857Y-65904761D01*
X126190476Y-65809523D01*
X126190476Y-65761904D01*
X126142857Y-65666666D01*
X126047619Y-65619047D01*
X125904761Y-65619047D01*
X125809523Y-65571428D01*
X125761904Y-65476190D01*
X125761904Y-65428571D01*
X125809523Y-65333333D01*
X125904761Y-65285714D01*
X126047619Y-65285714D01*
X126142857Y-65333333D01*
X127000000Y-65904761D02*
X126904761Y-65952380D01*
X126714285Y-65952380D01*
X126619047Y-65904761D01*
X126571428Y-65809523D01*
X126571428Y-65428571D01*
X126619047Y-65333333D01*
X126714285Y-65285714D01*
X126904761Y-65285714D01*
X127000000Y-65333333D01*
X127047619Y-65428571D01*
X127047619Y-65523809D01*
X126571428Y-65619047D01*
X127380952Y-64952380D02*
X128000000Y-64952380D01*
X127666666Y-65333333D01*
X127809523Y-65333333D01*
X127904761Y-65380952D01*
X127952380Y-65428571D01*
X128000000Y-65523809D01*
X128000000Y-65761904D01*
X127952380Y-65857142D01*
X127904761Y-65904761D01*
X127809523Y-65952380D01*
X127523809Y-65952380D01*
X127428571Y-65904761D01*
X127380952Y-65857142D01*
%TO.C,Fuse_3*%
X131428571Y-53500000D02*
X131428571Y-53833333D01*
X131952380Y-53833333D02*
X130952380Y-53833333D01*
X130952380Y-53357142D01*
X131285714Y-52547619D02*
X131952380Y-52547619D01*
X131285714Y-52976190D02*
X131809523Y-52976190D01*
X131904761Y-52928571D01*
X131952380Y-52833333D01*
X131952380Y-52690476D01*
X131904761Y-52595238D01*
X131857142Y-52547619D01*
X131904761Y-52119047D02*
X131952380Y-52023809D01*
X131952380Y-51833333D01*
X131904761Y-51738095D01*
X131809523Y-51690476D01*
X131761904Y-51690476D01*
X131666666Y-51738095D01*
X131619047Y-51833333D01*
X131619047Y-51976190D01*
X131571428Y-52071428D01*
X131476190Y-52119047D01*
X131428571Y-52119047D01*
X131333333Y-52071428D01*
X131285714Y-51976190D01*
X131285714Y-51833333D01*
X131333333Y-51738095D01*
X131904761Y-50880952D02*
X131952380Y-50976190D01*
X131952380Y-51166666D01*
X131904761Y-51261904D01*
X131809523Y-51309523D01*
X131428571Y-51309523D01*
X131333333Y-51261904D01*
X131285714Y-51166666D01*
X131285714Y-50976190D01*
X131333333Y-50880952D01*
X131428571Y-50833333D01*
X131523809Y-50833333D01*
X131619047Y-51309523D01*
X132047619Y-50642857D02*
X132047619Y-49880952D01*
X130952380Y-49738095D02*
X130952380Y-49119047D01*
X131333333Y-49452380D01*
X131333333Y-49309523D01*
X131380952Y-49214285D01*
X131428571Y-49166666D01*
X131523809Y-49119047D01*
X131761904Y-49119047D01*
X131857142Y-49166666D01*
X131904761Y-49214285D01*
X131952380Y-49309523D01*
X131952380Y-49595238D01*
X131904761Y-49690476D01*
X131857142Y-49738095D01*
%TO.C,Fuse_4*%
X31928571Y-30500000D02*
X31928571Y-30833333D01*
X32452380Y-30833333D02*
X31452380Y-30833333D01*
X31452380Y-30357142D01*
X31785714Y-29547619D02*
X32452380Y-29547619D01*
X31785714Y-29976190D02*
X32309523Y-29976190D01*
X32404761Y-29928571D01*
X32452380Y-29833333D01*
X32452380Y-29690476D01*
X32404761Y-29595238D01*
X32357142Y-29547619D01*
X32404761Y-29119047D02*
X32452380Y-29023809D01*
X32452380Y-28833333D01*
X32404761Y-28738095D01*
X32309523Y-28690476D01*
X32261904Y-28690476D01*
X32166666Y-28738095D01*
X32119047Y-28833333D01*
X32119047Y-28976190D01*
X32071428Y-29071428D01*
X31976190Y-29119047D01*
X31928571Y-29119047D01*
X31833333Y-29071428D01*
X31785714Y-28976190D01*
X31785714Y-28833333D01*
X31833333Y-28738095D01*
X32404761Y-27880952D02*
X32452380Y-27976190D01*
X32452380Y-28166666D01*
X32404761Y-28261904D01*
X32309523Y-28309523D01*
X31928571Y-28309523D01*
X31833333Y-28261904D01*
X31785714Y-28166666D01*
X31785714Y-27976190D01*
X31833333Y-27880952D01*
X31928571Y-27833333D01*
X32023809Y-27833333D01*
X32119047Y-28309523D01*
X32547619Y-27642857D02*
X32547619Y-26880952D01*
X31785714Y-26214285D02*
X32452380Y-26214285D01*
X31404761Y-26452380D02*
X32119047Y-26690476D01*
X32119047Y-26071428D01*
%TO.C,R8*%
X40992380Y-38666666D02*
X40516190Y-39000000D01*
X40992380Y-39238095D02*
X39992380Y-39238095D01*
X39992380Y-38857142D01*
X40040000Y-38761904D01*
X40087619Y-38714285D01*
X40182857Y-38666666D01*
X40325714Y-38666666D01*
X40420952Y-38714285D01*
X40468571Y-38761904D01*
X40516190Y-38857142D01*
X40516190Y-39238095D01*
X40420952Y-38095238D02*
X40373333Y-38190476D01*
X40325714Y-38238095D01*
X40230476Y-38285714D01*
X40182857Y-38285714D01*
X40087619Y-38238095D01*
X40040000Y-38190476D01*
X39992380Y-38095238D01*
X39992380Y-37904761D01*
X40040000Y-37809523D01*
X40087619Y-37761904D01*
X40182857Y-37714285D01*
X40230476Y-37714285D01*
X40325714Y-37761904D01*
X40373333Y-37809523D01*
X40420952Y-37904761D01*
X40420952Y-38095238D01*
X40468571Y-38190476D01*
X40516190Y-38238095D01*
X40611428Y-38285714D01*
X40801904Y-38285714D01*
X40897142Y-38238095D01*
X40944761Y-38190476D01*
X40992380Y-38095238D01*
X40992380Y-37904761D01*
X40944761Y-37809523D01*
X40897142Y-37761904D01*
X40801904Y-37714285D01*
X40611428Y-37714285D01*
X40516190Y-37761904D01*
X40468571Y-37809523D01*
X40420952Y-37904761D01*
%TO.C,R6*%
X13992380Y-38666666D02*
X13516190Y-39000000D01*
X13992380Y-39238095D02*
X12992380Y-39238095D01*
X12992380Y-38857142D01*
X13040000Y-38761904D01*
X13087619Y-38714285D01*
X13182857Y-38666666D01*
X13325714Y-38666666D01*
X13420952Y-38714285D01*
X13468571Y-38761904D01*
X13516190Y-38857142D01*
X13516190Y-39238095D01*
X12992380Y-37809523D02*
X12992380Y-38000000D01*
X13040000Y-38095238D01*
X13087619Y-38142857D01*
X13230476Y-38238095D01*
X13420952Y-38285714D01*
X13801904Y-38285714D01*
X13897142Y-38238095D01*
X13944761Y-38190476D01*
X13992380Y-38095238D01*
X13992380Y-37904761D01*
X13944761Y-37809523D01*
X13897142Y-37761904D01*
X13801904Y-37714285D01*
X13563809Y-37714285D01*
X13468571Y-37761904D01*
X13420952Y-37809523D01*
X13373333Y-37904761D01*
X13373333Y-38095238D01*
X13420952Y-38190476D01*
X13468571Y-38238095D01*
X13563809Y-38285714D01*
%TO.C,R5*%
X61452380Y-53666666D02*
X60976190Y-54000000D01*
X61452380Y-54238095D02*
X60452380Y-54238095D01*
X60452380Y-53857142D01*
X60500000Y-53761904D01*
X60547619Y-53714285D01*
X60642857Y-53666666D01*
X60785714Y-53666666D01*
X60880952Y-53714285D01*
X60928571Y-53761904D01*
X60976190Y-53857142D01*
X60976190Y-54238095D01*
X60452380Y-52761904D02*
X60452380Y-53238095D01*
X60928571Y-53285714D01*
X60880952Y-53238095D01*
X60833333Y-53142857D01*
X60833333Y-52904761D01*
X60880952Y-52809523D01*
X60928571Y-52761904D01*
X61023809Y-52714285D01*
X61261904Y-52714285D01*
X61357142Y-52761904D01*
X61404761Y-52809523D01*
X61452380Y-52904761D01*
X61452380Y-53142857D01*
X61404761Y-53238095D01*
X61357142Y-53285714D01*
%TO.C,R4*%
X78452380Y-53666666D02*
X77976190Y-54000000D01*
X78452380Y-54238095D02*
X77452380Y-54238095D01*
X77452380Y-53857142D01*
X77500000Y-53761904D01*
X77547619Y-53714285D01*
X77642857Y-53666666D01*
X77785714Y-53666666D01*
X77880952Y-53714285D01*
X77928571Y-53761904D01*
X77976190Y-53857142D01*
X77976190Y-54238095D01*
X77785714Y-52809523D02*
X78452380Y-52809523D01*
X77404761Y-53047619D02*
X78119047Y-53285714D01*
X78119047Y-52666666D01*
%TO.C,R3*%
X141833333Y-16952380D02*
X141500000Y-16476190D01*
X141261904Y-16952380D02*
X141261904Y-15952380D01*
X141642857Y-15952380D01*
X141738095Y-16000000D01*
X141785714Y-16047619D01*
X141833333Y-16142857D01*
X141833333Y-16285714D01*
X141785714Y-16380952D01*
X141738095Y-16428571D01*
X141642857Y-16476190D01*
X141261904Y-16476190D01*
X142166666Y-15952380D02*
X142785714Y-15952380D01*
X142452380Y-16333333D01*
X142595238Y-16333333D01*
X142690476Y-16380952D01*
X142738095Y-16428571D01*
X142785714Y-16523809D01*
X142785714Y-16761904D01*
X142738095Y-16857142D01*
X142690476Y-16904761D01*
X142595238Y-16952380D01*
X142309523Y-16952380D01*
X142214285Y-16904761D01*
X142166666Y-16857142D01*
%TO.C,R2*%
X141833333Y-64952380D02*
X141500000Y-64476190D01*
X141261904Y-64952380D02*
X141261904Y-63952380D01*
X141642857Y-63952380D01*
X141738095Y-64000000D01*
X141785714Y-64047619D01*
X141833333Y-64142857D01*
X141833333Y-64285714D01*
X141785714Y-64380952D01*
X141738095Y-64428571D01*
X141642857Y-64476190D01*
X141261904Y-64476190D01*
X142214285Y-64047619D02*
X142261904Y-64000000D01*
X142357142Y-63952380D01*
X142595238Y-63952380D01*
X142690476Y-64000000D01*
X142738095Y-64047619D01*
X142785714Y-64142857D01*
X142785714Y-64238095D01*
X142738095Y-64380952D01*
X142166666Y-64952380D01*
X142785714Y-64952380D01*
%TO.C,H24*%
X119861904Y-98952380D02*
X119861904Y-97952380D01*
X119861904Y-98428571D02*
X120433333Y-98428571D01*
X120433333Y-98952380D02*
X120433333Y-97952380D01*
X120861904Y-98047619D02*
X120909523Y-98000000D01*
X121004761Y-97952380D01*
X121242857Y-97952380D01*
X121338095Y-98000000D01*
X121385714Y-98047619D01*
X121433333Y-98142857D01*
X121433333Y-98238095D01*
X121385714Y-98380952D01*
X120814285Y-98952380D01*
X121433333Y-98952380D01*
X122290476Y-98285714D02*
X122290476Y-98952380D01*
X122052380Y-97904761D02*
X121814285Y-98619047D01*
X122433333Y-98619047D01*
%TO.C,H7*%
X19238095Y-98952380D02*
X19238095Y-97952380D01*
X19238095Y-98428571D02*
X19809523Y-98428571D01*
X19809523Y-98952380D02*
X19809523Y-97952380D01*
X20190476Y-97952380D02*
X20857142Y-97952380D01*
X20428571Y-98952380D01*
%TO.C,Fuse8*%
X124380952Y-23428571D02*
X124047619Y-23428571D01*
X124047619Y-23952380D02*
X124047619Y-22952380D01*
X124523809Y-22952380D01*
X125333333Y-23285714D02*
X125333333Y-23952380D01*
X124904761Y-23285714D02*
X124904761Y-23809523D01*
X124952380Y-23904761D01*
X125047619Y-23952380D01*
X125190476Y-23952380D01*
X125285714Y-23904761D01*
X125333333Y-23857142D01*
X125761904Y-23904761D02*
X125857142Y-23952380D01*
X126047619Y-23952380D01*
X126142857Y-23904761D01*
X126190476Y-23809523D01*
X126190476Y-23761904D01*
X126142857Y-23666666D01*
X126047619Y-23619047D01*
X125904761Y-23619047D01*
X125809523Y-23571428D01*
X125761904Y-23476190D01*
X125761904Y-23428571D01*
X125809523Y-23333333D01*
X125904761Y-23285714D01*
X126047619Y-23285714D01*
X126142857Y-23333333D01*
X127000000Y-23904761D02*
X126904761Y-23952380D01*
X126714285Y-23952380D01*
X126619047Y-23904761D01*
X126571428Y-23809523D01*
X126571428Y-23428571D01*
X126619047Y-23333333D01*
X126714285Y-23285714D01*
X126904761Y-23285714D01*
X127000000Y-23333333D01*
X127047619Y-23428571D01*
X127047619Y-23523809D01*
X126571428Y-23619047D01*
X127619047Y-23380952D02*
X127523809Y-23333333D01*
X127476190Y-23285714D01*
X127428571Y-23190476D01*
X127428571Y-23142857D01*
X127476190Y-23047619D01*
X127523809Y-23000000D01*
X127619047Y-22952380D01*
X127809523Y-22952380D01*
X127904761Y-23000000D01*
X127952380Y-23047619D01*
X128000000Y-23142857D01*
X128000000Y-23190476D01*
X127952380Y-23285714D01*
X127904761Y-23333333D01*
X127809523Y-23380952D01*
X127619047Y-23380952D01*
X127523809Y-23428571D01*
X127476190Y-23476190D01*
X127428571Y-23571428D01*
X127428571Y-23761904D01*
X127476190Y-23857142D01*
X127523809Y-23904761D01*
X127619047Y-23952380D01*
X127809523Y-23952380D01*
X127904761Y-23904761D01*
X127952380Y-23857142D01*
X128000000Y-23761904D01*
X128000000Y-23571428D01*
X127952380Y-23476190D01*
X127904761Y-23428571D01*
X127809523Y-23380952D01*
%TO.C,Fuse6*%
X-15619047Y-74428571D02*
X-15952380Y-74428571D01*
X-15952380Y-74952380D02*
X-15952380Y-73952380D01*
X-15476190Y-73952380D01*
X-14666666Y-74285714D02*
X-14666666Y-74952380D01*
X-15095238Y-74285714D02*
X-15095238Y-74809523D01*
X-15047619Y-74904761D01*
X-14952380Y-74952380D01*
X-14809523Y-74952380D01*
X-14714285Y-74904761D01*
X-14666666Y-74857142D01*
X-14238095Y-74904761D02*
X-14142857Y-74952380D01*
X-13952380Y-74952380D01*
X-13857142Y-74904761D01*
X-13809523Y-74809523D01*
X-13809523Y-74761904D01*
X-13857142Y-74666666D01*
X-13952380Y-74619047D01*
X-14095238Y-74619047D01*
X-14190476Y-74571428D01*
X-14238095Y-74476190D01*
X-14238095Y-74428571D01*
X-14190476Y-74333333D01*
X-14095238Y-74285714D01*
X-13952380Y-74285714D01*
X-13857142Y-74333333D01*
X-13000000Y-74904761D02*
X-13095238Y-74952380D01*
X-13285714Y-74952380D01*
X-13380952Y-74904761D01*
X-13428571Y-74809523D01*
X-13428571Y-74428571D01*
X-13380952Y-74333333D01*
X-13285714Y-74285714D01*
X-13095238Y-74285714D01*
X-13000000Y-74333333D01*
X-12952380Y-74428571D01*
X-12952380Y-74523809D01*
X-13428571Y-74619047D01*
X-12095238Y-73952380D02*
X-12285714Y-73952380D01*
X-12380952Y-74000000D01*
X-12428571Y-74047619D01*
X-12523809Y-74190476D01*
X-12571428Y-74380952D01*
X-12571428Y-74761904D01*
X-12523809Y-74857142D01*
X-12476190Y-74904761D01*
X-12380952Y-74952380D01*
X-12190476Y-74952380D01*
X-12095238Y-74904761D01*
X-12047619Y-74857142D01*
X-12000000Y-74761904D01*
X-12000000Y-74523809D01*
X-12047619Y-74428571D01*
X-12095238Y-74380952D01*
X-12190476Y-74333333D01*
X-12380952Y-74333333D01*
X-12476190Y-74380952D01*
X-12523809Y-74428571D01*
X-12571428Y-74523809D01*
%TO.C,Fuse5*%
X43920952Y-44428571D02*
X43587619Y-44428571D01*
X43587619Y-44952380D02*
X43587619Y-43952380D01*
X44063809Y-43952380D01*
X44873333Y-44285714D02*
X44873333Y-44952380D01*
X44444761Y-44285714D02*
X44444761Y-44809523D01*
X44492380Y-44904761D01*
X44587619Y-44952380D01*
X44730476Y-44952380D01*
X44825714Y-44904761D01*
X44873333Y-44857142D01*
X45301904Y-44904761D02*
X45397142Y-44952380D01*
X45587619Y-44952380D01*
X45682857Y-44904761D01*
X45730476Y-44809523D01*
X45730476Y-44761904D01*
X45682857Y-44666666D01*
X45587619Y-44619047D01*
X45444761Y-44619047D01*
X45349523Y-44571428D01*
X45301904Y-44476190D01*
X45301904Y-44428571D01*
X45349523Y-44333333D01*
X45444761Y-44285714D01*
X45587619Y-44285714D01*
X45682857Y-44333333D01*
X46540000Y-44904761D02*
X46444761Y-44952380D01*
X46254285Y-44952380D01*
X46159047Y-44904761D01*
X46111428Y-44809523D01*
X46111428Y-44428571D01*
X46159047Y-44333333D01*
X46254285Y-44285714D01*
X46444761Y-44285714D01*
X46540000Y-44333333D01*
X46587619Y-44428571D01*
X46587619Y-44523809D01*
X46111428Y-44619047D01*
X47492380Y-43952380D02*
X47016190Y-43952380D01*
X46968571Y-44428571D01*
X47016190Y-44380952D01*
X47111428Y-44333333D01*
X47349523Y-44333333D01*
X47444761Y-44380952D01*
X47492380Y-44428571D01*
X47540000Y-44523809D01*
X47540000Y-44761904D01*
X47492380Y-44857142D01*
X47444761Y-44904761D01*
X47349523Y-44952380D01*
X47111428Y-44952380D01*
X47016190Y-44904761D01*
X46968571Y-44857142D01*
%TO.C,Fuse4*%
X16920952Y-44428571D02*
X16587619Y-44428571D01*
X16587619Y-44952380D02*
X16587619Y-43952380D01*
X17063809Y-43952380D01*
X17873333Y-44285714D02*
X17873333Y-44952380D01*
X17444761Y-44285714D02*
X17444761Y-44809523D01*
X17492380Y-44904761D01*
X17587619Y-44952380D01*
X17730476Y-44952380D01*
X17825714Y-44904761D01*
X17873333Y-44857142D01*
X18301904Y-44904761D02*
X18397142Y-44952380D01*
X18587619Y-44952380D01*
X18682857Y-44904761D01*
X18730476Y-44809523D01*
X18730476Y-44761904D01*
X18682857Y-44666666D01*
X18587619Y-44619047D01*
X18444761Y-44619047D01*
X18349523Y-44571428D01*
X18301904Y-44476190D01*
X18301904Y-44428571D01*
X18349523Y-44333333D01*
X18444761Y-44285714D01*
X18587619Y-44285714D01*
X18682857Y-44333333D01*
X19540000Y-44904761D02*
X19444761Y-44952380D01*
X19254285Y-44952380D01*
X19159047Y-44904761D01*
X19111428Y-44809523D01*
X19111428Y-44428571D01*
X19159047Y-44333333D01*
X19254285Y-44285714D01*
X19444761Y-44285714D01*
X19540000Y-44333333D01*
X19587619Y-44428571D01*
X19587619Y-44523809D01*
X19111428Y-44619047D01*
X20444761Y-44285714D02*
X20444761Y-44952380D01*
X20206666Y-43904761D02*
X19968571Y-44619047D01*
X20587619Y-44619047D01*
%TO.C,Fuse2*%
X59380952Y-74428571D02*
X59047619Y-74428571D01*
X59047619Y-74952380D02*
X59047619Y-73952380D01*
X59523809Y-73952380D01*
X60333333Y-74285714D02*
X60333333Y-74952380D01*
X59904761Y-74285714D02*
X59904761Y-74809523D01*
X59952380Y-74904761D01*
X60047619Y-74952380D01*
X60190476Y-74952380D01*
X60285714Y-74904761D01*
X60333333Y-74857142D01*
X60761904Y-74904761D02*
X60857142Y-74952380D01*
X61047619Y-74952380D01*
X61142857Y-74904761D01*
X61190476Y-74809523D01*
X61190476Y-74761904D01*
X61142857Y-74666666D01*
X61047619Y-74619047D01*
X60904761Y-74619047D01*
X60809523Y-74571428D01*
X60761904Y-74476190D01*
X60761904Y-74428571D01*
X60809523Y-74333333D01*
X60904761Y-74285714D01*
X61047619Y-74285714D01*
X61142857Y-74333333D01*
X62000000Y-74904761D02*
X61904761Y-74952380D01*
X61714285Y-74952380D01*
X61619047Y-74904761D01*
X61571428Y-74809523D01*
X61571428Y-74428571D01*
X61619047Y-74333333D01*
X61714285Y-74285714D01*
X61904761Y-74285714D01*
X62000000Y-74333333D01*
X62047619Y-74428571D01*
X62047619Y-74523809D01*
X61571428Y-74619047D01*
X62428571Y-74047619D02*
X62476190Y-74000000D01*
X62571428Y-73952380D01*
X62809523Y-73952380D01*
X62904761Y-74000000D01*
X62952380Y-74047619D01*
X63000000Y-74142857D01*
X63000000Y-74238095D01*
X62952380Y-74380952D01*
X62380952Y-74952380D01*
X63000000Y-74952380D01*
%TO.C,Fuse1*%
X76880952Y-74428571D02*
X76547619Y-74428571D01*
X76547619Y-74952380D02*
X76547619Y-73952380D01*
X77023809Y-73952380D01*
X77833333Y-74285714D02*
X77833333Y-74952380D01*
X77404761Y-74285714D02*
X77404761Y-74809523D01*
X77452380Y-74904761D01*
X77547619Y-74952380D01*
X77690476Y-74952380D01*
X77785714Y-74904761D01*
X77833333Y-74857142D01*
X78261904Y-74904761D02*
X78357142Y-74952380D01*
X78547619Y-74952380D01*
X78642857Y-74904761D01*
X78690476Y-74809523D01*
X78690476Y-74761904D01*
X78642857Y-74666666D01*
X78547619Y-74619047D01*
X78404761Y-74619047D01*
X78309523Y-74571428D01*
X78261904Y-74476190D01*
X78261904Y-74428571D01*
X78309523Y-74333333D01*
X78404761Y-74285714D01*
X78547619Y-74285714D01*
X78642857Y-74333333D01*
X79500000Y-74904761D02*
X79404761Y-74952380D01*
X79214285Y-74952380D01*
X79119047Y-74904761D01*
X79071428Y-74809523D01*
X79071428Y-74428571D01*
X79119047Y-74333333D01*
X79214285Y-74285714D01*
X79404761Y-74285714D01*
X79500000Y-74333333D01*
X79547619Y-74428571D01*
X79547619Y-74523809D01*
X79071428Y-74619047D01*
X80500000Y-74952380D02*
X79928571Y-74952380D01*
X80214285Y-74952380D02*
X80214285Y-73952380D01*
X80119047Y-74095238D01*
X80023809Y-74190476D01*
X79928571Y-74238095D01*
%TO.C,Fuse_7*%
X-6071428Y-53500000D02*
X-6071428Y-53833333D01*
X-5547619Y-53833333D02*
X-6547619Y-53833333D01*
X-6547619Y-53357142D01*
X-6214285Y-52547619D02*
X-5547619Y-52547619D01*
X-6214285Y-52976190D02*
X-5690476Y-52976190D01*
X-5595238Y-52928571D01*
X-5547619Y-52833333D01*
X-5547619Y-52690476D01*
X-5595238Y-52595238D01*
X-5642857Y-52547619D01*
X-5595238Y-52119047D02*
X-5547619Y-52023809D01*
X-5547619Y-51833333D01*
X-5595238Y-51738095D01*
X-5690476Y-51690476D01*
X-5738095Y-51690476D01*
X-5833333Y-51738095D01*
X-5880952Y-51833333D01*
X-5880952Y-51976190D01*
X-5928571Y-52071428D01*
X-6023809Y-52119047D01*
X-6071428Y-52119047D01*
X-6166666Y-52071428D01*
X-6214285Y-51976190D01*
X-6214285Y-51833333D01*
X-6166666Y-51738095D01*
X-5595238Y-50880952D02*
X-5547619Y-50976190D01*
X-5547619Y-51166666D01*
X-5595238Y-51261904D01*
X-5690476Y-51309523D01*
X-6071428Y-51309523D01*
X-6166666Y-51261904D01*
X-6214285Y-51166666D01*
X-6214285Y-50976190D01*
X-6166666Y-50880952D01*
X-6071428Y-50833333D01*
X-5976190Y-50833333D01*
X-5880952Y-51309523D01*
X-5452380Y-50642857D02*
X-5452380Y-49880952D01*
X-6547619Y-49738095D02*
X-6547619Y-49071428D01*
X-5547619Y-49500000D01*
%TO.C,Fuse_2*%
X69428571Y-53500000D02*
X69428571Y-53833333D01*
X69952380Y-53833333D02*
X68952380Y-53833333D01*
X68952380Y-53357142D01*
X69285714Y-52547619D02*
X69952380Y-52547619D01*
X69285714Y-52976190D02*
X69809523Y-52976190D01*
X69904761Y-52928571D01*
X69952380Y-52833333D01*
X69952380Y-52690476D01*
X69904761Y-52595238D01*
X69857142Y-52547619D01*
X69904761Y-52119047D02*
X69952380Y-52023809D01*
X69952380Y-51833333D01*
X69904761Y-51738095D01*
X69809523Y-51690476D01*
X69761904Y-51690476D01*
X69666666Y-51738095D01*
X69619047Y-51833333D01*
X69619047Y-51976190D01*
X69571428Y-52071428D01*
X69476190Y-52119047D01*
X69428571Y-52119047D01*
X69333333Y-52071428D01*
X69285714Y-51976190D01*
X69285714Y-51833333D01*
X69333333Y-51738095D01*
X69904761Y-50880952D02*
X69952380Y-50976190D01*
X69952380Y-51166666D01*
X69904761Y-51261904D01*
X69809523Y-51309523D01*
X69428571Y-51309523D01*
X69333333Y-51261904D01*
X69285714Y-51166666D01*
X69285714Y-50976190D01*
X69333333Y-50880952D01*
X69428571Y-50833333D01*
X69523809Y-50833333D01*
X69619047Y-51309523D01*
X70047619Y-50642857D02*
X70047619Y-49880952D01*
X69047619Y-49690476D02*
X69000000Y-49642857D01*
X68952380Y-49547619D01*
X68952380Y-49309523D01*
X69000000Y-49214285D01*
X69047619Y-49166666D01*
X69142857Y-49119047D01*
X69238095Y-49119047D01*
X69380952Y-49166666D01*
X69952380Y-49738095D01*
X69952380Y-49119047D01*
%TO.C,Fuse_1*%
X84928571Y-53500000D02*
X84928571Y-53833333D01*
X85452380Y-53833333D02*
X84452380Y-53833333D01*
X84452380Y-53357142D01*
X84785714Y-52547619D02*
X85452380Y-52547619D01*
X84785714Y-52976190D02*
X85309523Y-52976190D01*
X85404761Y-52928571D01*
X85452380Y-52833333D01*
X85452380Y-52690476D01*
X85404761Y-52595238D01*
X85357142Y-52547619D01*
X85404761Y-52119047D02*
X85452380Y-52023809D01*
X85452380Y-51833333D01*
X85404761Y-51738095D01*
X85309523Y-51690476D01*
X85261904Y-51690476D01*
X85166666Y-51738095D01*
X85119047Y-51833333D01*
X85119047Y-51976190D01*
X85071428Y-52071428D01*
X84976190Y-52119047D01*
X84928571Y-52119047D01*
X84833333Y-52071428D01*
X84785714Y-51976190D01*
X84785714Y-51833333D01*
X84833333Y-51738095D01*
X85404761Y-50880952D02*
X85452380Y-50976190D01*
X85452380Y-51166666D01*
X85404761Y-51261904D01*
X85309523Y-51309523D01*
X84928571Y-51309523D01*
X84833333Y-51261904D01*
X84785714Y-51166666D01*
X84785714Y-50976190D01*
X84833333Y-50880952D01*
X84928571Y-50833333D01*
X85023809Y-50833333D01*
X85119047Y-51309523D01*
X85547619Y-50642857D02*
X85547619Y-49880952D01*
X85452380Y-49119047D02*
X85452380Y-49690476D01*
X85452380Y-49404761D02*
X84452380Y-49404761D01*
X84595238Y-49500000D01*
X84690476Y-49595238D01*
X84738095Y-49690476D01*
%TO.C,Fuse_5*%
X58928571Y-31500000D02*
X58928571Y-31833333D01*
X59452380Y-31833333D02*
X58452380Y-31833333D01*
X58452380Y-31357142D01*
X58785714Y-30547619D02*
X59452380Y-30547619D01*
X58785714Y-30976190D02*
X59309523Y-30976190D01*
X59404761Y-30928571D01*
X59452380Y-30833333D01*
X59452380Y-30690476D01*
X59404761Y-30595238D01*
X59357142Y-30547619D01*
X59404761Y-30119047D02*
X59452380Y-30023809D01*
X59452380Y-29833333D01*
X59404761Y-29738095D01*
X59309523Y-29690476D01*
X59261904Y-29690476D01*
X59166666Y-29738095D01*
X59119047Y-29833333D01*
X59119047Y-29976190D01*
X59071428Y-30071428D01*
X58976190Y-30119047D01*
X58928571Y-30119047D01*
X58833333Y-30071428D01*
X58785714Y-29976190D01*
X58785714Y-29833333D01*
X58833333Y-29738095D01*
X59404761Y-28880952D02*
X59452380Y-28976190D01*
X59452380Y-29166666D01*
X59404761Y-29261904D01*
X59309523Y-29309523D01*
X58928571Y-29309523D01*
X58833333Y-29261904D01*
X58785714Y-29166666D01*
X58785714Y-28976190D01*
X58833333Y-28880952D01*
X58928571Y-28833333D01*
X59023809Y-28833333D01*
X59119047Y-29309523D01*
X59547619Y-28642857D02*
X59547619Y-27880952D01*
X58452380Y-27166666D02*
X58452380Y-27642857D01*
X58928571Y-27690476D01*
X58880952Y-27642857D01*
X58833333Y-27547619D01*
X58833333Y-27309523D01*
X58880952Y-27214285D01*
X58928571Y-27166666D01*
X59023809Y-27119047D01*
X59261904Y-27119047D01*
X59357142Y-27166666D01*
X59404761Y-27214285D01*
X59452380Y-27309523D01*
X59452380Y-27547619D01*
X59404761Y-27642857D01*
X59357142Y-27690476D01*
%TD*%
M02*
