%TF.GenerationSoftware,KiCad,Pcbnew,(5.1.8)-1*%
%TF.CreationDate,2021-07-20T16:41:24+02:00*%
%TF.ProjectId,FJElectricsPCBBack,464a456c-6563-4747-9269-637350434242,rev?*%
%TF.SameCoordinates,Original*%
%TF.FileFunction,Legend,Bot*%
%TF.FilePolarity,Positive*%
%FSLAX46Y46*%
G04 Gerber Fmt 4.6, Leading zero omitted, Abs format (unit mm)*
G04 Created by KiCad (PCBNEW (5.1.8)-1) date 2021-07-20 16:41:24*
%MOMM*%
%LPD*%
G01*
G04 APERTURE LIST*
%ADD10C,0.150000*%
%ADD11C,0.120000*%
G04 APERTURE END LIST*
D10*
X130404761Y8212023D02*
X130452380Y8069166D01*
X130452380Y7831071D01*
X130404761Y7735833D01*
X130357142Y7688214D01*
X130261904Y7640595D01*
X130166666Y7640595D01*
X130071428Y7688214D01*
X130023809Y7735833D01*
X129976190Y7831071D01*
X129928571Y8021547D01*
X129880952Y8116785D01*
X129833333Y8164404D01*
X129738095Y8212023D01*
X129642857Y8212023D01*
X129547619Y8164404D01*
X129500000Y8116785D01*
X129452380Y8021547D01*
X129452380Y7783452D01*
X129500000Y7640595D01*
X130357142Y6640595D02*
X130404761Y6688214D01*
X130452380Y6831071D01*
X130452380Y6926309D01*
X130404761Y7069166D01*
X130309523Y7164404D01*
X130214285Y7212023D01*
X130023809Y7259642D01*
X129880952Y7259642D01*
X129690476Y7212023D01*
X129595238Y7164404D01*
X129500000Y7069166D01*
X129452380Y6926309D01*
X129452380Y6831071D01*
X129500000Y6688214D01*
X129547619Y6640595D01*
X130452380Y6212023D02*
X129452380Y6212023D01*
X129928571Y6212023D02*
X129928571Y5640595D01*
X130452380Y5640595D02*
X129452380Y5640595D01*
X130166666Y5212023D02*
X130166666Y4735833D01*
X130452380Y5307261D02*
X129452380Y4973928D01*
X130452380Y4640595D01*
X130452380Y3735833D02*
X129976190Y4069166D01*
X130452380Y4307261D02*
X129452380Y4307261D01*
X129452380Y3926309D01*
X129500000Y3831071D01*
X129547619Y3783452D01*
X129642857Y3735833D01*
X129785714Y3735833D01*
X129880952Y3783452D01*
X129928571Y3831071D01*
X129976190Y3926309D01*
X129976190Y4307261D01*
X129500000Y2783452D02*
X129452380Y2878690D01*
X129452380Y3021547D01*
X129500000Y3164404D01*
X129595238Y3259642D01*
X129690476Y3307261D01*
X129880952Y3354880D01*
X130023809Y3354880D01*
X130214285Y3307261D01*
X130309523Y3259642D01*
X130404761Y3164404D01*
X130452380Y3021547D01*
X130452380Y2926309D01*
X130404761Y2783452D01*
X130357142Y2735833D01*
X130023809Y2735833D01*
X130023809Y2926309D01*
X129928571Y2307261D02*
X129928571Y1973928D01*
X130452380Y1831071D02*
X130452380Y2307261D01*
X129452380Y2307261D01*
X129452380Y1831071D01*
X130452380Y831071D02*
X129976190Y1164404D01*
X130452380Y1402500D02*
X129452380Y1402500D01*
X129452380Y1021547D01*
X129500000Y926309D01*
X129547619Y878690D01*
X129642857Y831071D01*
X129785714Y831071D01*
X129880952Y878690D01*
X129928571Y926309D01*
X129976190Y1021547D01*
X129976190Y1402500D01*
X130071428Y402500D02*
X130071428Y-359404D01*
X122452380Y8164404D02*
X121452380Y8164404D01*
X121452380Y7926309D01*
X121500000Y7783452D01*
X121595238Y7688214D01*
X121690476Y7640595D01*
X121880952Y7592976D01*
X122023809Y7592976D01*
X122214285Y7640595D01*
X122309523Y7688214D01*
X122404761Y7783452D01*
X122452380Y7926309D01*
X122452380Y8164404D01*
X122357142Y6592976D02*
X122404761Y6640595D01*
X122452380Y6783452D01*
X122452380Y6878690D01*
X122404761Y7021547D01*
X122309523Y7116785D01*
X122214285Y7164404D01*
X122023809Y7212023D01*
X121880952Y7212023D01*
X121690476Y7164404D01*
X121595238Y7116785D01*
X121500000Y7021547D01*
X121452380Y6878690D01*
X121452380Y6783452D01*
X121500000Y6640595D01*
X121547619Y6592976D01*
X122452380Y6164404D02*
X121452380Y6164404D01*
X121452380Y5926309D01*
X121500000Y5783452D01*
X121595238Y5688214D01*
X121690476Y5640595D01*
X121880952Y5592976D01*
X122023809Y5592976D01*
X122214285Y5640595D01*
X122309523Y5688214D01*
X122404761Y5783452D01*
X122452380Y5926309D01*
X122452380Y6164404D01*
X122357142Y4592976D02*
X122404761Y4640595D01*
X122452380Y4783452D01*
X122452380Y4878690D01*
X122404761Y5021547D01*
X122309523Y5116785D01*
X122214285Y5164404D01*
X122023809Y5212023D01*
X121880952Y5212023D01*
X121690476Y5164404D01*
X121595238Y5116785D01*
X121500000Y5021547D01*
X121452380Y4878690D01*
X121452380Y4783452D01*
X121500000Y4640595D01*
X121547619Y4592976D01*
X121452380Y3973928D02*
X121452380Y3783452D01*
X121500000Y3688214D01*
X121595238Y3592976D01*
X121785714Y3545357D01*
X122119047Y3545357D01*
X122309523Y3592976D01*
X122404761Y3688214D01*
X122452380Y3783452D01*
X122452380Y3973928D01*
X122404761Y4069166D01*
X122309523Y4164404D01*
X122119047Y4212023D01*
X121785714Y4212023D01*
X121595238Y4164404D01*
X121500000Y4069166D01*
X121452380Y3973928D01*
X121785714Y2688214D02*
X122452380Y2688214D01*
X121785714Y3116785D02*
X122309523Y3116785D01*
X122404761Y3069166D01*
X122452380Y2973928D01*
X122452380Y2831071D01*
X122404761Y2735833D01*
X122357142Y2688214D01*
X121785714Y2354880D02*
X121785714Y1973928D01*
X121452380Y2212023D02*
X122309523Y2212023D01*
X122404761Y2164404D01*
X122452380Y2069166D01*
X122452380Y1973928D01*
X122071428Y1640595D02*
X122071428Y878690D01*
X169571428Y-14831071D02*
X169571428Y-15164404D01*
X169047619Y-15164404D02*
X170047619Y-15164404D01*
X170047619Y-14688214D01*
X169333333Y-14354880D02*
X169333333Y-13878690D01*
X169047619Y-14450119D02*
X170047619Y-14116785D01*
X169047619Y-13783452D01*
X169047619Y-13450119D02*
X170047619Y-13450119D01*
X169047619Y-12878690D01*
X170047619Y-12878690D01*
X169428571Y-11640595D02*
X169428571Y-10878690D01*
X169047619Y-11259642D02*
X169809523Y-11259642D01*
X167071428Y-14831071D02*
X167071428Y-15164404D01*
X166547619Y-15164404D02*
X167547619Y-15164404D01*
X167547619Y-14688214D01*
X166833333Y-14354880D02*
X166833333Y-13878690D01*
X166547619Y-14450119D02*
X167547619Y-14116785D01*
X166547619Y-13783452D01*
X166547619Y-13450119D02*
X167547619Y-13450119D01*
X166547619Y-12878690D01*
X167547619Y-12878690D01*
X166928571Y-11640595D02*
X166928571Y-10878690D01*
X84547619Y-98164404D02*
X85547619Y-98164404D01*
X84833333Y-97831071D01*
X85547619Y-97497738D01*
X84547619Y-97497738D01*
X84547619Y-97021547D02*
X85547619Y-97021547D01*
X85547619Y-96640595D01*
X85500000Y-96545357D01*
X85452380Y-96497738D01*
X85357142Y-96450119D01*
X85214285Y-96450119D01*
X85119047Y-96497738D01*
X85071428Y-96545357D01*
X85023809Y-96640595D01*
X85023809Y-97021547D01*
X84547619Y-96021547D02*
X85547619Y-96021547D01*
X85547619Y-95640595D01*
X85500000Y-95545357D01*
X85452380Y-95497738D01*
X85357142Y-95450119D01*
X85214285Y-95450119D01*
X85119047Y-95497738D01*
X85071428Y-95545357D01*
X85023809Y-95640595D01*
X85023809Y-96021547D01*
X85547619Y-95164404D02*
X85547619Y-94592976D01*
X84547619Y-94878690D02*
X85547619Y-94878690D01*
X85071428Y-93926309D02*
X85023809Y-93783452D01*
X84976190Y-93735833D01*
X84880952Y-93688214D01*
X84738095Y-93688214D01*
X84642857Y-93735833D01*
X84595238Y-93783452D01*
X84547619Y-93878690D01*
X84547619Y-94259642D01*
X85547619Y-94259642D01*
X85547619Y-93926309D01*
X85500000Y-93831071D01*
X85452380Y-93783452D01*
X85357142Y-93735833D01*
X85261904Y-93735833D01*
X85166666Y-93783452D01*
X85119047Y-93831071D01*
X85071428Y-93926309D01*
X85071428Y-94259642D01*
X84833333Y-93307261D02*
X84833333Y-92831071D01*
X84547619Y-93402500D02*
X85547619Y-93069166D01*
X84547619Y-92735833D01*
X85547619Y-92545357D02*
X85547619Y-91973928D01*
X84547619Y-92259642D02*
X85547619Y-92259642D01*
X84928571Y-91640595D02*
X84928571Y-90878690D01*
X84547619Y-91259642D02*
X85309523Y-91259642D01*
X44335595Y-89047619D02*
X44335595Y-90047619D01*
X44668928Y-89333333D01*
X45002261Y-90047619D01*
X45002261Y-89047619D01*
X45478452Y-89047619D02*
X45478452Y-90047619D01*
X45859404Y-90047619D01*
X45954642Y-90000000D01*
X46002261Y-89952380D01*
X46049880Y-89857142D01*
X46049880Y-89714285D01*
X46002261Y-89619047D01*
X45954642Y-89571428D01*
X45859404Y-89523809D01*
X45478452Y-89523809D01*
X46478452Y-89047619D02*
X46478452Y-90047619D01*
X46859404Y-90047619D01*
X46954642Y-90000000D01*
X47002261Y-89952380D01*
X47049880Y-89857142D01*
X47049880Y-89714285D01*
X47002261Y-89619047D01*
X46954642Y-89571428D01*
X46859404Y-89523809D01*
X46478452Y-89523809D01*
X47335595Y-90047619D02*
X47907023Y-90047619D01*
X47621309Y-89047619D02*
X47621309Y-90047619D01*
X48240357Y-89047619D02*
X48240357Y-90047619D01*
X48621309Y-90047619D01*
X48716547Y-90000000D01*
X48764166Y-89952380D01*
X48811785Y-89857142D01*
X48811785Y-89714285D01*
X48764166Y-89619047D01*
X48716547Y-89571428D01*
X48621309Y-89523809D01*
X48240357Y-89523809D01*
X49097500Y-90047619D02*
X49430833Y-89047619D01*
X49764166Y-90047619D01*
X50097500Y-89428571D02*
X50859404Y-89428571D01*
X67547619Y-98164404D02*
X68547619Y-98164404D01*
X68547619Y-97926309D01*
X68500000Y-97783452D01*
X68404761Y-97688214D01*
X68309523Y-97640595D01*
X68119047Y-97592976D01*
X67976190Y-97592976D01*
X67785714Y-97640595D01*
X67690476Y-97688214D01*
X67595238Y-97783452D01*
X67547619Y-97926309D01*
X67547619Y-98164404D01*
X67642857Y-96592976D02*
X67595238Y-96640595D01*
X67547619Y-96783452D01*
X67547619Y-96878690D01*
X67595238Y-97021547D01*
X67690476Y-97116785D01*
X67785714Y-97164404D01*
X67976190Y-97212023D01*
X68119047Y-97212023D01*
X68309523Y-97164404D01*
X68404761Y-97116785D01*
X68500000Y-97021547D01*
X68547619Y-96878690D01*
X68547619Y-96783452D01*
X68500000Y-96640595D01*
X68452380Y-96592976D01*
X67547619Y-96164404D02*
X68547619Y-96164404D01*
X68547619Y-95926309D01*
X68500000Y-95783452D01*
X68404761Y-95688214D01*
X68309523Y-95640595D01*
X68119047Y-95592976D01*
X67976190Y-95592976D01*
X67785714Y-95640595D01*
X67690476Y-95688214D01*
X67595238Y-95783452D01*
X67547619Y-95926309D01*
X67547619Y-96164404D01*
X67642857Y-94592976D02*
X67595238Y-94640595D01*
X67547619Y-94783452D01*
X67547619Y-94878690D01*
X67595238Y-95021547D01*
X67690476Y-95116785D01*
X67785714Y-95164404D01*
X67976190Y-95212023D01*
X68119047Y-95212023D01*
X68309523Y-95164404D01*
X68404761Y-95116785D01*
X68500000Y-95021547D01*
X68547619Y-94878690D01*
X68547619Y-94783452D01*
X68500000Y-94640595D01*
X68452380Y-94592976D01*
X68547619Y-93973928D02*
X68547619Y-93783452D01*
X68500000Y-93688214D01*
X68404761Y-93592976D01*
X68214285Y-93545357D01*
X67880952Y-93545357D01*
X67690476Y-93592976D01*
X67595238Y-93688214D01*
X67547619Y-93783452D01*
X67547619Y-93973928D01*
X67595238Y-94069166D01*
X67690476Y-94164404D01*
X67880952Y-94212023D01*
X68214285Y-94212023D01*
X68404761Y-94164404D01*
X68500000Y-94069166D01*
X68547619Y-93973928D01*
X68214285Y-92688214D02*
X67547619Y-92688214D01*
X68214285Y-93116785D02*
X67690476Y-93116785D01*
X67595238Y-93069166D01*
X67547619Y-92973928D01*
X67547619Y-92831071D01*
X67595238Y-92735833D01*
X67642857Y-92688214D01*
X68214285Y-92354880D02*
X68214285Y-91973928D01*
X68547619Y-92212023D02*
X67690476Y-92212023D01*
X67595238Y-92164404D01*
X67547619Y-92069166D01*
X67547619Y-91973928D01*
X67928571Y-91640595D02*
X67928571Y-90878690D01*
X67547619Y-91259642D02*
X68309523Y-91259642D01*
X-10331071Y-46571428D02*
X-10188214Y-46523809D01*
X-10140595Y-46476190D01*
X-10092976Y-46380952D01*
X-10092976Y-46238095D01*
X-10140595Y-46142857D01*
X-10188214Y-46095238D01*
X-10283452Y-46047619D01*
X-10664404Y-46047619D01*
X-10664404Y-47047619D01*
X-10331071Y-47047619D01*
X-10235833Y-47000000D01*
X-10188214Y-46952380D01*
X-10140595Y-46857142D01*
X-10140595Y-46761904D01*
X-10188214Y-46666666D01*
X-10235833Y-46619047D01*
X-10331071Y-46571428D01*
X-10664404Y-46571428D01*
X-9712023Y-46333333D02*
X-9235833Y-46333333D01*
X-9807261Y-46047619D02*
X-9473928Y-47047619D01*
X-9140595Y-46047619D01*
X-8950119Y-47047619D02*
X-8378690Y-47047619D01*
X-8664404Y-46047619D02*
X-8664404Y-47047619D01*
X-8045357Y-46047619D02*
X-8045357Y-47047619D01*
X-7712023Y-46333333D01*
X-7378690Y-47047619D01*
X-7378690Y-46047619D01*
X-6712023Y-47047619D02*
X-6521547Y-47047619D01*
X-6426309Y-47000000D01*
X-6331071Y-46904761D01*
X-6283452Y-46714285D01*
X-6283452Y-46380952D01*
X-6331071Y-46190476D01*
X-6426309Y-46095238D01*
X-6521547Y-46047619D01*
X-6712023Y-46047619D01*
X-6807261Y-46095238D01*
X-6902500Y-46190476D01*
X-6950119Y-46380952D01*
X-6950119Y-46714285D01*
X-6902500Y-46904761D01*
X-6807261Y-47000000D01*
X-6712023Y-47047619D01*
X-5854880Y-46047619D02*
X-5854880Y-47047619D01*
X-5283452Y-46047619D01*
X-5283452Y-47047619D01*
X-4854880Y-46952380D02*
X-4807261Y-47000000D01*
X-4712023Y-47047619D01*
X-4473928Y-47047619D01*
X-4378690Y-47000000D01*
X-4331071Y-46952380D01*
X-4283452Y-46857142D01*
X-4283452Y-46761904D01*
X-4331071Y-46619047D01*
X-4902500Y-46047619D01*
X-4283452Y-46047619D01*
X-3854880Y-46428571D02*
X-3092976Y-46428571D01*
X-3473928Y-46047619D02*
X-3473928Y-46809523D01*
X-5452380Y-99664404D02*
X-4452380Y-99664404D01*
X-4452380Y-99426309D01*
X-4500000Y-99283452D01*
X-4595238Y-99188214D01*
X-4690476Y-99140595D01*
X-4880952Y-99092976D01*
X-5023809Y-99092976D01*
X-5214285Y-99140595D01*
X-5309523Y-99188214D01*
X-5404761Y-99283452D01*
X-5452380Y-99426309D01*
X-5452380Y-99664404D01*
X-5357142Y-98092976D02*
X-5404761Y-98140595D01*
X-5452380Y-98283452D01*
X-5452380Y-98378690D01*
X-5404761Y-98521547D01*
X-5309523Y-98616785D01*
X-5214285Y-98664404D01*
X-5023809Y-98712023D01*
X-4880952Y-98712023D01*
X-4690476Y-98664404D01*
X-4595238Y-98616785D01*
X-4500000Y-98521547D01*
X-4452380Y-98378690D01*
X-4452380Y-98283452D01*
X-4500000Y-98140595D01*
X-4547619Y-98092976D01*
X-5452380Y-97664404D02*
X-4452380Y-97664404D01*
X-4452380Y-97426309D01*
X-4499999Y-97283452D01*
X-4595238Y-97188214D01*
X-4690476Y-97140595D01*
X-4880952Y-97092976D01*
X-5023809Y-97092976D01*
X-5214285Y-97140595D01*
X-5309523Y-97188214D01*
X-5404761Y-97283452D01*
X-5452380Y-97426309D01*
X-5452380Y-97664404D01*
X-5357142Y-96092976D02*
X-5404761Y-96140595D01*
X-5452380Y-96283452D01*
X-5452380Y-96378690D01*
X-5404761Y-96521547D01*
X-5309523Y-96616785D01*
X-5214285Y-96664404D01*
X-5023809Y-96712023D01*
X-4880952Y-96712023D01*
X-4690476Y-96664404D01*
X-4595238Y-96616785D01*
X-4499999Y-96521547D01*
X-4452380Y-96378690D01*
X-4452380Y-96283452D01*
X-4499999Y-96140595D01*
X-4547619Y-96092976D01*
X-5452380Y-95664404D02*
X-4452380Y-95664404D01*
X-4785714Y-95188214D02*
X-5452380Y-95188214D01*
X-4880952Y-95188214D02*
X-4833333Y-95140595D01*
X-4785714Y-95045357D01*
X-4785714Y-94902500D01*
X-4833333Y-94807261D01*
X-4928571Y-94759642D01*
X-5452380Y-94759642D01*
X-5071428Y-94283452D02*
X-5071428Y-93521547D01*
X-5452380Y-93902500D02*
X-4690476Y-93902500D01*
X11595238Y-100212023D02*
X11547619Y-100069166D01*
X11547619Y-99831071D01*
X11595238Y-99735833D01*
X11642857Y-99688214D01*
X11738095Y-99640595D01*
X11833333Y-99640595D01*
X11928571Y-99688214D01*
X11976190Y-99735833D01*
X12023809Y-99831071D01*
X12071428Y-100021547D01*
X12119047Y-100116785D01*
X12166666Y-100164404D01*
X12261904Y-100212023D01*
X12357142Y-100212023D01*
X12452380Y-100164404D01*
X12500000Y-100116785D01*
X12547619Y-100021547D01*
X12547619Y-99783452D01*
X12500000Y-99640595D01*
X11642857Y-98640595D02*
X11595238Y-98688214D01*
X11547619Y-98831071D01*
X11547619Y-98926309D01*
X11595238Y-99069166D01*
X11690476Y-99164404D01*
X11785714Y-99212023D01*
X11976190Y-99259642D01*
X12119047Y-99259642D01*
X12309523Y-99212023D01*
X12404761Y-99164404D01*
X12500000Y-99069166D01*
X12547619Y-98926309D01*
X12547619Y-98831071D01*
X12500000Y-98688214D01*
X12452380Y-98640595D01*
X11547619Y-98212023D02*
X12547619Y-98212023D01*
X12071428Y-98212023D02*
X12071428Y-97640595D01*
X11547619Y-97640595D02*
X12547619Y-97640595D01*
X11833333Y-97212023D02*
X11833333Y-96735833D01*
X11547619Y-97307261D02*
X12547619Y-96973928D01*
X11547619Y-96640595D01*
X11547619Y-95735833D02*
X12023809Y-96069166D01*
X11547619Y-96307261D02*
X12547619Y-96307261D01*
X12547619Y-95926309D01*
X12500000Y-95831071D01*
X12452380Y-95783452D01*
X12357142Y-95735833D01*
X12214285Y-95735833D01*
X12119047Y-95783452D01*
X12071428Y-95831071D01*
X12023809Y-95926309D01*
X12023809Y-96307261D01*
X12500000Y-94783452D02*
X12547619Y-94878690D01*
X12547619Y-95021547D01*
X12500000Y-95164404D01*
X12404761Y-95259642D01*
X12309523Y-95307261D01*
X12119047Y-95354880D01*
X11976190Y-95354880D01*
X11785714Y-95307261D01*
X11690476Y-95259642D01*
X11595238Y-95164404D01*
X11547619Y-95021547D01*
X11547619Y-94926309D01*
X11595238Y-94783452D01*
X11642857Y-94735833D01*
X11976190Y-94735833D01*
X11976190Y-94926309D01*
X12071428Y-94307261D02*
X12071428Y-93973928D01*
X11547619Y-93831071D02*
X11547619Y-94307261D01*
X12547619Y-94307261D01*
X12547619Y-93831071D01*
X11547619Y-92831071D02*
X12023809Y-93164404D01*
X11547619Y-93402500D02*
X12547619Y-93402500D01*
X12547619Y-93021547D01*
X12500000Y-92926309D01*
X12452380Y-92878690D01*
X12357142Y-92831071D01*
X12214285Y-92831071D01*
X12119047Y-92878690D01*
X12071428Y-92926309D01*
X12023809Y-93021547D01*
X12023809Y-93402500D01*
X11928571Y-92402500D02*
X11928571Y-91640595D01*
X11547619Y-92021547D02*
X12309523Y-92021547D01*
X-10331071Y-50571428D02*
X-10188214Y-50523809D01*
X-10140595Y-50476190D01*
X-10092976Y-50380952D01*
X-10092976Y-50238095D01*
X-10140595Y-50142857D01*
X-10188214Y-50095238D01*
X-10283452Y-50047619D01*
X-10664404Y-50047619D01*
X-10664404Y-51047619D01*
X-10331071Y-51047619D01*
X-10235833Y-51000000D01*
X-10188214Y-50952380D01*
X-10140595Y-50857142D01*
X-10140595Y-50761904D01*
X-10188214Y-50666666D01*
X-10235833Y-50619047D01*
X-10331071Y-50571428D01*
X-10664404Y-50571428D01*
X-9712023Y-50333333D02*
X-9235833Y-50333333D01*
X-9807261Y-50047619D02*
X-9473928Y-51047619D01*
X-9140595Y-50047619D01*
X-8950119Y-51047619D02*
X-8378690Y-51047619D01*
X-8664404Y-50047619D02*
X-8664404Y-51047619D01*
X-8045357Y-50047619D02*
X-8045357Y-51047619D01*
X-7712023Y-50333333D01*
X-7378690Y-51047619D01*
X-7378690Y-50047619D01*
X-6712023Y-51047619D02*
X-6521547Y-51047619D01*
X-6426309Y-51000000D01*
X-6331071Y-50904761D01*
X-6283452Y-50714285D01*
X-6283452Y-50380952D01*
X-6331071Y-50190476D01*
X-6426309Y-50095238D01*
X-6521547Y-50047619D01*
X-6712023Y-50047619D01*
X-6807261Y-50095238D01*
X-6902500Y-50190476D01*
X-6950119Y-50380952D01*
X-6950119Y-50714285D01*
X-6902500Y-50904761D01*
X-6807261Y-51000000D01*
X-6712023Y-51047619D01*
X-5854880Y-50047619D02*
X-5854880Y-51047619D01*
X-5283452Y-50047619D01*
X-5283452Y-51047619D01*
X-4283452Y-50047619D02*
X-4854880Y-50047619D01*
X-4569166Y-50047619D02*
X-4569166Y-51047619D01*
X-4664404Y-50904761D01*
X-4759642Y-50809523D01*
X-4854880Y-50761904D01*
X-3854880Y-50428571D02*
X-3092976Y-50428571D01*
X-3473928Y-50047619D02*
X-3473928Y-50809523D01*
X-10664404Y-36047619D02*
X-10664404Y-37047619D01*
X-9759642Y-36714285D02*
X-9759642Y-35904761D01*
X-9807261Y-35809523D01*
X-9854880Y-35761904D01*
X-9950119Y-35714285D01*
X-10092976Y-35714285D01*
X-10188214Y-35761904D01*
X-9759642Y-36095238D02*
X-9854880Y-36047619D01*
X-10045357Y-36047619D01*
X-10140595Y-36095238D01*
X-10188214Y-36142857D01*
X-10235833Y-36238095D01*
X-10235833Y-36523809D01*
X-10188214Y-36619047D01*
X-10140595Y-36666666D01*
X-10045357Y-36714285D01*
X-9854880Y-36714285D01*
X-9759642Y-36666666D01*
X-9283452Y-36714285D02*
X-9283452Y-36047619D01*
X-9283452Y-36619047D02*
X-9235833Y-36666666D01*
X-9140595Y-36714285D01*
X-8997738Y-36714285D01*
X-8902500Y-36666666D01*
X-8854880Y-36571428D01*
X-8854880Y-36047619D01*
X-8378690Y-36047619D02*
X-8378690Y-36714285D01*
X-8378690Y-37047619D02*
X-8426309Y-37000000D01*
X-8378690Y-36952380D01*
X-8331071Y-37000000D01*
X-8378690Y-37047619D01*
X-8378690Y-36952380D01*
X-8045357Y-36714285D02*
X-7664404Y-36714285D01*
X-7902500Y-37047619D02*
X-7902500Y-36190476D01*
X-7854880Y-36095238D01*
X-7759642Y-36047619D01*
X-7664404Y-36047619D01*
X-7331071Y-36047619D02*
X-7331071Y-36714285D01*
X-7331071Y-37047619D02*
X-7378690Y-37000000D01*
X-7331071Y-36952380D01*
X-7283452Y-37000000D01*
X-7331071Y-37047619D01*
X-7331071Y-36952380D01*
X-6712023Y-36047619D02*
X-6807261Y-36095238D01*
X-6854880Y-36142857D01*
X-6902500Y-36238095D01*
X-6902500Y-36523809D01*
X-6854880Y-36619047D01*
X-6807261Y-36666666D01*
X-6712023Y-36714285D01*
X-6569166Y-36714285D01*
X-6473928Y-36666666D01*
X-6426309Y-36619047D01*
X-6378690Y-36523809D01*
X-6378690Y-36238095D01*
X-6426309Y-36142857D01*
X-6473928Y-36095238D01*
X-6569166Y-36047619D01*
X-6712023Y-36047619D01*
X-5950119Y-36714285D02*
X-5950119Y-36047619D01*
X-5950119Y-36619047D02*
X-5902500Y-36666666D01*
X-5807261Y-36714285D01*
X-5664404Y-36714285D01*
X-5569166Y-36666666D01*
X-5521547Y-36571428D01*
X-5521547Y-36047619D01*
X79452380Y8164404D02*
X78452380Y8164404D01*
X78452380Y7926309D01*
X78500000Y7783452D01*
X78595238Y7688214D01*
X78690476Y7640595D01*
X78880952Y7592976D01*
X79023809Y7592976D01*
X79214285Y7640595D01*
X79309523Y7688214D01*
X79404761Y7783452D01*
X79452380Y7926309D01*
X79452380Y8164404D01*
X79357142Y6592976D02*
X79404761Y6640595D01*
X79452380Y6783452D01*
X79452380Y6878690D01*
X79404761Y7021547D01*
X79309523Y7116785D01*
X79214285Y7164404D01*
X79023809Y7212023D01*
X78880952Y7212023D01*
X78690476Y7164404D01*
X78595238Y7116785D01*
X78500000Y7021547D01*
X78452380Y6878690D01*
X78452380Y6783452D01*
X78500000Y6640595D01*
X78547619Y6592976D01*
X79452380Y6164404D02*
X78452380Y6164404D01*
X78452380Y5926309D01*
X78500000Y5783452D01*
X78595238Y5688214D01*
X78690476Y5640595D01*
X78880952Y5592976D01*
X79023809Y5592976D01*
X79214285Y5640595D01*
X79309523Y5688214D01*
X79404761Y5783452D01*
X79452380Y5926309D01*
X79452380Y6164404D01*
X79357142Y4592976D02*
X79404761Y4640595D01*
X79452380Y4783452D01*
X79452380Y4878690D01*
X79404761Y5021547D01*
X79309523Y5116785D01*
X79214285Y5164404D01*
X79023809Y5212023D01*
X78880952Y5212023D01*
X78690476Y5164404D01*
X78595238Y5116785D01*
X78500000Y5021547D01*
X78452380Y4878690D01*
X78452380Y4783452D01*
X78500000Y4640595D01*
X78547619Y4592976D01*
X79452380Y4164404D02*
X78452380Y4164404D01*
X78785714Y3688214D02*
X79452380Y3688214D01*
X78880952Y3688214D02*
X78833333Y3640595D01*
X78785714Y3545357D01*
X78785714Y3402500D01*
X78833333Y3307261D01*
X78928571Y3259642D01*
X79452380Y3259642D01*
X79071428Y2783452D02*
X79071428Y2021547D01*
X87452380Y8164404D02*
X86452380Y8164404D01*
X87166666Y7831071D01*
X86452380Y7497738D01*
X87452380Y7497738D01*
X87452380Y7021547D02*
X86452380Y7021547D01*
X86452380Y6640595D01*
X86500000Y6545357D01*
X86547619Y6497738D01*
X86642857Y6450119D01*
X86785714Y6450119D01*
X86880952Y6497738D01*
X86928571Y6545357D01*
X86976190Y6640595D01*
X86976190Y7021547D01*
X87452380Y6021547D02*
X86452380Y6021547D01*
X86452380Y5640595D01*
X86500000Y5545357D01*
X86547619Y5497738D01*
X86642857Y5450119D01*
X86785714Y5450119D01*
X86880952Y5497738D01*
X86928571Y5545357D01*
X86976190Y5640595D01*
X86976190Y6021547D01*
X86452380Y5164404D02*
X86452380Y4592976D01*
X87452380Y4878690D02*
X86452380Y4878690D01*
X86928571Y3926309D02*
X86976190Y3783452D01*
X87023809Y3735833D01*
X87119047Y3688214D01*
X87261904Y3688214D01*
X87357142Y3735833D01*
X87404761Y3783452D01*
X87452380Y3878690D01*
X87452380Y4259642D01*
X86452380Y4259642D01*
X86452380Y3926309D01*
X86500000Y3831071D01*
X86547619Y3783452D01*
X86642857Y3735833D01*
X86738095Y3735833D01*
X86833333Y3783452D01*
X86880952Y3831071D01*
X86928571Y3926309D01*
X86928571Y4259642D01*
X87166666Y3307261D02*
X87166666Y2831071D01*
X87452380Y3402500D02*
X86452380Y3069166D01*
X87452380Y2735833D01*
X86452380Y2545357D02*
X86452380Y1973928D01*
X87452380Y2259642D02*
X86452380Y2259642D01*
X87071428Y1640595D02*
X87071428Y878690D01*
X27335595Y-89047619D02*
X27335595Y-90047619D01*
X27668928Y-89333333D01*
X28002261Y-90047619D01*
X28002261Y-89047619D01*
X28478452Y-89047619D02*
X28478452Y-90047619D01*
X28859404Y-90047619D01*
X28954642Y-90000000D01*
X29002261Y-89952380D01*
X29049880Y-89857142D01*
X29049880Y-89714285D01*
X29002261Y-89619047D01*
X28954642Y-89571428D01*
X28859404Y-89523809D01*
X28478452Y-89523809D01*
X29478452Y-89047619D02*
X29478452Y-90047619D01*
X29859404Y-90047619D01*
X29954642Y-90000000D01*
X30002261Y-89952380D01*
X30049880Y-89857142D01*
X30049880Y-89714285D01*
X30002261Y-89619047D01*
X29954642Y-89571428D01*
X29859404Y-89523809D01*
X29478452Y-89523809D01*
X30335595Y-90047619D02*
X30907023Y-90047619D01*
X30621309Y-89047619D02*
X30621309Y-90047619D01*
X31240357Y-89047619D02*
X31240357Y-90047619D01*
X31621309Y-90047619D01*
X31716547Y-90000000D01*
X31764166Y-89952380D01*
X31811785Y-89857142D01*
X31811785Y-89714285D01*
X31764166Y-89619047D01*
X31716547Y-89571428D01*
X31621309Y-89523809D01*
X31240357Y-89523809D01*
X32097500Y-90047619D02*
X32430833Y-89047619D01*
X32764166Y-90047619D01*
X33097500Y-89428571D02*
X33859404Y-89428571D01*
X33478452Y-89047619D02*
X33478452Y-89809523D01*
D11*
%TO.C,J4*%
X-11500000Y-44000000D02*
X-20000000Y-44000000D01*
X-11500000Y-54000000D02*
X-11500000Y-44000000D01*
X-20000000Y-44000000D02*
X-20000000Y-54000000D01*
X-20000000Y-54000000D02*
X-11500000Y-54000000D01*
%TO.C,J14*%
X53950000Y-102500000D02*
X53950000Y-90500000D01*
X38710000Y-103500000D02*
X52840000Y-103500000D01*
X52840000Y-103500000D02*
X53950000Y-102500000D01*
X53950000Y-90500000D02*
X38710000Y-90500000D01*
X38710000Y-90500000D02*
X38710000Y-103500000D01*
%TO.C,S1*%
X123100000Y-10500000D02*
X123100000Y-70500000D01*
X118100000Y-10500000D02*
X118100000Y-70500000D01*
X116500000Y-60820000D02*
X116500000Y-17005000D01*
X141500000Y-70500000D02*
X116500000Y-70500000D01*
X141500000Y-10500000D02*
X141500000Y-70500000D01*
X116500000Y-10500000D02*
X141465000Y-10500000D01*
X91500000Y-102000000D02*
X92500000Y-103000000D01*
X92500000Y-103000000D02*
X116500000Y-103000000D01*
X116500000Y-103000000D02*
X116500000Y22000000D01*
X116500000Y22000000D02*
X91500000Y22000000D01*
X91500000Y22000000D02*
X91500000Y-102000000D01*
%TO.C,J26*%
X165630000Y-18330000D02*
X165630000Y-15670000D01*
X168230000Y-18330000D02*
X165630000Y-18330000D01*
X168230000Y-15670000D02*
X165630000Y-15670000D01*
X168230000Y-18330000D02*
X168230000Y-15670000D01*
X169500000Y-18330000D02*
X170830000Y-18330000D01*
X170830000Y-18330000D02*
X170830000Y-17000000D01*
%TO.C,J6*%
X11110000Y-102500000D02*
X11110000Y-90500000D01*
X-4130000Y-103500000D02*
X10000000Y-103500000D01*
X10000000Y-103500000D02*
X11110000Y-102500000D01*
X11110000Y-90500000D02*
X-4130000Y-90500000D01*
X-4130000Y-90500000D02*
X-4130000Y-103500000D01*
%TO.C,J12*%
X117655000Y21500000D02*
X117655000Y9500000D01*
X132895000Y22500000D02*
X118765000Y22500000D01*
X118765000Y22500000D02*
X117655000Y21500000D01*
X117655000Y9500000D02*
X132895000Y9500000D01*
X132895000Y9500000D02*
X132895000Y22500000D01*
%TO.C,J10*%
X75190000Y21500000D02*
X75190000Y9500000D01*
X90430000Y22500000D02*
X76300000Y22500000D01*
X76300000Y22500000D02*
X75190000Y21500000D01*
X75190000Y9500000D02*
X90430000Y9500000D01*
X90430000Y9500000D02*
X90430000Y22500000D01*
%TO.C,J15*%
X-11500000Y-34000000D02*
X-20000000Y-34000000D01*
X-11500000Y-44000000D02*
X-11500000Y-34000000D01*
X-20000000Y-34000000D02*
X-20000000Y-44000000D01*
X-20000000Y-44000000D02*
X-11500000Y-44000000D01*
%TO.C,J13*%
X38810000Y-102500000D02*
X38810000Y-90500000D01*
X23570000Y-103500000D02*
X37700000Y-103500000D01*
X37700000Y-103500000D02*
X38810000Y-102500000D01*
X38810000Y-90500000D02*
X23570000Y-90500000D01*
X23570000Y-90500000D02*
X23570000Y-103500000D01*
%TO.C,J1*%
X84110000Y-102500000D02*
X84110000Y-90500000D01*
X68870000Y-103500000D02*
X83000000Y-103500000D01*
X83000000Y-103500000D02*
X84110000Y-102500000D01*
X84110000Y-90500000D02*
X68870000Y-90500000D01*
X68870000Y-90500000D02*
X68870000Y-103500000D01*
%TO.C,J4*%
D10*
X-10547619Y-48166666D02*
X-9833333Y-48166666D01*
X-9690476Y-48119047D01*
X-9595238Y-48023809D01*
X-9547619Y-47880952D01*
X-9547619Y-47785714D01*
X-10214285Y-49071428D02*
X-9547619Y-49071428D01*
X-10595238Y-48833333D02*
X-9880952Y-48595238D01*
X-9880952Y-49214285D01*
%TO.C,J14*%
X56309523Y-91452380D02*
X56309523Y-92166666D01*
X56357142Y-92309523D01*
X56452380Y-92404761D01*
X56595238Y-92452380D01*
X56690476Y-92452380D01*
X55309523Y-92452380D02*
X55880952Y-92452380D01*
X55595238Y-92452380D02*
X55595238Y-91452380D01*
X55690476Y-91595238D01*
X55785714Y-91690476D01*
X55880952Y-91738095D01*
X54452380Y-91785714D02*
X54452380Y-92452380D01*
X54690476Y-91404761D02*
X54928571Y-92119047D01*
X54309523Y-92119047D01*
%TO.C,S1*%
X118404761Y-7738095D02*
X118452380Y-7880952D01*
X118452380Y-8119047D01*
X118404761Y-8214285D01*
X118357142Y-8261904D01*
X118261904Y-8309523D01*
X118166666Y-8309523D01*
X118071428Y-8261904D01*
X118023809Y-8214285D01*
X117976190Y-8119047D01*
X117928571Y-7928571D01*
X117880952Y-7833333D01*
X117833333Y-7785714D01*
X117738095Y-7738095D01*
X117642857Y-7738095D01*
X117547619Y-7785714D01*
X117500000Y-7833333D01*
X117452380Y-7928571D01*
X117452380Y-8166666D01*
X117500000Y-8309523D01*
X118452380Y-9261904D02*
X118452380Y-8690476D01*
X118452380Y-8976190D02*
X117452380Y-8976190D01*
X117595238Y-8880952D01*
X117690476Y-8785714D01*
X117738095Y-8690476D01*
%TO.C,J26*%
X171282380Y-16190476D02*
X171996666Y-16190476D01*
X172139523Y-16142857D01*
X172234761Y-16047619D01*
X172282380Y-15904761D01*
X172282380Y-15809523D01*
X171377619Y-16619047D02*
X171330000Y-16666666D01*
X171282380Y-16761904D01*
X171282380Y-17000000D01*
X171330000Y-17095238D01*
X171377619Y-17142857D01*
X171472857Y-17190476D01*
X171568095Y-17190476D01*
X171710952Y-17142857D01*
X172282380Y-16571428D01*
X172282380Y-17190476D01*
X171282380Y-18047619D02*
X171282380Y-17857142D01*
X171330000Y-17761904D01*
X171377619Y-17714285D01*
X171520476Y-17619047D01*
X171710952Y-17571428D01*
X172091904Y-17571428D01*
X172187142Y-17619047D01*
X172234761Y-17666666D01*
X172282380Y-17761904D01*
X172282380Y-17952380D01*
X172234761Y-18047619D01*
X172187142Y-18095238D01*
X172091904Y-18142857D01*
X171853809Y-18142857D01*
X171758571Y-18095238D01*
X171710952Y-18047619D01*
X171663333Y-17952380D01*
X171663333Y-17761904D01*
X171710952Y-17666666D01*
X171758571Y-17619047D01*
X171853809Y-17571428D01*
%TO.C,J6*%
X4133333Y-88952380D02*
X4133333Y-89666666D01*
X4180952Y-89809523D01*
X4276190Y-89904761D01*
X4419047Y-89952380D01*
X4514285Y-89952380D01*
X3228571Y-88952380D02*
X3419047Y-88952380D01*
X3514285Y-89000000D01*
X3561904Y-89047619D01*
X3657142Y-89190476D01*
X3704761Y-89380952D01*
X3704761Y-89761904D01*
X3657142Y-89857142D01*
X3609523Y-89904761D01*
X3514285Y-89952380D01*
X3323809Y-89952380D01*
X3228571Y-89904761D01*
X3180952Y-89857142D01*
X3133333Y-89761904D01*
X3133333Y-89523809D01*
X3180952Y-89428571D01*
X3228571Y-89380952D01*
X3323809Y-89333333D01*
X3514285Y-89333333D01*
X3609523Y-89380952D01*
X3657142Y-89428571D01*
X3704761Y-89523809D01*
%TO.C,J12*%
X125809523Y8047619D02*
X125809523Y7333333D01*
X125857142Y7190476D01*
X125952380Y7095238D01*
X126095238Y7047619D01*
X126190476Y7047619D01*
X124809523Y7047619D02*
X125380952Y7047619D01*
X125095238Y7047619D02*
X125095238Y8047619D01*
X125190476Y7904761D01*
X125285714Y7809523D01*
X125380952Y7761904D01*
X124428571Y7952380D02*
X124380952Y8000000D01*
X124285714Y8047619D01*
X124047619Y8047619D01*
X123952380Y8000000D01*
X123904761Y7952380D01*
X123857142Y7857142D01*
X123857142Y7761904D01*
X123904761Y7619047D01*
X124476190Y7047619D01*
X123857142Y7047619D01*
%TO.C,J10*%
X82609523Y8047619D02*
X82609523Y7333333D01*
X82657142Y7190476D01*
X82752380Y7095238D01*
X82895238Y7047619D01*
X82990476Y7047619D01*
X81609523Y7047619D02*
X82180952Y7047619D01*
X81895238Y7047619D02*
X81895238Y8047619D01*
X81990476Y7904761D01*
X82085714Y7809523D01*
X82180952Y7761904D01*
X80990476Y8047619D02*
X80895238Y8047619D01*
X80800000Y8000000D01*
X80752380Y7952380D01*
X80704761Y7857142D01*
X80657142Y7666666D01*
X80657142Y7428571D01*
X80704761Y7238095D01*
X80752380Y7142857D01*
X80800000Y7095238D01*
X80895238Y7047619D01*
X80990476Y7047619D01*
X81085714Y7095238D01*
X81133333Y7142857D01*
X81180952Y7238095D01*
X81228571Y7428571D01*
X81228571Y7666666D01*
X81180952Y7857142D01*
X81133333Y7952380D01*
X81085714Y8000000D01*
X80990476Y8047619D01*
%TO.C,J15*%
X-10547619Y-38690476D02*
X-9833333Y-38690476D01*
X-9690476Y-38642857D01*
X-9595238Y-38547619D01*
X-9547619Y-38404761D01*
X-9547619Y-38309523D01*
X-9547619Y-39690476D02*
X-9547619Y-39119047D01*
X-9547619Y-39404761D02*
X-10547619Y-39404761D01*
X-10404761Y-39309523D01*
X-10309523Y-39214285D01*
X-10261904Y-39119047D01*
X-10547619Y-40595238D02*
X-10547619Y-40119047D01*
X-10071428Y-40071428D01*
X-10119047Y-40119047D01*
X-10166666Y-40214285D01*
X-10166666Y-40452380D01*
X-10119047Y-40547619D01*
X-10071428Y-40595238D01*
X-9976190Y-40642857D01*
X-9738095Y-40642857D01*
X-9642857Y-40595238D01*
X-9595238Y-40547619D01*
X-9547619Y-40452380D01*
X-9547619Y-40214285D01*
X-9595238Y-40119047D01*
X-9642857Y-40071428D01*
%TO.C,J13*%
X22809523Y-91452380D02*
X22809523Y-92166666D01*
X22857142Y-92309523D01*
X22952380Y-92404761D01*
X23095238Y-92452380D01*
X23190476Y-92452380D01*
X21809523Y-92452380D02*
X22380952Y-92452380D01*
X22095238Y-92452380D02*
X22095238Y-91452380D01*
X22190476Y-91595238D01*
X22285714Y-91690476D01*
X22380952Y-91738095D01*
X21476190Y-91452380D02*
X20857142Y-91452380D01*
X21190476Y-91833333D01*
X21047619Y-91833333D01*
X20952380Y-91880952D01*
X20904761Y-91928571D01*
X20857142Y-92023809D01*
X20857142Y-92261904D01*
X20904761Y-92357142D01*
X20952380Y-92404761D01*
X21047619Y-92452380D01*
X21333333Y-92452380D01*
X21428571Y-92404761D01*
X21476190Y-92357142D01*
%TO.C,J1*%
X77433333Y-88952380D02*
X77433333Y-89666666D01*
X77480952Y-89809523D01*
X77576190Y-89904761D01*
X77719047Y-89952380D01*
X77814285Y-89952380D01*
X76433333Y-89952380D02*
X77004761Y-89952380D01*
X76719047Y-89952380D02*
X76719047Y-88952380D01*
X76814285Y-89095238D01*
X76909523Y-89190476D01*
X77004761Y-89238095D01*
%TD*%
M02*
