%TF.GenerationSoftware,KiCad,Pcbnew,(5.1.8)-1*%
%TF.CreationDate,2021-07-20T16:41:24+02:00*%
%TF.ProjectId,FJElectricsPCBBack,464a456c-6563-4747-9269-637350434242,rev?*%
%TF.SameCoordinates,Original*%
%TF.FileFunction,Soldermask,Bot*%
%TF.FilePolarity,Negative*%
%FSLAX46Y46*%
G04 Gerber Fmt 4.6, Leading zero omitted, Abs format (unit mm)*
G04 Created by KiCad (PCBNEW (5.1.8)-1) date 2021-07-20 16:41:24*
%MOMM*%
%LPD*%
G01*
G04 APERTURE LIST*
%ADD10C,1.800000*%
%ADD11R,1.800000X1.800000*%
%ADD12O,1.600000X1.600000*%
%ADD13C,1.600000*%
%ADD14O,3.600000X3.600000*%
%ADD15C,3.200000*%
%ADD16C,2.000000*%
%ADD17R,8.000000X8.000000*%
%ADD18O,6.000000X7.620000*%
%ADD19C,1.200000*%
%ADD20O,20.000000X20.000000*%
%ADD21C,15.000000*%
%ADD22O,1.700000X1.700000*%
%ADD23R,1.700000X1.700000*%
%ADD24C,20.000000*%
G04 APERTURE END LIST*
D10*
%TO.C,Fuse7*%
X4540000Y-70500000D03*
D11*
X2000000Y-70500000D03*
%TD*%
D12*
%TO.C,R7*%
X-14000000Y-55340000D03*
D13*
X-14000000Y-65500000D03*
%TD*%
D14*
%TO.C,J4*%
X-16000000Y-51500000D03*
X-16000000Y-46500000D03*
%TD*%
D15*
%TO.C,H25*%
X157400000Y15500000D03*
%TD*%
%TO.C,H23*%
X157400000Y-96500000D03*
%TD*%
D16*
%TO.C,Fuse_8*%
X141000000Y-22000000D03*
X135000000Y-28500000D03*
X141000000Y-35000000D03*
X147500000Y-28500000D03*
X136500000Y-33500000D03*
X145500000Y-33500000D03*
X145500000Y-23500000D03*
X136500000Y-23500000D03*
X187500000Y-23500000D03*
X196500000Y-23500000D03*
X196500000Y-33500000D03*
X187500000Y-33500000D03*
X186000000Y-28500000D03*
X198500000Y-28500000D03*
X192000000Y-35000000D03*
X192000000Y-22000000D03*
G36*
G01*
X149850000Y-21700000D02*
X149850000Y-35300000D01*
G75*
G02*
X148150000Y-37000000I-1700000J0D01*
G01*
X134550000Y-37000000D01*
G75*
G02*
X132850000Y-35300000I0J1700000D01*
G01*
X132850000Y-21700000D01*
G75*
G02*
X134550000Y-20000000I1700000J0D01*
G01*
X148150000Y-20000000D01*
G75*
G02*
X149850000Y-21700000I0J-1700000D01*
G01*
G37*
G36*
G01*
X200650000Y-21700000D02*
X200650000Y-35300000D01*
G75*
G02*
X198950000Y-37000000I-1700000J0D01*
G01*
X185350000Y-37000000D01*
G75*
G02*
X183650000Y-35300000I0J1700000D01*
G01*
X183650000Y-21700000D01*
G75*
G02*
X185350000Y-20000000I1700000J0D01*
G01*
X198950000Y-20000000D01*
G75*
G02*
X200650000Y-21700000I0J-1700000D01*
G01*
G37*
D17*
X180000000Y-28000000D03*
G36*
G01*
X178600000Y-24800000D02*
X178600000Y-31200000D01*
G75*
G02*
X177800000Y-32000000I-800000J0D01*
G01*
X171400000Y-32000000D01*
G75*
G02*
X170600000Y-31200000I0J800000D01*
G01*
X170600000Y-24800000D01*
G75*
G02*
X171400000Y-24000000I800000J0D01*
G01*
X177800000Y-24000000D01*
G75*
G02*
X178600000Y-24800000I0J-800000D01*
G01*
G37*
X153500000Y-28000000D03*
G36*
G01*
X162900000Y-24800000D02*
X162900000Y-31200000D01*
G75*
G02*
X162100000Y-32000000I-800000J0D01*
G01*
X155700000Y-32000000D01*
G75*
G02*
X154900000Y-31200000I0J800000D01*
G01*
X154900000Y-24800000D01*
G75*
G02*
X155700000Y-24000000I800000J0D01*
G01*
X162100000Y-24000000D01*
G75*
G02*
X162900000Y-24800000I0J-800000D01*
G01*
G37*
%TD*%
D15*
%TO.C,H45*%
X177000000Y-40500000D03*
%TD*%
%TO.C,H43*%
X156200000Y-40500000D03*
%TD*%
%TO.C,H42*%
X157400000Y-13500000D03*
%TD*%
%TO.C,H41*%
X157400000Y-67500000D03*
%TD*%
D18*
%TO.C,J14*%
X42520000Y-95500000D03*
X50140000Y-95500000D03*
%TD*%
D15*
%TO.C,H40*%
X51500000Y-79500000D03*
%TD*%
%TO.C,H11*%
X18000000Y-49500000D03*
%TD*%
D19*
%TO.C,S1*%
X98155000Y-18355000D03*
X109715000Y-18355000D03*
X96380000Y-13195000D03*
X109715000Y-8355000D03*
X104000000Y-5575000D03*
X104000000Y-20815000D03*
X98155000Y-8355000D03*
X111620000Y-13195000D03*
X109715000Y-72885000D03*
X98285000Y-72885000D03*
X104000000Y-60185000D03*
X111620000Y-67805000D03*
X109715000Y-62965000D03*
X96380000Y-67965000D03*
X98285000Y-62965000D03*
X104000000Y-75425000D03*
D20*
X104000000Y-13000000D03*
X104000000Y-68000000D03*
%TD*%
D15*
%TO.C,J28*%
X72000000Y-4120000D03*
X61000000Y-4120000D03*
D16*
X66500000Y-19170000D03*
D21*
X66500000Y5430000D03*
D16*
X61000000Y5330000D03*
X70500000Y9330000D03*
X62500000Y9330000D03*
X62500000Y1830000D03*
X62500000Y-9670000D03*
X70500000Y1830000D03*
X72000000Y5330000D03*
X66500000Y-8170000D03*
X70500000Y-9670000D03*
X66500000Y10830000D03*
D21*
X66500000Y-13670000D03*
D16*
X61000000Y-13670000D03*
X70500000Y-17670000D03*
X66500000Y-170000D03*
X72000000Y-13670000D03*
X62500000Y-17670000D03*
%TD*%
D15*
%TO.C,J27*%
X45000000Y-3950000D03*
X34000000Y-3950000D03*
D16*
X39500000Y-19000000D03*
D21*
X39500000Y5600000D03*
D16*
X34000000Y5500000D03*
X43500000Y9500000D03*
X35500000Y9500000D03*
X35500000Y2000000D03*
X35500000Y-9500000D03*
X43500000Y2000000D03*
X45000000Y5500000D03*
X39500000Y-8000000D03*
X43500000Y-9500000D03*
X39500000Y11000000D03*
D21*
X39500000Y-13500000D03*
D16*
X34000000Y-13500000D03*
X43500000Y-17500000D03*
X39500000Y0D03*
X45000000Y-13500000D03*
X35500000Y-17500000D03*
%TD*%
D15*
%TO.C,J7*%
X18000000Y-3950000D03*
X7000000Y-3950000D03*
D16*
X12500000Y-19000000D03*
D21*
X12500000Y5600000D03*
D16*
X7000000Y5500000D03*
X16500000Y9500000D03*
X8500000Y9500000D03*
X8500000Y2000000D03*
X8500000Y-9500000D03*
X16500000Y2000000D03*
X18000000Y5500000D03*
X12500000Y-8000000D03*
X16500000Y-9500000D03*
X12500000Y11000000D03*
D21*
X12500000Y-13500000D03*
D16*
X7000000Y-13500000D03*
X16500000Y-17500000D03*
X12500000Y0D03*
X18000000Y-13500000D03*
X8500000Y-17500000D03*
%TD*%
D22*
%TO.C,J26*%
X166960000Y-17000000D03*
D23*
X169500000Y-17000000D03*
%TD*%
%TO.C,J25*%
G36*
G01*
X37800000Y-78500000D02*
X37800000Y-84200000D01*
G75*
G02*
X36300000Y-85700000I-1500000J0D01*
G01*
X33300000Y-85700000D01*
G75*
G02*
X31800000Y-84200000I0J1500000D01*
G01*
X31800000Y-78500000D01*
G75*
G02*
X33300000Y-77000000I1500000J0D01*
G01*
X36300000Y-77000000D01*
G75*
G02*
X37800000Y-78500000I0J-1500000D01*
G01*
G37*
G36*
G01*
X45700000Y-78500000D02*
X45700000Y-84200000D01*
G75*
G02*
X44200000Y-85700000I-1500000J0D01*
G01*
X41200000Y-85700000D01*
G75*
G02*
X39700000Y-84200000I0J1500000D01*
G01*
X39700000Y-78500000D01*
G75*
G02*
X41200000Y-77000000I1500000J0D01*
G01*
X44200000Y-77000000D01*
G75*
G02*
X45700000Y-78500000I0J-1500000D01*
G01*
G37*
%TD*%
D15*
%TO.C,H39*%
X39500000Y17500000D03*
%TD*%
%TO.C,H38*%
X66500000Y17500000D03*
%TD*%
%TO.C,H37*%
X39500000Y-25500000D03*
%TD*%
%TO.C,H36*%
X12500000Y17500000D03*
%TD*%
%TO.C,H35*%
X12500000Y-25500000D03*
%TD*%
%TO.C,H34*%
X66500000Y-25500000D03*
%TD*%
%TO.C,H33*%
X197000000Y1000000D03*
%TD*%
%TO.C,H32*%
X-15000000Y-79500000D03*
%TD*%
%TO.C,H27*%
X141500000Y1000000D03*
%TD*%
%TO.C,H22*%
X141500000Y-82000000D03*
%TD*%
%TO.C,H19*%
X197000000Y-82000000D03*
%TD*%
D16*
%TO.C,J18*%
X176500000Y-76500000D03*
X185500000Y-87500000D03*
X181000000Y-89000000D03*
X181000000Y-75000000D03*
X185500000Y-76500000D03*
X164400000Y-82000000D03*
X150400000Y-82000000D03*
D24*
X181000000Y-82000000D03*
X157400000Y-82000000D03*
D16*
X188000000Y-82000000D03*
X174000000Y-82000000D03*
X157400000Y-75000000D03*
X161900000Y-76500000D03*
X176500000Y-87500000D03*
X161900000Y-87500000D03*
X157400000Y-89000000D03*
X152900000Y-76500000D03*
X152900000Y-87500000D03*
%TD*%
%TO.C,J22*%
X176500000Y6500000D03*
X185500000Y-4500000D03*
X181000000Y-6000000D03*
X181000000Y8000000D03*
X185500000Y6500000D03*
X164400000Y1000000D03*
X150400000Y1000000D03*
D24*
X181000000Y1000000D03*
X157400000Y1000000D03*
D16*
X188000000Y1000000D03*
X174000000Y1000000D03*
X157400000Y8000000D03*
X161900000Y6500000D03*
X176500000Y-4500000D03*
X161900000Y-4500000D03*
X157400000Y-6000000D03*
X152900000Y6500000D03*
X152900000Y-4500000D03*
%TD*%
%TO.C,J21*%
G36*
G01*
X53580000Y-5550000D02*
X57420000Y-5550000D01*
G75*
G02*
X57900000Y-6030000I0J-480000D01*
G01*
X57900000Y-11070000D01*
G75*
G02*
X57420000Y-11550000I-480000J0D01*
G01*
X53580000Y-11550000D01*
G75*
G02*
X53100000Y-11070000I0J480000D01*
G01*
X53100000Y-6030000D01*
G75*
G02*
X53580000Y-5550000I480000J0D01*
G01*
G37*
G36*
G01*
X48600000Y-5550000D02*
X52440000Y-5550000D01*
G75*
G02*
X52920000Y-6030000I0J-480000D01*
G01*
X52920000Y-11070000D01*
G75*
G02*
X52440000Y-11550000I-480000J0D01*
G01*
X48600000Y-11550000D01*
G75*
G02*
X48120000Y-11070000I0J480000D01*
G01*
X48120000Y-6030000D01*
G75*
G02*
X48600000Y-5550000I480000J0D01*
G01*
G37*
G36*
G01*
X53580000Y-15840000D02*
X57420000Y-15840000D01*
G75*
G02*
X57900000Y-16320000I0J-480000D01*
G01*
X57900000Y-21360000D01*
G75*
G02*
X57420000Y-21840000I-480000J0D01*
G01*
X53580000Y-21840000D01*
G75*
G02*
X53100000Y-21360000I0J480000D01*
G01*
X53100000Y-16320000D01*
G75*
G02*
X53580000Y-15840000I480000J0D01*
G01*
G37*
G36*
G01*
X48600000Y-15840000D02*
X52440000Y-15840000D01*
G75*
G02*
X52920000Y-16320000I0J-480000D01*
G01*
X52920000Y-21360000D01*
G75*
G02*
X52440000Y-21840000I-480000J0D01*
G01*
X48600000Y-21840000D01*
G75*
G02*
X48120000Y-21360000I0J480000D01*
G01*
X48120000Y-16320000D01*
G75*
G02*
X48600000Y-15840000I480000J0D01*
G01*
G37*
G36*
G01*
X48600000Y3210000D02*
X52440000Y3210000D01*
G75*
G02*
X52920000Y2730000I0J-480000D01*
G01*
X52920000Y-2310000D01*
G75*
G02*
X52440000Y-2790000I-480000J0D01*
G01*
X48600000Y-2790000D01*
G75*
G02*
X48120000Y-2310000I0J480000D01*
G01*
X48120000Y2730000D01*
G75*
G02*
X48600000Y3210000I480000J0D01*
G01*
G37*
G36*
G01*
X48600000Y13500000D02*
X52440000Y13500000D01*
G75*
G02*
X52920000Y13020000I0J-480000D01*
G01*
X52920000Y7980000D01*
G75*
G02*
X52440000Y7500000I-480000J0D01*
G01*
X48600000Y7500000D01*
G75*
G02*
X48120000Y7980000I0J480000D01*
G01*
X48120000Y13020000D01*
G75*
G02*
X48600000Y13500000I480000J0D01*
G01*
G37*
G36*
G01*
X53580000Y3210000D02*
X57420000Y3210000D01*
G75*
G02*
X57900000Y2730000I0J-480000D01*
G01*
X57900000Y-2310000D01*
G75*
G02*
X57420000Y-2790000I-480000J0D01*
G01*
X53580000Y-2790000D01*
G75*
G02*
X53100000Y-2310000I0J480000D01*
G01*
X53100000Y2730000D01*
G75*
G02*
X53580000Y3210000I480000J0D01*
G01*
G37*
G36*
G01*
X53580000Y13500000D02*
X57420000Y13500000D01*
G75*
G02*
X57900000Y13020000I0J-480000D01*
G01*
X57900000Y7980000D01*
G75*
G02*
X57420000Y7500000I-480000J0D01*
G01*
X53580000Y7500000D01*
G75*
G02*
X53100000Y7980000I0J480000D01*
G01*
X53100000Y13020000D01*
G75*
G02*
X53580000Y13500000I480000J0D01*
G01*
G37*
%TD*%
%TO.C,J20*%
G36*
G01*
X26580000Y-5550000D02*
X30420000Y-5550000D01*
G75*
G02*
X30900000Y-6030000I0J-480000D01*
G01*
X30900000Y-11070000D01*
G75*
G02*
X30420000Y-11550000I-480000J0D01*
G01*
X26580000Y-11550000D01*
G75*
G02*
X26100000Y-11070000I0J480000D01*
G01*
X26100000Y-6030000D01*
G75*
G02*
X26580000Y-5550000I480000J0D01*
G01*
G37*
G36*
G01*
X21600000Y-5550000D02*
X25440000Y-5550000D01*
G75*
G02*
X25920000Y-6030000I0J-480000D01*
G01*
X25920000Y-11070000D01*
G75*
G02*
X25440000Y-11550000I-480000J0D01*
G01*
X21600000Y-11550000D01*
G75*
G02*
X21120000Y-11070000I0J480000D01*
G01*
X21120000Y-6030000D01*
G75*
G02*
X21600000Y-5550000I480000J0D01*
G01*
G37*
G36*
G01*
X26580000Y-15840000D02*
X30420000Y-15840000D01*
G75*
G02*
X30900000Y-16320000I0J-480000D01*
G01*
X30900000Y-21360000D01*
G75*
G02*
X30420000Y-21840000I-480000J0D01*
G01*
X26580000Y-21840000D01*
G75*
G02*
X26100000Y-21360000I0J480000D01*
G01*
X26100000Y-16320000D01*
G75*
G02*
X26580000Y-15840000I480000J0D01*
G01*
G37*
G36*
G01*
X21600000Y-15840000D02*
X25440000Y-15840000D01*
G75*
G02*
X25920000Y-16320000I0J-480000D01*
G01*
X25920000Y-21360000D01*
G75*
G02*
X25440000Y-21840000I-480000J0D01*
G01*
X21600000Y-21840000D01*
G75*
G02*
X21120000Y-21360000I0J480000D01*
G01*
X21120000Y-16320000D01*
G75*
G02*
X21600000Y-15840000I480000J0D01*
G01*
G37*
G36*
G01*
X21600000Y3210000D02*
X25440000Y3210000D01*
G75*
G02*
X25920000Y2730000I0J-480000D01*
G01*
X25920000Y-2310000D01*
G75*
G02*
X25440000Y-2790000I-480000J0D01*
G01*
X21600000Y-2790000D01*
G75*
G02*
X21120000Y-2310000I0J480000D01*
G01*
X21120000Y2730000D01*
G75*
G02*
X21600000Y3210000I480000J0D01*
G01*
G37*
G36*
G01*
X21600000Y13500000D02*
X25440000Y13500000D01*
G75*
G02*
X25920000Y13020000I0J-480000D01*
G01*
X25920000Y7980000D01*
G75*
G02*
X25440000Y7500000I-480000J0D01*
G01*
X21600000Y7500000D01*
G75*
G02*
X21120000Y7980000I0J480000D01*
G01*
X21120000Y13020000D01*
G75*
G02*
X21600000Y13500000I480000J0D01*
G01*
G37*
G36*
G01*
X26580000Y3210000D02*
X30420000Y3210000D01*
G75*
G02*
X30900000Y2730000I0J-480000D01*
G01*
X30900000Y-2310000D01*
G75*
G02*
X30420000Y-2790000I-480000J0D01*
G01*
X26580000Y-2790000D01*
G75*
G02*
X26100000Y-2310000I0J480000D01*
G01*
X26100000Y2730000D01*
G75*
G02*
X26580000Y3210000I480000J0D01*
G01*
G37*
G36*
G01*
X26580000Y13500000D02*
X30420000Y13500000D01*
G75*
G02*
X30900000Y13020000I0J-480000D01*
G01*
X30900000Y7980000D01*
G75*
G02*
X30420000Y7500000I-480000J0D01*
G01*
X26580000Y7500000D01*
G75*
G02*
X26100000Y7980000I0J480000D01*
G01*
X26100000Y13020000D01*
G75*
G02*
X26580000Y13500000I480000J0D01*
G01*
G37*
%TD*%
%TO.C,J19*%
G36*
G01*
X-420000Y-5550000D02*
X3420000Y-5550000D01*
G75*
G02*
X3900000Y-6030000I0J-480000D01*
G01*
X3900000Y-11070000D01*
G75*
G02*
X3420000Y-11550000I-480000J0D01*
G01*
X-420000Y-11550000D01*
G75*
G02*
X-900000Y-11070000I0J480000D01*
G01*
X-900000Y-6030000D01*
G75*
G02*
X-420000Y-5550000I480000J0D01*
G01*
G37*
G36*
G01*
X-5400000Y-5550000D02*
X-1560000Y-5550000D01*
G75*
G02*
X-1080000Y-6030000I0J-480000D01*
G01*
X-1080000Y-11070000D01*
G75*
G02*
X-1560000Y-11550000I-480000J0D01*
G01*
X-5400000Y-11550000D01*
G75*
G02*
X-5880000Y-11070000I0J480000D01*
G01*
X-5880000Y-6030000D01*
G75*
G02*
X-5400000Y-5550000I480000J0D01*
G01*
G37*
G36*
G01*
X-420000Y-15840000D02*
X3420000Y-15840000D01*
G75*
G02*
X3900000Y-16320000I0J-480000D01*
G01*
X3900000Y-21360000D01*
G75*
G02*
X3420000Y-21840000I-480000J0D01*
G01*
X-420000Y-21840000D01*
G75*
G02*
X-900000Y-21360000I0J480000D01*
G01*
X-900000Y-16320000D01*
G75*
G02*
X-420000Y-15840000I480000J0D01*
G01*
G37*
G36*
G01*
X-5400000Y-15840000D02*
X-1560000Y-15840000D01*
G75*
G02*
X-1080000Y-16320000I0J-480000D01*
G01*
X-1080000Y-21360000D01*
G75*
G02*
X-1560000Y-21840000I-480000J0D01*
G01*
X-5400000Y-21840000D01*
G75*
G02*
X-5880000Y-21360000I0J480000D01*
G01*
X-5880000Y-16320000D01*
G75*
G02*
X-5400000Y-15840000I480000J0D01*
G01*
G37*
G36*
G01*
X-5400000Y3210000D02*
X-1560000Y3210000D01*
G75*
G02*
X-1080000Y2730000I0J-480000D01*
G01*
X-1080000Y-2310000D01*
G75*
G02*
X-1560000Y-2790000I-480000J0D01*
G01*
X-5400000Y-2790000D01*
G75*
G02*
X-5880000Y-2310000I0J480000D01*
G01*
X-5880000Y2730000D01*
G75*
G02*
X-5400000Y3210000I480000J0D01*
G01*
G37*
G36*
G01*
X-5400000Y13500000D02*
X-1560000Y13500000D01*
G75*
G02*
X-1080000Y13020000I0J-480000D01*
G01*
X-1080000Y7980000D01*
G75*
G02*
X-1560000Y7500000I-480000J0D01*
G01*
X-5400000Y7500000D01*
G75*
G02*
X-5880000Y7980000I0J480000D01*
G01*
X-5880000Y13020000D01*
G75*
G02*
X-5400000Y13500000I480000J0D01*
G01*
G37*
G36*
G01*
X-420000Y3210000D02*
X3420000Y3210000D01*
G75*
G02*
X3900000Y2730000I0J-480000D01*
G01*
X3900000Y-2310000D01*
G75*
G02*
X3420000Y-2790000I-480000J0D01*
G01*
X-420000Y-2790000D01*
G75*
G02*
X-900000Y-2310000I0J480000D01*
G01*
X-900000Y2730000D01*
G75*
G02*
X-420000Y3210000I480000J0D01*
G01*
G37*
G36*
G01*
X-420000Y13500000D02*
X3420000Y13500000D01*
G75*
G02*
X3900000Y13020000I0J-480000D01*
G01*
X3900000Y7980000D01*
G75*
G02*
X3420000Y7500000I-480000J0D01*
G01*
X-420000Y7500000D01*
G75*
G02*
X-900000Y7980000I0J480000D01*
G01*
X-900000Y13020000D01*
G75*
G02*
X-420000Y13500000I480000J0D01*
G01*
G37*
%TD*%
D15*
%TO.C,H31*%
X-15000000Y17500000D03*
%TD*%
%TO.C,H16*%
X26000000Y-79500000D03*
%TD*%
%TO.C,H21*%
X200000000Y17500000D03*
%TD*%
%TO.C,H3*%
X137000000Y17500000D03*
%TD*%
%TO.C,H28*%
X181000000Y-13500000D03*
%TD*%
%TO.C,H10*%
X45000000Y-49500000D03*
%TD*%
%TO.C,H17*%
X181000000Y-67500000D03*
%TD*%
%TO.C,H8*%
X181000000Y15500000D03*
%TD*%
%TO.C,H15*%
X58000000Y-98500000D03*
%TD*%
%TO.C,H12*%
X-15000000Y-25500000D03*
%TD*%
%TO.C,H13*%
X3000000Y-79500000D03*
%TD*%
%TO.C,H20*%
X78000000Y-79500000D03*
%TD*%
%TO.C,H9*%
X61000000Y-79500000D03*
%TD*%
%TO.C,H18*%
X181000000Y-96500000D03*
%TD*%
%TO.C,H5*%
X-15000000Y-98500000D03*
%TD*%
%TO.C,H1*%
X200000000Y-98500000D03*
%TD*%
D18*
%TO.C,J6*%
X-320000Y-95500000D03*
X7300000Y-95500000D03*
%TD*%
D12*
%TO.C,R1*%
X3000000Y-55340000D03*
D13*
X3000000Y-65500000D03*
%TD*%
%TO.C,Fuse_6*%
G36*
G01*
X14700000Y-89000000D02*
X8300000Y-89000000D01*
G75*
G02*
X7500000Y-88200000I0J800000D01*
G01*
X7500000Y-81800000D01*
G75*
G02*
X8300000Y-81000000I800000J0D01*
G01*
X14700000Y-81000000D01*
G75*
G02*
X15500000Y-81800000I0J-800000D01*
G01*
X15500000Y-88200000D01*
G75*
G02*
X14700000Y-89000000I-800000J0D01*
G01*
G37*
G36*
G01*
X14700000Y-83600000D02*
X8300000Y-83600000D01*
G75*
G02*
X7500000Y-82800000I0J800000D01*
G01*
X7500000Y-76400000D01*
G75*
G02*
X8300000Y-75600000I800000J0D01*
G01*
X14700000Y-75600000D01*
G75*
G02*
X15500000Y-76400000I0J-800000D01*
G01*
X15500000Y-82800000D01*
G75*
G02*
X14700000Y-83600000I-800000J0D01*
G01*
G37*
G36*
G01*
X14700000Y-67900000D02*
X8300000Y-67900000D01*
G75*
G02*
X7500000Y-67100000I0J800000D01*
G01*
X7500000Y-60700000D01*
G75*
G02*
X8300000Y-59900000I800000J0D01*
G01*
X14700000Y-59900000D01*
G75*
G02*
X15500000Y-60700000I0J-800000D01*
G01*
X15500000Y-67100000D01*
G75*
G02*
X14700000Y-67900000I-800000J0D01*
G01*
G37*
G36*
G01*
X14700000Y-62500000D02*
X8300000Y-62500000D01*
G75*
G02*
X7500000Y-61700000I0J800000D01*
G01*
X7500000Y-55300000D01*
G75*
G02*
X8300000Y-54500000I800000J0D01*
G01*
X14700000Y-54500000D01*
G75*
G02*
X15500000Y-55300000I0J-800000D01*
G01*
X15500000Y-61700000D01*
G75*
G02*
X14700000Y-62500000I-800000J0D01*
G01*
G37*
%TD*%
D10*
%TO.C,Fuse3*%
X126000000Y-63040000D03*
D11*
X126000000Y-60500000D03*
%TD*%
D16*
%TO.C,Fuse_3*%
X141000000Y-46000000D03*
X135000000Y-52500000D03*
X141000000Y-59000000D03*
X147500000Y-52500000D03*
X136500000Y-57500000D03*
X145500000Y-57500000D03*
X145500000Y-47500000D03*
X136500000Y-47500000D03*
X187500000Y-47500000D03*
X196500000Y-47500000D03*
X196500000Y-57500000D03*
X187500000Y-57500000D03*
X186000000Y-52500000D03*
X198500000Y-52500000D03*
X192000000Y-59000000D03*
X192000000Y-46000000D03*
G36*
G01*
X149850000Y-45700000D02*
X149850000Y-59300000D01*
G75*
G02*
X148150000Y-61000000I-1700000J0D01*
G01*
X134550000Y-61000000D01*
G75*
G02*
X132850000Y-59300000I0J1700000D01*
G01*
X132850000Y-45700000D01*
G75*
G02*
X134550000Y-44000000I1700000J0D01*
G01*
X148150000Y-44000000D01*
G75*
G02*
X149850000Y-45700000I0J-1700000D01*
G01*
G37*
G36*
G01*
X200650000Y-45700000D02*
X200650000Y-59300000D01*
G75*
G02*
X198950000Y-61000000I-1700000J0D01*
G01*
X185350000Y-61000000D01*
G75*
G02*
X183650000Y-59300000I0J1700000D01*
G01*
X183650000Y-45700000D01*
G75*
G02*
X185350000Y-44000000I1700000J0D01*
G01*
X198950000Y-44000000D01*
G75*
G02*
X200650000Y-45700000I0J-1700000D01*
G01*
G37*
D17*
X180000000Y-52000000D03*
G36*
G01*
X178600000Y-48800000D02*
X178600000Y-55200000D01*
G75*
G02*
X177800000Y-56000000I-800000J0D01*
G01*
X171400000Y-56000000D01*
G75*
G02*
X170600000Y-55200000I0J800000D01*
G01*
X170600000Y-48800000D01*
G75*
G02*
X171400000Y-48000000I800000J0D01*
G01*
X177800000Y-48000000D01*
G75*
G02*
X178600000Y-48800000I0J-800000D01*
G01*
G37*
X153500000Y-52000000D03*
G36*
G01*
X162900000Y-48800000D02*
X162900000Y-55200000D01*
G75*
G02*
X162100000Y-56000000I-800000J0D01*
G01*
X155700000Y-56000000D01*
G75*
G02*
X154900000Y-55200000I0J800000D01*
G01*
X154900000Y-48800000D01*
G75*
G02*
X155700000Y-48000000I800000J0D01*
G01*
X162100000Y-48000000D01*
G75*
G02*
X162900000Y-48800000I0J-800000D01*
G01*
G37*
%TD*%
%TO.C,Fuse_4*%
G36*
G01*
X29700000Y-59000000D02*
X23300000Y-59000000D01*
G75*
G02*
X22500000Y-58200000I0J800000D01*
G01*
X22500000Y-51800000D01*
G75*
G02*
X23300000Y-51000000I800000J0D01*
G01*
X29700000Y-51000000D01*
G75*
G02*
X30500000Y-51800000I0J-800000D01*
G01*
X30500000Y-58200000D01*
G75*
G02*
X29700000Y-59000000I-800000J0D01*
G01*
G37*
G36*
G01*
X29700000Y-53600000D02*
X23300000Y-53600000D01*
G75*
G02*
X22500000Y-52800000I0J800000D01*
G01*
X22500000Y-46400000D01*
G75*
G02*
X23300000Y-45600000I800000J0D01*
G01*
X29700000Y-45600000D01*
G75*
G02*
X30500000Y-46400000I0J-800000D01*
G01*
X30500000Y-52800000D01*
G75*
G02*
X29700000Y-53600000I-800000J0D01*
G01*
G37*
G36*
G01*
X29700000Y-37900000D02*
X23300000Y-37900000D01*
G75*
G02*
X22500000Y-37100000I0J800000D01*
G01*
X22500000Y-30700000D01*
G75*
G02*
X23300000Y-29900000I800000J0D01*
G01*
X29700000Y-29900000D01*
G75*
G02*
X30500000Y-30700000I0J-800000D01*
G01*
X30500000Y-37100000D01*
G75*
G02*
X29700000Y-37900000I-800000J0D01*
G01*
G37*
G36*
G01*
X29700000Y-32500000D02*
X23300000Y-32500000D01*
G75*
G02*
X22500000Y-31700000I0J800000D01*
G01*
X22500000Y-25300000D01*
G75*
G02*
X23300000Y-24500000I800000J0D01*
G01*
X29700000Y-24500000D01*
G75*
G02*
X30500000Y-25300000I0J-800000D01*
G01*
X30500000Y-31700000D01*
G75*
G02*
X29700000Y-32500000I-800000J0D01*
G01*
G37*
%TD*%
D12*
%TO.C,R8*%
X40540000Y-40340000D03*
D13*
X40540000Y-50500000D03*
%TD*%
D12*
%TO.C,R6*%
X13540000Y-40340000D03*
D13*
X13540000Y-50500000D03*
%TD*%
D12*
%TO.C,R5*%
X61000000Y-55340000D03*
D13*
X61000000Y-65500000D03*
%TD*%
D12*
%TO.C,R4*%
X78000000Y-55340000D03*
D13*
X78000000Y-65500000D03*
%TD*%
%TO.C,R3*%
X129840000Y-16500000D03*
D12*
X140000000Y-16500000D03*
%TD*%
%TO.C,R2*%
X129840000Y-64500000D03*
D13*
X140000000Y-64500000D03*
%TD*%
D15*
%TO.C,H24*%
X121000000Y-98500000D03*
%TD*%
%TO.C,H7*%
X20000000Y-98500000D03*
%TD*%
D10*
%TO.C,Fuse8*%
X126000000Y-20540000D03*
D11*
X126000000Y-18000000D03*
%TD*%
D10*
%TO.C,Fuse6*%
X-12460000Y-70500000D03*
D11*
X-15000000Y-70500000D03*
%TD*%
D10*
%TO.C,Fuse5*%
X44000000Y-40500000D03*
D11*
X46540000Y-40500000D03*
%TD*%
D10*
%TO.C,Fuse4*%
X17000000Y-40500000D03*
D11*
X19540000Y-40500000D03*
%TD*%
D10*
%TO.C,Fuse2*%
X62540000Y-70500000D03*
D11*
X60000000Y-70500000D03*
%TD*%
D10*
%TO.C,Fuse1*%
X79540000Y-70500000D03*
D11*
X77000000Y-70500000D03*
%TD*%
D18*
%TO.C,J12*%
X129085000Y14500000D03*
X121465000Y14500000D03*
%TD*%
%TO.C,J10*%
X86620000Y14500000D03*
X79000000Y14500000D03*
%TD*%
D14*
%TO.C,J15*%
X-16000000Y-41500000D03*
X-16000000Y-36500000D03*
%TD*%
D18*
%TO.C,J13*%
X27380000Y-95500000D03*
X35000000Y-95500000D03*
%TD*%
%TO.C,J1*%
X72680000Y-95500000D03*
X80300000Y-95500000D03*
%TD*%
%TO.C,Fuse_7*%
G36*
G01*
X-2300000Y-89000000D02*
X-8700000Y-89000000D01*
G75*
G02*
X-9500000Y-88200000I0J800000D01*
G01*
X-9500000Y-81800000D01*
G75*
G02*
X-8700000Y-81000000I800000J0D01*
G01*
X-2300000Y-81000000D01*
G75*
G02*
X-1500000Y-81800000I0J-800000D01*
G01*
X-1500000Y-88200000D01*
G75*
G02*
X-2300000Y-89000000I-800000J0D01*
G01*
G37*
G36*
G01*
X-2300000Y-83600000D02*
X-8700000Y-83600000D01*
G75*
G02*
X-9500000Y-82800000I0J800000D01*
G01*
X-9500000Y-76400000D01*
G75*
G02*
X-8700000Y-75600000I800000J0D01*
G01*
X-2300000Y-75600000D01*
G75*
G02*
X-1500000Y-76400000I0J-800000D01*
G01*
X-1500000Y-82800000D01*
G75*
G02*
X-2300000Y-83600000I-800000J0D01*
G01*
G37*
G36*
G01*
X-2300000Y-67900000D02*
X-8700000Y-67900000D01*
G75*
G02*
X-9500000Y-67100000I0J800000D01*
G01*
X-9500000Y-60700000D01*
G75*
G02*
X-8700000Y-59900000I800000J0D01*
G01*
X-2300000Y-59900000D01*
G75*
G02*
X-1500000Y-60700000I0J-800000D01*
G01*
X-1500000Y-67100000D01*
G75*
G02*
X-2300000Y-67900000I-800000J0D01*
G01*
G37*
G36*
G01*
X-2300000Y-62500000D02*
X-8700000Y-62500000D01*
G75*
G02*
X-9500000Y-61700000I0J800000D01*
G01*
X-9500000Y-55300000D01*
G75*
G02*
X-8700000Y-54500000I800000J0D01*
G01*
X-2300000Y-54500000D01*
G75*
G02*
X-1500000Y-55300000I0J-800000D01*
G01*
X-1500000Y-61700000D01*
G75*
G02*
X-2300000Y-62500000I-800000J0D01*
G01*
G37*
%TD*%
%TO.C,Fuse_2*%
G36*
G01*
X72700000Y-89000000D02*
X66300000Y-89000000D01*
G75*
G02*
X65500000Y-88200000I0J800000D01*
G01*
X65500000Y-81800000D01*
G75*
G02*
X66300000Y-81000000I800000J0D01*
G01*
X72700000Y-81000000D01*
G75*
G02*
X73500000Y-81800000I0J-800000D01*
G01*
X73500000Y-88200000D01*
G75*
G02*
X72700000Y-89000000I-800000J0D01*
G01*
G37*
G36*
G01*
X72700000Y-83600000D02*
X66300000Y-83600000D01*
G75*
G02*
X65500000Y-82800000I0J800000D01*
G01*
X65500000Y-76400000D01*
G75*
G02*
X66300000Y-75600000I800000J0D01*
G01*
X72700000Y-75600000D01*
G75*
G02*
X73500000Y-76400000I0J-800000D01*
G01*
X73500000Y-82800000D01*
G75*
G02*
X72700000Y-83600000I-800000J0D01*
G01*
G37*
G36*
G01*
X72700000Y-67900000D02*
X66300000Y-67900000D01*
G75*
G02*
X65500000Y-67100000I0J800000D01*
G01*
X65500000Y-60700000D01*
G75*
G02*
X66300000Y-59900000I800000J0D01*
G01*
X72700000Y-59900000D01*
G75*
G02*
X73500000Y-60700000I0J-800000D01*
G01*
X73500000Y-67100000D01*
G75*
G02*
X72700000Y-67900000I-800000J0D01*
G01*
G37*
G36*
G01*
X72700000Y-62500000D02*
X66300000Y-62500000D01*
G75*
G02*
X65500000Y-61700000I0J800000D01*
G01*
X65500000Y-55300000D01*
G75*
G02*
X66300000Y-54500000I800000J0D01*
G01*
X72700000Y-54500000D01*
G75*
G02*
X73500000Y-55300000I0J-800000D01*
G01*
X73500000Y-61700000D01*
G75*
G02*
X72700000Y-62500000I-800000J0D01*
G01*
G37*
%TD*%
%TO.C,Fuse_1*%
G36*
G01*
X89700000Y-89000000D02*
X83300000Y-89000000D01*
G75*
G02*
X82500000Y-88200000I0J800000D01*
G01*
X82500000Y-81800000D01*
G75*
G02*
X83300000Y-81000000I800000J0D01*
G01*
X89700000Y-81000000D01*
G75*
G02*
X90500000Y-81800000I0J-800000D01*
G01*
X90500000Y-88200000D01*
G75*
G02*
X89700000Y-89000000I-800000J0D01*
G01*
G37*
G36*
G01*
X89700000Y-83600000D02*
X83300000Y-83600000D01*
G75*
G02*
X82500000Y-82800000I0J800000D01*
G01*
X82500000Y-76400000D01*
G75*
G02*
X83300000Y-75600000I800000J0D01*
G01*
X89700000Y-75600000D01*
G75*
G02*
X90500000Y-76400000I0J-800000D01*
G01*
X90500000Y-82800000D01*
G75*
G02*
X89700000Y-83600000I-800000J0D01*
G01*
G37*
G36*
G01*
X89700000Y-67900000D02*
X83300000Y-67900000D01*
G75*
G02*
X82500000Y-67100000I0J800000D01*
G01*
X82500000Y-60700000D01*
G75*
G02*
X83300000Y-59900000I800000J0D01*
G01*
X89700000Y-59900000D01*
G75*
G02*
X90500000Y-60700000I0J-800000D01*
G01*
X90500000Y-67100000D01*
G75*
G02*
X89700000Y-67900000I-800000J0D01*
G01*
G37*
G36*
G01*
X89700000Y-62500000D02*
X83300000Y-62500000D01*
G75*
G02*
X82500000Y-61700000I0J800000D01*
G01*
X82500000Y-55300000D01*
G75*
G02*
X83300000Y-54500000I800000J0D01*
G01*
X89700000Y-54500000D01*
G75*
G02*
X90500000Y-55300000I0J-800000D01*
G01*
X90500000Y-61700000D01*
G75*
G02*
X89700000Y-62500000I-800000J0D01*
G01*
G37*
%TD*%
%TO.C,Fuse_5*%
G36*
G01*
X56700000Y-59000000D02*
X50300000Y-59000000D01*
G75*
G02*
X49500000Y-58200000I0J800000D01*
G01*
X49500000Y-51800000D01*
G75*
G02*
X50300000Y-51000000I800000J0D01*
G01*
X56700000Y-51000000D01*
G75*
G02*
X57500000Y-51800000I0J-800000D01*
G01*
X57500000Y-58200000D01*
G75*
G02*
X56700000Y-59000000I-800000J0D01*
G01*
G37*
G36*
G01*
X56700000Y-53600000D02*
X50300000Y-53600000D01*
G75*
G02*
X49500000Y-52800000I0J800000D01*
G01*
X49500000Y-46400000D01*
G75*
G02*
X50300000Y-45600000I800000J0D01*
G01*
X56700000Y-45600000D01*
G75*
G02*
X57500000Y-46400000I0J-800000D01*
G01*
X57500000Y-52800000D01*
G75*
G02*
X56700000Y-53600000I-800000J0D01*
G01*
G37*
G36*
G01*
X56700000Y-37900000D02*
X50300000Y-37900000D01*
G75*
G02*
X49500000Y-37100000I0J800000D01*
G01*
X49500000Y-30700000D01*
G75*
G02*
X50300000Y-29900000I800000J0D01*
G01*
X56700000Y-29900000D01*
G75*
G02*
X57500000Y-30700000I0J-800000D01*
G01*
X57500000Y-37100000D01*
G75*
G02*
X56700000Y-37900000I-800000J0D01*
G01*
G37*
G36*
G01*
X56700000Y-32500000D02*
X50300000Y-32500000D01*
G75*
G02*
X49500000Y-31700000I0J800000D01*
G01*
X49500000Y-25300000D01*
G75*
G02*
X50300000Y-24500000I800000J0D01*
G01*
X56700000Y-24500000D01*
G75*
G02*
X57500000Y-25300000I0J-800000D01*
G01*
X57500000Y-31700000D01*
G75*
G02*
X56700000Y-32500000I-800000J0D01*
G01*
G37*
%TD*%
M02*
