M48
; DRILL file {KiCad (5.1.8)-1} date 07/20/21 16:41:22
; FORMAT={-:-/ absolute / inch / decimal}
; #@! TF.CreationDate,2021-07-20T16:41:22+02:00
; #@! TF.GenerationSoftware,Kicad,Pcbnew,(5.1.8)-1
; #@! TF.FileFunction,Plated,1,2,PTH
FMAT,2
INCH
T1C0.0236
T2C0.0315
T3C0.0354
T4C0.0394
T5C0.0512
T6C0.0630
T7C0.1024
T8C0.1535
T9C0.2047
T10C0.2756
T11C0.2992
T12C0.3228
T13C0.4016
%
G90
G05
T1
X0.2756Y0.2165
X0.2756Y-0.5315
X0.3346Y0.374
X0.3346Y0.0787
X0.3346Y-0.374
X0.3346Y-0.689
X0.4921Y0.4331
X0.4921Y0.0
X0.4921Y-0.315
X0.4921Y-0.748
X0.6496Y0.374
X0.6496Y0.0787
X0.6496Y-0.374
X0.6496Y-0.689
X0.7087Y0.2165
X0.7087Y-0.5315
X3.7945Y-0.5195
X3.7945Y-2.6758
X3.8644Y-0.3289
X3.8644Y-0.7226
X3.8695Y-2.4789
X3.8695Y-2.8695
X4.0945Y-0.2195
X4.0945Y-0.8195
X4.0945Y-2.3695
X4.0945Y-2.9695
X4.3195Y-0.3289
X4.3195Y-0.7226
X4.3195Y-2.4789
X4.3195Y-2.8695
X4.3945Y-0.5195
X4.3945Y-2.6695
X5.315Y-2.0669
X5.374Y-1.8701
X5.374Y-2.2638
X5.5512Y-1.811
X5.5512Y-2.3228
X5.7283Y-1.8701
X5.7283Y-2.2638
X5.8071Y-2.0669
X7.3228Y-2.0669
X7.3819Y-1.8701
X7.3819Y-2.2638
X7.5591Y-1.811
X7.5591Y-2.3228
X7.7362Y-1.8701
X7.7362Y-2.2638
X7.815Y-2.0669
X1.3386Y0.2165
X1.3386Y-0.5315
X1.3976Y0.374
X1.3976Y0.0787
X1.3976Y-0.374
X1.3976Y-0.689
X1.5551Y0.4331
X1.5551Y0.0
X1.5551Y-0.315
X1.5551Y-0.748
X1.7126Y0.374
X1.7126Y0.0787
X1.7126Y-0.374
X1.7126Y-0.689
X1.7717Y0.2165
X1.7717Y-0.5315
X2.4016Y0.2098
X2.4016Y-0.5382
X2.4606Y0.3673
X2.4606Y0.072
X2.4606Y-0.3807
X2.4606Y-0.6957
X2.6181Y0.4264
X2.6181Y-0.0067
X2.6181Y-0.3217
X2.6181Y-0.7547
X2.7756Y0.3673
X2.7756Y0.072
X2.7756Y-0.3807
X2.7756Y-0.6957
X2.8346Y0.2098
X2.8346Y-0.5382
X5.9213Y0.0394
X6.0197Y0.2559
X6.0197Y-0.1772
X6.1969Y0.315
X6.1969Y-0.2362
X6.374Y0.2559
X6.374Y-0.1772
X6.4724Y0.0394
X6.8504Y0.0394
X6.9488Y0.2559
X6.9488Y-0.1772
X7.126Y0.315
X7.126Y-0.2362
X7.3031Y0.2559
X7.3031Y-0.1772
X7.4016Y0.0394
X5.315Y-1.122
X5.374Y-0.9252
X5.374Y-1.3189
X5.5512Y-0.8661
X5.5512Y-1.378
X5.7283Y-0.9252
X5.7283Y-1.3189
X5.8071Y-1.122
X7.3228Y-1.122
X7.3819Y-0.9252
X7.3819Y-1.3189
X7.5591Y-0.8661
X7.5591Y-1.378
X7.7362Y-0.9252
X7.7362Y-1.3189
X7.815Y-1.122
X5.9213Y-3.2283
X6.0197Y-3.0118
X6.0197Y-3.4449
X6.1969Y-2.9528
X6.1969Y-3.5039
X6.374Y-3.0118
X6.374Y-3.4449
X6.4724Y-3.2283
X6.8504Y-3.2283
X6.9488Y-3.0118
X6.9488Y-3.4449
X7.126Y-2.9528
X7.126Y-3.5039
X7.3031Y-3.0118
X7.3031Y-3.4449
X7.4016Y-3.2283
T2
X0.5331Y-1.5882
X0.5331Y-1.9882
X0.1181Y-2.1787
X0.1181Y-2.5787
X3.0709Y-2.1787
X3.0709Y-2.5787
X5.1118Y-2.5394
X5.5118Y-2.5394
X2.4016Y-2.1787
X2.4016Y-2.5787
X-0.5512Y-2.1787
X-0.5512Y-2.5787
X1.5961Y-1.5882
X1.5961Y-1.9882
X5.1118Y-0.6496
X5.5118Y-0.6496
T3
X4.9606Y-2.3819
X4.9606Y-2.4819
X4.9606Y-0.7087
X4.9606Y-0.8087
X3.0315Y-2.7756
X3.1315Y-2.7756
X1.7323Y-1.5945
X1.8323Y-1.5945
X0.0787Y-2.7756
X0.1787Y-2.7756
X-0.5906Y-2.7756
X-0.4906Y-2.7756
X2.3622Y-2.7756
X2.4622Y-2.7756
X0.6693Y-1.5945
X0.7693Y-1.5945
T4
X6.5732Y-0.6693
X6.6732Y-0.6693
T5
X-0.6299Y-1.437
X-0.6299Y-1.6339
X-0.6299Y-1.8307
X-0.6299Y-2.0276
T6
X3.1102Y0.5709
X3.4102Y0.5709
X1.674Y-3.7598
X1.974Y-3.7598
X-0.0126Y-3.7598
X0.2874Y-3.7598
X2.8614Y-3.7598
X3.1614Y-3.7598
X1.078Y-3.7598
X1.378Y-3.7598
X4.7821Y0.5709
X5.0821Y0.5709
T7
X-0.137Y0.4134
X-0.137Y0.0083
X-0.137Y-0.3366
X-0.137Y-0.7417
X0.0591Y0.4134
X0.0591Y0.0083
X0.0591Y-0.3366
X0.0591Y-0.7417
X1.989Y0.4134
X1.989Y0.0083
X1.989Y-0.3366
X1.989Y-0.7417
X2.185Y0.4134
X2.185Y0.0083
X2.185Y-0.3366
X2.185Y-0.7417
X0.926Y0.4134
X0.926Y0.0083
X0.926Y-0.3366
X0.926Y-0.7417
X1.122Y0.4134
X1.122Y0.0083
X1.122Y-0.3366
X1.122Y-0.7417
T8
X-0.2362Y-2.2441
X-0.2362Y-2.5748
X-0.2362Y-3.0748
X-0.2362Y-3.4055
X0.4331Y-2.2441
X0.4331Y-2.5748
X0.4331Y-3.0748
X0.4331Y-3.4055
X2.0866Y-1.063
X2.0866Y-1.3937
X2.0866Y-1.8937
X2.0866Y-2.2244
X5.9843Y-2.0669
X6.315Y-2.0669
X6.815Y-2.0669
X7.1457Y-2.0669
X3.3858Y-2.2441
X3.3858Y-2.5748
X3.3858Y-3.0748
X3.3858Y-3.4055
X1.0236Y-1.063
X1.0236Y-1.3937
X1.0236Y-1.8937
X1.0236Y-2.2244
X5.9843Y-1.122
X6.315Y-1.122
X6.815Y-1.122
X7.1457Y-1.122
X2.7165Y-2.2441
X2.7165Y-2.5748
X2.7165Y-3.0748
X2.7165Y-3.4055
T9
X1.3701Y-3.248
X1.6811Y-3.248
T10
X0.4921Y0.2205
X0.4921Y-0.5315
X1.5551Y0.2205
X1.5551Y-0.5315
X2.6181Y0.2138
X2.6181Y-0.5382
T11
X6.1969Y0.0394
X7.126Y0.0394
X6.1969Y-3.2283
X7.126Y-3.2283
T12
X5.565Y-2.0669
X7.565Y-2.0669
X5.565Y-1.122
X7.565Y-1.122
T13
X4.0945Y-0.5118
X4.0945Y-2.6772
T0
M30
