M48
; DRILL file {KiCad (5.1.8)-1} date 07/20/21 16:41:22
; FORMAT={-:-/ absolute / inch / decimal}
; #@! TF.CreationDate,2021-07-20T16:41:22+02:00
; #@! TF.GenerationSoftware,Kicad,Pcbnew,(5.1.8)-1
; #@! TF.FileFunction,NonPlated,1,2,NPTH
FMAT,2
INCH
T1C0.1260
%
G90
G05
T1
X0.2756Y-0.1555
X0.7087Y-0.1555
X5.5709Y-3.2283
X0.7087Y-1.9488
X1.7717Y-1.9488
X6.1969Y-2.6575
X-0.5906Y-3.878
X5.5709Y0.0394
X1.5551Y-1.0039
X1.0236Y-3.1299
X6.1969Y-0.5315
X5.3937Y0.689
X0.7874Y-3.878
X7.126Y-3.7992
X1.3386Y-0.1555
X1.7717Y-0.1555
X2.6181Y-1.0039
X2.2835Y-3.878
X2.0276Y-3.1299
X7.874Y0.689
X0.1181Y-3.1299
X2.4016Y-0.1622
X2.8346Y-0.1622
X0.4921Y-1.0039
X6.1496Y-1.5945
X6.9685Y-1.5945
X6.1969Y-3.7992
X-0.5906Y-1.0039
X7.874Y-3.878
X4.7638Y-3.878
X-0.5906Y-3.1299
X1.5551Y0.689
X7.126Y0.6102
X6.1969Y0.6102
X2.4016Y-3.1299
X2.6181Y0.689
X7.7559Y0.0394
X0.4921Y0.689
X3.0709Y-3.1299
X7.126Y-0.5315
X7.7559Y-3.2283
X-0.5906Y0.689
X7.126Y-2.6575
T0
M30
